<?xml version="1.0" encoding="utf-8"?>
<!-- Generator: Adobe Illustrator 22.1.0, SVG Export Plug-In . SVG Version: 6.00 Build 0)  -->
<svg version="1.1" id="Layer_4_1_" xmlns="http://www.w3.org/2000/svg" xmlns:xlink="http://www.w3.org/1999/xlink" x="0px" y="0px"
	 viewBox="0 0 37 37" style="enable-background:new 0 0 37 37;" xml:space="preserve">
<style type="text/css">
	.st0{fill:#000;}
	.st1{opacity:0.5;}
</style>
<polygon class="st0" points="18.1,20.2 18.1,16.6 16.2,20.2 "/>
<circle class="st0" cx="17.7" cy="22.9" r="0.5"/>
<circle class="st0" cx="16.2" cy="22.9" r="0.5"/>
<path class="st0" d="M11.9,19.7L11.9,19.7l0-2.4c0.2-0.1,0.3-0.2,0.3-0.5c0-0.3-0.2-0.5-0.5-0.5c-0.3,0-0.5,0.2-0.5,0.5
	c0,0.2,0.1,0.4,0.3,0.5v2.1l-0.8-0.8v-2c0.2-0.1,0.3-0.2,0.3-0.5c0-0.3-0.2-0.5-0.5-0.5c-0.3,0-0.5,0.2-0.5,0.5
	c0,0.2,0.1,0.4,0.3,0.5v1.7l-1.4-1.5v1l3.6,3.6v11.2l0.6,0.6V21.1L11.9,19.7z"/>
<polygon class="st0" points="5.4,13.2 3.9,14.9 9.6,10.9 10.2,9.8 "/>
<polygon class="st0" points="15.1,1.4 13.9,2.8 13.9,3.6 13.2,4.4 13.2,3.6 12.7,4.2 12.7,4.9 12,5.7 12,5 11.5,5.7 11.5,6.3 
	10.8,7 10.8,6.5 10.4,7 9.2,9.6 7.1,11 6,12.4 10.4,9.3 10.8,8.5 15.4,5.3 15.4,1.3 "/>
<path class="st0" d="M18.2,0.5l-0.6,0.2v0.8l-0.7,0.3V0.8L16.5,1v0.8L16,2v3.5l-4.8,3.4L10,11.3l-7.3,5.2l-2.2,2.7L17.5,7.5v1.9
	l-4.3,3.1v1.8h-1.5v1.1h1.1v4.6L14,21v9l0.4,0.4v-9.6l-1.1-1.2v-4.4h0.5v3.9l1,0.9l0,7.3l1.5,1.5v7.2l0.4,0.4v-7.8L15,27.3l0-7.3
	l-1-0.9v-3.8h1.5v-1.1h-0.9v-0.6l2.9-1.9V9.8l0.4-0.3V7.3L18.2,7V0.5z M17.1,11.5l-2.9,1.9v0.8h-0.6v-1.6l3.5-2.5V11.5z"/>
<polygon class="st0" points="5.7,20.8 5.4,20.8 3.8,21.8 3.8,23.5 5.7,25.5 "/>
<polygon class="st0" points="7.8,21.9 6.8,20.8 6.1,20.8 6.1,25.9 7.8,27.7 "/>
<polygon class="st0" points="8.2,22.2 8.2,28.1 9.9,29.9 9.9,24 "/>
<g class="st1">
	<polygon class="st0" points="10.4,30.3 10.4,23.5 7.2,20.3 5.3,20.3 3.5,21.3 3.6,21.6 5.3,20.5 7.1,20.5 10.3,23.7 10.3,30.2 	"/>
	<polygon class="st0" points="5.3,17.7 7.4,17.7 9.8,20.1 10.2,20.1 7.2,17 5.5,17 2.1,19.2 2.2,19.5 	"/>
	<polygon class="st0" points="10.9,30.5 10.9,29.2 12,30.3 12,29.9 10.9,28.8 10.9,27.5 12,28.6 12,28.3 10.9,27.2 10.9,25.9 12,27 
		12,21.9 10.7,20.6 9.6,20.6 7.2,18.2 5.4,18.2 2.5,19.9 2.7,20.1 3.4,19.6 3.9,20.5 3.2,20.9 3.3,21.1 5.2,20 7.3,20 7.3,20.1 
		10.6,23.4 10.6,30.5 12,32 12,31.6 	"/>
</g>
<polygon class="st0" points="18.9,20.2 18.9,16.6 20.8,20.2 "/>
<circle class="st0" cx="19.3" cy="22.9" r="0.5"/>
<circle class="st0" cx="20.8" cy="22.9" r="0.5"/>
<path class="st0" d="M25.1,19.7L25.1,19.7l0-2.4c-0.2-0.1-0.3-0.2-0.3-0.5c0-0.3,0.2-0.5,0.5-0.5c0.3,0,0.5,0.2,0.5,0.5
	c0,0.2-0.1,0.4-0.3,0.5v2.1l0.8-0.8v-2c-0.2-0.1-0.3-0.2-0.3-0.5c0-0.3,0.2-0.5,0.5-0.5c0.3,0,0.5,0.2,0.5,0.5
	c0,0.2-0.1,0.4-0.3,0.5v1.7l1.4-1.5v1l-3.6,3.6v11.2l-0.6,0.6V21.1L25.1,19.7z"/>
<polygon class="st0" points="31.6,13.2 33.1,14.9 27.4,10.9 26.8,9.8 "/>
<polygon class="st0" points="21.9,1.4 23.1,2.8 23.1,3.6 23.8,4.4 23.8,3.6 24.3,4.2 24.3,4.9 25,5.7 25,5 25.5,5.7 25.5,6.3 
	26.2,7 26.2,6.5 26.6,7 27.8,9.6 29.9,11 31,12.4 26.6,9.3 26.2,8.5 21.6,5.3 21.6,1.3 "/>
<path class="st0" d="M18.8,7l0.3,0.2v2.3l0.4,0.3v1.8l2.9,1.9v0.6h-0.9v1.1h1.5v3.8L22,20l0,7.3l-1.5,1.5v7.8l0.4-0.4v-7.2l1.5-1.5
	l0-7.3l1-0.9v-3.9h0.5v4.4l-1.1,1.2v9.6L23,30v-9l1.1-1.2v-4.6h1.1v-1.1h-1.5v-1.8l-4.3-3.1V7.5l17.1,11.6l-2.2-2.7L27,11.3
	l-1.2-2.4L21,5.5V2l-0.6-0.2V1l-0.4-0.1v0.9l-0.7-0.3V0.6l-0.6-0.2V7z M19.9,10.1l3.5,2.5v1.6h-0.6v-0.8l-2.9-1.9V10.1z"/>
<polygon class="st0" points="31.3,20.8 31.6,20.8 33.2,21.8 33.2,23.5 31.3,25.5 "/>
<polygon class="st0" points="29.2,21.9 30.2,20.8 30.9,20.8 30.9,25.9 29.2,27.7 "/>
<polygon class="st0" points="28.8,22.2 28.8,28.1 27.1,29.9 27.1,24 "/>
<g class="st1">
	<polygon class="st0" points="26.6,30.3 26.6,23.5 29.8,20.3 31.7,20.3 33.5,21.3 33.4,21.6 31.7,20.5 29.9,20.5 26.7,23.7 
		26.7,30.2 	"/>
	<polygon class="st0" points="31.7,17.7 29.6,17.7 27.2,20.1 26.8,20.1 29.8,17 31.5,17 34.9,19.2 34.8,19.5 	"/>
	<polygon class="st0" points="26.1,30.5 26.1,29.2 25,30.3 25,29.9 26.1,28.8 26.1,27.5 25,28.6 25,28.3 26.1,27.2 26.1,25.9 25,27 
		25,21.9 26.3,20.6 27.4,20.6 29.8,18.2 31.6,18.2 34.5,19.9 34.3,20.1 33.6,19.6 33.1,20.5 33.8,20.9 33.7,21.1 31.8,20 29.7,20 
		29.7,20.1 26.4,23.4 26.4,30.5 25,32 25,31.6 	"/>
</g>
</svg>
