<?xml version="1.0" encoding="UTF-8"?>
<svg width="391px" height="391px" viewBox="0 0 391 391" xmlns="http://www.w3.org/2000/svg" xmlns:xlink="http://www.w3.org/1999/xlink" version="1.1">
 <!-- Generated by Pixelmator Pro 2.1.2 -->
 <path id="Shape" d="M192.8 390.985 C189.885 390.976 186.825 390.533 186 390 185.175 389.467 180.595 389.024 175.821 389.015 169.912 389.005 166.715 388.572 165.801 387.658 165.063 386.92 163.343 385.727 161.979 385.008 160.616 384.289 159.275 383.385 159 383 158.725 382.615 157.375 381.715 156 381 154.625 380.285 153.275 379.385 153 379 152.725 378.615 151.409 377.724 150.077 377.022 148.744 376.319 146.637 374.728 145.395 373.486 144.153 372.244 141.249 367.464 138.942 362.864 136.635 358.264 134.415 354.275 134.008 354 133.601 353.725 132.232 351.475 130.965 349 129.698 346.525 128.469 343.53 128.232 342.344 127.996 341.158 128.323 338.683 128.959 336.844 129.942 334.003 129.792 332.673 127.962 328 126.778 324.975 124.929 320.025 123.853 317 122.778 313.975 120.62 308.575 119.058 305 117.496 301.425 115.269 296.138 114.109 293.25 112.949 290.362 111.114 285.862 110.031 283.25 108.948 280.638 106.86 274.9 105.391 270.5 103.922 266.1 102.438 260.925 102.093 259 101.728 256.962 100.88 255.5 100.063 255.5 99.235 255.5 98.027 257.649 97.111 260.75 96.259 263.638 95.315 266 95.014 266 94.712 266 91.367 259.813 87.58 252.25 83.793 244.688 80.285 236.7 79.785 234.5 79.284 232.3 78.47 228.475 77.975 226 77.48 223.525 76.77 219.925 76.396 218 76.022 216.075 74.724 213.573 73.511 212.439 72.298 211.306 70.53 207.706 69.583 204.439 68.636 201.173 67.407 196.7 66.852 194.5 66.297 192.3 64.969 187.575 63.901 184 62.662 179.85 61.877 173.885 61.73 167.5 61.525 158.576 61.307 157.516 59.708 157.646 58.722 157.726 57.094 158.739 56.09 159.896 55.087 161.053 53.706 162 53.023 162 52.178 162 51.953 160.961 52.318 158.75 52.614 156.962 53.366 153.475 53.99 151 54.615 148.525 55.566 144.25 56.105 141.5 56.644 138.75 57.178 135.375 57.292 134 57.499 131.517 57.437 131.498 48.25 131.212 42.733 131.041 39 130.508 39 129.891 39 129.322 39.572 128.285 40.271 127.587 40.969 126.888 42.657 125.72 44.021 124.992 45.384 124.263 47.625 122.467 49 121 50.375 119.533 52.625 117.737 54 117.009 55.375 116.282 57.175 114.927 58 114 58.825 113.073 60.564 111.75 61.866 111.06 63.167 110.37 67.06 106.977 70.519 103.519 73.977 100.06 77.361 96.194 78.04 94.926 78.718 93.658 81.909 90.034 85.13 86.873 88.351 83.711 91.489 80.021 92.103 78.672 92.718 77.324 94.331 75.714 95.689 75.096 97.046 74.477 97.975 73.415 97.752 72.736 97.528 72.056 95.806 71.358 93.923 71.185 92.04 71.012 88.679 70.261 86.454 69.517 84.229 68.772 80.854 67.496 78.954 66.682 77.054 65.868 73.588 64.413 71.25 63.449 68.912 62.485 67 61.09 67 60.348 67 59.432 68.34 59 71.179 59 73.477 59 76.74 58.581 78.429 58.068 80.118 57.555 83.412 56.655 85.75 56.068 88.088 55.48 91.912 54.469 94.25 53.82 96.588 53.17 100.75 51.52 103.5 50.153 106.25 48.785 109.625 47.481 111 47.254 112.375 47.028 114.738 46.428 116.25 45.921 117.762 45.415 120.388 44.48 122.085 43.843 123.782 43.207 125.723 42.134 126.398 41.459 127.073 40.784 129.622 39.215 132.063 37.972 134.503 36.73 137.175 34.939 138 33.993 138.825 33.047 143.325 30.354 148 28.01 152.675 25.666 156.833 23.242 157.24 22.624 157.646 22.006 157.76 20.903 157.492 20.174 157.223 19.444 155.275 17.185 153.161 15.155 151.047 13.124 148.725 10.346 148.002 8.981 147.278 7.616 145.968 5.825 145.091 5 144.214 4.175 142.915 2.756 142.205 1.846 141.041 0.354 141.237 0.268 144.207 0.977 146.018 1.409 149.525 2.453 152 3.297 154.475 4.14 158.75 5.115 161.5 5.464 164.25 5.812 168.075 6.091 170 6.085 171.925 6.078 177.325 5.599 182 5.02 186.675 4.442 191.625 3.973 193 3.979 194.375 3.985 199.55 4.395 204.5 4.89 209.45 5.385 215.3 6.215 217.5 6.733 219.7 7.251 224.382 9.14 227.905 10.931 231.428 12.721 236.394 16.325 238.941 18.94 243.572 23.694 243.572 23.694 251.867 23.214 256.43 22.95 261.814 23.208 263.831 23.789 265.849 24.369 269.798 25.517 272.606 26.338 275.414 27.16 281.489 29.732 286.106 32.053 290.723 34.374 295.175 37.041 296 37.979 296.825 38.918 298.625 40.274 300 40.993 301.375 41.711 302.725 42.625 303 43.023 303.275 43.422 307.325 45.661 312 48 316.675 50.339 320.725 52.589 321 53 321.275 53.411 325.287 55.647 329.916 57.968 334.545 60.29 338.853 62.709 339.49 63.345 340.127 63.98 342.977 65.589 345.824 66.921 348.671 68.252 351 69.715 351 70.171 351 70.627 347.063 71.007 342.25 71.015 337.438 71.024 332.877 71.425 332.115 71.908 331.211 72.48 330.951 73.668 331.366 75.323 331.716 76.718 332.625 78.482 333.386 79.243 334.146 80.003 335.781 82.622 337.018 85.063 338.256 87.503 339.598 89.725 340 90 340.402 90.275 341.727 92.463 342.943 94.862 344.159 97.261 346.071 101.986 347.192 105.362 348.312 108.738 349.455 112.513 349.731 113.75 350.044 115.151 349.761 116 348.984 116 348.297 116 347.007 115.171 346.117 114.157 345.228 113.143 343.375 111.726 342 111.007 340.625 110.289 339.275 109.385 339 109 338.725 108.615 337.375 107.715 336 107 334.625 106.285 333.35 105.318 333.167 104.85 332.983 104.383 332.143 104 331.3 104 330.126 104 329.93 104.643 330.462 106.75 330.845 108.263 331.517 112.875 331.956 117 332.395 121.125 332.532 124.725 332.26 125 331.988 125.275 331.256 124.674 330.633 123.665 330.01 122.656 328.784 120.982 327.908 119.945 327.033 118.907 325.61 117.787 324.746 117.456 323.403 116.941 323.237 117.696 323.592 122.677 323.821 125.88 324.061 134.575 324.125 142 324.189 149.425 324.187 158.313 324.121 161.75 324.054 165.188 323.606 168 323.125 168 322.644 168 321.98 166.65 321.65 165 321.314 163.32 320.411 162 319.598 162 318.483 162 318.044 163.91 317.702 170.25 317.458 174.788 316.717 180.525 316.057 183 315.396 185.475 314.614 188.962 314.318 190.75 313.976 192.824 314.192 194 314.917 194 315.542 194 318.102 191.951 320.606 189.446 324.744 185.308 325.54 184.921 329.33 185.196 333.5 185.5 333.5 185.5 333.788 203 334.051 219.022 333.895 220.922 331.938 225.5 330.762 228.25 328.422 233.425 326.739 237 325.056 240.575 323.041 245.295 322.262 247.489 321.483 249.683 320.497 251.708 320.072 251.989 319.647 252.27 318.711 253.625 317.993 255 317.274 256.375 315.927 258.175 315 259 314.073 259.825 312.723 261.625 312 263 311.277 264.375 309.746 266.324 308.597 267.331 307.053 268.683 305.46 269.036 302.504 268.679 300.302 268.414 297.6 268.04 296.5 267.848 294.816 267.555 294.448 268.131 294.174 271.5 293.994 273.7 294.404 277.188 295.084 279.25 296.039 282.146 296.056 283.911 295.159 287 294.521 289.2 292.851 294.699 291.449 299.222 290.047 303.744 288.532 307.682 288.084 307.972 287.636 308.262 286.248 310.525 285 313 283.752 315.475 282.4 317.725 281.995 318 281.589 318.275 279.792 321.425 278 325 276.208 328.575 274.408 331.725 274 332 273.592 332.275 271.804 335.391 270.027 338.923 268.25 342.456 266.238 345.905 265.555 346.588 264.872 347.271 263.731 349.235 263.019 350.953 262.308 352.671 260.775 354.577 259.613 355.188 258.451 355.799 257.275 356.622 257 357.015 256.725 357.409 254.475 358.752 252 360 249.525 361.248 247.275 362.6 247 363.005 246.725 363.411 243.575 365.208 240 367 236.425 368.792 233.275 370.592 233 371 232.725 371.408 229.575 373.208 226 375 222.425 376.792 219.275 378.592 219 379 218.725 379.408 215.575 381.208 212 383 208.425 384.792 205.275 386.587 205 386.989 204.725 387.392 203.06 388.459 201.3 389.36 199.505 390.28 195.772 390.993 192.8 390.985 Z M192.8 386.985 C194.614 386.993 197.539 386.262 199.3 385.36 201.06 384.459 202.725 383.392 203 382.989 203.275 382.587 206.425 380.792 210 379 213.575 377.208 216.725 375.411 217 375.005 217.275 374.6 219.525 373.248 222 372 224.475 370.752 226.725 369.4 227 368.995 227.275 368.589 230.425 366.792 234 365 237.575 363.208 240.725 361.411 241 361.005 241.275 360.6 243.525 359.248 246 358 248.475 356.752 250.725 355.409 251 355.015 251.275 354.622 252.616 353.711 253.979 352.992 255.343 352.273 256.985 351.158 257.628 350.515 258.27 349.873 260.25 346.456 262.027 342.923 263.804 339.391 265.589 336.275 265.995 336 266.4 335.725 267.752 333.475 269 331 270.248 328.525 271.603 326.275 272.011 326 272.419 325.725 275.554 319.904 278.978 313.064 282.401 306.223 286.015 298.123 287.008 295.064 288 292.004 289.128 288.712 289.513 287.75 289.943 286.677 289.758 286 289.036 286 288.387 286 287.285 286.572 286.586 287.271 285.888 287.969 284.724 289.657 284.001 291.021 283.278 292.384 281.927 294.175 281 295 280.073 295.825 278.718 297.625 277.991 299 277.263 300.375 275.345 302.737 273.728 304.25 272.073 305.799 269.633 307.007 268.144 307.015 266.69 307.024 264.996 307.361 264.379 307.765 263.762 308.169 261.804 311.391 260.027 314.923 258.25 318.456 256.265 321.878 255.616 322.527 254.967 323.176 253.618 325.521 252.618 327.739 251.6 329.997 249.661 332.289 248.211 332.95 246.788 333.598 244.92 334.929 244.061 335.908 243.203 336.886 241.409 338.264 240.077 338.971 238.744 339.678 236.59 341.319 235.291 342.618 233.992 343.917 231.847 345.251 230.525 345.583 228.647 346.054 227.32 345.386 224.469 342.536 222.075 340.142 220.075 338.991 218.659 339.192 217.088 339.416 216.411 340.317 216.173 342.5 215.993 344.15 215.525 345.833 215.133 346.24 214.74 346.648 212.018 346.103 209.083 345.03 204.123 343.217 203.53 343.192 200.672 344.67 198.981 345.544 196.948 346.909 196.154 347.704 195.059 348.798 192.988 349.026 187.605 348.643 183.697 348.365 177.758 347.76 174.407 347.297 170.833 346.804 167.575 345.718 166.528 344.671 165.546 343.689 164.144 343.114 163.414 343.395 162.683 343.675 160.604 344.672 158.793 345.609 156.982 346.547 154.712 347.521 153.75 347.774 152.295 348.156 152 347.548 152 344.176 152 341.944 151.591 339.865 151.09 339.556 150.59 339.247 149.461 339.27 148.582 339.607 147.702 339.945 146.704 341.408 146.362 342.86 146.021 344.312 145.326 345.95 144.817 346.5 144.215 347.151 143.3 346.756 142.196 345.367 141.263 344.194 139.439 342.69 138.143 342.024 136.623 341.245 135.441 341.159 134.817 341.783 134.193 342.407 135.165 345.372 137.552 350.125 139.589 354.181 141.585 357.725 141.988 358 142.391 358.275 143.396 359.85 144.22 361.5 145.045 363.15 145.997 365.66 146.336 367.079 146.687 368.546 148.12 370.189 149.665 370.893 151.157 371.573 153.08 372.929 153.939 373.908 154.797 374.886 156.625 376.274 158 376.993 159.375 377.711 160.725 378.615 161 379 161.275 379.385 162.616 380.289 163.979 381.008 165.343 381.727 167.063 382.92 167.801 383.658 168.715 384.572 171.912 385.005 177.821 385.015 182.595 385.024 187.175 385.467 188 386 188.825 386.533 190.985 386.976 192.8 386.985 Z M181.728 340.96 C197.384 340.999 198.15 340.905 203.478 338.292 206.515 336.802 209 334.967 209 334.213 209 333.46 207.163 331.078 204.918 328.922 202.096 326.21 199.947 325 197.954 325 195.981 325 194.696 325.711 193.885 327.25 193.234 328.487 192.205 329.831 191.6 330.235 190.995 330.639 186.181 330.976 180.903 330.985 172.685 330.998 170.97 330.709 168.969 328.973 167.683 327.858 165.541 326.672 164.208 326.337 162.876 326.003 161.496 326.173 161.143 326.715 160.789 327.257 159.488 328.234 158.25 328.885 157.012 329.537 156 330.886 156 331.882 156 332.879 156.788 334.594 157.75 335.694 158.712 336.794 160.85 338.42 162.5 339.307 164.897 340.596 168.76 340.928 181.728 340.96 Z M213.703 326.96 C214.915 326.982 217.052 326.478 218.453 325.839 219.854 325.201 221 324.085 221 323.359 221 322.632 219.762 321.792 218.25 321.491 216.738 321.189 214.375 320.579 213 320.133 211.625 319.688 207.8 317.982 204.5 316.343 201.2 314.704 196.587 312.759 194.25 312.021 190.698 310.9 189.334 310.9 185.941 312.019 182.74 313.076 181.193 313.11 178.62 312.18 176.826 311.531 173.237 311 170.646 311 167.561 311 164.173 311.892 160.835 313.584 158.031 315.005 155.233 316.595 154.618 317.118 154.003 317.64 152.699 318.619 151.719 319.293 150.74 319.967 149.675 321.526 149.353 322.759 148.819 324.802 149.117 325 152.73 325 155.181 325 157.525 324.279 158.872 323.111 160.07 322.072 162.356 320.681 163.952 320.02 166.408 319.003 167.802 319.154 173.021 321.007 177.464 322.585 180.21 323.002 182.844 322.499 184.855 322.115 188.975 321.782 192 321.758 195.025 321.734 199.3 322.151 201.5 322.685 203.7 323.219 206.85 324.39 208.5 325.288 210.15 326.185 212.491 326.938 213.703 326.96 Z M184.707 298.51 C185.371 298.282 187.261 297.399 188.908 296.548 190.648 295.648 194.537 294.985 198.2 294.965 201.665 294.945 205.57 294.336 206.879 293.61 208.187 292.885 209.868 290.539 210.614 288.396 211.36 286.253 211.977 282.399 211.985 279.832 211.993 277.264 211.727 274.452 211.393 273.582 211.059 272.712 210.159 272 209.393 272 208.464 272 208 273.182 208 275.55 208 277.502 207.313 280.427 206.474 282.05 205.065 284.775 204.528 285 199.446 285 195.319 285 192.457 285.75 187.999 288 182.055 291.001 182.055 291.001 177.778 289.049 175.425 287.975 170.814 286.183 167.532 285.066 164.138 283.911 161.188 283.412 160.692 283.908 160.197 284.403 160.439 285.959 161.254 287.515 162.133 289.193 164.197 290.776 166.594 291.61 168.742 292.358 171.48 292.977 172.679 292.985 173.877 292.993 175.467 293.609 176.211 294.354 176.956 295.099 178.901 296.432 180.533 297.317 182.165 298.202 184.043 298.739 184.707 298.51 Z M150.917 290 C151.512 290 152 289.311 152 288.469 152 287.626 152.679 286.677 153.509 286.358 154.338 286.04 155.289 284.698 155.62 283.377 155.952 282.056 156.816 280.642 157.542 280.237 158.267 279.831 159.329 278.266 159.902 276.759 160.884 274.175 160.829 274.089 158.935 275.259 157.83 275.942 156.667 277.518 156.351 278.763 156.035 280.007 155.184 281.358 154.458 281.763 153.733 282.169 152.567 283.851 151.866 285.501 151.166 287.15 150.422 288.837 150.213 289.25 150.004 289.663 150.321 290 150.917 290 Z M224.725 289.937 C224.849 289.971 224.525 288.88 224.004 287.51 223.483 286.141 221.431 283.441 219.443 281.51 217.455 279.58 215.417 278 214.914 278 214.411 278 214.007 278.788 214.016 279.75 214.025 280.712 215.315 282.955 216.883 284.733 218.451 286.511 220.806 288.395 222.117 288.92 223.428 289.444 224.601 289.902 224.725 289.937 Z M247.867 268.523 C249.315 268.157 252.075 267.622 254 267.335 255.925 267.047 259.453 266.171 261.84 265.387 264.227 264.604 266.846 263.297 267.659 262.484 268.473 261.67 269.549 259.573 270.051 257.823 270.553 256.073 271.43 254.352 272 254 272.57 253.648 273.416 252.037 273.879 250.42 274.343 248.804 275.91 245.138 277.361 242.274 278.813 239.41 280 235.927 280 234.533 280 233.075 279.428 232 278.652 232 277.91 232 276.462 233.866 275.434 236.147 274.406 238.427 273.058 240.799 272.44 241.417 271.822 242.035 270.724 243.648 270 245 269.276 246.352 268.158 247.985 267.515 248.627 266.873 249.27 263.456 251.267 259.923 253.064 256.391 254.861 252.466 256.538 251.203 256.791 249.675 257.097 248.073 258.895 246.417 262.163 245.048 264.865 244.222 267.55 244.581 268.132 244.954 268.735 246.363 268.903 247.867 268.523 Z M302.525 258.629 C303.364 258.307 305.051 257.509 306.275 256.855 307.499 256.202 309.628 254.462 311.007 252.989 312.385 251.515 314.523 247.99 315.757 245.155 316.99 242.32 319.013 237.671 320.25 234.824 321.487 231.977 323.15 228.997 323.945 228.2 324.74 227.404 325.798 224.446 326.296 221.626 326.795 218.807 327.415 212.506 327.675 207.624 327.955 202.369 327.74 198.34 327.147 197.747 326.597 197.197 325.018 197.03 323.64 197.376 322.261 197.722 320.849 198.901 320.501 199.996 320.153 201.092 319.181 202.676 318.34 203.517 317.041 204.817 316.991 205.792 318.007 210.027 319.195 214.98 319.183 215.027 315.961 218.037 313.934 219.93 312.361 222.645 311.763 225.282 311.237 227.602 310.513 233.004 310.153 237.287 309.794 241.57 309.005 245.395 308.4 245.787 307.795 246.179 306.715 247.625 306 249 305.285 250.375 304.385 251.725 304 252 303.615 252.275 302.782 253.483 302.15 254.684 301.517 255.886 301 257.396 301 258.041 301 258.686 301.686 258.951 302.525 258.629 Z M126.318 256.72 C127.018 256.482 127.444 254.521 127.362 251.909 127.287 249.484 126.696 245.475 126.05 243 125.404 240.525 124.383 236.25 123.783 233.5 123.182 230.75 122.709 220.175 122.73 210 122.752 199.825 123.092 189.363 123.485 186.75 123.879 184.137 124.642 182 125.18 182 125.788 182 125.916 184.928 125.517 189.75 125.165 194.012 124.865 203.125 124.852 210 124.838 216.875 125.113 225.2 125.463 228.5 125.813 231.8 126.581 235.738 127.171 237.25 127.76 238.762 128.593 240 129.021 240 129.449 240 130.042 238.087 130.341 235.75 130.639 233.413 131.331 229.25 131.879 226.5 132.426 223.75 133.353 219.587 133.937 217.25 134.522 214.913 135.45 211.2 136 209 136.55 206.8 137.45 203.2 138 201 138.55 198.8 139.39 195.313 139.867 193.25 140.345 191.188 141.422 187.7 142.263 185.5 143.103 183.3 144.667 179.25 145.738 176.5 146.81 173.75 150.288 166.325 153.467 160 156.647 153.675 159.575 148.275 159.974 148 160.374 147.725 161.293 146.375 162.017 145 162.74 143.625 164.533 141.375 166 140 167.467 138.625 169.263 136.384 169.992 135.021 170.72 133.657 171.817 132.041 172.429 131.429 173.041 130.817 174.657 129.72 176.021 128.992 177.384 128.263 179.731 126.352 181.235 124.744 182.739 123.136 184.947 121.565 186.141 121.253 187.817 120.815 188.122 121.006 187.475 122.092 187.015 122.867 186.337 123.725 185.969 124 185.601 124.275 184.711 125.625 183.993 127 183.274 128.375 181.927 130.175 181 131 180.073 131.825 178.726 133.625 178.007 135 177.289 136.375 176.374 137.725 175.974 138 175.575 138.275 172.647 143.675 169.467 150 166.288 156.325 162.899 163.525 161.936 166 160.973 168.475 159.72 171.85 159.15 173.5 158.58 175.15 157.36 178.975 156.44 182 155.519 185.025 154.541 188.512 154.266 189.75 153.913 191.34 154.227 192 155.336 192 156.255 192 157.28 190.653 157.809 188.75 158.306 186.962 160.634 181.675 162.982 177 165.331 172.325 167.585 168.275 167.992 168 168.399 167.725 169.752 165.475 171 163 172.248 160.525 173.591 158.275 173.985 158 174.378 157.725 175.285 156.375 176 155 176.715 153.625 177.615 152.275 178 152 178.385 151.725 179.289 150.375 180.007 149 180.726 147.625 182.073 145.825 183 145 183.927 144.175 185.277 142.375 186 141 186.723 139.625 188.073 137.825 189 137 189.927 136.175 191.277 134.375 192 133 192.723 131.625 194.073 129.825 195 129 195.927 128.175 197.254 126.428 197.949 125.118 198.644 123.807 201.249 120.699 203.738 118.209 206.85 115.097 209.551 113.4 212.382 112.776 214.647 112.277 217.175 111.921 218 111.984 218.825 112.047 224.91 112.414 231.523 112.799 243.546 113.5 243.546 113.5 250.176 120.134 253.823 123.783 257.367 127.833 258.053 129.134 258.738 130.436 259.615 131.725 260 132 260.385 132.275 261.285 133.625 262 135 262.715 136.375 263.623 137.725 264.019 138 264.414 138.275 265.847 140.75 267.203 143.5 268.558 146.25 270.459 151.087 271.427 154.25 272.557 157.943 273.728 160 274.7 160 275.761 160 275.99 159.476 275.465 158.25 275.052 157.288 274.396 154.475 274.005 152 273.614 149.525 272.076 143.965 270.587 139.644 269.098 135.323 268.032 131.635 268.219 131.448 268.405 131.261 269.049 131.422 269.65 131.804 270.251 132.187 272.185 135.369 273.948 138.875 275.712 142.381 277.83 147.556 278.655 150.375 279.481 153.194 280.601 157.3 281.146 159.5 281.69 161.7 282.555 164.882 283.068 166.571 283.581 168.26 284 171.957 284 174.786 284 178.906 284.398 180.143 286 181 287.31 181.701 288 183.094 288 185.035 288 186.888 288.517 188 289.379 188 290.137 188 291.317 186.65 292 185 292.683 183.35 293.835 182 294.558 182 295.311 182 296.007 183.389 296.187 185.25 296.37 187.148 297.059 188.5 297.843 188.5 298.582 188.5 299.749 186.925 300.437 185 301.125 183.075 302.517 179.813 303.529 177.75 304.542 175.688 305.962 174 306.685 174 307.408 174 308 174.9 308 176 308 177.1 308.408 178 308.907 178 309.407 178 310.049 175.637 310.336 172.75 310.622 169.863 311.378 165.025 312.015 162 312.652 158.975 313.4 153.35 313.676 149.5 313.952 145.65 314.368 142.308 314.599 142.073 314.831 141.838 315.661 142.513 316.443 143.573 317.508 145.016 318.155 145.215 319.019 144.363 319.792 143.602 319.981 140.879 319.593 136.114 319.273 132.201 318.585 124.613 318.064 119.25 317.542 113.888 316.977 108.194 316.808 106.598 316.639 105.001 317.01 103.519 317.634 103.303 318.258 103.087 319.463 103.606 320.313 104.455 321.162 105.305 322.389 106 323.038 106 323.849 106 324.019 104.827 323.579 102.25 323.228 100.188 322.841 97.419 322.72 96.098 322.599 94.776 323.01 93.519 323.634 93.303 324.258 93.087 325.411 93.554 326.197 94.339 326.982 95.125 329.622 96.779 332.063 98.015 334.503 99.251 336.65 100.654 336.833 101.131 337.017 101.609 337.852 102 338.69 102 339.722 102 340 101.443 339.552 100.275 339.188 99.326 338.523 98.314 338.074 98.025 337.625 97.736 335.792 94.575 334 91 332.208 87.425 330.417 84.275 330.021 84 329.624 83.725 328.715 82.375 328 81 327.285 79.625 326.385 78.275 326 78 325.615 77.725 324.707 76.375 323.983 75 323.26 73.625 321.392 71.307 319.834 69.849 318.275 68.391 317 66.654 317 65.989 317 65.159 318.095 64.972 320.5 65.391 322.425 65.726 325.575 66.274 327.5 66.609 330.116 67.065 331 66.867 331 65.826 331 65.04 325.711 61.836 318.853 58.467 312.172 55.185 306.2 52.009 305.582 51.408 304.964 50.807 303.343 49.724 301.979 49.001 300.616 48.278 298.825 46.927 298 46 297.175 45.073 295.375 43.726 294 43.007 292.625 42.289 291.275 41.375 291 40.977 290.725 40.578 286.723 38.358 282.106 36.043 277.489 33.727 271.559 31.137 268.928 30.288 265.338 29.128 261.268 28.853 252.616 29.184 241.087 29.625 241.087 29.625 239.976 26.942 239.365 25.467 237.685 23.722 236.244 23.065 234.802 22.408 232.92 21.063 232.061 20.076 231.203 19.089 228.25 17.174 225.5 15.821 222.75 14.468 218.587 12.83 216.25 12.18 213.913 11.531 210.313 10.516 208.25 9.925 205.979 9.275 200.359 9.084 194 9.442 188.225 9.767 177.988 10.276 171.25 10.573 161.783 10.991 159 11.427 159 12.49 159 13.246 159.897 14.15 160.994 14.498 162.091 14.846 163.625 15.767 164.402 16.545 165.18 17.323 166.983 18.491 168.408 19.14 169.834 19.79 171 21.095 171 22.042 171 23.174 169.546 24.255 166.75 25.201 164.413 25.993 158.225 28.807 153 31.455 147.775 34.104 142.824 37.05 141.998 38.003 141.171 38.955 135.321 42.346 128.998 45.537 122.674 48.728 114.125 52.565 110 54.064 105.875 55.563 101.15 57.271 99.5 57.861 97.85 58.451 94.363 59.496 91.75 60.185 89.137 60.873 87 62.005 87 62.699 87 63.394 88.165 64.254 89.589 64.612 91.013 64.969 93.825 64.763 95.839 64.153 97.853 63.544 101.75 62.822 104.5 62.549 107.25 62.277 111.637 61.771 114.25 61.426 117.151 61.043 119 61.185 119 61.792 119 62.339 118.276 63.064 117.392 63.403 116.507 63.743 114.595 65.291 113.142 66.844 111.689 68.397 109.438 70.235 108.14 70.928 106.841 71.621 102.496 75.471 98.484 79.484 94.471 83.496 90.625 87.833 89.935 89.121 89.246 90.408 87.025 93.054 85 95 82.975 96.946 80.725 99.654 80.002 101.019 79.278 102.384 77.927 104.175 77 105 76.073 105.825 74.722 107.616 73.999 108.979 73.276 110.343 72.183 111.959 71.571 112.571 70.959 113.183 69.343 114.273 67.979 114.992 66.616 115.711 65.275 116.615 65 117 64.725 117.385 63.403 118.279 62.063 118.986 60.723 119.692 59.148 120.675 58.563 121.169 57.978 121.664 56.6 122.698 55.5 123.467 53.996 124.519 53.783 125.153 54.643 126.025 55.481 126.877 56.328 126.895 57.827 126.093 58.95 125.492 62.823 125 66.434 125 70.412 125 73 125.42 73 126.065 73 126.651 70.683 129.387 67.851 132.145 64.262 135.641 62.482 138.272 61.976 140.83 61.577 142.849 60.921 145.288 60.518 146.25 60.056 147.354 60.231 148 60.992 148 61.655 148 63.459 146.65 65 145 66.541 143.35 68.349 142 69.018 142 69.87 142 69.995 142.821 69.436 144.75 68.997 146.263 68.649 154.475 68.663 163 68.676 171.525 69.001 180.075 69.385 182 69.768 183.925 70.489 187.075 70.986 189 71.484 190.925 72.464 194.637 73.164 197.25 74.034 200.498 74.962 202 76.097 202 77.01 202 78.226 203.238 78.8 204.75 79.373 206.262 80.131 208.85 80.483 210.5 80.835 212.15 81.564 215.75 82.103 218.5 82.642 221.25 83.332 225.075 83.636 227 83.94 228.925 84.818 232.419 85.587 234.765 86.357 237.111 88.361 241.754 90.042 245.083 91.735 248.436 93.632 250.958 94.298 250.739 94.998 250.508 95.797 247.242 96.211 242.921 96.602 238.84 97.39 232.238 97.961 228.25 98.533 224.262 99.462 217.738 100.028 213.75 100.593 209.762 101.286 204.25 101.569 201.5 101.852 198.75 102.612 194.587 103.26 192.25 103.907 189.913 104.764 188 105.164 188 105.564 188 106.087 193.962 106.325 201.25 106.563 208.538 107.204 216.75 107.75 219.5 108.297 222.25 109.661 227.246 110.783 230.603 111.905 233.96 114.275 239.585 116.05 243.103 117.825 246.621 120.044 250.175 120.982 251 121.919 251.825 123.237 253.54 123.911 254.811 124.584 256.082 125.667 256.941 126.318 256.72 Z M214.042 257 C214.587 257 215.653 255.538 216.411 253.75 217.169 251.962 218.32 249.168 218.968 247.541 219.986 244.989 219.897 244.408 218.324 243.325 217.321 242.634 215.956 241.603 215.292 241.034 214.628 240.465 213.439 240 212.649 240 211.86 240 210.941 240.712 210.607 241.582 210.273 242.452 210 244.949 210 247.131 210 249.314 210.687 252.427 211.526 254.05 212.365 255.672 213.497 257 214.042 257 Z M195.948 249 C196.504 249 197.921 247.116 199.096 244.813 200.27 242.51 201.855 240.003 202.616 239.241 203.526 238.332 204 235.507 204 231 204 226.1 204.448 223.694 205.571 222.571 206.575 221.568 208.924 221 212.071 221 214.929 221 217 221.453 217 222.078 217 222.672 215.2 224.886 213 227 210.8 229.114 209 231.381 209 232.038 209 232.842 209.9 233.008 211.75 232.545 213.262 232.167 215.962 231.615 217.75 231.319 219.538 231.023 221 230.38 221 229.891 221 229.401 220.1 229 219 229 217.9 229 217 228.419 217 227.708 217 226.998 219.503 225.189 222.563 223.688 225.623 222.188 228.548 221.22 229.063 221.539 229.578 221.857 230 223.409 230 224.988 230 226.566 230.637 228.494 231.415 229.272 232.193 230.05 234.234 231.268 235.95 231.979 238.639 233.093 239.621 233.024 243.048 231.479 245.993 230.15 247.231 228.883 247.823 226.593 248.544 223.798 249.08 223.447 253.38 222.946 255.998 222.642 258.445 221.915 258.82 221.331 259.194 220.747 261.413 219.299 263.75 218.114 266.087 216.929 268 215.631 268.001 215.23 268.001 214.828 262.714 214.419 256.251 214.319 249.788 214.219 240.563 213.849 235.75 213.495 230.938 213.142 227 212.491 227 212.048 227 211.605 228.238 210.768 229.75 210.187 231.262 209.607 234.075 208.91 236 208.638 237.925 208.367 241.525 207.628 244 206.996 246.475 206.364 251.2 205.415 254.5 204.887 257.8 204.358 262.413 203.672 264.75 203.362 267.087 203.052 269 202.362 269 201.828 269 201.294 268.409 200.266 267.687 199.544 266.965 198.822 264.378 197.219 261.937 195.982 259.497 194.744 257.275 193.409 257 193.015 256.725 192.622 255.375 191.715 254 191 252.625 190.285 251.219 189.27 250.875 188.743 250.52 188.2 248.792 188.1 246.875 188.514 245.019 188.914 242.298 189.855 240.828 190.606 239.358 191.357 235.983 192.67 233.328 193.525 230.673 194.379 226.25 196.011 223.5 197.151 220.75 198.291 216.925 199.913 215 200.756 213.075 201.6 209.925 202.612 208 203.005 206.075 203.399 203.308 204.285 201.85 204.975 200.393 205.665 198.507 207.866 197.661 209.865 196.814 211.864 195.15 216.355 193.962 219.844 192.447 224.297 192.002 227.277 192.471 229.844 192.839 231.855 193.354 236.425 193.616 240 193.878 243.575 194.283 247.063 194.515 247.75 194.747 248.438 195.392 249 195.948 249 Z M139.238 243 C141.504 243 144.74 242.577 146.429 242.06 148.118 241.542 151.75 240.476 154.5 239.689 157.393 238.862 159.5 237.678 159.5 236.88 159.5 236.039 158.719 235.65 157.5 235.884 156.4 236.096 151.9 236.443 147.5 236.655 143.1 236.868 138.537 237.254 137.36 237.512 136.183 237.771 134.945 238.702 134.607 239.582 134.27 240.461 134.247 241.59 134.556 242.09 134.865 242.591 136.972 243 139.238 243 Z M233.512 241 C237.029 241 241.052 240.478 242.453 239.839 243.854 239.201 245 238.252 245 237.73 245 237.182 243.414 237.061 241.25 237.444 239.188 237.808 235.269 238.357 232.542 238.664 229.64 238.99 226.846 238.761 225.805 238.111 224.827 237.5 223.346 237 222.514 237 221.681 237 221 237.45 221 238 221 238.55 222.098 239 223.441 239 224.784 239 226.16 239.45 226.5 240 226.84 240.55 229.995 241 233.512 241 Z M153.017 233 C159.22 233 163 232.609 163 231.967 163 231.398 161.471 229.404 159.602 227.535 157.733 225.666 153.995 223.018 151.297 221.65 148.598 220.283 144.747 218.856 142.74 218.479 139.43 217.858 139.032 218.026 138.467 220.276 138.049 221.941 138.699 224.445 140.439 227.879 143.034 233 143.034 233 153.017 233 Z M166.75 217.853 C167.559 217.948 168 216.642 168 214.153 168 211.838 167.259 209.452 166.14 208.161 165.116 206.981 161.854 205.309 158.89 204.445 155.925 203.581 152.033 202.421 150.24 201.869 148.447 201.316 145.978 201.007 144.754 201.182 143.089 201.42 142.368 202.384 141.898 205 141.553 206.925 140.948 209.257 140.554 210.182 140.031 211.411 140.601 212.256 142.669 213.315 144.226 214.112 147.525 215.056 150 215.412 152.475 215.768 156.975 216.43 160 216.883 163.025 217.335 166.063 217.772 166.75 217.853 Z M211.262 196.762 C212.493 196.506 215.187 195.555 217.25 194.648 219.312 193.741 223.766 191.762 227.146 190.249 230.527 188.737 234.014 186.938 234.896 186.25 236.349 185.118 236.312 184.854 234.5 183.444 233.131 182.379 231.441 182.084 229.142 182.51 227.295 182.852 223.92 183.959 221.642 184.97 219.364 185.981 215.598 187.59 213.272 188.546 210.947 189.502 208.771 191.145 208.437 192.198 208.103 193.251 208.098 194.814 208.427 195.671 208.808 196.664 209.835 197.06 211.262 196.762 Z" fill="#000000" fill-opacity="1" stroke="none"/>
</svg>
