<?xml version="1.0" encoding="UTF-8"?>
<svg width="912px" height="912px" viewBox="0 0 912 912" xmlns="http://www.w3.org/2000/svg" xmlns:xlink="http://www.w3.org/1999/xlink" version="1.1">
 <!-- Generated by Pixelmator Pro 2.1.2 -->
 <path id="Shape" d="M189.5 463.5 C189.984 414.764 190.098 413.431 191.998 412.128 193.922 410.809 194 409.641 194 382 194 354.231 194.07 353.197 196.028 351.872 197.997 350.539 198.047 349.673 197.778 321.5 197.5 292.5 197.5 292.5 194.5 292 192.427 291.654 188.779 288.795 182.693 282.746 177.85 277.932 174.164 273.544 174.502 272.996 174.841 272.448 178.226 272 182.024 272 187.906 272 189.088 271.704 190 270 190.639 268.805 192.094 268 193.612 268 195.088 268 197.38 266.774 199.077 265.077 200.774 263.38 202 261.088 202 259.612 202 258.094 202.805 256.639 204 256 205.771 255.052 206 253.906 206 246 206 238.094 206.229 236.948 208 236 209.585 235.152 210 233.906 210 230 210 226.094 210.415 224.848 212 224 213.301 223.304 214 221.906 214 220 214 218.094 214.699 216.696 216 216 217.301 215.304 218 213.906 218 212 218 210.126 218.698 208.697 219.937 208.034 221.002 207.464 222.014 205.753 222.187 204.233 222.403 202.324 225.125 198.842 230.979 192.984 235.797 188.163 240.561 184.284 242.014 184 243.42 183.725 247.013 181.025 250 178 252.987 174.975 256.587 172.275 258 172 259.413 171.725 263.013 169.025 266 166 268.987 162.975 272.571 160.275 273.965 160 275.359 159.725 277.738 158.323 279.25 156.885 280.762 155.447 282.004 153.197 282.01 151.885 282.016 150.365 283.463 148.231 286 146 288.793 143.544 289.983 141.69 289.99 139.785 289.996 138.101 290.759 136.664 292 136 293.28 135.315 294 133.906 294 132.087 294 130.392 294.794 128.69 295.966 127.872 297.39 126.878 298.01 125.122 298.216 121.5 298.484 116.79 298.67 116.481 301.432 116.166 303.549 115.925 304.832 116.452 306.045 118.06 306.976 119.294 308.233 119.974 308.863 119.585 309.488 119.198 310 117.574 310 115.976 310 114.094 310.704 112.693 312 112 313.771 111.052 314 109.906 314 102 314 94.094 314.229 92.948 316 92 317.585 91.152 318 89.906 318 86 318 82.094 318.415 80.848 320 80 321.301 79.304 322 77.906 322 76 322 74.094 322.699 72.696 324 72 325.195 71.361 326 69.906 326 68.388 326 66.899 327.238 64.608 328.989 62.857 330.633 61.213 332.433 60.149 332.989 60.493 333.623 60.885 334 69.665 334 84.024 334 105.906 334.089 106.977 336 108 337.771 108.948 338 110.094 338 118 338 125.809 338.243 127.06 339.937 127.966 341.105 128.591 341.998 130.292 342.187 132.251 342.387 134.333 343.039 135.5 344 135.5 345.296 135.5 345.533 131.28 345.746 104.5 345.982 74.746 346.072 73.445 347.996 72.128 349.747 70.929 350 69.639 350 61.913 350 54.094 350.231 52.946 352 52 353.28 51.315 354 49.906 354 48.087 354 46.392 354.794 44.69 355.966 43.872 357.39 42.878 358.01 41.122 358.216 37.5 358.5 32.507 358.505 32.5 362 32.5 365.5 32.5 365.5 32.5 365.762 43.5 365.993 53.18 366.263 54.665 368.012 55.872 369.499 56.898 370 58.38 370 61.754 370 65.673 370.491 66.725 373.75 69.783 375.994 71.89 377.701 74.547 378 76.401 378.301 78.267 379.097 79.5 380 79.5 381.095 79.5 381.577 78.151 381.784 74.5 381.99 70.878 382.61 69.122 384.034 68.128 385.815 66.885 386 65.55 386 53.913 386 42.094 386.159 40.985 388 40 389.705 39.088 390 37.906 390 32 390 26.094 390.295 24.912 392 24 393.301 23.304 394 21.906 394 20 394 18.094 394.699 16.696 396 16 397.301 15.304 398 13.906 398 12 398 10.094 398.699 8.696 400 8 401.409 7.246 402 5.906 402 3.465 402 0.089 402.103 0 406 0 408.846 0 410 0.423 410 1.465 410 2.27 410.9 3.411 412 4 413.585 4.848 414 6.094 414 10 414 13.852 414.423 15.156 415.937 15.966 417.002 16.536 418.014 18.24 418.187 19.753 418.417 21.777 422.932 26.942 435.269 39.299 444.492 48.537 452.479 55.822 453.019 55.488 453.563 55.152 454 50.029 454 43.976 454 34.213 454.203 32.962 455.937 32.034 457.105 31.409 457.998 29.708 458.187 27.749 458.387 25.667 459.039 24.5 460 24.5 460.961 24.5 461.613 25.667 461.813 27.749 462.002 29.708 462.895 31.409 464.063 32.034 465.302 32.697 466 34.126 466 36 466 37.906 466.699 39.304 468 40 469.212 40.648 470 42.094 470 43.667 470 45.375 471.283 47.468 473.75 49.783 475.813 51.719 477.725 54.482 478 55.922 478.277 57.371 481.397 61.438 484.981 65.021 488.836 68.874 492.483 71.629 493.981 71.818 495.367 71.993 497.205 73.043 498.068 74.152 499.154 75.549 500.536 76.065 502.568 75.834 505.5 75.5 505.5 75.5 506 64 506.29 57.327 506.92 52.5 507.501 52.5 508.051 52.5 518.167 62.175 529.979 74 543.875 87.911 552.367 95.677 554.037 96 555.456 96.275 558.139 98.075 560 100 561.861 101.925 564.561 103.725 566 104 567.439 104.275 570.139 106.075 572 108 573.861 109.925 576.55 111.725 577.976 112 579.403 112.275 583.013 114.975 586 118 588.987 121.025 592.584 123.725 593.993 124 595.426 124.279 599.84 127.808 604 132 608.126 136.157 612.58 139.723 613.993 140 615.558 140.307 622.129 146.087 631.021 154.979 640.101 164.059 645.686 170.424 646 172.047 646.275 173.472 649.087 177.155 652.25 180.232 656.286 184.159 658 186.587 658 188.378 658 189.906 658.802 191.359 660 192 661.241 192.664 662.004 194.101 662.01 195.785 662.017 197.69 663.207 199.544 666 202 668.793 204.456 669.983 206.31 669.99 208.215 669.996 209.899 670.759 211.336 672 212 673.585 212.848 674 214.094 674 218 674 221.906 674.415 223.152 676 224 677.701 224.91 678 226.094 678 231.913 678 237.62 678.331 238.984 679.991 240.128 681.782 241.362 682.008 242.809 682.241 254.5 682.5 267.5 682.5 267.5 685.684 267.808 688.07 268.04 689.143 267.601 689.969 266.058 690.647 264.791 692.069 264 693.671 264 695.206 264 697.341 262.875 698.885 261.25 700.323 259.737 701.725 257.375 702 256 702.275 254.625 704.629 251.33 707.23 248.679 709.832 246.027 712.419 244.141 712.98 244.488 713.541 244.834 714 246.426 714 248.024 714 249.906 713.296 251.307 712 252 710.026 253.057 710 254.094 710 332 710 409.906 710.026 410.944 712 412 713.862 412.997 714 414.094 714 427.913 714 441.586 714.156 442.864 715.983 444.128 717.672 445.297 718.005 446.832 718.233 454.5 718.5 463.5 718.5 463.5 728 464 737.5 464.5 737.5 464.5 737.813 467.749 738.002 469.708 738.895 471.409 740.063 472.034 741.757 472.94 742 474.191 742 482 742 489.906 742.229 491.052 744 492 745.595 492.854 746 494.094 746 498.129 746 502.346 746.333 503.274 748 503.71 749.923 504.213 750 505.074 750 526 750 546.926 749.923 547.787 748 548.29 746.55 548.669 746 549.654 746 551.871 746 553.906 745.331 555.288 744 556 742.415 556.848 742 558.094 742 562 742 565.906 741.585 567.152 740 568 738.699 568.696 738 570.094 738 572 738 573.906 737.301 575.304 736 576 734.699 576.696 734 578.094 734 580 734 581.906 733.301 583.304 732 584 730.699 584.696 730 586.094 730 588 730 589.906 729.301 591.304 728 592 726.098 593.018 726 594.094 726 614 726 633.906 725.902 634.982 724 636 722.805 636.639 722 638.094 722 639.612 722 641.088 720.774 643.38 719.077 645.077 717.469 646.685 715.185 648 714 648 712.815 648 710.531 646.685 708.923 645.077 706 642.154 706 642.154 706 623.612 706 606.094 706.11 605.011 708 604 709.705 603.088 710 601.906 710 596 710 590.094 710.295 588.912 712 588 713.212 587.352 714 585.906 714 584.333 714 582.625 715.283 580.532 717.75 578.217 719.813 576.281 721.725 573.484 722 572 722.275 570.516 724.188 567.719 726.25 565.783 728.717 563.468 730 561.375 730 559.667 730 558.094 730.788 556.648 732 556 733.929 554.968 734 553.906 734 526.087 734 498.489 733.915 497.185 732.024 495.872 730.429 494.765 729.995 493.15 729.774 487.5 729.5 480.5 729.5 480.5 724.729 480.194 720.559 479.927 719.582 480.264 716.979 482.867 715.236 484.61 714 486.901 714 488.388 714 489.906 713.195 491.361 712 492 710.415 492.848 710 494.094 710 498 710 501.906 710.415 503.152 712 504 713.705 504.912 714 506.094 714 512 714 517.906 714.295 519.088 716 520 717.879 521.006 718 522.094 718 538 718 553.906 717.879 554.994 716 556 714.795 556.645 714 558.094 714 559.645 714 561.483 712.283 563.874 708 568 702 573.781 702 573.781 702 580.355 702 585.906 701.689 587.096 700 588 698.158 588.986 698 590.094 698 602 698 613.906 697.842 615.014 696 616 694.137 616.997 694 618.094 694 632 694 645.906 693.863 647.003 692 648 690.158 648.986 690 650.094 690 662 690 673.906 689.842 675.014 688 676 686.158 676.986 686 678.094 686 690 686 701.906 685.842 703.014 684 704 682.158 704.986 682 706.094 682 718 682 729.906 681.842 731.014 680 732 678.158 732.986 678 734.094 678 746 678 757.906 677.842 759.014 676 760 674.415 760.848 674 762.094 674 766 674 769.853 673.577 771.156 672.063 771.966 670.998 772.536 669.986 774.25 669.813 775.775 669.6 777.665 667.114 780.916 662 785.995 657.846 790.121 654.277 794.581 654 795.993 653.725 797.395 650.584 801.458 647.021 805.021 643.458 808.584 639.397 811.725 637.998 812 636.448 812.305 630.196 817.775 622 826 613.743 834.286 607.558 839.693 605.988 840 604.581 840.275 600.987 842.975 598 846 595.013 849.025 591.385 851.725 589.936 852 588.488 852.275 585.719 854.188 583.783 856.25 581.468 858.717 579.375 860 577.667 860 576.094 860 574.648 860.788 574 862 573.304 863.301 571.906 864 570 864 568.094 864 566.696 864.699 566 866 565.307 867.296 563.906 868 562.024 868 560.426 868 558.79 867.469 558.388 866.819 557.962 866.13 558.562 865.039 559.829 864.197 561.21 863.281 562 861.721 562 859.913 562 858.094 562.72 856.685 564 856 565.301 855.304 566 853.906 566 852 566 850.094 566.699 848.696 568 848 569.704 847.088 570 845.906 570 840.024 570 836.226 569.545 832.837 568.989 832.493 568.433 832.149 566.633 833.213 564.989 834.857 562.617 837.229 562 838.715 562 842.055 562 845.626 561.432 846.797 558.25 849.783 556.188 851.719 554.275 854.482 554 855.922 553.678 857.611 547.646 864.396 537.021 875.021 526.396 885.646 519.611 891.678 517.922 892 516.482 892.275 513.719 894.188 511.783 896.25 509.468 898.717 507.375 900 505.667 900 504.094 900 502.648 900.788 502 902 501.304 903.301 499.906 904 498 904 496.094 904 494.696 904.699 494 906 493.051 907.774 491.906 908 483.871 908 475.654 908 474.764 908.186 474.29 910 473.787 911.923 472.926 912 452 912 431.074 912 430.213 911.923 429.71 910 429.25 908.238 428.346 908 422.129 908 416.094 908 414.915 907.71 414 906 413.304 904.699 411.906 904 410 904 408.094 904 406.696 903.301 406 902 405.304 900.699 403.906 900 402 900 400.126 900 398.697 899.302 398.034 898.063 397.464 896.998 395.75 895.986 394.225 895.813 392.335 895.6 389.084 893.114 384.005 888 379.879 883.846 375.419 880.277 374.007 880 372.605 879.725 369.442 877.484 366.979 875.021 364.516 872.558 362.275 869.377 362 867.953 361.725 866.528 358.913 862.845 355.75 859.768 351.714 855.841 350 853.413 350 851.622 350 850.094 349.198 848.641 348 848 346.699 847.304 346 845.906 346 844 346 842.126 345.302 840.697 344.063 840.034 342.895 839.409 342.002 837.708 341.813 835.749 341.613 833.667 340.961 832.5 340 832.5 338.8 832.5 338.44 834.299 338.202 841.5 337.932 849.64 338.099 850.631 339.952 851.872 341.115 852.651 342 854.337 342 855.776 342 857.457 343.376 859.578 346.098 862.091 348.352 864.171 349.9 866.352 349.539 866.937 349.178 867.522 347.574 868 345.976 868 344.094 868 342.693 867.296 342 866 341.304 864.699 339.906 864 338 864 336.094 864 334.696 863.301 334 862 333.304 860.699 331.906 860 330 860 328.094 860 326.696 859.301 326 858 325.352 856.788 323.906 856 322.333 856 320.625 856 318.532 854.717 316.217 852.25 314.281 850.188 311.518 848.275 310.078 848 308.312 847.663 296.872 836.914 274.979 815.021 253.086 793.128 242.337 781.688 242 779.922 241.725 778.482 239.813 775.719 237.75 773.783 234.151 770.406 234 769.998 234 763.667 234 758.094 233.69 756.904 232 756 230.187 755.03 230 753.906 230 744 230 734.094 229.813 732.97 228 732 226.229 731.052 226 729.906 226 722 226 714.094 225.771 712.948 224 712 222.158 711.014 222 709.906 222 698 222 686.094 221.842 684.986 220 684 218.158 683.014 218 681.906 218 670 218 658.094 217.842 656.986 216 656 214.121 654.994 214 653.906 214 638 214 622.094 213.879 621.006 212 620 210.121 618.994 210 617.906 210 602 210 586.094 209.879 585.006 208 584 206.699 583.304 206 581.906 206 580 206 578.094 205.301 576.696 204 576 202.759 575.336 201.996 573.899 201.99 572.215 201.983 570.31 200.793 568.456 198 566 195.207 563.544 194.017 561.69 194.01 559.785 194.004 558.101 193.241 556.664 192 556 190.108 554.988 190 553.906 190 536 190 518.094 190.108 517.012 192 516 193.859 515.005 194 513.906 194 500.388 194 485.846 194 485.846 191.021 482.867 188.418 480.264 187.441 479.927 183.271 480.194 178.693 480.488 178.487 480.632 178.187 483.749 177.998 485.708 177.105 487.409 175.937 488.034 174.081 489.027 174 490.452 174 522 174 553.906 174.062 554.963 176 556 177.301 556.696 178 558.094 178 560 178 561.906 178.699 563.304 180 564 181.205 564.645 182 566.094 182 567.645 182 569.483 183.717 571.874 188 576 192.283 580.126 194 582.517 194 584.355 194 585.906 194.795 587.355 196 588 197.813 588.97 198 590.094 198 600 198 609.906 198.187 611.03 200 612 201.859 612.995 202 614.094 202 627.612 202 642.154 202 642.154 199.01 645.144 197.072 647.082 195.224 648.023 193.76 647.817 192.517 647.643 189.362 645.403 186.75 642.839 182 638.178 182 638.178 182 617.624 182 598.094 181.9 597.017 180 596 178.415 595.152 178 593.906 178 590 178 586.094 177.585 584.848 176 584 174.759 583.336 173.996 581.899 173.99 580.215 173.983 578.31 172.793 576.456 170 574 166.393 570.829 166.019 570.045 166.01 565.656 166.002 561.658 165.651 560.721 164 560.29 162.047 559.779 162 558.926 162 524 162 489.074 162.047 488.221 164 487.71 165.762 487.25 166 486.346 166 480.129 166 474.171 166.302 472.909 167.937 472.034 169.105 471.409 169.998 469.708 170.187 467.749 170.5 464.5 170.5 464.5 180 464 Z M456 816 C459.906 816 461.152 815.585 462 814 462.696 812.699 464.094 812 466 812 467.874 812 469.303 811.302 469.966 810.063 470.536 808.998 472.247 807.986 473.767 807.813 475.677 807.597 479.156 804.876 485.016 799.016 490.876 793.156 493.597 789.677 493.813 787.767 493.986 786.247 494.998 784.536 496.063 783.966 497.244 783.334 498.004 781.869 498.01 780.215 498.017 778.31 499.207 776.456 502 774 504.777 771.558 505.983 769.686 505.99 767.809 505.996 766.329 505.469 764.79 504.819 764.388 504.13 763.962 503.039 764.562 502.197 765.829 501.281 767.21 499.721 768 497.913 768 496.094 768 494.685 768.72 494 770 493.152 771.585 491.906 772 488 772 484.094 772 482.848 772.415 482 774 480.977 775.911 479.906 776 458 776 436.094 776 435.023 775.911 434 774 433.088 772.295 431.906 772 426 772 420.094 772 418.912 771.705 418 770 417.257 768.611 415.906 768 413.581 768 411.018 768 410.104 767.506 409.683 765.895 409.38 764.737 408.568 763.977 407.879 764.207 407.189 764.437 406.437 765.189 406.207 765.879 405.977 766.568 406.737 767.38 407.895 767.683 409.506 768.104 410 769.018 410 771.581 410 773.906 410.611 775.257 412 776 413.212 776.648 414 778.094 414 779.667 414 781.375 415.283 783.468 417.75 785.783 419.813 787.719 421.725 790.482 422 791.922 422.277 793.372 425.396 797.436 428.984 801.021 433.263 805.297 436.408 807.607 438.233 807.813 439.753 807.986 441.464 808.998 442.034 810.063 442.697 811.302 444.126 812 446 812 447.906 812 449.304 812.699 450 814 450.848 815.585 452.094 816 456 816 Z M456 652.5 C453.116 648.499 451.773 648 448.327 648 444.051 648 443.563 647.662 434.242 638.25 427.357 631.297 423.785 628.41 421.794 628.187 420.259 628.014 418.536 627.002 417.966 625.937 417.156 624.423 415.853 624 412 624 408.094 624 406.848 623.585 406 622 405.361 620.805 403.906 620 402.388 620 400.912 620 398.62 618.774 396.923 617.077 394.325 614.479 394 613.469 394 607.99 394 601.827 394 601.827 399.75 596.213 402.913 593.125 405.5 590.127 405.5 589.55 405.5 588.972 404.18 588.35 402.568 588.166 400.536 587.935 399.154 588.451 398.068 589.848 397.205 590.957 395.345 592.007 393.933 592.182 392.387 592.374 389.141 594.786 385.77 598.25 381.842 602.285 379.412 604 377.622 604 376.094 604 374.641 604.802 374 606 373.304 607.301 371.906 608 370 608 368.094 608 366.696 608.699 366 610 365.304 611.301 363.906 612 362 612 360.094 612 358.696 612.699 358 614 357.366 615.185 355.906 616 354.417 616 352.739 616 350.261 617.644 346.952 620.952 343.644 624.261 342 626.739 342 628.417 342 629.906 341.185 631.366 340 632 338.296 632.912 338 634.094 338 639.976 338 643.774 338.442 647.155 338.983 647.49 339.524 647.824 347.046 640.988 355.698 632.299 366.385 621.566 372.243 616.398 373.965 616.182 375.359 616.007 377.205 614.957 378.068 613.848 379.154 612.451 380.536 611.935 382.568 612.166 385.46 612.495 385.504 612.594 385.799 619.375 386.059 625.385 386.454 626.608 388.931 629.085 391.557 631.711 392.415 631.94 400.632 632.209 409.489 632.5 409.5 632.503 409.817 635.26 410.047 637.255 409.307 638.847 407.144 641.01 404.702 643.452 403.322 644 399.612 644 396.094 644 394.829 644.451 394 646 393.052 647.771 391.906 648 384 648 376.094 648 374.948 648.229 374 650 373.088 651.705 371.906 652 366 652 360.094 652 358.912 652.295 358 654 357.336 655.241 355.899 656.004 354.215 656.01 352.31 656.017 350.456 657.207 348 660 345.769 662.537 343.635 663.984 342.115 663.99 340.803 663.996 338.553 665.237 337.115 666.75 335.677 668.263 334.275 670.641 334 672.035 333.725 673.429 331.025 677.013 328 680 324.975 682.987 322.275 686.597 322 688.024 321.725 689.45 319.925 692.139 318 694 316.075 695.861 314.275 698.561 314 700 313.725 701.439 311.925 704.139 310 706 308.075 707.861 306.275 710.561 306 712 305.725 713.439 303.925 716.139 302 718 300.075 719.861 298.275 722.544 298 723.962 297.725 725.381 295.484 728.558 293.021 731.021 290.558 733.484 287.363 735.725 285.922 736 284.482 736.275 281.719 738.188 279.783 740.25 277.484 742.7 275.372 744 273.691 744 272.276 744 270.84 744.45 270.5 745 L269.882 746 270.5 747 C270.88 747.615 279.165 748 292.024 748 311.906 748 312.982 747.902 314 746 314.696 744.699 316.094 744 318 744 319.906 744 321.304 743.301 322 742 322.696 740.699 324.094 740 326 740 327.906 740 329.304 739.301 330 738 330.641 736.802 332.094 736 333.622 736 335.412 736 337.842 734.285 341.77 730.25 345.141 726.786 348.387 724.374 349.933 724.182 351.345 724.007 353.226 722.93 354.113 721.788 355 720.647 356.237 720.029 356.863 720.415 357.488 720.802 358 722.426 358 724.024 358 725.934 357.294 727.307 355.942 728.031 354.399 728.857 353.96 729.93 354.192 732.316 354.46 735.085 354.915 735.54 357.684 735.808 360.07 736.04 361.143 735.601 361.969 734.058 362.696 732.7 364.066 732 366 732 367.906 732 369.304 731.301 370 730 370.696 728.699 372.094 728 374 728 375.906 728 377.304 727.301 378 726 378.848 724.415 380.094 724 384 724 387.906 724 389.152 723.585 390 722 390.948 720.229 392.094 720 400 720 407.906 720 409.052 719.771 410 718 411.046 716.046 412.094 716 456 716 499.906 716 500.954 716.046 502 718 502.97 719.813 504.094 720 514 720 523.906 720 525.03 720.187 526 722 526.696 723.301 528.094 724 530 724 531.906 724 533.304 724.699 534 726 534.696 727.301 536.094 728 538 728 539.906 728 541.304 728.699 542 730 542.696 731.301 544.094 732 546 732 547.934 732 549.304 732.7 550.031 734.058 550.857 735.601 551.93 736.04 554.316 735.808 557.085 735.54 557.54 735.085 557.808 732.316 558.04 729.93 557.601 728.857 556.058 728.031 554.706 727.307 554 725.934 554 724.024 554 722.426 554.512 720.802 555.137 720.415 555.763 720.029 557 720.647 557.887 721.788 558.774 722.93 560.655 724.007 562.067 724.182 563.613 724.374 566.859 726.786 570.23 730.25 574.158 734.285 576.588 736 578.378 736 579.906 736 581.359 736.802 582 738 582.696 739.301 584.094 740 586 740 587.906 740 589.304 740.699 590 742 590.685 743.28 592.094 744 593.913 744 595.654 744 597.288 744.788 598.128 746.032 599.445 747.982 600.344 748.052 620.5 747.782 638.375 747.542 641.5 747.277 641.5 746 641.5 745.103 640.271 744.299 638.441 744 636.725 743.719 633.898 741.964 632 740 630.139 738.075 627.456 736.275 626.038 736 624.619 735.725 621.442 733.484 618.979 731.021 616.516 728.558 614.275 725.363 614 723.922 613.725 722.482 611.813 719.719 609.75 717.783 607.283 715.468 606 713.375 606 711.667 606 710.094 605.212 708.648 604 708 602.788 707.352 602 705.906 602 704.333 602 702.625 600.717 700.532 598.25 698.217 596.188 696.281 594.275 693.512 594 692.064 593.725 690.615 591.025 686.987 588 684 584.975 681.013 582.275 677.42 582 676.014 581.725 674.608 578.582 670.542 575.016 666.979 570.737 662.703 567.592 660.393 565.767 660.187 564.247 660.014 562.536 659.002 561.966 657.937 561.303 656.698 559.874 656 558 656 556.094 656 554.696 655.301 554 654 553.152 652.415 551.906 652 548 652 544.094 652 542.848 651.585 542 650 541.03 648.187 539.906 648 530 648 520.094 648 518.97 647.813 518 646 517.304 644.699 515.906 644 514 644 512.126 644 510.697 643.302 510.034 642.063 509.409 640.895 507.708 640.002 505.749 639.813 502.762 639.525 502.5 639.217 502.5 636 502.5 632.5 502.5 632.5 511.368 632.209 519.623 631.939 520.434 631.72 523.118 629.036 524.782 627.372 526 625.08 526 623.612 526 622.094 526.805 620.639 528 620 529.296 619.307 530 617.906 530 616.024 530 614.426 530.531 612.79 531.181 612.388 531.87 611.962 532.961 612.562 533.803 613.829 534.645 615.098 536.287 616 537.754 616 539.362 616 541.529 617.348 543.783 619.75 545.719 621.813 548.482 623.725 549.922 624 551.464 624.294 556.031 627.989 561.021 632.979 566.911 638.869 569.653 642.381 570 644.479 570.297 646.275 571.108 647.5 572 647.5 573.161 647.5 573.568 645.927 573.8 640.542 574.058 634.578 573.818 633.365 572.118 632.042 571.028 631.194 569.993 629.375 569.818 628 569.643 626.625 567.403 623.362 564.839 620.75 561.689 617.54 559.35 616 557.624 616 556.094 616 554.641 615.199 554 614 553.304 612.699 551.906 612 550 612 548.094 612 546.696 611.301 546 610 545.352 608.788 543.906 608 542.333 608 540.625 608 538.532 606.717 536.217 604.25 534.281 602.188 531.483 600.275 530 600 528.517 599.725 525.719 597.813 523.783 595.75 521.468 593.283 519.375 592 517.667 592 516.094 592 514.648 591.212 514 590 513.307 588.704 511.906 588 510.024 588 508.426 588 506.831 588.465 506.48 589.033 506.128 589.601 508.577 592.702 511.921 595.923 518 601.781 518 601.781 518 607.967 518 613.472 517.678 614.476 515.077 617.077 513.38 618.774 511.088 620 509.612 620 508.094 620 506.639 620.805 506 622 505.152 623.585 503.906 624 500 624 496.147 624 494.844 624.423 494.034 625.937 493.464 627.002 491.741 628.014 490.206 628.187 488.215 628.41 484.643 631.297 477.758 638.25 468.437 647.662 467.949 648 463.673 648 460.227 648 458.884 648.499 457.622 650.25 Z M280.121 635.793 C280.811 635.563 281.563 634.811 281.793 634.121 282.023 633.432 281.263 632.62 280.105 632.317 278.494 631.896 278 630.982 278 628.419 278 626.094 277.389 624.743 276 624 274.295 623.088 274 621.906 274 616 274 610.094 273.705 608.912 272 608 270.24 607.058 270 605.906 270 598.388 270 590.28 269.851 589.698 267.077 586.923 264.442 584.288 263.509 584 257.612 584 252.094 584 250.903 583.687 250 582 249.304 580.699 247.906 580 246 580 244.066 580 242.696 579.3 241.969 577.942 241.143 576.399 240.07 575.96 237.684 576.192 234.915 576.46 234.46 576.915 234.192 579.684 233.96 582.07 234.399 583.143 235.942 583.969 237.592 584.852 238 586.047 238 590 238 593.906 238.415 595.152 240 596 241.301 596.696 242 598.094 242 600 242 601.874 242.698 603.303 243.937 603.966 245.002 604.536 246.014 606.247 246.187 607.767 246.393 609.592 248.703 612.737 252.979 617.016 256.564 620.604 260.628 623.723 262.078 624 263.518 624.275 266.281 626.188 268.217 628.25 270.775 630.976 272.559 632 274.751 632 276.976 632 277.911 632.552 278.317 634.105 278.62 635.263 279.432 636.023 280.121 635.793 Z M636.011 635.771 C636.361 635.622 638.163 633.925 640.015 632 641.867 630.075 644.544 628.275 645.962 628 647.448 627.712 652.139 623.903 657.021 619.021 662.011 614.031 665.706 609.464 666 607.922 666.275 606.482 668.188 603.719 670.25 601.783 673.509 598.725 674 597.673 674 593.754 674 590.306 674.486 588.921 676.065 587.872 677.78 586.733 678.077 585.65 677.815 581.5 677.512 576.689 677.38 576.488 674.316 576.192 671.93 575.96 670.857 576.399 670.031 577.942 669.304 579.3 667.934 580 666 580 664.094 580 662.696 580.699 662 582 661.097 583.687 659.906 584 654.388 584 648.491 584 647.558 584.288 644.923 586.923 642.062 589.784 642 590.07 642 600.388 642 609.906 641.806 611.034 640 612 638.415 612.848 638 614.094 638 618 638 621.906 637.585 623.152 636 624 634.427 624.842 634 626.094 634 629.869 634 632.508 634.309 634.976 634.688 635.354 635.066 635.732 635.661 635.92 636.011 635.771 Z M578.5 428.5 C611.648 427.944 612.569 428.032 613.872 429.965 614.642 431.107 616.346 432 617.754 432 619.362 432 621.529 433.348 623.783 435.75 625.719 437.813 628.485 439.725 629.93 440 631.448 440.289 635.706 443.665 640.021 448 644.126 452.125 647.938 455.5 648.493 455.5 649.047 455.5 649.646 454.224 649.825 452.665 650.082 450.417 649.307 449.053 646.075 446.069 643.304 443.511 642 441.469 642 439.689 642 438.094 641.218 436.652 640 436 638.788 435.352 638 433.906 638 432.333 638 430.625 636.717 428.532 634.25 426.217 632.188 424.281 630.275 421.528 630 420.099 629.709 418.587 625.869 413.847 620.823 408.771 612.145 400.041 612.145 400.041 591.323 399.771 570.5 399.5 570.5 399.5 570.187 396.251 569.998 394.292 569.105 392.591 567.937 391.966 566.698 391.303 566 389.874 566 388 566 386.094 565.301 384.696 564 384 562.699 383.304 562 381.906 562 380 562 378.094 561.301 376.696 560 376 558.805 375.361 558 373.906 558 372.388 558 370.899 556.762 368.608 555.011 366.857 553.367 365.213 551.567 364.149 551.011 364.493 550.455 364.837 550 366.426 550 368.024 550 369.906 550.704 371.307 552 372 553.577 372.844 554 374.094 554 377.913 554 381.687 554.453 383.059 556.055 384.128 557.858 385.332 558.072 386.358 557.805 392.5 L557.5 399.5 530.657 399.766 C503.813 400.033 503.813 400.033 500.907 402.94 498.079 405.767 498 406.124 498 416 498 426.026 498.039 426.193 501.107 429.261 504.214 432.368 504.214 432.368 505.873 430.168 507.524 427.98 507.677 427.97 536.516 428.234 L565.5 428.5 565.783 437.5 C566.031 445.415 566.333 446.711 568.283 448.25 570.5 450 570.5 450 568 452 565.5 454 565.5 454 567.8 455.792 569.871 457.406 570.071 458.279 569.8 464.542 569.5 471.5 569.5 471.5 554.5 471.756 540.8 471.99 539.381 472.185 538.128 474.006 536.861 475.847 535.616 476 521.913 476 508.094 476 506.997 476.138 506 478 505.361 479.195 503.906 480 502.388 480 500.871 480 498.578 481.268 496.7 483.146 493.554 486.292 493.554 486.292 495.777 487.768 497.13 488.666 498.004 490.273 498.01 491.872 498.017 493.676 499.268 495.598 502 498 504.793 500.456 505.983 502.31 505.99 504.215 505.996 505.899 506.759 507.336 508 508 509.301 508.696 510 510.094 510 512 510 513.906 510.699 515.304 512 516 513.301 516.696 514 518.094 514 520 514 521.906 514.699 523.304 516 524 517.301 524.696 518 526.094 518 528 518 529.906 518.699 531.304 520 532 521.185 532.634 522 534.094 522 535.583 522 537.261 523.644 539.739 526.952 543.048 531.905 548 531.905 548 556.029 548 580.154 548 580.154 548 583.077 550.923 584.774 552.62 586 554.912 586 556.388 586 557.906 586.805 559.361 588 560 589.555 560.832 590 562.094 590 565.671 590 569.388 590.527 570.772 592.75 572.885 594.263 574.323 596.016 575.637 596.647 575.804 597.278 575.971 598.036 577.03 598.331 578.159 598.626 579.287 599.432 580.023 600.121 579.793 600.811 579.563 601.563 578.811 601.793 578.121 602.023 577.432 601.263 576.62 600.105 576.317 598.301 575.846 598 575.013 598 570.505 598 566.309 597.584 564.966 595.945 563.872 594.142 562.668 593.928 561.642 594.195 555.5 594.492 548.679 594.571 548.492 597.273 548.181 599.477 547.928 601.013 548.85 604.773 552.681 607.373 555.332 609.725 558.634 610 560.021 610.275 561.408 613.425 565.458 617 569.021 620.575 572.584 623.95 575.5 624.5 575.5 625.05 575.5 625.646 574.224 625.825 572.665 626.082 570.417 625.307 569.053 622.075 566.069 619.304 563.511 618 561.469 618 559.689 618 558.094 617.218 556.652 616 556 614.72 555.315 614 553.906 614 552.087 614 550.258 613.207 548.717 611.777 547.768 609.554 546.292 609.554 546.292 612.7 543.146 614.578 541.268 616.871 540 618.388 540 619.879 540 621.358 539.199 621.966 538.063 622.536 536.998 624.24 535.986 625.751 535.813 627.557 535.607 630.816 533.207 635.25 528.816 642 522.132 642 522.132 642 507.989 642 493.846 642 493.846 639.077 490.923 637.38 489.226 635.088 488 633.612 488 632.094 488 630.639 487.195 630 486 629.304 484.699 627.906 484 626 484 624.094 484 622.696 483.301 622 482 621.09 480.299 619.906 480 614.087 480 608.392 480 607.014 479.667 605.872 478.017 604.703 476.328 603.168 475.995 595.5 475.767 586.5 475.5 586.5 475.5 586.187 472.251 585.998 470.292 585.105 468.591 583.937 467.966 582.245 467.061 582 465.81 582 458.087 582 450.288 581.758 449.082 579.952 447.872 578.099 446.631 577.932 445.64 578.202 437.5 Z M348 500 C375.591 500 376.978 499.91 377.966 498.063 378.591 496.895 380.292 496.002 382.251 495.813 384.952 495.553 385.553 495.039 385.815 492.767 386.064 490.607 385.078 488.983 381.112 485.017 377.752 481.657 375.266 480 373.583 480 372.094 480 370.634 479.185 370 478 369.304 476.699 367.906 476 366 476 364.094 476 362.696 475.301 362 474 361.003 472.137 359.906 472 346 472 332.094 472 330.997 472.137 330 474 329.088 475.705 327.906 476 322 476 316.094 476 314.912 476.295 314 478 313.152 479.585 311.906 480 308 480 304.094 480 302.848 480.415 302 482 301.153 483.583 299.906 484 296.024 484 293.326 484 290.837 484.455 290.493 485.011 290.149 485.567 291.213 487.367 292.857 489.011 294.608 490.762 296.899 492 298.388 492 299.906 492 301.361 492.805 302 494 302.912 495.705 304.094 496 310 496 315.906 496 317.088 496.295 318 498 319.033 499.929 320.094 500 348 500 Z M326.5 459.5 L380.178 460.033 389.839 469.954 C395.153 475.411 399.95 479.756 400.5 479.611 401.05 479.465 401.639 477.948 401.808 476.239 402.038 473.93 401.589 472.85 400.058 472.031 398.285 471.082 398 469.972 398 464 398 458.094 397.705 456.912 396 456 394.815 455.366 394 453.906 394 452.417 394 450.739 392.356 448.261 389.048 444.952 384.095 440 384.095 440 357.971 440 331.846 440 331.846 440 328.877 442.969 326.088 445.758 325.925 446.351 326.204 452.719 Z M214.5 475.728 C221.5 475.5 221.5 475.5 221.813 472.251 222.002 470.292 222.895 468.591 224.063 467.966 225.302 467.303 226 465.874 226 464 226 462.094 226.699 460.696 228 460 229.585 459.152 230 457.906 230 454 230 450.094 230.415 448.848 232 448 233.585 447.152 234 445.906 234 442 234 438.094 234.415 436.848 236 436 237.585 435.152 238 433.906 238 430 238 426.094 238.415 424.848 240 424 241.771 423.052 242 421.906 242 414 242 406.094 242.229 404.948 244 404 245.863 403.003 246 401.906 246 388 246 374.094 246.137 372.997 248 372 249.945 370.959 250 369.906 250 334 250 298.094 250.055 297.041 252 296 253.759 295.059 254 293.906 254 286.43 254 277.931 254 277.931 260.966 270.966 267.522 264.409 268.195 264 272.43 264 275.906 264 277.173 264.455 278 266 278.948 267.771 280.094 268 288 268 295.906 268 297.052 267.771 298 266 298.641 264.802 300.094 264 301.622 264 303.412 264 305.842 262.285 309.77 258.25 312.848 255.088 316.419 252.357 317.706 252.181 319.413 251.949 321.322 253.164 324.773 256.681 327.373 259.332 329.725 262.634 330 264.021 330.275 265.408 333.416 269.458 336.979 273.021 340.561 276.603 344.629 279.724 346.078 280 347.518 280.275 350.281 282.188 352.217 284.25 354.532 286.717 356.625 288 358.333 288 359.906 288 361.352 288.788 362 290 362.685 291.28 364.094 292 365.913 292 367.721 292 369.281 292.79 370.197 294.171 371.039 295.438 372.13 296.038 372.819 295.612 373.469 295.21 374 293.574 374 291.976 374 290.094 374.704 288.693 376 288 377.583 287.153 378 285.906 378 282.024 378 279.326 378.472 276.827 379.048 276.47 379.625 276.114 381.718 277.55 383.7 279.661 385.681 281.773 388.517 283.725 390 284 391.483 284.275 394.281 286.188 396.217 288.25 398.532 290.717 400.625 292 402.333 292 403.906 292 405.352 292.788 406 294 406.847 295.583 408.094 296 411.976 296 414.674 296 417.21 295.469 417.612 294.819 418.038 294.13 417.438 293.039 416.171 292.197 414.059 290.795 414 290.192 414 269.937 414 256.312 414.367 248.891 415.063 248.461 415.648 248.1 417.829 249.648 419.91 251.902 422.486 254.693 424.528 256 426.311 256 427.906 256 429.348 256.782 430 258 430.696 259.301 432.094 260 434 260 435.906 260 437.304 260.699 438 262 438.848 263.585 440.094 264 444 264 447.906 264 449.152 264.415 450 266 450.685 267.28 452.094 268 453.913 268 455.665 268 457.283 268.786 458.128 270.048 459.369 271.901 460.36 272.068 468.5 271.798 477.5 271.5 477.5 271.5 478 264 478.5 256.5 478.5 256.5 481.503 256.5 484.001 256.5 486.435 258.433 495.979 268 502.846 274.883 508.477 279.701 510.004 280 511.42 280.277 515.872 283.838 520.005 288 525.084 293.114 528.335 295.6 530.225 295.813 531.75 295.986 533.464 296.998 534.034 298.063 534.824 299.539 536.143 300 539.578 300 543.979 300 544.342 299.744 554.793 289.25 562.409 281.604 565.644 277.634 566 275.5 566.444 272.833 566.889 272.5 570 272.5 573.117 272.5 573.555 272.83 574 275.521 574.365 277.726 577.871 281.911 586.984 291.021 596 300.033 600.236 303.587 602.233 303.813 603.753 303.986 605.464 304.998 606.034 306.063 606.697 307.302 608.126 308 610 308 611.906 308 613.304 307.301 614 306 614.912 304.295 616.094 304 622 304 627.906 304 629.088 303.705 630 302 630.903 300.313 632.094 300 637.601 300 644.132 300 644.132 300 650.816 306.75 655.207 311.184 657.607 314.443 657.813 316.249 657.986 317.76 658.998 319.464 660.063 320.034 661.892 321.013 662 322.343 662 344 662 365.906 662.089 366.977 664 368 665.813 368.97 666 370.094 666 380 666 389.906 666.187 391.03 668 392 669.771 392.948 670 394.094 670 402 670 409.906 670.229 411.052 672 412 673.705 412.912 674 414.094 674 420 674 425.906 674.295 427.088 676 428 677.705 428.912 678 430.094 678 436 678 441.906 678.295 443.088 680 444 681.585 444.848 682 446.094 682 450 682 453.906 682.415 455.152 684 456 685.546 456.828 686 458.094 686 461.583 686 465.666 686.477 466.572 691.017 471.112 694.983 475.078 696.607 476.064 698.767 475.815 701.5 475.5 701.5 475.5 701.775 436.5 702.044 398.303 702.008 397.472 700.025 396.128 698.062 394.798 698 393.77 698 362.301 698 329.846 698 329.846 695.137 326.983 692.911 324.758 691.187 324.052 687.387 323.81 682.702 323.513 682.487 323.369 682.192 320.316 681.96 317.93 682.399 316.857 683.942 316.031 685.3 315.304 686 313.934 686 312 686 310.094 686.699 308.696 688 308 689.721 307.079 690 305.906 690 299.581 690 292.952 690.206 292.179 692.105 291.683 693.263 291.38 694.023 290.568 693.793 289.879 693.563 289.189 692.811 288.437 692.121 288.207 691.432 287.977 690.62 288.737 690.317 289.895 690.014 291.053 689.16 292 688.419 292 687.677 292 686.589 292.9 686 294 685.304 295.301 683.906 296 682 296 680.094 296 678.696 296.699 678 298 677.153 299.583 675.906 300 672.024 300 669.326 300 666.79 299.469 666.388 298.819 665.962 298.13 666.562 297.039 667.829 296.197 669.705 294.952 670 293.826 670 287.913 670 282.094 670.299 280.91 672 280 673.771 279.052 674 277.906 674 270 674 262.094 673.771 260.948 672 260 670.415 259.152 670 257.906 670 254 670 250.094 669.585 248.848 668 248 666.415 247.152 666 245.906 666 242 666 238.094 665.585 236.848 664 236 662.704 235.307 662 233.906 662 232.024 662 230.426 661.545 228.837 660.989 228.493 660.433 228.149 658.633 229.213 656.989 230.857 654.28 233.567 654 234.458 654 240.388 654 245.906 653.687 247.097 652 248 650.699 248.696 650 250.094 650 252 650 253.906 649.301 255.304 648 256 646.815 256.634 646 258.094 646 259.583 646 261.265 644.345 263.75 640.993 267.102 638.239 269.856 635.539 271.833 634.993 271.496 634.447 271.158 634 268.674 634 265.976 634 262.094 634.417 260.847 636 260 637.918 258.974 638 257.906 638 234 638 210.094 637.918 209.026 636 208 634.295 207.088 634 205.906 634 200 634 194.094 633.705 192.912 632 192 630.445 191.168 630 189.906 630 186.333 630 182.313 629.529 181.294 626.25 178.217 624.188 176.281 622.275 173.518 622 172.078 621.687 170.439 616.829 164.787 609.021 156.979 601.371 149.329 595.544 144.307 593.962 144 592.544 143.725 589.861 141.925 588 140 586.139 138.075 583.439 136.275 582 136 580.561 135.725 577.861 133.925 576 132 574.139 130.075 571.45 128.275 570.024 128 568.597 127.725 564.987 125.025 562 122 559.013 118.975 555.418 116.275 554.011 116 552.474 115.7 546.871 110.909 539.979 104 530.435 94.433 528.001 92.5 525.503 92.5 522.859 92.5 522.463 92.881 522.192 95.684 521.96 98.07 522.399 99.143 523.942 99.969 525.238 100.663 526.004 102.075 526.01 103.785 526.017 105.69 527.207 107.544 530 110 532.793 112.456 533.983 114.31 533.99 116.215 533.996 117.899 534.759 119.336 536 120 537.301 120.696 538 122.094 538 124 538 125.906 538.699 127.304 540 128 541.301 128.696 542 130.094 542 132 542 133.906 542.699 135.304 544 136 545.585 136.848 546 138.094 546 142 546 145.906 546.415 147.152 548 148 549.705 148.912 550 150.094 550 156 550 161.906 550.295 163.088 552 164 553.301 164.696 554 166.094 554 168 554 169.906 554.699 171.304 556 172 557.421 172.761 558 174.094 558 176.609 558 178.945 557.575 180.037 556.75 179.823 556.063 179.646 553.362 177.403 550.75 174.839 547.54 171.689 546 169.35 546 167.624 546 166.094 545.199 164.641 544 164 542.295 163.088 542 161.906 542 156 542 150.094 541.705 148.912 540 148 538.699 147.304 538 145.906 538 144 538 142.094 537.301 140.696 536 140 534.788 139.352 534 137.906 534 136.333 534 134.625 532.717 132.532 530.25 130.217 528.188 128.281 526.275 125.518 526 124.078 525.67 122.347 517.872 113.83 503.021 98.979 488.17 84.128 479.653 76.33 477.922 76 476.482 75.725 473.681 73.773 471.7 71.661 469.718 69.55 467.625 68.114 467.048 68.47 466.472 68.827 466 70.426 466 72.024 466 73.906 466.704 75.307 468 76 469.842 76.986 470 78.094 470 90 470 101.906 470.158 103.014 472 104 473.771 104.948 474 106.094 474 114 474 121.906 474.229 123.052 476 124 477.705 124.912 478 126.094 478 132 478 137.906 478.295 139.088 480 140 481.296 140.693 482 142.094 482 143.976 482 145.574 481.545 147.163 480.989 147.507 480.433 147.851 478.633 146.787 476.989 145.143 475.238 143.392 474 141.101 474 139.612 474 138.094 473.195 136.639 472 136 470.699 135.304 470 133.906 470 132 470 130.094 469.301 128.696 468 128 466.415 127.152 466 125.906 466 122 466 118.094 465.585 116.848 464 116 462.415 115.152 462 113.906 462 110 462 106.094 461.585 104.848 460 104 458.239 103.058 458 101.906 458 94.376 458 85.822 458 85.822 453.25 81.161 450.638 78.597 447.366 76.275 445.979 76 444.482 75.703 438.388 70.43 430.979 63.021 423.329 55.371 418.307 49.544 418 47.962 417.725 46.544 415.925 43.861 414 42 412.036 40.102 410.281 37.275 410 35.559 409.701 33.729 408.897 32.5 408 32.5 407.039 32.5 406.387 33.667 406.187 35.749 405.998 37.708 405.105 39.409 403.937 40.034 402.174 40.977 402 42.235 402 54 402 65.906 401.842 67.014 400 68 398.137 68.997 398 70.094 398 84 398 97.906 397.863 99.003 396 100 394.032 101.053 394 102.094 394 166 394 229.906 394.032 230.947 396 232 397.842 232.986 398 234.094 398 246 398 258.028 398.143 259.006 400.058 260.031 401.601 260.857 402.04 261.93 401.808 264.316 401.551 266.974 401.035 267.553 398.682 267.823 396.629 268.058 395.137 267.38 393.182 265.323 391.707 263.77 390.275 261.364 390 259.976 389.705 258.487 384.783 252.753 378 245.995 369.736 237.762 366.412 233.759 366.187 231.77 366.014 230.248 365.002 228.536 363.937 227.966 362.778 227.346 362 225.878 362 224.311 362 222.546 360.718 220.509 358.063 218.059 354.648 214.905 354.085 213.768 353.813 209.462 353.586 205.857 353.09 204.5 352 204.5 350.775 204.5 350.446 206.519 350.207 215.5 349.936 225.64 350.073 226.607 351.957 227.872 353.757 229.081 354 230.296 354 238.087 354 245.906 354.231 247.054 356 248 357.585 248.848 358 250.094 358 254 358 257.906 358.415 259.152 360 260 361.419 260.76 362 262.094 362 264.596 362 267.972 361.863 268.108 358.736 267.81 356.04 267.554 352.952 264.981 340.986 253.021 331.761 243.801 326.318 237.591 326 235.922 325.725 234.482 323.813 231.719 321.75 229.783 319.283 227.468 318 225.375 318 223.667 318 222.094 317.212 220.648 316 220 314.415 219.152 314 217.906 314 214 314 210.094 313.585 208.848 312 208 310.295 207.088 310 205.906 310 200 310 194.094 309.705 192.912 308 192 306.108 190.988 306 189.906 306 172.024 306 160.626 305.607 152.875 305.01 152.506 304.466 152.17 298.747 157.206 292.303 163.697 285.05 171.003 279.594 175.69 277.984 176 276.554 176.275 273.861 178.075 272 180 270.139 181.925 267.456 183.725 266.038 184 264.427 184.312 258.017 189.943 248.979 198.984 238.388 209.579 234.416 214.211 234.187 216.233 234.014 217.753 233.002 219.464 231.937 220.034 230.698 220.697 230 222.126 230 224 230 225.906 229.301 227.304 228 228 226.415 228.848 226 230.094 226 234 226 237.906 225.585 239.152 224 240 222.415 240.848 222 242.094 222 246 222 249.906 221.585 251.152 220 252 218.699 252.696 218 254.094 218 256 218 257.906 217.301 259.304 216 260 214.782 260.652 214 262.094 214 263.689 214 265.481 212.679 267.526 209.816 270.17 207.237 272.55 205.991 274.387 206.566 274.956 207.08 275.464 209.75 276.02 212.5 276.19 217.5 276.5 217.5 276.5 217.778 305.5 218.047 333.673 217.997 334.539 216.028 335.872 214.1 337.177 214 338.267 214 358.087 214 377.906 213.902 378.982 212 380 210.082 381.026 210 382.094 210 406 210 429.906 209.918 430.974 208 432 206.137 432.997 206 434.094 206 448 206 461.906 205.863 463.003 204 464 202.81 464.637 202 466.094 202 467.599 202 468.99 203.237 471.439 204.75 473.042 207.332 475.778 207.927 475.942 214.5 475.728 Z M492.046 471.771 C492.415 471.622 494.296 469.813 496.226 467.75 498.538 465.281 500.623 464 502.333 464 503.906 464 505.352 463.212 506 462 506.848 460.415 508.094 460 512 460 515.906 460 517.152 459.585 518 458 519.011 456.11 520.094 456 537.612 456 556.154 456 556.154 456 559.077 453.077 560.685 451.469 562 449.185 562 448 562 446.815 560.685 444.531 559.077 442.923 556.154 440 556.154 440 531.612 440 508.094 440 507.026 440.083 506 442 505.361 443.195 503.906 444 502.388 444 500.912 444 498.62 445.226 496.923 446.923 494.55 449.296 494 450.701 494 454.388 494 457.906 493.549 459.171 492 460 490.427 460.842 490 462.094 490 465.869 490 468.508 490.309 470.976 490.688 471.354 491.066 471.732 491.677 471.92 492.046 471.771 Z M308 423.5 C311.244 428 311.244 428 358 428 404.756 428 404.756 428 406.232 430.223 407.708 432.446 407.708 432.446 410.854 429.3 413.969 426.185 414 426.053 414 416 414 406.111 413.924 405.77 411.077 402.923 408.154 400 408.154 400 354.011 400 L299.868 400 293.184 406.75 C289.508 410.462 286.275 414.651 286 416.059 285.725 417.466 283.925 420.139 282 422 280.075 423.861 278.275 426.561 278 428 277.725 429.439 275.925 432.139 274 434 272.075 435.861 270.275 438.561 270 440 269.725 441.439 267.925 444.139 266 445.998 264.075 447.858 262.352 450.227 262.171 451.263 261.99 452.298 262.103 453.825 262.421 454.656 262.74 455.487 263.362 456.016 263.804 455.833 264.246 455.65 267.042 453.025 270.019 450 272.995 446.975 276.602 444.275 278.034 444 279.465 443.725 283.155 440.913 286.232 437.75 290.159 433.714 292.587 432 294.378 432 295.906 432 297.359 431.198 298 430 298.685 428.72 300.094 428 301.913 428 303.714 428 305.351 427.175 306.378 425.75 Z M364.188 271.771 C363.535 271.988 362.72 271.435 362.377 270.54 362.034 269.646 362.014 268.653 362.333 268.333 362.653 268.014 363.646 268.034 364.54 268.377 365.434 268.72 365.988 269.535 365.771 270.188 365.553 270.841 364.841 271.553 364.188 271.771 Z M560.188 183.771 C559.535 183.988 558.72 183.435 558.377 182.54 558.034 181.646 558.014 180.653 558.333 180.333 558.653 180.014 559.646 180.034 560.54 180.377 561.434 180.72 561.988 181.535 561.771 182.188 561.553 182.841 560.841 183.553 560.188 183.771 Z" fill="#00a2ff" fill-opacity="1" stroke="none"/>
 <path id="Shape-1" d="M201.5 647.5 C188.351 648.075 187.758 647.912 184.969 645.123 183.235 643.388 182 641.097 182 639.612 182 638.094 181.195 636.639 180 636 178.089 634.977 178 633.906 178 612 178 590.094 177.911 589.023 176 588 174.699 587.304 174 585.906 174 584 174 582.094 173.301 580.696 172 580 170.699 579.304 170 577.906 170 576 170 574.094 169.301 572.696 168 572 166.669 571.288 166 569.906 166 567.871 166 565.654 165.45 564.669 164 564.29 162.038 563.777 162 562.926 162 520 162 477.074 162.038 476.223 164 475.71 165.363 475.354 166 474.346 166 472.546 166 470.717 167.508 468.397 170.905 465 175.718 460.187 175.936 460.09 182.655 459.798 L189.5 459.5 189.746 428.5 C189.982 398.746 190.072 397.445 191.996 396.128 193.928 394.805 194 393.654 194 364 194 334.193 194.063 333.202 196.033 331.872 197.975 330.561 198.054 329.652 197.783 311.5 197.5 292.5 197.5 292.5 192.5 292 187.928 291.543 186.916 290.922 180.684 284.751 175.076 279.198 173.923 277.513 174.184 275.251 174.476 272.706 174.875 272.478 179.5 272.201 182.939 271.995 184.968 271.314 186 270.019 186.825 268.983 188.625 267.993 190 267.818 191.375 267.643 194.638 265.403 197.25 262.839 202 258.178 202 258.178 202 247.624 202 238.094 202.194 236.967 204 236 205.301 235.304 206 233.906 206 232 206 230.094 206.699 228.696 208 228 209.301 227.304 210 225.906 210 224 210 222.094 210.699 220.696 212 220 213.301 219.304 214 217.906 214 216 214 214.094 214.699 212.696 216 212 217.212 211.352 218 209.906 218 208.333 218 206.625 219.283 204.532 221.75 202.217 223.994 200.11 225.701 197.453 226 195.599 226.407 193.079 227.066 192.407 229.528 192 231.602 191.658 234.902 189.136 240 184 244.16 179.808 248.574 176.279 250.007 176 251.416 175.725 255.013 173.025 258 170 260.987 166.975 264.58 164.275 265.986 164 267.439 163.716 272.203 159.837 277.021 155.016 282.875 149.158 285.597 145.676 285.813 143.767 285.986 142.247 286.998 140.536 288.063 139.966 289.302 139.303 290 137.874 290 136 290 134.094 290.699 132.696 292 132 293.301 131.304 294 129.906 294 128 294 126.126 294.698 124.697 295.937 124.034 297.105 123.409 297.998 121.708 298.187 119.749 298.492 116.586 298.646 116.487 304 116 309.5 115.5 309.5 115.5 309.767 106.5 309.995 98.832 310.328 97.297 312.017 96.128 313.532 95.08 314 93.614 314 89.913 314 86.094 314.423 84.844 316 84 317.301 83.304 318 81.906 318 80 318 78.094 318.699 76.696 320 76 321.212 75.352 322 73.906 322 72.333 322 70.625 323.283 68.532 325.75 66.217 327.994 64.11 329.701 61.453 330 59.599 330.448 56.819 330.861 56.5 334 56.5 337.5 56.5 337.5 56.5 338 92 338.432 122.667 338.704 127.5 340 127.5 341.278 127.5 341.537 124.389 341.751 106.5 341.986 86.778 342.123 85.417 344.001 84.128 345.825 82.876 346 81.631 346 69.913 346 58.094 346.159 56.985 348 56 349.301 55.304 350 53.906 350 52 350 50.094 350.699 48.696 352 48 353.28 47.315 354 45.906 354 44.087 354 42.392 354.794 40.69 355.966 39.872 357.39 38.878 358.01 37.122 358.216 33.5 358.5 28.507 358.505 28.5 362 28.5 365.5 28.5 365.5 28.5 365.762 39.5 365.993 49.18 366.263 50.665 368.012 51.872 369.533 52.922 370 54.381 370 58.087 370 61.906 370.423 63.156 372 64 373.195 64.639 374 66.094 374 67.612 374 69.101 375.238 71.392 376.989 73.143 378.633 74.787 380.433 75.851 380.989 75.507 381.597 75.131 382 68.943 382 59.976 382 46.094 382.137 44.997 384 44 385.705 43.088 386 41.906 386 36 386 30.094 386.295 28.912 388 28 389.301 27.304 390 25.906 390 24 390 22.094 390.699 20.696 392 20 393.301 19.304 394 17.906 394 16 394 14.094 394.699 12.696 396 12 397.301 11.304 398 9.906 398 8 398 6.094 398.699 4.696 400 4 401.1 3.411 402 2.27 402 1.465 402 0.423 403.154 0 406 0 408.846 0 410 0.423 410 1.465 410 2.27 410.9 3.411 412 4 413.301 4.696 414 6.094 414 8 414 9.906 414.699 11.304 416 12 417.212 12.648 418 14.094 418 15.667 418 17.375 419.283 19.468 421.75 21.783 423.813 23.719 425.725 26.472 426 27.901 426.302 29.473 430.755 34.772 437.26 41.303 443.177 47.245 448.465 51.831 449.01 51.494 449.554 51.157 450 47.774 450 43.976 450 38.094 450.296 36.912 452 36 453.301 35.304 454 33.906 454 32 454 30.126 454.698 28.697 455.937 28.034 457.105 27.409 457.998 25.708 458.187 23.749 458.475 20.762 458.783 20.5 462 20.5 465.5 20.5 465.5 20.5 465.774 27.5 465.995 33.15 466.429 34.765 468.024 35.872 469.207 36.693 470 38.385 470 40.087 470 41.875 470.718 43.314 471.937 43.966 473.002 44.536 474.014 46.24 474.187 47.751 474.412 49.728 478.085 54.095 487.264 63.301 494.283 70.341 500.471 75.827 501.014 75.492 501.556 75.156 502 71.049 502 66.364 502 58.239 502.138 57.708 504.99 54.856 507.153 52.693 508.745 51.953 510.74 52.183 512.936 52.435 513.602 53.118 514 55.521 514.365 57.726 517.871 61.913 526.979 71.021 534.506 78.548 540.47 83.698 542.007 84 543.42 84.277 547.874 87.843 552 92 556.218 96.25 560.565 99.717 562.03 100 563.453 100.275 566.139 102.075 568 104 569.861 105.925 572.561 107.725 574 108 575.439 108.275 578.139 110.075 580 112 581.861 113.925 584.55 115.725 585.976 116 587.403 116.275 591.013 118.975 594 122 596.987 125.025 600.582 127.725 601.989 128 603.529 128.301 609.11 133.081 616 140 622.838 146.867 628.478 151.701 629.997 152 631.397 152.275 634.558 154.516 637.021 156.979 639.484 159.442 641.725 162.608 642 164.014 642.275 165.42 644.975 169.013 648 172 651.025 174.987 653.725 178.615 654 180.064 654.275 181.512 656.188 184.281 658.25 186.217 660.717 188.532 662 190.625 662 192.333 662 193.906 662.788 195.352 664 196 665.301 196.696 666 198.094 666 200 666 201.906 666.699 203.304 668 204 669.301 204.696 670 206.094 670 208 670 209.906 670.699 211.304 672 212 673.301 212.696 674 214.094 674 216 674 217.906 674.699 219.304 676 220 677.301 220.696 678 222.094 678 224 678 225.906 678.699 227.304 680 228 681.771 228.948 682 230.094 682 238 682 245.906 682.229 247.052 684 248 685.77 248.947 686 250.094 686 257.976 686 262.874 686.452 267.161 687.005 267.503 687.558 267.845 691.045 265.059 694.755 261.312 698.465 257.565 701.725 253.375 702 252 702.275 250.625 704.629 247.33 707.23 244.679 709.832 242.027 712.419 240.141 712.98 240.488 713.625 240.886 714 249.534 714 264.024 714 285.906 713.911 286.977 712 288 710.04 289.049 710 290.094 710 340 710 389.906 710.04 390.951 712 392 713.863 392.997 714 394.094 714 408 714 421.906 714.137 423.003 716 424 717.842 424.986 718 426.094 718 438 718 449.765 718.174 451.023 719.937 451.966 721.105 452.591 721.998 454.292 722.187 456.251 722.487 459.363 722.711 459.521 727.5 460 731.792 460.429 733.173 461.16 737.25 465.161 741.539 469.369 742 470.264 742 474.376 742 477.906 742.449 479.17 744 480 745.595 480.854 746 482.094 746 486.129 746 490.346 746.333 491.274 748 491.71 749.947 492.219 750 493.074 750 524 750 554.926 749.947 555.781 748 556.29 746.55 556.669 746 557.654 746 559.871 746 561.906 745.331 563.288 744 564 742.699 564.696 742 566.094 742 568 742 569.906 741.301 571.304 740 572 738.699 572.696 738 574.094 738 576 738 577.906 737.301 579.304 736 580 734.699 580.696 734 582.094 734 584 734 585.906 733.301 587.304 732 588 730.108 589.012 730 590.094 730 608 730 625.906 729.892 626.988 728 628 726.455 628.827 726 630.094 726 633.57 726 637.808 725.593 638.476 718.979 645.09 711.958 652.111 711.958 652.111 708.979 649.133 706 646.154 706 646.154 706 619.612 706 594.094 706.077 593.029 708 592 709.212 591.352 710 589.906 710 588.333 710 586.625 711.283 584.532 713.75 582.217 715.813 580.281 717.725 577.484 718 576 718.275 574.516 720.188 571.719 722.25 569.783 724.717 567.468 726 565.375 726 563.667 726 562.094 726.788 560.648 728 560 729.585 559.152 730 557.906 730 554 730 550.094 730.415 548.848 732 548 733.902 546.982 734 545.906 734 526 734 506.094 733.902 505.018 732 504 730.24 503.058 730 501.906 730 494.388 730 486.24 729.862 485.709 727.015 482.861 724.029 479.875 724.029 479.875 719.015 484.89 714 489.905 714 489.905 714 500.417 714 509.906 714.195 511.034 716 512 717.771 512.948 718 514.094 718 522 718 529.906 718.229 531.052 720 532 721.705 532.912 722 534.094 722 540 722 545.906 721.705 547.088 720 548 718.445 548.832 718 550.094 718 553.667 718 557.687 717.529 558.706 714.25 561.783 712.188 563.719 710.275 566.516 710 568 709.725 569.484 707.813 572.281 705.75 574.217 702.151 577.594 702 578.002 702 584.333 702 589.906 701.69 591.096 700 592 698.108 593.012 698 594.094 698 612 698 629.906 697.892 630.988 696 632 694.137 632.997 694 634.094 694 648 694 661.906 693.863 663.003 692 664 690.158 664.986 690 666.094 690 678 690 689.906 689.842 691.014 688 692 686.158 692.986 686 694.094 686 706 686 717.906 685.842 719.014 684 720 682.158 720.986 682 722.094 682 734 682 745.906 681.842 747.014 680 748 678.229 748.948 678 750.094 678 758 678 765.906 677.771 767.052 676 768 674.788 768.648 674 770.094 674 771.667 674 773.375 672.717 775.468 670.25 777.783 668.188 779.719 666.275 782.482 666 783.922 665.67 785.653 657.872 794.17 643.021 809.021 628.668 823.374 619.621 831.681 617.993 832 616.58 832.277 612.126 835.843 608 840 603.782 844.25 599.435 847.717 597.97 848 596.547 848.275 593.861 850.075 592 852 590.139 853.925 587.421 855.725 585.96 856 584.498 856.275 581.719 858.188 579.783 860.25 577.468 862.717 575.375 864 573.667 864 572.094 864 570.648 864.788 570 866 569.304 867.301 567.906 868 566 868 564.066 868 562.696 868.7 561.969 870.058 561.143 871.601 560.07 872.04 557.684 871.808 554.782 871.527 554.472 871.162 554.186 867.689 553.99 865.307 553.416 863.995 552.655 864.189 551.986 864.36 545.388 870.575 537.992 878 529.465 886.561 523.587 891.683 521.924 892 520.483 892.275 517.719 894.188 515.783 896.25 513.468 898.717 511.375 900 509.667 900 508.094 900 506.648 900.788 506 902 505.304 903.301 503.906 904 502 904 500.094 904 498.696 904.699 498 906 497.146 907.595 495.906 908 491.871 908 487.654 908 486.726 908.333 486.29 910 485.781 911.947 484.926 912 454 912 423.074 912 422.219 911.947 421.71 910 421.274 908.333 420.346 908 416.129 908 412.094 908 410.854 907.595 410 906 409.304 904.699 407.906 904 406 904 404.094 904 402.696 903.301 402 902 401.352 900.788 399.906 900 398.333 900 396.625 900 394.532 898.717 392.217 896.25 390.281 894.188 387.518 892.275 386.076 892 384.39 891.678 377.942 885.968 368.008 876 359.512 867.475 351.984 860.354 351.28 860.177 350.425 859.961 350 860.999 350 863.305 350 865.737 350.641 867.182 352.171 868.197 353.438 869.039 354.038 870.13 353.612 870.819 353.21 871.469 351.574 872 349.976 872 348.094 872 346.693 871.296 346 870 345.304 868.699 343.906 868 342 868 340.094 868 338.696 867.301 338 866 337.304 864.699 335.906 864 334 864 332.094 864 330.696 863.301 330 862 329.352 860.788 327.906 860 326.333 860 324.625 860 322.532 858.717 320.217 856.25 318.281 854.188 315.515 852.275 314.07 852 312.549 851.71 308.313 848.345 304 844 299.874 839.843 295.42 836.277 294.007 836 292.379 835.681 283.332 827.374 268.979 813.021 254.337 798.379 246.326 789.639 246 787.953 245.725 786.528 242.912 782.845 239.75 779.768 234.412 774.574 234 773.847 234 769.622 234 766.094 233.55 764.83 232 764 230.229 763.052 230 761.906 230 754 230 746.094 229.771 744.948 228 744 226.187 743.03 226 741.906 226 732 226 722.094 225.813 720.97 224 720 222.187 719.03 222 717.906 222 708 222 698.094 221.813 696.97 220 696 218.158 695.014 218 693.906 218 682 218 670.094 217.842 668.986 216 668 214.158 667.014 214 665.906 214 654 214 642.094 213.842 640.986 212 640 210.121 638.994 210 637.906 210 622 210 606.094 209.879 605.006 208 604 206.187 603.03 206 601.906 206 592 206 582.094 205.813 580.97 204 580 202.759 579.336 201.996 577.899 201.99 576.215 201.983 574.31 200.793 572.456 198 570 195.207 567.544 194.017 565.69 194.01 563.785 194.004 562.101 193.241 560.664 192 560 190.699 559.304 190 557.906 190 556 190 554.094 189.301 552.696 188 552 186.229 551.052 186 549.906 186 542 186 534.094 186.229 532.948 188 532 189.813 531.03 190 529.906 190 520 190 510.094 190.187 508.97 192 508 193.76 507.058 194 505.906 194 498.417 194 489.905 194 489.905 188.985 484.89 183.971 479.875 183.971 479.875 180.985 482.861 178.28 485.566 178 486.46 178 492.388 178 497.906 177.687 499.097 176 500 174.089 501.023 174 502.094 174 524 174 545.906 174.089 546.977 176 548 177.585 548.848 178 550.094 178 554 178 557.906 178.415 559.152 180 560 181.212 560.648 182 562.094 182 563.667 182 565.375 183.283 567.468 185.75 569.783 187.813 571.719 189.725 574.516 190 576 190.275 577.484 192.188 580.281 194.25 582.217 197.509 585.275 198 586.327 198 590.246 198 593.66 198.493 595.089 200.029 596.128 201.991 597.454 202.049 598.336 201.779 622.5 Z M555.25 863.823 C555.938 863.646 557.737 862.323 559.25 860.885 560.875 859.341 562 857.206 562 855.671 562 854.094 562.787 852.649 564 852 565.301 851.304 566 849.906 566 848 566 846.094 566.699 844.696 568 844 569.296 843.307 570 841.906 570 840.024 570 838.426 569.545 836.837 568.989 836.493 568.433 836.149 566.633 837.213 564.989 838.857 563.238 840.608 562 842.899 562 844.388 562 845.906 561.195 847.361 560 848 558.699 848.696 558 850.094 558 852 558 853.906 557.301 855.304 556 856 554.579 856.761 554 858.094 554 860.609 554 862.945 554.425 864.037 555.25 863.823 Z M348.75 859.952 C349.519 859.981 350 858.666 350 856.535 350 854.094 349.409 852.754 348 852 346.699 851.304 346 849.906 346 848 346 846.126 345.302 844.697 344.063 844.034 342.895 843.409 342.002 841.708 341.813 839.749 341.613 837.667 340.961 836.5 340 836.5 338.909 836.5 338.414 837.862 338.185 841.5 337.923 845.65 338.22 846.733 339.935 847.872 341.083 848.635 342 850.328 342 851.686 342 853.029 343.238 855.427 344.75 857.016 346.262 858.604 348.063 859.925 348.75 859.952 Z M457.572 812 C468.074 812 468.074 812 480.787 799.253 488.673 791.347 493.69 785.518 494 783.905 494.275 782.474 496.188 779.719 498.25 777.783 500.976 775.225 502 773.441 502 771.249 502 769.024 502.552 768.089 504.105 767.683 505.263 767.38 506.023 766.568 505.793 765.879 505.563 765.189 504.811 764.437 504.121 764.207 503.432 763.977 502.62 764.737 502.317 765.895 502.014 767.053 501.16 768 500.419 768 499.677 768 498.589 768.9 498 770 497.304 771.301 495.906 772 494 772 492.094 772 490.696 772.699 490 774 489.052 775.771 487.906 776 480 776 472.094 776 470.948 776.229 470 778 469.003 779.863 467.906 780 454 780 440.094 780 438.997 779.863 438 778 437.088 776.295 435.906 776 430 776 424.094 776 422.912 775.705 422 774 421.315 772.72 419.906 772 418.087 772 416.279 772 414.719 771.21 413.803 769.829 412.961 768.562 411.87 767.962 411.181 768.388 410.531 768.79 410 770.276 410 771.691 410 773.372 411.3 775.484 413.75 777.783 415.813 779.719 417.725 782.482 418 783.922 418.305 785.523 422.579 790.619 428.984 797.021 436.421 804.454 440.272 807.591 442.233 807.813 443.753 807.986 445.464 808.998 446.034 810.063 446.958 811.79 448.208 812 457.572 812 Z M290.024 748 C303.906 748 305.003 747.863 306 746 306.912 744.295 308.094 744 314 744 319.906 744 321.088 743.705 322 742 322.641 740.802 324.094 740 325.622 740 327.413 740 329.841 738.286 333.768 734.25 336.911 731.02 340.532 728.281 342.03 728 343.497 727.725 346.281 725.813 348.217 723.75 350.471 721.348 352.638 720 354.246 720 355.713 720 357.355 719.098 358.197 717.829 359.039 716.562 360.13 715.962 360.819 716.388 361.469 716.79 362 718.426 362 720.024 362 721.906 361.296 723.307 360 724 358.417 724.847 358 726.094 358 729.976 358 732.674 358.478 735.178 359.063 735.539 359.648 735.9 361.829 734.352 363.91 732.098 366.486 729.307 368.528 728 370.311 728 371.906 728 373.348 727.218 374 726 374.696 724.699 376.094 724 378 724 379.906 724 381.304 723.301 382 722 382.912 720.295 384.094 720 390 720 395.906 720 397.088 719.705 398 718 399.052 716.035 400.094 716 458 716 515.906 716 516.948 716.035 518 718 518.848 719.585 520.094 720 524 720 527.906 720 529.152 720.415 530 722 530.696 723.301 532.094 724 534 724 535.906 724 537.304 724.699 538 726 538.696 727.301 540.094 728 542 728 543.906 728 545.304 728.699 546 730 546.743 731.389 548.094 732 550.419 732 552.982 732 553.896 732.494 554.317 734.105 554.62 735.263 555.432 736.023 556.121 735.793 556.811 735.563 557.563 734.811 557.793 734.121 558.023 733.432 557.263 732.62 556.105 732.317 554.508 731.9 554 730.98 554 728.505 554 726.268 553.319 724.792 551.829 723.803 550.562 722.961 549.962 721.87 550.388 721.181 550.79 720.531 553.326 720 556.024 720 559.906 720 561.153 720.417 562 722 562.645 723.205 564.094 724 565.645 724 567.483 724 569.874 725.717 574 730 578.126 734.283 580.517 736 582.355 736 583.906 736 585.355 736.795 586 738 586.696 739.301 588.094 740 590 740 591.906 740 593.304 740.699 594 742 594.844 743.577 596.094 744 599.913 744 603.67 744 605.064 744.457 606.128 746.037 607.422 747.958 608.355 748.058 622.5 747.787 635.039 747.547 637.5 747.254 637.5 746 637.5 745.108 636.275 744.297 634.479 744 632.274 743.635 628.089 740.129 618.979 731.016 609.967 722 606.413 717.764 606.187 715.767 606.014 714.247 605.002 712.536 603.937 711.966 602.784 711.349 602 709.878 602 708.333 602 706.625 600.717 704.532 598.25 702.217 596.188 700.281 594.275 697.502 594 696.04 593.725 694.579 591.925 691.861 590 690 588.075 688.139 586.275 685.456 586 684.038 585.701 682.494 581.288 677.248 575.016 670.979 567.579 663.546 563.728 660.409 561.767 660.187 560.247 660.014 558.536 659.002 557.966 657.937 557.303 656.698 555.874 656 554 656 552.094 656 550.696 655.301 550 654 549.052 652.229 547.906 652 540 652 532.094 652 530.948 651.771 530 650 529.088 648.295 527.906 648 522 648 516.094 648 514.912 647.705 514 646 513.366 644.815 511.906 644 510.417 644 508.735 644 506.25 642.345 502.898 638.993 500.144 636.239 498.167 633.539 498.504 632.993 498.848 632.438 503.752 632 509.636 632 519.887 632 520.227 631.927 523.028 629.125 525.551 626.603 525.939 625.41 526.201 619.375 526.5 612.5 526.5 612.5 531.448 612.187 535.44 611.935 536.697 612.26 537.948 613.869 538.802 614.967 540.634 616.007 542.021 616.182 543.697 616.394 549.055 621.021 558.019 630 565.431 637.425 571.947 643.5 572.498 643.5 573.049 643.5 573.639 642.067 573.808 640.316 574.04 637.93 573.601 636.857 572.058 636.031 570.7 635.304 570 633.934 570 632 570 630.126 569.302 628.697 568.063 628.034 566.895 627.409 566.002 625.708 565.813 623.749 565.538 620.893 565.107 620.462 562.251 620.187 560.292 619.998 558.591 619.105 557.966 617.937 557.303 616.698 555.874 616 554 616 552.094 616 550.696 615.301 550 614 549.304 612.699 547.906 612 546 612 544.094 612 542.696 611.301 542 610 541.355 608.795 539.906 608 538.355 608 536.517 608 534.126 606.283 530 602 525.463 597.291 523.576 596 521.226 596 519.024 596 518.088 595.444 517.683 593.895 517.38 592.737 516.568 591.977 515.879 592.207 515.189 592.437 514.437 593.189 514.207 593.879 513.977 594.568 514.737 595.38 515.895 595.683 517.506 596.104 518 597.018 518 599.581 518 601.906 518.611 603.257 520 604 521.301 604.696 522 606.094 522 608 522 609.874 521.302 611.303 520.063 611.966 518.895 612.591 518.002 614.292 517.813 616.251 517.538 619.107 517.107 619.538 514.251 619.813 512.292 620.002 510.591 620.895 509.966 622.063 509.303 623.302 507.874 624 506 624 504.094 624 502.696 624.699 502 626 501.171 627.549 499.906 628 496.395 628 491.976 628 491.611 628.253 482 638 472.389 647.747 472.024 648 467.605 648 464.094 648 462.829 648.451 462 650 461.088 651.705 459.906 652 454 652 448.169 652 446.906 651.693 446.034 650.063 445.464 648.998 443.751 647.986 442.228 647.813 440.279 647.593 436.658 644.686 430 638 423.342 631.314 419.721 628.407 417.772 628.187 416.249 628.014 414.536 627.002 413.966 625.937 413.156 624.423 411.853 624 408 624 404.147 624 402.844 623.577 402.034 622.063 401.409 620.895 399.708 620.002 397.749 619.813 394.893 619.538 394.462 619.107 394.187 616.251 393.998 614.292 393.105 612.591 391.937 611.966 390.698 611.303 390 609.874 390 608 390 606.094 390.699 604.696 392 604 393.389 603.257 394 601.906 394 599.581 394 597.018 394.494 596.104 396.105 595.683 397.263 595.38 398.023 594.568 397.793 593.879 397.563 593.189 396.811 592.437 396.121 592.207 395.432 591.977 394.62 592.737 394.317 593.895 394.014 595.053 393.16 596 392.419 596 391.677 596 390.589 596.9 390 598 389.336 599.241 387.899 600.004 386.215 600.01 384.31 600.017 382.456 601.207 380 604 377.544 606.793 375.69 607.983 373.785 607.99 372.101 607.996 370.664 608.759 370 610 369.304 611.301 367.906 612 366 612 364.126 612 362.697 612.698 362.034 613.937 361.464 615.002 359.753 616.014 358.233 616.187 356.408 616.394 353.264 618.703 348.984 622.981 345.125 626.839 342.371 630.482 342.182 631.981 342.007 633.367 340.957 635.205 339.848 636.068 338.451 637.154 337.935 638.536 338.166 640.568 338.35 642.18 338.951 643.5 339.503 643.5 340.055 643.5 345.669 638.325 351.979 632 359.104 624.859 364.446 620.31 366.075 620 367.517 619.725 370.306 617.786 372.271 615.692 375.581 612.166 376.202 611.907 380.673 612.192 385.5 612.5 385.5 612.5 386 617.5 386.429 621.792 387.16 623.173 391.161 627.25 395.822 632 395.822 632 404.352 632 409.043 632 413.156 632.443 413.491 632.985 413.825 633.526 410.942 637.126 407.084 640.985 400.069 648 400.069 648 391.57 648 384.094 648 382.941 648.241 382 650 381.052 651.771 379.906 652 372 652 364.094 652 362.948 652.229 362 654 361.352 655.212 359.906 656 358.333 656 356.625 656 354.532 657.283 352.217 659.75 350.281 661.813 347.518 663.725 346.078 664 344.629 664.276 340.561 667.397 336.979 670.979 333.416 674.542 330.275 678.623 330 680.047 329.725 681.472 326.913 685.155 323.75 688.232 319.714 692.159 318 694.587 318 696.378 318 697.906 317.198 699.359 316 700 314.788 700.648 314 702.094 314 703.667 314 705.375 312.717 707.468 310.25 709.783 308.188 711.719 306.275 714.482 306 715.922 305.687 717.562 300.829 723.212 293.019 731.021 284.837 739.201 279.67 743.613 278.019 743.827 276.633 744.007 275.112 744.53 274.637 744.99 274.163 745.45 274.077 746.315 274.446 746.913 274.881 747.617 280.369 748 290.024 748 Z M276.121 631.793 C276.811 631.563 277.563 630.811 277.793 630.121 278.023 629.432 277.263 628.62 276.105 628.317 274.296 627.844 274 627.015 274 622.419 274 618.094 273.617 616.866 272 616 270.423 615.156 270 613.906 270 610.087 270 606.393 269.531 604.918 268.024 603.872 266.429 602.765 265.995 601.15 265.774 595.5 265.5 588.5 265.5 588.5 262.251 588.187 260.292 587.998 258.591 587.105 257.966 585.937 257.156 584.423 255.853 584 252 584 248.047 584 246.852 583.592 245.969 581.942 245.143 580.399 244.07 579.96 241.684 580.192 238.62 580.488 238.488 580.689 238.185 585.5 237.923 589.65 238.22 590.733 239.935 591.872 241.216 592.723 242 594.323 242 596.087 242 597.875 242.718 599.314 243.937 599.966 245.002 600.536 246.014 602.247 246.187 603.767 246.409 605.729 249.545 609.576 256.986 617.016 265.265 625.293 268.138 627.564 270.634 627.804 272.831 628.016 273.959 628.734 274.331 630.16 274.626 631.288 275.432 632.023 276.121 631.793 Z M633.882 630 C634.84 631.55 635.584 632 636.153 632 636.722 632 637.416 631.124 637.696 630.054 638.04 628.741 639.232 628.01 641.366 627.804 643.901 627.56 647.002 625.026 657.014 615.016 666.034 605.997 669.587 601.764 669.813 599.767 669.986 598.247 670.998 596.536 672.063 595.966 673.57 595.16 674 593.853 674 590.087 674 586.226 674.44 584.952 676.171 583.803 677.438 582.961 678.038 581.87 677.612 581.181 677.21 580.531 674.674 580 671.976 580 668.094 580 666.847 580.417 666 582 665.152 583.585 663.906 584 660 584 656.147 584 654.844 584.423 654.034 585.937 653.409 587.105 651.708 587.998 649.749 588.187 646.5 588.5 646.5 588.5 646.226 595.5 646.005 601.15 645.571 602.765 643.976 603.872 642.469 604.918 642 606.393 642 610.087 642 613.906 641.577 615.156 640 616 638.375 616.87 638 618.094 638 622.535 638 626.627 637.638 628 636.559 628 635.766 628 634.84 628.45 634.5 629 Z M502.5 427.5 C564.183 428.029 564.183 428.029 567.092 430.938 570 433.846 570 433.846 570 448.388 570 461.906 570.141 463.005 572 464 573.195 464.639 574 466.094 574 467.612 574 469.088 572.774 471.38 571.077 473.077 568.154 476 568.154 476 543.612 476 520.094 476 519.026 476.083 518 478 517.097 479.687 515.906 480 510.388 480 504.491 480 503.558 480.288 500.923 482.923 499.315 484.531 498.004 486.893 498.01 488.173 498.016 489.625 499.516 491.816 502 494 504.793 496.456 505.983 498.31 505.99 500.215 505.996 501.899 506.759 503.336 508 504 509.301 504.696 510 506.094 510 508 510 509.906 510.699 511.304 512 512 513.301 512.696 514 514.094 514 516 514 517.906 514.699 519.304 516 520 517.301 520.696 518 522.094 518 524 518 525.906 518.699 527.304 520 528 521.185 528.634 522 530.094 522 531.583 522 533.261 523.644 535.739 526.952 539.048 531.397 543.492 532.359 544 536.33 544 539.632 544 541.105 544.508 542.128 545.999 543.417 547.877 544.777 548.014 564.5 548.249 585.5 548.5 585.5 548.5 585.813 551.749 586.002 553.708 586.895 555.409 588.063 556.034 589.587 556.849 590 558.149 590 562.129 590 566.265 590.348 567.278 591.908 567.686 592.957 567.96 594.052 569.091 594.341 570.198 594.631 571.305 595.432 572.023 596.121 571.793 596.811 571.563 597.563 570.811 597.793 570.121 598.023 569.432 597.263 568.62 596.105 568.317 594.209 567.821 594 567.047 594 560.505 594 554.111 593.735 553.068 591.777 551.768 589.554 550.292 589.554 550.292 592.767 547.079 595.13 544.716 596.711 543.949 598.74 544.183 600.936 544.435 601.602 545.118 602 547.521 602.298 549.32 604.309 552.354 606.971 555.021 609.431 557.484 612.018 559.646 612.721 559.823 613.425 560.001 614 560.831 614 561.667 614 562.503 614.858 563.412 615.908 563.686 616.957 563.96 618.052 565.091 618.341 566.198 618.631 567.305 619.432 568.023 620.121 567.793 620.811 567.563 621.563 566.811 621.793 566.121 622.023 565.432 621.263 564.62 620.105 564.317 618.947 564.015 618 563.102 618 562.29 618 561.477 617.1 560.577 616 560.29 614.516 559.902 614 558.926 614 556.505 614 554.319 613.319 552.792 611.935 551.872 610.22 550.733 609.923 549.65 610.185 545.5 610.49 540.666 610.608 540.49 613.749 540.187 615.708 539.998 617.409 539.105 618.034 537.937 618.697 536.698 620.126 536 622 536 623.906 536 625.304 535.301 626 534 626.639 532.805 628.094 532 629.612 532 631.088 532 633.38 530.774 635.077 529.077 638 526.154 638 526.154 638 510 638 493.846 638 493.846 635.077 490.923 633.38 489.226 631.088 488 629.612 488 628.094 488 626.639 487.195 626 486 625.152 484.415 623.906 484 620 484 616.094 484 614.848 483.585 614 482 613.052 480.229 611.906 480 604 480 596.094 480 594.948 479.771 594 478 593.361 476.805 591.906 476 590.388 476 588.912 476 586.62 474.774 584.923 473.077 582.288 470.442 582 469.509 582 463.612 582 458.094 581.687 456.903 580 456 578.229 455.052 578 453.906 578 446 578 438.094 577.771 436.948 576 436 574.805 435.361 574 433.906 574 432.388 574 430.912 575.226 428.62 576.923 426.923 579.846 424 579.846 424 596.055 424 612.264 424 612.264 424 615.783 427.75 617.719 429.813 620.503 431.725 621.97 432 623.468 432.281 627.089 435.02 630.232 438.25 634.565 442.703 636.496 444 638.797 444 640.975 444 641.913 444.561 642.317 446.105 642.62 447.263 643.432 448.023 644.121 447.793 644.811 447.563 645.563 446.811 645.793 446.121 646.023 445.432 645.263 444.62 644.105 444.317 642.947 444.014 642 443.16 642 442.419 642 441.677 641.1 440.589 640 440 638.788 439.352 638 437.906 638 436.333 638 434.625 636.717 432.532 634.25 430.217 632.188 428.281 630.275 425.483 630 424 629.725 422.517 627.813 419.719 625.75 417.783 623.611 415.776 622 413.315 622 412.055 622 410.84 620.685 408.531 619.077 406.923 616.154 404 616.154 404 594 404 571.846 404 571.846 404 568.923 401.077 566.288 398.442 566 397.509 566 391.612 566 386.094 565.687 384.903 564 384 562.805 383.361 562 381.906 562 380.388 562 378.899 560.762 376.608 559.011 374.857 557.367 373.213 555.567 372.149 555.011 372.493 554.455 372.837 554 374.426 554 376.024 554 377.906 554.704 379.307 556 380 557.705 380.912 558 382.094 558 388 558 393.972 558.285 395.082 560.058 396.031 561.601 396.857 562.04 397.93 561.808 400.316 561.5 403.5 561.5 403.5 530.535 403.765 510.797 403.934 499.195 404.406 498.535 405.069 497.821 405.786 498.187 406.634 499.717 407.804 501.672 409.299 501.968 410.565 502.217 418.5 Z M346 500 C363.906 500 364.988 499.892 366 498 366.947 496.23 368.094 496 375.976 496 380.874 496 385.161 495.548 385.503 494.995 385.845 494.442 383.059 490.955 379.312 487.245 374.83 482.807 371.56 480.393 369.751 480.187 368.24 480.014 366.536 479.002 365.966 477.937 364.992 476.116 363.678 476 344 476 324.094 476 323.018 476.098 322 478 321.152 479.585 319.906 480 316 480 312.094 480 310.848 480.415 310 482 309.088 483.704 307.906 484 302.024 484 298.226 484 294.837 484.455 294.493 485.011 294.149 485.567 295.213 487.367 296.857 489.011 298.608 490.762 300.899 492 302.388 492 303.906 492 305.361 492.805 306 494 306.948 495.771 308.094 496 316 496 323.906 496 325.052 496.229 326 498 327.012 499.892 328.094 500 346 500 Z M213.827 475.952 C215.114 475.978 217.46 474.694 219.077 473.077 220.774 471.38 222 469.088 222 467.612 222 466.094 222.805 464.639 224 464 225.301 463.304 226 461.906 226 460 226 458.094 226.699 456.696 228 456 229.585 455.152 230 453.906 230 450 230 446.094 230.415 444.848 232 444 233.585 443.152 234 441.906 234 438 234 434.094 234.415 432.848 236 432 237.771 431.052 238 429.906 238 422 238 414.094 238.229 412.948 240 412 241.813 411.03 242 409.906 242 400 242 390.094 242.187 388.97 244 388 245.924 386.97 246 385.906 246 360 246 334.094 246.076 333.03 248 332 249.911 330.977 250 329.906 250 308 250 286.094 250.089 285.023 252 284 253.546 283.172 254 281.906 254 278.417 254 274.341 254.479 273.426 258.952 268.952 263.905 264 263.905 264 282.417 264 299.906 264 300.989 263.889 302 262 302.649 260.787 304.094 260 305.671 260 307.207 260 309.341 258.875 310.885 257.25 312.323 255.737 313.725 253.15 314 251.5 314.444 248.833 314.889 248.5 318 248.5 321.117 248.5 321.555 248.83 322 251.521 322.37 253.757 326.262 258.302 336.984 269.021 347.579 279.612 352.211 283.584 354.233 283.813 355.753 283.986 357.464 284.998 358.034 286.063 358.697 287.302 360.126 288 362 288 363.934 288 365.304 288.7 366.031 290.058 366.857 291.601 367.93 292.04 370.316 291.808 373.5 291.5 373.5 291.5 374 282 374.499 272.521 374.506 272.499 377.249 272.184 379.539 271.92 381.282 273.171 387.696 279.684 392.571 284.635 396.329 287.617 397.947 287.818 399.351 287.993 401.198 289.033 402.052 290.131 403.304 291.74 404.56 292.065 408.552 291.813 413.5 291.5 413.5 291.5 413.815 286.5 414.077 282.35 413.78 281.267 412.065 280.128 410.162 278.864 410 277.778 410 266.301 410 253.868 410.005 253.841 412.923 250.923 414.531 249.315 416.893 248.004 418.173 248.01 419.625 248.016 421.816 249.516 424 252 426.456 254.793 428.31 255.983 430.215 255.99 431.899 255.996 433.336 256.759 434 258 434.848 259.585 436.094 260 440 260 443.906 260 445.152 260.415 446 262 446.696 263.301 448.094 264 450 264 451.906 264 453.304 264.699 454 266 454.685 267.28 456.094 268 457.913 268 459.67 268 461.28 268.785 462.128 270.055 463.332 271.858 464.358 272.072 470.5 271.805 477.5 271.5 477.5 271.5 477.792 262.508 477.953 257.562 478.491 253.109 478.987 252.612 479.524 252.076 482.215 254.099 485.627 257.605 488.782 260.847 492.53 263.725 493.955 264 495.543 264.306 500.986 268.957 508 276 515.122 283.152 520.444 287.689 522.075 288 523.517 288.275 526.281 290.188 528.217 292.25 531.73 295.994 531.75 296 539.957 296 548.178 296 548.178 296 552.839 291.25 555.403 288.638 557.725 285.375 558 284 558.275 282.625 560.627 279.332 563.227 276.681 566.651 273.192 568.591 271.951 570.262 272.181 571.668 272.375 578.703 278.659 588.253 288.25 603.937 304 603.937 304 612.433 304 619.906 304 621.059 303.759 622 302 622.848 300.415 624.094 300 628 300 631.906 300 633.152 299.585 634 298 634.696 296.699 636.094 296 638 296 639.906 296 641.304 296.699 642 298 642.634 299.185 644.094 300 645.583 300 647.261 300 649.739 301.644 653.048 304.952 656.356 308.261 658 310.739 658 312.417 658 313.906 658.815 315.366 660 316 661.863 316.997 662 318.094 662 332 662 345.906 662.137 347.003 664 348 665.863 348.997 666 350.094 666 364 666 377.906 666.137 379.003 668 380 669.813 380.97 670 382.094 670 392 670 401.906 670.187 403.03 672 404 673.705 404.912 674 406.094 674 412 674 417.906 674.295 419.088 676 420 677.705 420.912 678 422.094 678 428 678 433.906 678.295 435.088 680 436 681.705 436.912 682 438.094 682 444 682 449.906 682.295 451.088 684 452 685.585 452.848 686 454.094 686 458 686 461.906 686.415 463.152 688 464 689.195 464.639 690 466.094 690 467.612 690 469.103 691.24 471.394 693 473.154 696 476.154 696 476.154 699 473.154 702 470.154 702 470.154 702 445.612 702 422.094 701.917 421.026 700 420 698.048 418.955 698 417.906 698 376 698 334.561 697.933 333.034 696.063 332.034 694.895 331.409 694.002 329.708 693.813 327.749 693.547 324.987 693.061 324.45 690.568 324.166 688.471 323.927 687.169 324.45 686 326 684.831 327.55 683.529 328.073 681.432 327.834 678.954 327.552 678.452 327.008 678.192 324.316 677.96 321.93 678.399 320.857 679.942 320.031 681.3 319.304 682 317.934 682 316 682 314.094 682.699 312.696 684 312 685.301 311.304 686 309.906 686 308 686 306.094 686.699 304.696 688 304 689.583 303.153 690 301.906 690 298.024 690 295.326 689.522 292.822 688.937 292.461 688.352 292.1 686.171 293.648 684.091 295.902 681.514 298.693 679.472 300 677.689 300 676.069 300 674.65 300.785 673.969 302.058 673.143 303.601 672.07 304.04 669.684 303.808 666.62 303.512 666.488 303.311 666.185 298.5 665.923 294.35 666.22 293.267 667.935 292.128 669.886 290.832 670 289.824 670 273.913 670 258.094 669.878 257.005 668 256 666.295 255.088 666 253.906 666 248 666 242.169 665.693 240.906 664.063 240.034 662.895 239.409 662.002 237.708 661.813 235.749 661.613 233.667 660.961 232.5 660 232.5 659.039 232.5 658.387 233.667 658.187 235.749 657.998 237.708 657.105 239.409 655.937 240.034 654.423 240.844 654 242.148 654 246 654 249.852 653.577 251.156 652.063 251.966 650.998 252.536 649.986 254.24 649.813 255.751 649.607 257.56 647.193 260.83 642.755 265.312 639.045 269.059 635.558 271.845 635.005 271.503 634.365 271.107 634 258.942 634 237.976 634 206.094 633.938 205.037 632 204 630.295 203.088 630 201.906 630 196 630 190.094 629.705 188.912 628 188 626.445 187.168 626 185.906 626 182.333 626 178.313 625.529 177.294 622.25 174.217 620.188 172.281 618.275 169.518 618 168.078 617.725 166.637 615.484 163.442 613.021 160.979 610.558 158.516 607.392 156.275 605.986 156 604.58 155.725 600.987 153.025 598 150 595.013 146.975 591.403 144.275 589.976 144 588.55 143.725 585.861 141.925 584 140 582.139 138.075 579.45 136.275 578.024 136 576.597 135.725 572.987 133.025 570 130 567.013 126.975 563.416 124.275 562.007 124 560.574 123.721 556.16 120.192 552 116 547.758 111.726 543.439 108.285 541.96 108 540.532 107.725 536.815 104.881 533.7 101.68 530.585 98.479 527.578 96.143 527.018 96.489 526.458 96.835 526 99.166 526 101.669 526 105.922 526.392 106.598 532 112 536.283 116.126 538 118.517 538 120.355 538 121.906 538.795 123.355 540 124 541.301 124.696 542 126.094 542 128 542 129.906 542.699 131.304 544 132 545.585 132.848 546 134.094 546 138 546 141.906 546.415 143.152 548 144 549.705 144.912 550 146.094 550 152 550 157.906 550.295 159.088 552 160 553.301 160.696 554 162.094 554 164 554 165.906 554.699 167.304 556 168 557.241 168.664 558.004 170.101 558.01 171.785 558.017 173.69 559.207 175.544 562 178 564.777 180.442 565.983 182.314 565.99 184.191 565.996 185.671 565.488 187.198 564.863 187.585 564.237 187.971 563 187.353 562.113 186.212 561.226 185.07 559.375 183.993 558 183.818 556.625 183.643 553.362 181.403 550.75 178.839 547.54 175.689 546 173.35 546 171.624 546 170.094 545.199 168.641 544 168 542.295 167.088 542 165.906 542 160 542 154.094 541.705 152.912 540 152 538.699 151.304 538 149.906 538 148 538 146.094 537.301 144.696 536 144 534.788 143.352 534 141.906 534 140.333 534 138.625 532.717 136.532 530.25 134.217 528.188 132.281 526.275 129.502 526 128.04 525.725 126.579 523.925 123.861 522 122 520.075 120.139 518.275 117.456 518 116.038 517.701 114.495 513.287 109.245 507.021 102.979 500.792 96.75 495.5 92.297 493.973 92 492.45 91.703 487.454 87.509 481.698 81.694 476.359 76.3 471.543 72.164 470.995 72.503 470.448 72.841 470 76.226 470 80.024 470 85.906 470.296 87.088 472 88 473.863 88.997 474 90.094 474 104 474 117.906 474.137 119.003 476 120 477.705 120.912 478 122.094 478 128 478 133.906 478.295 135.088 480 136 481.577 136.844 482 138.094 482 141.913 482 145.816 482.437 147.052 484.25 148.283 485.936 149.427 486.217 150.104 485.372 150.983 484.751 151.628 482.951 152.009 481.372 151.828 479.033 151.561 478.407 150.925 478 148.401 477.701 146.547 475.994 143.89 473.75 141.783 471.283 139.468 470 137.375 470 135.667 470 134.094 469.212 132.648 468 132 466.699 131.304 466 129.906 466 128 466 126.094 465.301 124.696 464 124 462.415 123.152 462 121.906 462 118 462 114.094 461.585 112.848 460 112 458.295 111.088 458 109.906 458 104 458 98.094 457.705 96.912 456 96 454.452 95.171 454 93.906 454 90.399 454 86.132 453.607 85.478 447.25 79.184 443.538 75.508 439.366 72.275 437.979 72 436.592 71.725 432.542 68.584 428.979 65.021 425.397 61.439 422.276 57.371 422 55.922 421.725 54.482 419.813 51.719 417.75 49.783 415.611 47.776 414 45.315 414 44.055 414 42.84 412.655 40.501 411.011 38.857 409.367 37.213 407.567 36.149 407.011 36.493 406.455 36.837 406 39.326 406 42.024 406 45.906 405.583 47.153 404 48 402.089 49.023 402 50.094 402 72 402 93.906 401.911 94.977 400 96 398.082 97.026 398 98.094 398 122 398 145.906 397.918 146.974 396 148 394.098 149.018 394 150.094 394 170 394 189.906 394.098 190.982 396 192 397.918 193.026 398 194.094 398 218 398 241.906 398.082 242.974 400 244 401.841 244.985 402 246.094 402 257.976 402 265.419 401.581 271.141 401.01 271.494 400.465 271.831 395.177 267.245 389.26 261.303 383.004 255.023 378.291 249.442 378 247.972 377.725 246.581 374.125 242.092 370 237.995 364.886 232.916 362.4 229.665 362.187 227.775 362.014 226.25 361.002 224.536 359.937 223.966 358.698 223.303 358 221.874 358 220 358 218.126 357.302 216.697 356.063 216.034 354.895 215.409 354.002 213.708 353.813 211.749 353.613 209.667 352.961 208.5 352 208.5 350.909 208.5 350.414 209.862 350.185 213.5 349.923 217.65 350.22 218.733 351.935 219.872 353.763 221.086 354 222.26 354 230.087 354 237.906 354.231 239.054 356 240 357.585 240.848 358 242.094 358 246 358 249.906 358.415 251.152 360 252 361.577 252.844 362 254.094 362 257.913 362 261.698 362.451 263.056 364.065 264.128 365.78 265.267 366.077 266.35 365.815 270.5 365.642 273.25 365.05 275.5 364.5 275.5 363.95 275.5 354.275 266.282 343 255.016 327.649 239.677 322.421 233.837 322.187 231.767 322.014 230.247 321.002 228.536 319.937 227.966 318.698 227.303 318 225.874 318 224 318 222.094 317.301 220.696 316 220 314.699 219.304 314 217.906 314 216 314 214.094 313.301 212.696 312 212 310.415 211.152 310 209.906 310 206 310 202.094 309.585 200.848 308 200 306.158 199.014 306 197.906 306 186 306 174.094 305.842 172.986 304 172 302.296 171.088 302 169.906 302 164.024 302 160.226 301.556 156.844 301.014 156.509 300.472 156.173 293.852 162.109 286.303 169.7 277.771 178.279 271.605 183.689 270.005 184 268.589 184.275 264.987 186.975 262 190 259.013 193.025 255.429 195.725 254.035 196 252.641 196.275 250.302 197.64 248.837 199.034 247.373 200.427 246.023 202.707 245.837 204.101 245.64 205.584 243.118 208.952 239.75 212.23 235.715 216.158 234 218.588 234 220.378 234 221.906 233.198 223.359 232 224 230.699 224.696 230 226.094 230 228 230 229.906 229.301 231.304 228 232 226.415 232.848 226 234.094 226 238 226 241.906 225.585 243.152 224 244 222.415 244.848 222 246.094 222 250 222 253.906 221.585 255.152 220 256 218.699 256.696 218 258.094 218 260 218 261.906 217.301 263.304 216 264 214.72 264.685 214 266.094 214 267.913 214 269.721 213.21 271.281 211.829 272.197 210.562 273.039 209.962 274.13 210.388 274.819 210.79 275.469 212.251 276 213.636 276 215.086 276 217.394 277.24 219.077 278.923 222 281.846 222 281.846 222 302.388 222 321.906 221.9 322.983 220 324 218.098 325.018 218 326.094 218 346 218 365.906 217.902 366.982 216 368 214.108 369.013 214 370.094 214 388 214 405.906 213.892 406.988 212 408 210.121 409.006 210 410.094 210 426 210 441.906 209.879 442.994 208 444 206.163 444.983 206 446.094 206 457.599 206 469.9 206.05 470.18 208.75 473.016 210.263 474.604 212.547 475.925 213.827 475.952 Z M376.181 456.035 C391.153 471.411 395.95 475.755 396.5 475.608 397.05 475.461 397.637 472.226 397.805 468.42 398.072 462.358 397.855 461.33 396.055 460.128 394.785 459.28 394 457.67 394 455.913 394 454.125 393.282 452.686 392.063 452.034 390.895 451.409 390.002 449.708 389.813 447.749 389.5 444.5 389.5 444.5 358 444.5 326.5 444.5 326.5 444.5 326.5 450 326.5 455.5 326.5 455.5 351.34 455.768 Z M493.809 467.99 C495.686 467.983 497.558 466.777 500 464 503.146 460.422 503.976 460.019 508.215 460.01 511.9 460.002 513.163 459.563 514 458 514.912 456.295 516.094 456 522 456 527.906 456 529.088 455.705 530 454 530.997 452.137 532.094 452 545.976 452 554.943 452 561.131 451.597 561.507 450.989 561.851 450.433 560.787 448.633 559.143 446.989 556.154 444 556.154 444 530.029 444 503.905 444 503.905 444 498.952 448.952 494.508 453.397 494 454.359 494 458.33 494 461.763 493.513 463.08 491.829 464.197 490.562 465.039 489.962 466.13 490.388 466.819 490.79 467.469 492.329 467.996 493.809 467.99 Z M413.5 427.5 L413.5 404.5 354 404.5 C294.5 404.5 294.5 404.5 294 407.559 293.719 409.275 291.964 412.102 290 414 288.075 415.861 286.275 418.561 286 420 285.725 421.439 283.925 424.139 282 426 280.075 427.861 278.275 430.579 278 432.04 277.725 433.502 275.813 436.281 273.75 438.217 270.964 440.831 270 442.541 270 444.868 270 446.928 269.507 448 268.559 448 267.766 448 266.84 448.45 266.5 449 L265.882 450 266.5 451 C266.84 451.55 267.584 452 268.153 452 268.722 452 269.416 451.124 269.696 450.054 269.976 448.983 270.74 447.971 271.395 447.804 272.049 447.637 275.024 445.025 278.007 442 280.99 438.975 284.615 436.275 286.064 436 287.512 435.725 290.281 433.813 292.217 431.75 294.532 429.283 296.625 428 298.333 428 299.906 428 301.352 427.212 302 426 303.022 424.09 304.094 424 325.913 424 347.739 424 348.817 424.09 350.128 426.027 351.464 428 352.322 428.046 382.5 427.777 Z" fill="#000000" fill-opacity="1" stroke="none"/>
</svg>
