<?xml version="1.0" standalone="no"?>
<!DOCTYPE svg PUBLIC "-//W3C//DTD SVG 20010904//EN"
 "http://www.w3.org/TR/2001/REC-SVG-20010904/DTD/svg10.dtd">
<svg version="1.0" xmlns="http://www.w3.org/2000/svg"
 width="600.000000pt" height="600.000000pt" viewBox="0 0 600.000000 600.000000"
 preserveAspectRatio="xMidYMid meet">

<g transform="translate(0.000000,600.000000) scale(0.100000,-0.100000)"
fill="#000000" stroke="none">
<path d="M2585 5380 c-194 -42 -334 -143 -424 -305 -74 -135 -129 -211 -197
-270 -77 -68 -89 -98 -50 -132 21 -17 39 -23 77 -23 100 0 163 49 319 250 157
201 237 264 391 306 99 28 302 24 517 -9 200 -31 287 -34 320 -11 31 22 28 29
-25 52 -46 19 -314 104 -438 138 -97 27 -375 29 -490 4z"/>
<path d="M3540 5120 c-235 -32 -480 -120 -653 -233 -106 -69 -232 -188 -247
-231 -20 -62 14 -106 82 -106 40 0 94 32 245 147 285 217 535 320 758 311 90
-3 107 -7 175 -39 41 -20 95 -53 120 -73 131 -106 149 -117 177 -114 60 7 31
90 -64 184 -120 118 -208 153 -403 159 -69 2 -154 0 -190 -5z"/>
<path d="M2995 5096 c-123 -33 -223 -70 -330 -124 -113 -56 -269 -156 -295
-189 -26 -34 -25 -83 2 -118 44 -57 116 -20 423 216 72 56 166 117 210 139 74
35 187 70 229 70 10 0 16 6 14 13 -8 23 -153 19 -253 -7z"/>
<path d="M3795 4760 c-62 -8 -82 -17 -90 -38 -9 -23 16 -38 73 -45 82 -10 163
-44 262 -112 78 -52 110 -68 177 -84 100 -24 127 -38 175 -88 52 -54 135 -195
158 -271 11 -35 24 -116 30 -180 24 -262 31 -317 46 -340 23 -36 47 -24 57 28
4 25 17 84 27 131 35 152 24 294 -36 459 -61 171 -124 266 -236 358 -100 81
-160 118 -232 141 -95 31 -320 54 -411 41z"/>
<path d="M2116 4609 c-73 -11 -146 -44 -252 -114 -100 -67 -167 -139 -206
-222 l-29 -62 3 -223 3 -223 34 -63 c72 -132 148 -167 361 -166 157 0 231 16
358 75 108 50 213 151 260 250 l32 67 0 209 0 210 -31 46 c-71 107 -210 196
-339 217 -74 11 -110 11 -194 -1z m267 -139 c74 -28 149 -96 184 -168 57 -116
29 -240 -75 -334 -108 -96 -235 -138 -361 -117 -82 13 -112 26 -188 83 -68 50
-114 106 -144 175 -18 41 -19 47 -4 90 16 48 84 156 127 203 83 88 315 122
461 68z m-599 -608 c67 -65 157 -113 249 -133 31 -7 57 -15 57 -19 0 -10 -54
-20 -108 -20 -82 0 -199 74 -254 159 -56 89 -29 95 56 13z"/>
<path d="M2145 4409 c-28 -3 -70 -16 -94 -29 -108 -55 -234 -220 -167 -220 7
0 40 22 72 48 92 73 152 97 250 97 77 0 88 -3 165 -43 46 -23 92 -42 102 -42
32 0 20 47 -22 88 -77 74 -199 115 -306 101z"/>
<path d="M3544 4605 c-116 -25 -222 -93 -294 -189 l-40 -53 0 -228 0 -227 32
-62 c40 -74 134 -171 208 -213 163 -93 422 -126 599 -77 64 18 134 83 171 159
24 48 25 59 28 278 3 222 2 229 -21 280 -29 64 -122 166 -196 217 -173 117
-319 152 -487 115z m294 -133 c34 -11 78 -32 97 -46 40 -31 126 -156 150 -220
17 -44 17 -48 0 -91 -24 -65 -84 -136 -157 -188 -89 -64 -147 -80 -261 -75
-83 4 -99 8 -164 42 -40 21 -93 56 -117 78 -190 166 -89 462 177 518 63 14
203 4 275 -18z m342 -567 c0 -49 -100 -151 -189 -193 -45 -21 -63 -24 -118
-19 -88 7 -98 21 -26 36 92 21 200 78 257 138 52 53 76 66 76 38z"/>
<path d="M3623 4410 c-99 -20 -233 -117 -233 -170 0 -30 25 -25 119 22 79 41
88 43 170 43 72 0 95 -4 143 -27 31 -14 76 -44 100 -66 53 -49 98 -65 98 -34
0 32 -85 136 -142 175 -51 35 -149 68 -193 66 -11 -1 -39 -5 -62 -9z"/>
<path d="M1473 4475 c-124 -34 -189 -82 -305 -228 -117 -147 -162 -254 -140
-332 16 -58 42 -45 122 62 43 59 144 168 251 273 183 179 202 207 160 230 -24
12 -23 12 -88 -5z"/>
<path d="M4662 4438 c-21 -21 -13 -58 43 -189 76 -176 105 -287 112 -429 8
-170 -18 -252 -152 -469 -111 -180 -145 -272 -145 -386 0 -179 96 -314 228
-322 57 -4 102 10 109 34 2 6 -16 20 -40 31 -62 28 -90 71 -95 148 -6 83 13
138 104 304 155 287 177 356 178 570 0 161 -16 251 -72 388 -86 210 -220 370
-270 320z"/>
<path d="M2750 4350 c0 -47 3 -60 15 -60 21 0 22 -291 0 -373 -49 -190 -202
-344 -443 -444 -65 -27 -73 -28 -273 -31 l-205 -3 -60 40 c-33 22 -87 68 -121
103 -89 93 -104 147 -111 386 -2 100 -8 182 -13 182 -16 0 -58 -67 -74 -120
-46 -152 -20 -608 51 -890 43 -169 115 -280 183 -280 29 0 46 11 173 115 120
98 222 145 458 210 185 51 349 170 498 361 22 28 56 58 76 68 31 15 39 15 69
2 19 -7 52 -36 73 -62 125 -155 275 -281 399 -334 28 -12 101 -35 164 -51 198
-52 290 -99 448 -230 62 -52 103 -79 119 -79 125 0 208 224 255 687 15 150 7
421 -15 490 -15 48 -58 113 -74 113 -4 0 -5 -36 -3 -81 4 -106 -15 -283 -39
-363 -18 -56 -29 -72 -104 -144 -130 -124 -129 -124 -370 -120 l-201 3 -83 37
c-129 56 -190 97 -272 178 -132 130 -170 236 -170 477 0 146 1 153 20 153 18
0 20 7 20 60 0 53 -2 60 -20 60 -13 0 -20 -7 -20 -20 0 -19 -7 -20 -155 -20
-148 0 -155 1 -155 20 0 13 -7 20 -20 20 -18 0 -20 -7 -20 -60z"/>
<path d="M1281 3959 c-58 -35 -163 -124 -222 -185 -147 -155 -210 -325 -188
-506 21 -169 75 -280 199 -409 136 -141 168 -226 120 -319 -20 -40 -81 -84
-130 -94 -79 -16 -80 -16 -80 -39 0 -73 122 -111 215 -68 85 39 132 122 142
249 8 102 -7 147 -99 294 -145 233 -173 309 -166 443 4 74 10 95 46 167 22 46
77 135 122 198 99 141 133 206 128 252 -2 27 -8 34 -28 36 -14 1 -40 -7 -59
-19z"/>
<path d="M5025 3555 c-22 -21 -25 -33 -25 -97 0 -41 6 -125 14 -188 24 -192
29 -300 17 -382 -24 -175 -79 -265 -274 -454 -73 -71 -149 -149 -169 -174
-111 -139 -144 -310 -92 -475 28 -87 115 -173 138 -136 3 5 -7 37 -23 72 -37
83 -45 129 -30 179 14 45 162 246 359 485 139 169 182 234 221 331 23 56 24
70 23 254 -2 202 -25 492 -45 548 -10 30 -51 62 -79 62 -6 0 -22 -11 -35 -25z"/>
<path d="M2878 3420 c-20 -11 -65 -52 -100 -92 -200 -230 -302 -292 -569 -348
-192 -40 -316 -105 -428 -225 -100 -108 -105 -123 -97 -299 8 -190 23 -357 41
-469 18 -104 60 -196 146 -315 32 -45 56 -82 53 -82 -3 0 -29 26 -59 58 l-54
57 -1 -38 c0 -56 19 -222 35 -301 12 -58 24 -81 71 -143 131 -171 377 -457
500 -580 l131 -133 392 0 392 0 101 98 c178 172 570 643 595 713 21 64 57 379
42 379 -4 0 -29 -25 -55 -55 -26 -30 -49 -53 -51 -51 -3 2 18 35 45 72 70 96
119 189 136 259 23 89 45 306 53 512 l6 183 -38 57 c-102 153 -263 257 -461
298 -208 42 -335 95 -435 182 -30 26 -87 86 -125 132 -113 136 -188 173 -266
131z m-468 -576 c154 -29 231 -59 295 -115 40 -35 45 -67 15 -94 -33 -30 -83
-20 -214 41 -156 73 -298 124 -342 124 -46 0 -79 -18 -156 -85 -86 -76 -111
-89 -68 -36 54 69 131 151 153 162 55 30 168 31 317 3z m1319 16 c29 -5 64
-19 79 -30 31 -25 138 -146 154 -175 10 -19 10 -19 -8 -5 -10 8 -46 37 -79 65
-89 76 -105 85 -151 85 -54 0 -184 -46 -345 -121 -146 -69 -197 -76 -225 -34
-46 70 73 148 291 194 158 33 206 36 284 21z m-1332 -361 c45 -22 87 -55 149
-117 l85 -87 -73 -23 c-123 -39 -208 -54 -318 -55 -96 -1 -111 1 -160 25 -58
28 -163 102 -168 118 -2 6 3 10 10 10 8 0 54 27 101 61 167 116 244 130 374
68z m1303 22 c36 -11 90 -40 132 -71 39 -28 86 -59 104 -68 19 -8 34 -19 34
-22 0 -11 -126 -99 -171 -120 -56 -25 -223 -27 -331 -5 -86 18 -208 56 -208
65 0 16 179 180 217 199 85 43 138 48 223 22z m-876 -981 c52 -28 88 -40 116
-40 28 0 64 12 116 40 54 28 88 40 117 40 l42 0 -45 -27 c-25 -14 -81 -57
-124 -95 -102 -88 -111 -88 -207 -2 -41 37 -96 79 -124 95 l-50 29 42 0 c29 0
63 -12 117 -40z m20 -304 c18 -7 49 -28 69 -46 20 -18 37 -27 37 -22 0 17 81
71 117 78 27 5 50 -2 118 -36 65 -33 100 -44 152 -48 l68 -6 -55 -17 c-65 -21
-120 -23 -208 -8 -76 13 -124 3 -172 -37 l-30 -26 -30 26 c-45 37 -99 49 -167
36 -81 -14 -150 -12 -213 10 l-55 18 62 1 c51 1 75 8 138 40 106 55 119 58
169 37z m-9 -312 c81 -18 146 -17 230 6 39 10 72 16 74 14 7 -7 -72 -73 -108
-90 -61 -29 -112 -30 -173 -1 -53 26 -81 46 -108 82 -14 17 -14 18 5 10 11 -4
47 -14 80 -21z"/>
<path d="M1303 3202 c-30 -23 -43 -63 -43 -130 0 -70 29 -136 94 -211 49 -56
76 -108 76 -146 0 -28 22 -47 43 -39 25 9 40 69 35 142 -3 54 -12 83 -46 149
-28 55 -46 107 -54 155 -6 40 -16 79 -21 86 -13 17 -58 15 -84 -6z"/>
<path d="M4400 2870 c-27 -27 -25 -73 4 -136 49 -105 152 -173 275 -182 55 -4
69 -1 81 13 13 15 12 19 -4 30 -10 8 -41 22 -68 32 -74 26 -129 80 -173 168
-47 96 -76 114 -115 75z"/>
<path d="M1020 2775 c-8 -10 -10 -32 -6 -69 l7 -55 -40 -26 c-65 -41 -46 -75
41 -75 50 0 103 29 119 64 17 36 2 110 -27 146 -29 33 -73 40 -94 15z"/>
<path d="M1441 2424 c-37 -47 -44 -90 -37 -217 10 -175 27 -245 96 -402 35
-77 81 -189 104 -250 32 -84 48 -113 68 -125 24 -13 29 -13 47 4 29 27 34 83
16 186 -16 94 -55 245 -77 297 -7 16 -14 107 -18 218 -7 216 -15 248 -76 289
-51 34 -96 34 -123 0z"/>
<path d="M4317 2423 c-64 -49 -71 -76 -74 -273 -3 -167 -4 -180 -38 -290 -68
-227 -84 -374 -46 -421 19 -23 21 -23 47 -9 32 18 33 19 80 145 20 55 63 157
95 227 31 69 65 159 74 200 22 96 32 322 16 369 -27 82 -87 102 -154 52z"/>
<path d="M4394 1571 c-85 -52 -174 -206 -174 -304 0 -90 37 -150 113 -182 49
-20 83 -19 107 5 29 29 25 44 -30 105 -83 92 -80 119 26 221 65 62 74 75 74
107 0 61 -56 85 -116 48z"/>
</g>
</svg>
