<?xml version="1.0" standalone="no"?>
<!DOCTYPE svg PUBLIC "-//W3C//DTD SVG 20010904//EN"
 "http://www.w3.org/TR/2001/REC-SVG-20010904/DTD/svg10.dtd">
<svg version="1.0" xmlns="http://www.w3.org/2000/svg"
 width="630.000000pt" height="630.000000pt" viewBox="0 0 630.000000 630.000000"
 preserveAspectRatio="xMidYMid meet">

<g transform="translate(0.000000,630.000000) scale(0.100000,-0.100000)"
fill="#000000" stroke="none">
<path d="M1872 5694 c-59 -15 -88 -29 -115 -52 -10 -9 -37 -17 -61 -18 -134
-8 -306 -104 -393 -219 -74 -98 -108 -195 -107 -305 0 -47 7 -103 15 -125 14
-39 14 -41 -20 -85 -52 -68 -99 -177 -112 -257 -10 -62 -9 -83 5 -143 11 -46
14 -75 8 -83 -28 -36 -55 -136 -55 -207 0 -75 24 -157 52 -175 8 -5 6 -16 -9
-40 -38 -61 -60 -144 -60 -225 0 -144 58 -215 277 -335 135 -74 218 -144 282
-239 33 -48 33 -50 42 -210 19 -352 89 -712 209 -1076 91 -276 133 -368 236
-511 229 -317 435 -545 599 -661 127 -90 254 -128 450 -135 221 -8 396 40 541
150 129 98 322 307 498 542 140 186 172 238 225 373 172 437 276 907 297 1337
l7 140 43 61 c62 88 136 151 250 213 189 103 256 163 290 258 27 77 12 192
-39 295 l-25 50 26 45 c47 84 39 220 -18 334 -17 32 -17 40 -5 75 41 115 0
287 -100 418 l-36 48 15 46 c9 25 16 78 16 117 0 167 -92 335 -237 431 -70 47
-203 94 -264 94 -33 0 -51 6 -64 20 -23 25 -106 56 -175 65 -128 16 -299 -50
-451 -173 l-87 -71 -28 31 c-78 82 -321 149 -464 128 -68 -10 -106 -24 -147
-56 l-33 -25 -33 25 c-80 61 -181 77 -326 52 -113 -20 -223 -64 -280 -112
l-42 -36 -36 29 c-113 90 -155 118 -214 148 -123 63 -237 79 -347 49z m247
-85 c76 -26 148 -72 255 -160 l91 -77 52 50 c60 56 109 80 219 108 87 22 222
26 275 9 19 -7 55 -27 82 -45 26 -19 50 -34 55 -34 4 0 30 15 57 33 28 19 65
39 84 45 56 20 170 14 276 -13 109 -27 168 -58 227 -117 22 -22 43 -36 47 -31
13 19 159 133 220 172 112 72 258 100 364 70 81 -22 160 -132 189 -260 6 -30
16 -58 21 -64 14 -15 1 140 -17 200 -9 27 -14 50 -12 52 1 2 29 -4 61 -12 173
-45 307 -175 350 -340 42 -163 -6 -332 -150 -520 -116 -152 -31 -80 100 85 38
47 71 86 74 88 10 4 77 -110 99 -171 28 -73 29 -166 3 -222 -29 -63 -71 -95
-173 -131 -51 -18 -82 -33 -68 -33 45 -1 162 28 197 49 19 11 38 20 43 20 16
0 50 -130 50 -189 0 -42 -7 -68 -28 -106 -39 -71 -59 -76 -190 -42 -120 30
-139 33 -101 12 41 -22 197 -65 238 -65 36 0 37 -1 65 -72 52 -133 35 -249
-47 -325 -23 -21 -84 -63 -135 -93 -127 -74 -230 -166 -292 -259 -15 -22 -16
-12 -28 142 -14 199 -51 407 -92 518 -121 332 -355 519 -722 575 -171 26 -455
7 -644 -43 -59 -16 -64 -16 -185 10 -343 74 -623 61 -863 -40 -212 -89 -380
-281 -461 -528 -37 -114 -75 -347 -82 -507 -3 -76 -9 -138 -12 -138 -3 0 -17
16 -30 35 -46 68 -176 179 -282 242 -120 71 -182 131 -199 195 -17 61 -7 152
25 229 25 61 29 65 55 61 30 -4 161 29 226 57 l41 19 7 -132 c4 -72 11 -149
16 -171 7 -29 8 -13 4 55 -6 107 10 313 31 408 22 92 59 161 180 332 l39 55
-33 -30 c-48 -43 -123 -141 -160 -206 -36 -64 -71 -192 -71 -259 0 -31 -4 -47
-12 -47 -7 0 -64 -13 -126 -28 -133 -34 -150 -30 -192 45 -33 59 -33 158 -1
242 l22 56 42 -23 c42 -24 196 -60 219 -53 7 3 -21 15 -62 27 -104 31 -154 63
-185 116 -38 63 -43 136 -17 222 20 65 92 193 109 193 5 0 30 -30 57 -66 55
-75 166 -197 173 -190 3 2 -25 43 -61 90 -113 148 -157 258 -157 392 0 46 5
102 11 126 41 154 173 282 339 332 82 24 81 24 60 -45 -12 -38 -19 -88 -18
-132 l1 -72 17 65 c31 119 83 211 138 247 66 43 197 48 302 12z m147 -2184
c126 -22 200 -46 372 -120 83 -36 170 -69 192 -74 23 -5 45 -12 48 -16 12 -11
8 -244 -3 -237 -209 140 -451 271 -605 327 -112 41 -210 40 -307 -3 -39 -18
-78 -32 -86 -32 -17 0 106 121 142 140 65 33 120 37 247 15z m2000 -14 c47
-24 170 -141 150 -141 -10 0 -48 14 -86 30 -91 40 -187 42 -297 5 -106 -36
-392 -182 -518 -265 l-106 -70 3 122 3 121 70 22 c39 12 126 46 195 77 141 62
231 91 340 108 41 6 82 13 90 15 30 7 126 -8 156 -24z m-2442 -225 c29 -19 81
-54 114 -79 34 -25 92 -56 129 -69 60 -20 87 -23 233 -23 107 -1 175 -5 194
-13 61 -26 184 -124 256 -204 86 -94 135 -156 128 -163 -2 -2 -23 9 -47 24
-85 56 -164 63 -326 27 -54 -13 -105 -17 -161 -14 -118 6 -154 31 -269 183
-78 104 -105 131 -200 202 -97 72 -155 131 -155 155 0 19 55 5 104 -26z m2735
-5 c-14 -26 -59 -67 -130 -120 -105 -78 -155 -130 -252 -265 -57 -79 -111
-113 -200 -128 -56 -9 -79 -7 -173 12 -196 42 -251 37 -349 -30 -25 -17 -45
-28 -45 -25 0 14 63 95 130 168 82 89 165 155 242 194 51 27 58 27 223 28 207
1 234 9 392 118 116 80 126 85 161 86 l23 1 -22 -39z m-2759 -134 c59 -36 148
-126 246 -248 51 -64 106 -126 123 -138 77 -55 179 -79 266 -62 l49 9 -24 -19
c-46 -36 -185 -99 -266 -119 -89 -24 -277 -31 -310 -12 -16 10 -13 11 24 12
73 0 152 43 152 82 0 31 -28 32 -96 4 -105 -43 -191 -32 -215 26 -20 49 3 62
118 68 l97 5 19 33 c11 18 18 35 15 37 -2 2 -24 -1 -48 -6 -129 -30 -260 47
-260 151 0 65 43 78 116 36 39 -22 41 -22 36 -4 -6 23 -50 70 -106 114 -29 23
-38 36 -33 49 9 21 44 15 97 -18z m2798 12 c2 -10 -19 -33 -53 -58 -49 -37
-95 -92 -95 -113 0 -4 19 4 43 17 49 29 79 31 101 9 41 -41 -9 -145 -89 -184
-39 -19 -58 -22 -113 -17 -37 2 -75 8 -85 12 -16 7 -17 5 -5 -21 22 -54 32
-59 127 -59 98 0 124 -12 119 -53 -8 -67 -108 -85 -215 -39 -75 32 -79 33 -93
6 -9 -15 -8 -24 2 -36 21 -26 90 -53 138 -53 64 0 37 -20 -37 -27 -155 -14
-394 54 -513 147 l-25 19 40 -10 c57 -16 157 -4 222 26 60 27 102 68 192 185
138 178 326 316 339 249z m-1612 -826 c-26 -75 -54 -118 -105 -165 -49 -45
-69 -83 -58 -112 6 -16 -13 -26 -48 -26 -26 0 -65 42 -65 70 0 28 35 65 129
134 49 36 104 83 122 105 19 22 35 38 37 37 1 -2 -4 -21 -12 -43z m442 -68
c56 -29 73 -42 95 -75 25 -36 22 -109 -5 -150 -24 -35 -52 -53 -42 -26 8 20
-16 132 -25 117 -7 -10 -53 79 -74 142 -8 22 -5 22 51 -8z m-427 -205 c20 -6
44 -19 54 -30 18 -20 17 -20 -23 -20 -33 0 -49 -7 -88 -41 -54 -46 -84 -48
-98 -6 -13 37 -1 56 54 85 50 25 52 25 101 12z m384 -9 c22 -10 48 -27 58 -39
17 -18 17 -24 5 -49 -20 -42 -48 -40 -103 7 -43 37 -53 41 -91 38 -42 -3 -43
-3 -25 15 16 17 83 46 106 46 6 0 28 -8 50 -18z m-235 -101 c14 0 37 6 51 14
24 12 26 12 22 -5 -7 -26 -51 -59 -78 -59 -14 0 -34 13 -49 31 -34 40 -33 51
2 33 15 -7 38 -14 52 -14z m-77 -211 c12 -6 33 -22 47 -35 l26 -24 34 29 c71
58 108 52 250 -44 54 -36 128 -79 165 -94 l65 -28 -122 -7 c-68 -3 -151 -12
-185 -20 -35 -7 -60 -10 -57 -5 9 15 -4 10 -63 -21 -73 -39 -112 -38 -195 4
-36 19 -68 32 -71 30 -2 -3 -44 2 -92 11 -48 8 -117 15 -154 15 l-66 1 70 33
c39 18 107 59 153 90 114 78 147 89 195 65z m-133 -234 c47 -12 112 -32 144
-44 57 -22 61 -22 105 -6 142 52 368 85 468 70 l48 -7 -40 -32 c-22 -17 -76
-65 -120 -107 -85 -82 -111 -99 -145 -99 -18 0 -15 -6 22 -36 23 -20 45 -38
48 -41 2 -2 -17 5 -43 16 -77 33 -167 44 -326 39 -112 -4 -160 -10 -206 -26
l-60 -20 45 39 c25 22 38 39 30 38 -47 -5 -67 5 -139 74 -42 41 -102 94 -134
120 l-58 46 58 4 c97 6 214 -4 303 -28z"/>
<path d="M3135 5223 c-8 -182 -2 -509 9 -520 3 -4 8 -4 11 -1 20 20 15 698 -5
698 -4 0 -11 -80 -15 -177z"/>
<path d="M1908 5346 c-44 -16 -115 -57 -148 -86 -14 -12 -20 -19 -15 -17 6 3
46 21 89 41 118 55 153 56 255 6 46 -22 86 -39 88 -36 7 7 -76 65 -122 87 -47
22 -95 23 -147 5z"/>
<path d="M4257 5346 c-34 -12 -74 -37 -129 -80 -40 -30 -13 -23 78 21 92 45
96 46 144 35 26 -6 83 -27 126 -47 42 -20 78 -34 81 -32 5 6 -63 49 -125 81
-65 33 -125 41 -175 22z"/>
<path d="M2438 5250 c-92 -16 -228 -70 -228 -92 0 -14 25 -9 81 16 85 37 156
51 259 50 110 0 182 -19 283 -72 80 -41 201 -151 247 -222 18 -28 34 -50 36
-50 9 0 -19 56 -55 109 -133 195 -386 301 -623 261z"/>
<path d="M3668 5249 c-182 -24 -360 -135 -445 -280 -45 -77 -52 -103 -11 -44
55 78 175 186 253 227 94 49 174 68 287 68 101 0 172 -15 269 -55 34 -15 64
-24 67 -21 10 10 -19 34 -68 55 -107 46 -238 65 -352 50z"/>
<path d="M4228 5165 c-8 -102 -38 -164 -116 -235 -63 -59 -68 -74 -14 -46 39
21 96 84 122 135 26 51 36 132 23 181 -9 33 -10 31 -15 -35z"/>
<path d="M2051 5150 c-1 -59 4 -85 23 -125 26 -56 81 -117 127 -141 49 -25 55
-11 9 21 -82 57 -123 131 -149 270 l-9 50 -1 -75z"/>
<path d="M1581 5156 c-89 -129 -73 -302 40 -429 36 -42 96 -87 114 -87 4 0
-22 31 -57 69 -85 90 -120 160 -126 255 -5 81 7 130 45 189 35 55 21 57 -16 3z"/>
<path d="M4698 5150 c84 -150 58 -298 -79 -445 -66 -70 -66 -83 -1 -35 53 38
106 110 133 180 41 107 11 270 -61 335 -20 17 -18 12 8 -35z"/>
<path d="M1712 5142 c-51 -220 88 -442 331 -528 22 -8 42 -13 44 -11 2 2 -34
26 -79 52 -110 64 -200 151 -240 233 -28 57 -32 75 -37 185 l-6 122 -13 -53z"/>
<path d="M4571 5109 c-3 -225 -83 -343 -326 -482 -41 -23 -44 -27 -20 -22 65
13 154 64 219 125 73 69 110 124 133 198 16 53 18 171 4 217 -8 26 -9 20 -10
-36z"/>
<path d="M2556 4929 c-90 -13 -86 -24 7 -21 109 4 213 -18 314 -68 104 -51
172 -105 214 -169 36 -57 43 -63 29 -26 -39 103 -94 155 -231 222 -121 59
-226 79 -333 62z"/>
<path d="M3503 4907 c-86 -29 -192 -87 -243 -133 -34 -31 -88 -129 -77 -140 3
-3 16 15 31 40 34 58 86 101 182 153 109 57 186 76 316 77 138 1 114 18 -32
23 -90 3 -115 0 -177 -20z"/>
<path d="M2377 4854 c-13 -13 -7 -121 8 -163 15 -45 54 -105 62 -98 2 3 -4 20
-13 39 -12 22 -20 65 -24 127 -5 86 -14 113 -33 95z"/>
<path d="M3897 4853 c-4 -3 -7 -36 -7 -72 0 -69 -6 -99 -35 -166 -15 -34 -15
-37 -1 -26 51 42 98 231 64 259 -8 6 -18 9 -21 5z"/>
<path d="M4609 4540 c176 -240 203 -324 205 -637 1 -132 4 -186 11 -175 16 27
13 416 -4 482 -28 114 -113 254 -207 340 l-38 35 33 -45z"/>
<path d="M1321 3345 c-11 -14 -22 -39 -26 -55 -6 -27 -9 -29 -56 -28 -73 2
-79 -11 -33 -71 21 -28 42 -51 46 -51 5 0 11 -7 15 -15 3 -11 -17 -39 -61 -84
-36 -38 -66 -76 -66 -85 0 -21 23 -32 96 -46 l61 -12 21 -74 c12 -40 22 -78
22 -83 0 -5 -18 -39 -40 -75 -56 -92 -80 -158 -80 -220 0 -129 115 -182 239
-109 35 20 45 23 53 12 5 -8 29 -48 54 -91 53 -90 69 -106 92 -91 28 17 25 48
-12 120 -66 127 -66 130 -65 412 1 290 -10 373 -62 480 -30 60 -144 191 -167
191 -6 0 -20 -11 -31 -25z m139 -189 c43 -86 58 -175 65 -376 l6 -175 -45 138
c-56 171 -83 294 -92 417 l-7 95 22 -19 c12 -11 35 -47 51 -80z m-176 -187 l7
-56 -61 20 -61 20 48 49 c53 54 57 52 67 -33z m111 -376 c21 -54 48 -119 61
-145 13 -26 24 -49 24 -52 0 -5 -55 -26 -99 -36 -82 -20 -134 40 -112 132 9
39 79 198 87 198 1 0 19 -44 39 -97z"/>
<path d="M4902 3308 c-5 -7 -19 -32 -31 -55 -11 -22 -39 -62 -61 -88 -60 -69
-70 -95 -70 -175 0 -82 15 -86 22 -6 3 40 12 65 32 91 16 20 29 35 31 33 2 -2
0 -23 -5 -48 -5 -25 -26 -137 -46 -250 -20 -113 -58 -289 -84 -393 -44 -175
-50 -235 -17 -170 26 50 78 205 118 352 21 79 40 145 41 147 2 1 38 -5 80 -13
84 -17 127 -12 96 11 -10 7 -48 18 -86 25 l-70 12 16 50 c12 38 21 49 36 49
53 0 166 48 166 70 0 15 -39 12 -109 -10 l-63 -19 6 27 c3 15 17 81 31 146 26
121 33 195 21 215 -10 15 -41 14 -54 -1z"/>
</g>
</svg>
