<svg width="235" height="235" viewBox="0 0 235 235" xmlns="http://www.w3.org/2000/svg" xmlns:xlink="http://www.w3.org/1999/xlink">
    <path id="Shape" fill="#000000" fill-rule="evenodd" stroke="none" d="M 110.555832 234.947891 C 105.953835 234.91391 101.587242 234.173157 98 232.817932 C 94.974998 231.67511 90.474998 229.302704 88 227.545929 C 85.525002 225.789139 80.862656 221.685135 77.639229 218.425888 C 74.41581 215.166656 70.502487 210.778366 68.94297 208.674149 C 67.383446 206.569931 65.318901 202.744934 64.35508 200.174149 C 63.391258 197.603363 62.339844 195.274994 62.0186 195 C 61.69735 194.725006 60.894073 192.25 60.233543 189.5 C 59.573006 186.75 58.622658 182.475006 58.121658 180 C 57.620659 177.524994 56.9338 173.699997 56.595306 171.5 C 55.993973 167.59169 56.013168 167.559143 57.432922 170.080246 C 58.232109 171.499374 59.494804 173.165756 60.238907 173.783325 C 60.983017 174.400879 62.411018 175.22049 63.412254 175.604706 C 65.054214 176.234772 65.10775 176.069855 63.958397 173.922272 C 63.257553 172.612717 62.159248 171.016388 61.517731 170.374878 C 60.876213 169.733353 59.558853 167.024078 58.590271 164.354248 C 57.621689 161.684418 56.186836 157.788895 55.401718 155.69754 C 54.616592 153.606201 53.54599 147.531204 53.022598 142.19754 C 52.499199 136.863892 51.858292 131.037506 51.598354 129.25 C 51.12574 126 51.12574 126 55.594254 126 C 58.937347 126 60.225388 125.55925 60.708443 124.25 C 61.06356 123.287498 61.663788 122.275002 62.042274 122 C 62.420769 121.724998 63.046417 120.487503 63.43261 119.25 C 64.094284 117.129753 63.856956 117.000786 59.31739 117.013657 C 56.667824 117.021164 53.566383 117.278023 52.425289 117.58445 C 51.26226 117.896767 49.834126 119.569809 49.175289 121.391792 C 48.528881 123.179405 48 126.829567 48 129.503265 C 48 132.176971 48.488979 138.445023 49.086624 143.432281 C 49.684269 148.419525 50.814293 156.06369 51.59779 160.419327 C 52.381287 164.774963 53.307892 170.768311 53.656906 173.737885 C 54.162964 178.043686 53.952888 179.475677 52.619537 180.809036 C 51.103268 182.325302 50.694698 182.33902 48.23127 180.956329 C 46.139633 179.782318 45.359844 178.404663 44.840538 174.965851 C 44.469616 172.509628 43.428772 168.475006 42.527557 166 C 41.626339 163.524994 40.23896 158.433075 39.444489 154.684631 C 38.650021 150.936157 38 146.317566 38 144.421051 C 38 142.524551 38.50095 140.170715 39.113224 139.190308 C 39.93243 137.87854 39.924812 135.954788 39.08437 131.906403 C 38.163795 127.472031 38.234707 125.014999 39.449986 119.237762 C 40.279213 115.295746 41.815639 109.692108 42.864269 106.785233 C 43.912895 103.878357 45.098782 100.704102 45.499577 99.731354 C 46.142906 98.169937 45.914368 98.082062 43.549046 98.981354 C 42.075459 99.541611 39.084972 100 36.903515 100 C 34.331146 100 32.738403 99.481873 32.371487 98.525696 C 32.060329 97.714828 32.438179 96.418961 33.211155 95.645981 C 33.984131 94.873016 36.485996 93.924744 38.770855 93.538712 C 41.055714 93.152695 44.741985 91.520737 46.96257 89.912155 C 49.183159 88.303574 51 86.625885 51 86.18396 C 51 85.742035 48.907177 82.932358 46.349285 79.940231 C 43.791393 76.948105 41.038738 72.925934 40.232277 71.002075 C 39.235729 68.624756 38.926891 65.499557 39.268253 61.246887 C 39.648746 56.506744 40.398754 54.202911 42.361626 51.744812 C 43.786732 49.960175 46.4664 46.764145 48.316444 44.642548 C 51.064056 41.491638 52.671059 40.605469 57.09008 39.804337 C 60.065536 39.264923 62.724998 38.57666 63 38.274887 C 63.275002 37.973099 62.9375 37.525299 62.25 37.279755 C 61.5625 37.034225 61 35.491776 61 33.852112 C 61 31.758667 61.926025 30.071167 64.109627 28.18544 C 65.819916 26.70845 69.08242 24.767593 71.359627 23.872437 C 75.181427 22.370102 75.538475 21.908432 76 17.872437 C 76.394638 14.421371 76.933792 13.437943 78.558609 13.205536 C 79.690842 13.043564 81.807861 13.847626 83.263107 14.992325 C 84.820976 16.217743 85.678108 17.675262 85.347511 18.536789 C 85.038689 19.341553 85.171669 19.999542 85.643013 19.998978 C 86.114357 19.998428 87.704422 17.860931 89.176491 15.248978 C 90.64856 12.637039 93.453941 8.699997 95.410667 6.5 C 97.367401 4.300003 100.184669 1.993057 101.671265 1.373459 C 103.350441 0.673599 105.474564 0.562515 107.279503 1.080154 C 108.877441 1.538437 112.730751 3.364471 115.842422 5.138016 C 118.954086 6.911545 123.423309 9.399109 125.774017 10.665939 C 128.124725 11.93277 132.525269 14.55394 135.552994 16.490753 C 138.580719 18.427567 143.11908 21.921982 145.638245 24.256119 C 148.157394 26.590256 151.40686 28.904968 152.859268 29.399948 C 154.311661 29.894913 155.725006 30.579071 156 30.920303 C 156.274994 31.26152 157.681976 32.059097 159.126602 32.692688 C 160.571243 33.326279 162.768143 35.27002 164.008606 37.012085 C 165.249069 38.754166 166.767105 41.849152 167.382004 43.889862 C 167.996902 45.930557 169.956329 49.360199 171.736282 51.511307 C 173.516235 53.662399 175.695038 56.944901 176.578064 58.805756 C 177.46109 60.666595 178.205719 64.284058 178.232803 66.844559 C 178.26828 70.199554 179.390488 73.719299 182.250168 79.444885 C 185.209686 85.370361 188.238953 89.413147 194.168076 95.35025 C 201.171097 102.362686 201.942368 103.486206 200.644318 104.784256 C 199.346268 106.082306 198.791061 105.974487 195.982391 103.878891 C 194.228775 102.570511 192.186935 101.065918 191.444962 100.53537 C 190.702988 100.004822 189.795776 99.870895 189.428909 100.237747 C 189.062057 100.604614 189.458633 101.601486 190.310181 102.453049 C 191.161743 103.304596 192.555328 106.398438 193.407043 109.328232 C 194.258759 112.258041 195.454666 116.870239 196.064621 119.577576 C 196.674576 122.284904 197.022064 126.974998 196.836807 130 C 196.589706 134.035004 196.106155 135.5 195.021378 135.5 C 194.015457 135.5 193.012161 133.262207 191.88298 128.5 C 190.970093 124.650002 190.158279 121.949997 190.078949 122.5 C 189.999619 123.050003 189.153091 121.25 188.197784 118.5 C 187.242493 115.75 184.985565 111.362503 183.182404 108.75 C 181.379227 106.137497 179.540237 104 179.095734 104 C 178.65123 104 177.988251 107.712494 177.622421 112.25 C 177.256607 116.787506 176.113327 124.324997 175.081818 129 C 174.050293 133.675003 172.530579 140.875 171.704651 145 C 170.878738 149.125 169.024261 155.649994 167.583618 159.5 C 166.142975 163.350006 163.916122 168.637497 162.63504 171.25 C 161.353973 173.862503 160.647003 176 161.064011 176 C 161.481018 176 163.02179 174.574371 164.487946 172.831955 C 167.153671 169.66391 167.153671 169.66391 166.487305 173.581955 C 166.120804 175.736877 164.928879 181.100006 163.838577 185.5 C 162.748276 189.899994 161.138336 195.512024 160.260941 197.971161 C 159.38353 200.430298 158.275024 202.905304 157.797577 203.471161 C 157.320129 204.037018 155.664169 206.524994 154.117661 209 C 152.571152 211.475006 148.670181 215.975006 145.448837 219 C 142.227509 222.024994 137.377441 225.940186 134.670914 227.700409 C 131.964386 229.460648 127.018829 231.823151 123.680801 232.950409 C 119.72908 234.284927 115.149986 234.981827 110.555832 234.947891 Z M 101.462692 228.907471 C 102.93499 227.481598 104.523102 224.614487 104.991852 222.536148 C 105.460594 220.457794 105.606041 218.136932 105.315063 217.378662 C 105.024094 216.620392 104.445305 216 104.02887 216 C 103.612434 216 102.447853 218.137497 101.440918 220.75 C 100.433975 223.362503 99.424644 226.850006 99.19796 228.5 C 98.785805 231.5 98.785805 231.5 101.462692 228.907471 Z M 50.023834 227 C 49.525642 227 48.856144 226.576248 48.536057 226.05835 C 48.215973 225.540436 47.734715 220.927933 47.466595 215.80835 C 47.198479 210.688751 47.321312 201.779922 47.739555 196.010925 C 48.350178 187.588425 48.814915 185.461761 50.098381 185.216797 C 51.419079 184.964752 51.808922 186.352661 52.342388 193.205872 C 52.697479 197.767639 52.990711 206.367081 52.994007 212.315735 C 52.997303 218.264404 52.534168 224.001892 51.964817 225.065735 C 51.395466 226.129578 50.522022 227 50.023834 227 Z M 173.334854 225.73056 C 172.694031 225.939301 171.916565 225.297821 171.607132 224.305054 C 171.297714 223.312271 170.566788 219.125 169.982849 215 C 169.398911 210.875 169.206726 203.899994 169.555786 199.5 C 169.904831 195.100006 170.513504 190.150696 170.908386 188.501526 C 171.303253 186.852371 172.369339 185.35997 173.277451 185.185089 C 174.336044 184.981216 175.148376 185.743011 175.541153 187.307922 C 175.878082 188.650391 176.231659 195.542786 176.326874 202.624374 C 176.422089 209.705963 176.050003 217.716476 175.5 220.425522 C 174.949997 223.134552 173.975693 225.52182 173.334854 225.73056 Z M 110.61351 206.899551 C 112.875938 206.954803 117.15094 206.555237 120.11351 206.011627 C 123.07608 205.468033 126.399994 204.794373 127.5 204.514618 C 128.600006 204.234848 130.625 203.098465 132 201.989319 C 134.5 199.972687 134.5 199.972687 132.310104 198.124725 C 131.105667 197.108337 127.955673 195.26532 125.310104 194.029083 C 122.664551 192.792877 120.350006 191.3806 120.166672 190.890717 C 119.983337 190.400818 119.018982 190 118.023651 190 C 117.028336 190 115.954956 190.675003 115.638374 191.5 C 115.306114 192.365845 113.811394 193 112.102814 193 C 110.474838 193 108.467857 192.324997 107.64286 191.5 C 106.817856 190.675003 105.665855 190 105.082863 190 C 104.499863 190 103.230217 190.668091 102.261429 191.48465 C 101.292641 192.301208 98.362503 194.316299 95.75 195.962631 C 93.137497 197.608948 91 199.442413 91 200.036987 C 91 200.631561 91.411568 200.863678 91.914589 200.552795 C 92.417618 200.241898 92.980118 200.330566 93.164589 200.749817 C 93.349068 201.169067 94.730034 202.302368 96.233406 203.268234 C 97.736778 204.2341 100.661774 205.423676 102.733406 205.911728 C 104.805031 206.39978 108.351082 206.844299 110.61351 206.899551 Z M 113.5 199.315842 C 112.400002 199.570633 110.375 199.42366 109 198.989227 C 107.111351 198.392517 107.844978 198.19429 112 198.178619 C 115.025002 198.167221 117.050003 198.314194 116.5 198.505234 C 115.949997 198.696274 114.599998 199.061035 113.5 199.315842 Z M 130 199.787811 C 129.175003 199.748413 126.699997 199.393906 124.5 199 C 120.5 198.283813 120.5 198.283813 124 198.212189 C 125.925003 198.172791 128.399994 198.527313 129.5 199 C 130.668213 199.501999 130.87616 199.829651 130 199.787811 Z M 86.780739 187 C 87.284271 187 88.474998 185.273056 89.426796 183.162338 C 90.378593 181.05162 92.158936 178.159042 93.383118 176.734375 C 95.553627 174.208405 95.639488 174.193085 96.84137 176.117599 C 97.519226 177.203033 98.79184 178.366638 99.669388 178.703369 C 100.546936 179.040131 102.153038 178.761017 103.238503 178.08313 C 104.895645 177.048218 105.555832 177.173157 107.356041 178.862274 C 108.535217 179.968689 110.205574 181.144012 111.06794 181.474091 C 111.953041 181.812881 113.881783 181.078217 115.496719 179.787125 C 117.07019 178.529205 118.817108 177.320007 119.378784 177.100006 C 119.940445 176.880005 120.572495 177.217499 120.78334 177.850006 C 120.994171 178.482498 122.236633 179 123.544373 179 C 124.852127 179 126.74939 178.112 127.760544 177.026657 C 129.571487 175.082825 129.643127 175.138916 132.5495 180.776657 C 134.172272 183.9245 135.612503 186.6875 135.75 186.916672 C 135.887497 187.145828 136.309875 187.023468 136.688614 186.64473 C 137.067337 186.265991 136.351944 183.84581 135.098831 181.266541 C 133.845734 178.687256 131.49939 174.737381 129.884735 172.489014 C 128.270081 170.240662 125.553223 167.576584 123.847275 166.568848 C 122.141312 165.561127 120.915298 165.210983 121.122772 165.790771 C 121.330246 166.370544 122.737503 168.225922 124.25 169.913803 C 125.762497 171.601685 127 173.6091 127 174.37471 C 127 175.14032 126.116547 175.997772 125.036774 176.280136 C 123.956985 176.5625 122.525925 176.133698 121.856628 175.32724 C 121.187317 174.520782 119.767212 174.089111 118.700836 174.367981 C 117.634445 174.646851 115.690506 175.881577 114.380974 177.111816 C 112 179.348633 112 179.348633 109.619026 177.111816 C 108.309494 175.881577 106.365555 174.646851 105.299171 174.367981 C 104.212227 174.08374 102.783432 174.556015 102.047462 175.44281 C 101.046349 176.649078 100.409996 176.755219 99.367325 175.889893 C 98.615295 175.265762 98 174.092178 98 173.281921 C 98 172.47168 98.949089 170.475861 100.109093 168.846802 C 101.269089 167.217728 101.971306 165.63797 101.669571 165.336243 C 101.367836 165.034515 99.059937 166.819504 96.540894 169.302902 C 94.021858 171.786316 90.891685 175.771591 89.584953 178.159088 C 88.278221 180.5466 86.906715 183.512497 86.537155 184.75 C 86.167595 185.987503 86.277206 187 86.780739 187 Z M 175.048004 181 C 174.092087 181 172.501724 180.106888 171.513855 179.01532 C 169.904755 177.237274 169.842163 176.430344 170.912735 171.26532 C 171.569992 168.094391 172.771744 161.899994 173.583313 157.5 C 174.394882 153.100006 175.334778 146.697464 175.671982 143.272156 C 176.165848 138.255402 176.669662 136.922241 178.262711 136.416626 C 179.481598 136.029755 181.249313 136.539459 182.870178 137.745087 C 184.94783 139.290527 185.564499 140.689926 185.80722 144.410095 C 185.991547 147.235352 185.332657 151.395218 184.160034 154.809479 C 183.085098 157.93927 181.199341 163.649994 179.969467 167.5 C 178.739578 171.350006 177.715118 175.399994 177.692871 176.5 C 177.670624 177.600006 177.457489 179.0625 177.219223 179.75 C 176.980957 180.4375 176.003906 181 175.048004 181 Z M 47.623142 172 C 48.560005 172 48.977539 170.801636 48.929714 168.25 C 48.874489 165.303406 48.683842 164.928497 48.039848 166.5 C 47.286274 168.338928 47.12254 168.258392 46.006844 165.5 C 45.339462 163.850006 44.355377 159.350006 43.819988 155.5 C 43.284599 151.649994 42.633343 147.024994 42.372753 145.222214 C 42.11216 143.419434 41.471684 142.208481 40.949474 142.531219 C 40.427261 142.853973 40 145.055054 40 147.422516 C 40 149.790009 40.43903 154.042023 40.975624 156.87146 C 41.512218 159.700912 42.917633 164.262329 44.098766 167.007965 C 45.279903 169.753571 46.865871 172 47.623142 172 Z M 175.376862 172 C 176.134125 172 177.690704 169.821899 178.835922 167.15979 C 179.981125 164.497665 181.375549 160.335159 181.934616 157.90979 C 182.493683 155.484406 182.962112 151.654648 182.975555 149.399231 C 182.988998 147.143799 182.505981 143.881287 181.902176 142.149231 C 181.29837 140.417145 180.389801 139 179.883118 139 C 179.363586 139 179.287872 140.199097 179.709488 141.75 C 180.120651 143.262497 180.421112 145.6922 180.377151 147.149323 C 180.333191 148.606445 179.455185 153.781448 178.426041 158.649323 C 177.396881 163.517197 176.397018 166.712494 176.204102 165.75 C 176.011185 164.787506 175.43634 164 174.926682 164 C 174.417007 164 174 165.800003 174 168 C 174 170.729889 174.437195 172 175.376862 172 Z M 46.464108 149 C 46.704605 149 46.63092 143.620956 46.300365 137.04657 C 45.709667 125.298325 45.755775 124.942116 48.986202 116.296555 C 50.793968 111.45845 53.842567 103.54071 55.760864 98.701569 C 58.571991 91.610123 59.948624 89.42749 62.856468 87.451569 C 65.053558 85.958603 67.888405 85 70.106407 85 C 72.109581 85 75.617882 84.340454 77.902626 83.534363 C 81.059914 82.420395 82.632088 82.330872 84.454605 83.16127 C 85.77346 83.762177 88.029968 83.958313 89.469078 83.597122 C 90.908188 83.235916 92.326164 82.313599 92.62014 81.547516 C 92.914116 80.781433 93.859924 79.883987 94.721939 79.553207 C 95.583954 79.222427 97.124161 79.707367 98.144615 80.630875 C 99.165077 81.554382 100 82.975693 100 83.789352 C 100 85.031036 101.164917 85.143143 107.25 84.487137 C 111.237503 84.057266 117.425003 83.742142 121 83.78685 C 124.574997 83.831573 129.300003 83.350189 131.5 82.717102 C 133.699997 82.084015 135.982895 80.93544 136.57309 80.164703 C 137.330261 79.175949 138.603378 78.973618 140.897369 79.477463 C 142.685532 79.870209 145.691345 81.546127 147.576965 83.201721 C 149.462601 84.85733 151.566666 85.972168 152.252686 85.679153 C 152.938705 85.386139 155.184021 83.56459 157.242279 81.631256 C 160.984543 78.116119 160.984543 78.116119 163.882202 80.554337 C 165.475922 81.895355 167.521484 84.846039 168.427902 87.11142 C 169.33432 89.376785 170.726685 94.323822 171.522049 98.104813 C 172.317398 101.885803 173.02269 109.033997 173.08934 113.98967 C 173.155991 118.945351 173.5569 123 173.980255 123 C 174.40361 123 175.03125 121.59375 175.375 119.875 C 175.71875 118.15625 176 113.457809 176 109.434021 C 176 105.268829 176.465668 101.830231 177.081253 101.449783 C 177.675949 101.082245 179.516098 102.068176 181.170471 103.640762 C 182.824844 105.213348 185.354172 108.524994 186.791199 111 C 188.228226 113.475006 189.709167 115.725006 190.082199 116 C 190.455215 116.274994 191.554764 119.875 192.525635 124 C 193.496506 128.125 194.728012 131.949997 195.262283 132.5 C 195.892227 133.148468 195.99913 131.742386 195.566376 128.5 C 195.199341 125.75 194.659348 121.925003 194.366379 120 C 194.073395 118.074997 193.129761 114.25 192.269394 111.5 C 191.409027 108.75 190.344223 106.262527 189.903168 105.972275 C 189.462112 105.682022 188.205078 103.442902 187.109772 100.996445 C 186.014465 98.550003 185.297272 96.369385 185.516022 96.150635 C 185.734772 95.9319 186.720657 96.107147 187.706879 96.5401 C 188.6931 96.973038 189.725006 97.367599 190 97.416901 C 190.274994 97.466187 192.248413 98.855057 194.385361 100.503265 C 196.522308 102.151474 198.772308 103.670471 199.385361 103.87883 C 199.998413 104.087189 196.851883 100.637711 192.393066 96.213318 C 186.138397 90.006943 183.418564 86.378967 180.488998 80.334488 C 177.617966 74.410812 176.647537 71.109131 176.510101 66.797287 C 176.371674 62.453934 175.663467 60.070206 173.539047 56.797287 C 172.004944 54.433777 169.756516 51.375 168.542572 50 C 167.328613 48.625 165.819962 45.68132 165.190018 43.458481 C 164.560059 41.235641 162.797089 38.250793 161.272324 36.825516 C 159.747543 35.400223 156.762604 33.622955 154.639099 32.876053 C 152.51561 32.129135 148.01561 28.940186 144.639099 25.78949 C 141.262604 22.638794 134.750717 17.909744 130.168259 15.280472 C 125.5858 12.651215 119.285797 9.034592 116.168251 7.243561 C 113.050713 5.452515 108.757172 3.452209 106.627052 2.798431 C 102.768265 1.614105 102.739693 1.626007 98.813385 6.054871 C 96.645988 8.499695 94.322266 11.175003 93.649551 12 C 92.976837 12.824997 91.199104 15.412506 89.699028 17.75 C 88.198952 20.087494 86.303009 22 85.485809 22 C 84.564247 22 84 21.042465 84 19.478561 C 84 17.740723 83.200806 16.592987 81.428391 15.785416 C 79.347168 14.837143 78.677834 14.888916 77.918434 16.056854 C 77.402351 16.850586 77.209976 18.47995 77.490944 19.677673 C 77.771912 20.875397 77.356529 22.50061 76.567863 23.289276 C 75.779198 24.077942 73.838448 24.982315 72.255089 25.298981 C 70.671722 25.615662 68.29187 26.752823 66.96653 27.826019 C 65.082314 29.351761 64.537872 30.78476 64.469978 34.397064 C 64.422218 36.937958 63.959442 39.406204 63.441574 39.88208 C 62.923706 40.357956 60.490257 40.99939 58.033913 41.30748 C 54.290497 41.777008 52.866997 42.646973 49.236725 46.683823 C 46.854618 49.332718 44.028538 52.850006 42.956551 54.5 C 41.595001 56.595688 41.006348 59.248245 41.003738 63.299667 C 41.001553 66.688263 41.676956 70.429779 42.628384 72.299667 C 43.523994 74.059845 46.282074 77.889755 48.75745 80.810562 C 53.258133 86.121124 53.258133 86.121124 50.379066 89.170395 C 48.795578 90.847488 46.375 92.723572 45 93.339462 C 43.625 93.955368 42.275002 94.74942 42 95.104019 C 41.724998 95.458618 39.924999 96.128952 38 96.593658 C 34.587467 97.417465 34.569374 97.447311 37.276093 97.788223 C 38.802944 97.980545 41.727947 97.591644 43.776093 96.924026 C 45.824242 96.256409 47.813034 95.225922 48.195625 94.634048 C 48.57822 94.042175 49.170975 93.837646 49.512859 94.17952 C 49.854744 94.521408 49.030315 96.983383 47.680801 99.650574 C 46.331284 102.317749 44.212349 107.875 42.972054 112 C 41.731762 116.125 40.668156 122.199997 40.608486 125.5 C 40.54882 128.800003 41.132706 133.975006 41.90601 137 C 42.679314 140.024994 43.922852 143.962494 44.66943 145.75 C 45.416004 147.537506 46.22361 149 46.464108 149 Z M 82.5 146.792542 C 85.25 146.843246 89.300003 146.532104 91.5 146.101105 C 95.465782 145.324188 95.475845 145.31076 92.676781 144.531952 C 90.677528 143.975693 90.164787 143.435211 90.919922 142.680084 C 91.675049 141.924957 92.886772 142.27951 95.071747 143.894928 C 96.768753 145.149567 98.407799 145.925537 98.714066 145.619263 C 99.020332 145.312988 98.5383 143.944305 97.642876 142.577698 C 96.747452 141.211121 94.098991 138.970474 91.757416 137.598511 C 89.41584 136.226532 84.867294 134.418457 81.649536 133.580566 C 76.583122 132.261276 75.34977 132.244843 72.446426 133.457947 C 69.986084 134.485931 68.865662 135.742538 68.236649 138.179382 C 67.521225 140.951035 66.81086 141.593292 63.939758 142.06427 C 60.5 142.62851 60.5 142.62851 66 144.266541 C 69.025002 145.16745 72.849998 146.083588 74.5 146.302429 C 76.150002 146.521286 79.75 146.741821 82.5 146.792542 Z M 141.162033 146.850159 C 143.726151 146.932587 149.323135 146.330521 153.599777 145.512268 C 157.876404 144.694 161.830994 143.569 162.387741 143.012268 C 163.070755 142.329254 162.432068 142 160.424118 142 C 157.905594 142 157.144852 141.35199 155.474121 137.783508 C 154.06636 134.776688 152.693787 133.362427 150.689835 132.853897 C 149.084198 132.446442 145.581787 132.739319 142.518661 133.537155 C 139.570114 134.305145 135.71489 135.810913 133.951508 136.883301 C 132.188126 137.955658 129.430115 140.273087 127.822586 142.033112 C 126.215057 143.793121 125.119217 145.452545 125.387405 145.720734 C 125.655579 145.988922 126.314468 146.04895 126.851593 145.854156 C 127.388718 145.659378 128.777481 144.633133 129.937714 143.573639 C 131.554932 142.096832 132.321808 141.921799 133.223633 142.823639 C 134.125458 143.725464 134.00325 144 132.699997 144 C 131.764999 144 131 144.420105 131 144.933578 C 131 145.447052 132.237503 146.054626 133.75 146.283752 C 135.262497 146.512878 138.597916 146.767761 141.162033 146.850159 Z M 79.15638 143.98468 C 78.245369 143.976257 76.837608 143.550476 76.028023 143.038483 C 74.794731 142.258545 74.875809 141.992798 76.528023 141.399597 C 77.61261 141.010208 78.786339 140.541061 79.136307 140.357056 C 79.486282 140.17305 80.006653 140.917435 80.292686 142.011246 C 80.65802 143.408264 80.319916 143.995453 79.15638 143.98468 Z M 146.747955 143.52713 C 144.417953 144.111908 144 143.904053 144 142.160431 C 144 140.30217 144.293961 140.206512 147.051041 141.167633 C 148.729126 141.752625 149.965698 142.36763 149.798996 142.534332 C 149.632294 142.70105 148.259323 143.147797 146.747955 143.52713 Z M 100.25 133.311249 C 100.662498 133.075134 101 131.869537 101 130.632111 C 101 129.394684 100.4375 127.642815 99.75 126.739052 C 99.0625 125.835289 95.134048 124.174286 91.020096 123.047928 C 86.906151 121.921562 81.506157 121.000702 79.020096 121.001556 C 76.534042 121.002411 72.951195 121.789909 71.058212 122.751556 C 69.16523 123.713196 66.781715 126.016487 65.761513 127.869965 C 64.74131 129.72345 64.149849 131.483185 64.447166 131.780502 C 64.744484 132.07782 65.940361 131.461334 67.104668 130.410538 C 68.852821 128.832825 70.639503 128.521881 77.360802 128.625641 C 83.252113 128.716583 87.433258 129.440247 92.5 131.245911 C 96.349998 132.61795 99.837502 133.547348 100.25 133.311249 Z M 123.732727 133 C 124.720261 133 127.996887 132.076019 131.014114 130.946686 C 134.031357 129.817383 139.744446 128.628784 143.709869 128.305389 C 149.766602 127.81144 151.365997 128.019882 153.709869 129.608704 C 155.244446 130.648911 157.0625 131.645493 157.75 131.823334 C 158.4375 132.00116 159 131.68869 159 131.128967 C 159 130.569244 157.431107 128.398758 155.513565 126.305649 C 152.02713 122.5 152.02713 122.5 142.763565 122.512543 C 136.671066 122.520798 131.548599 123.139221 127.799423 124.319138 C 123.949966 125.530609 121.892731 126.762589 121.464111 128.113068 C 121.115005 129.213013 121.078644 130.762543 121.383301 131.556488 C 121.687958 132.350418 122.745209 133 123.732727 133 Z M 164.51503 123.604637 C 165.88176 123.272087 168.125 122.726219 169.5 122.391594 C 171.450012 121.91703 172 121.147049 172 118.891594 C 172 116.051315 171.901855 116 166.468613 116 C 162.793671 116 160.766251 116.445557 160.427795 117.327553 C 160.147614 118.057701 160.393509 119.904793 160.974213 121.43219 C 161.848602 123.732002 162.457138 124.105354 164.51503 123.604637 Z M 58.332573 113 C 61.384743 113 64.117081 112.619583 64.404442 112.154617 C 64.691803 111.689651 65.225876 109.439651 65.591263 107.154617 C 66.255615 103 66.255615 103 61.877808 103.01532 C 59.470016 103.023727 57.017174 103.361237 56.427055 103.76532 C 55.836937 104.169388 55.047523 105.3293 54.672791 106.342896 C 54.298065 107.356491 53.719604 109.268997 53.387329 110.592896 C 52.803486 112.919098 52.969681 113 58.332573 113 Z M 164.879745 111.378143 C 167.420883 111.076721 169.966736 110.694214 170.537201 110.528091 C 171.122147 110.357773 171.403381 108.432632 171.182175 106.113037 C 170.789932 102 170.789932 102 166.144958 102.013657 C 163.59024 102.021164 160.487503 102.298645 159.25 102.63028 C 158.012497 102.961929 157 103.855774 157 104.616638 C 157 105.377487 157.449997 106 158 106 C 158.550003 106 159 107.050003 159 108.333328 C 159 109.616669 159.283386 110.950058 159.629745 111.296417 C 159.97612 111.642776 162.338608 111.679565 164.879745 111.378143 Z M 62.415215 99.163254 C 65.52549 98.915878 67.083817 98.291092 67.431076 97.152191 C 67.708145 96.243484 68.239288 93.542023 68.611389 91.148956 C 69.159386 87.624619 69.011856 86.864594 67.834915 87.148956 C 67.035759 87.342026 65.058472 88.550812 63.440948 89.835129 C 61.823425 91.119446 60.196228 92.706726 59.824951 93.362411 C 59.453674 94.018082 58.869377 95.672256 58.526512 97.03833 C 57.922874 99.44342 58.046074 99.510742 62.415215 99.163254 Z M 159.981995 98 C 161.504395 98 164.199524 97.710098 165.971161 97.355774 C 168.912048 96.767593 169.141052 96.455246 168.603165 93.765839 C 168.279144 92.145706 167.13382 88.830292 166.058014 86.398254 C 164.982208 83.966217 163.401718 81.707642 162.545792 81.379196 C 161.568054 81.004013 159.612335 82.119736 157.284515 84.380737 C 154.385345 87.196716 153.842712 88.242706 154.789734 89.189728 C 155.455383 89.855377 156 91.398193 156 92.61821 C 156 93.838226 156.273148 95.548233 156.606995 96.418213 C 156.958191 97.333435 158.380417 98 159.981995 98 Z M 60.178253 84 C 59.670311 84 57.363091 81.94783 55.051102 79.439606 C 52.739113 76.931396 50.147911 73.218903 49.292881 71.189606 C 48.437847 69.160324 47.700615 65.238785 47.654587 62.475082 C 47.608555 59.71138 48.158562 56.031403 48.876823 54.297379 C 49.595081 52.563339 50.974968 50.427643 51.943233 49.551376 C 53.597321 48.054443 53.592545 48.28746 51.864117 53.407242 C 50.372795 57.824692 50.205997 59.813232 50.983086 63.910812 C 51.510296 66.690781 52.906178 70.885605 54.085045 73.232651 C 55.263916 75.579697 57.324944 78.962494 58.665115 80.75 C 60.00528 82.537506 60.686195 84 60.178253 84 Z M 108.863541 79.990616 C 108.113594 79.985458 105.246574 78.688644 102.492378 77.10881 C 99.73819 75.528992 95.620369 72.427078 93.341675 70.215668 C 90.353531 67.315781 88.70945 64.56488 87.443916 60.347473 C 86.478844 57.131363 85.698059 51.574997 85.708839 48 C 85.721199 43.903442 86.365768 40.205841 87.452049 38 C 88.400024 36.074997 89.647865 33.600006 90.225021 32.5 C 90.802177 31.399994 93.29538 29.189636 95.765472 27.588058 C 98.235558 25.986496 101.886322 24.09375 103.878273 23.381958 C 105.870224 22.670166 110.25592 22.068039 113.624275 22.0439 C 116.992622 22.019745 121.713348 22.693222 124.114761 23.540497 C 126.51619 24.387756 128.935257 25.567841 129.490494 26.162903 C 130.171631 26.892883 129.789505 26.879715 128.315735 26.122406 C 127.114395 25.505081 123.631729 25 120.576462 25 C 117.52121 25 112.77565 25.853333 110.030777 26.896301 C 107.285912 27.93927 103.660591 30.076782 101.974518 31.646301 C 100.288437 33.215836 98.029411 35.903122 96.95446 37.618027 C 95.879509 39.332947 95 41.69545 95 42.868027 C 95 44.040619 94.550003 45 94 45 C 93.449997 45 93 46.125 93 47.5 C 93 48.875 93.449997 50 94 50 C 94.550003 50 95 50.845047 95 51.877869 C 95 52.910706 95.743805 55.498215 96.652901 57.627869 C 98.305794 61.5 98.305794 61.5 99.596855 56.563553 C 100.306931 53.848511 101.713608 50.521164 102.722794 49.169464 C 103.731987 47.817764 105.962051 45.628815 107.678505 44.30513 C 110.799332 41.898438 110.799332 41.898438 108.830917 45.876953 C 107.710701 48.141113 106.999855 51.287048 107.181252 53.177734 C 107.5 56.5 107.5 56.5 109.373283 52.730301 C 110.403595 50.656982 112.621628 47.95697 114.302246 46.730301 C 115.982864 45.503632 117.896469 44.171432 118.554703 43.769852 C 119.212936 43.368271 118.637405 45.797897 117.275742 49.169022 C 115.159355 54.408661 114.799484 56.909622 114.79644 66.39917 C 114.792877 77.5 114.792877 77.5 111.822952 74 C 108.853027 70.5 108.853027 70.5 109.540054 75.25 C 110.072632 78.932144 109.920547 79.997894 108.863541 79.990616 Z M 84.844612 77.951263 C 84.10508 77.924469 80.774445 76.786621 77.443214 75.422729 C 74.111984 74.058823 69.72493 71.573364 67.694199 69.89946 C 65.663467 68.225571 63.706902 65.650909 63.346275 64.178009 C 62.985641 62.705109 62.310204 61.350006 61.845291 61.166672 C 61.380379 60.983337 61 60.195831 61 59.416672 C 61 58.637497 61.401215 58 61.891594 58 C 62.381966 58 63.065544 56.875 63.410645 55.5 C 63.755745 54.125 64.427048 53 64.90242 53 C 65.377792 53 66.099152 54.012497 66.50544 55.25 C 67.054733 56.923096 67.444077 55.810425 68.023911 50.910461 C 68.473 47.115402 69.934006 42.090332 71.46907 39.061035 C 72.935036 36.168091 74.334015 34.000687 74.577911 34.244583 C 74.821808 34.488464 74.337471 36.626343 73.501617 38.995407 C 72.665764 41.364471 71.709869 45.617233 71.377403 48.445999 C 71.044937 51.27475 71.293152 56.095139 71.928993 59.157959 C 72.564835 62.220795 74.091194 66.090469 75.320908 67.757263 C 76.550629 69.424042 79.499062 72.410522 81.872993 74.39389 C 84.246918 76.377243 85.584152 77.978073 84.844612 77.951263 Z M 167.697647 76.985123 C 167.588943 76.976944 165.699997 75.388046 163.5 73.454239 C 161.300003 71.520432 158.600006 69.517746 157.5 69.00383 C 156.399994 68.489914 154.375 67.153976 153 66.03508 C 151.625 64.916168 149.876205 63.47554 149.113785 62.833679 C 148.351379 62.191818 146.438873 61.666672 144.863785 61.666672 C 143.288712 61.666672 141.826904 61.854172 141.615341 62.083328 C 141.403778 62.3125 140.318909 64.21843 139.204544 66.318756 C 137.425537 69.671738 137.100235 69.891174 136.53743 68.11792 C 136.184875 67.007141 136.373795 64.325562 136.95723 62.158829 C 137.777267 59.11348 138.821014 57.838287 141.555893 56.540497 C 143.909988 55.423401 146.165497 55.084915 148.296875 55.528885 C 150.058594 55.895844 153.364304 57.267685 155.642899 58.577423 C 158.150909 60.019043 160.913284 62.841385 162.642899 65.729385 C 164.21431 68.353226 166.03894 71.962494 166.697647 73.75 C 167.356354 75.537506 167.806366 76.993301 167.697647 76.985123 Z M 126.275681 73.921051 C 125.60231 73.964478 124.364807 72.672348 123.525681 71.049667 C 122.686554 69.426971 122 66.807129 122 65.227798 C 122 63.648468 122.70462 60.363617 123.565811 57.928146 C 124.427002 55.492661 126.375336 52.516769 127.895416 51.315063 C 130.65921 49.130112 130.65921 49.130112 128.579605 55.315063 C 127.435822 58.716782 126.162506 61.649994 125.75 61.833328 C 125.337494 62.016663 125 64.566666 125 67.5 C 125 70.830994 125.469299 73.022705 126.25 73.337723 C 127.208069 73.724304 127.214066 73.86055 126.275681 73.921051 Z M 93.75 20.941177 C 93.337502 20.973526 93 20.137497 93 19.083328 C 93 18.02916 93.383636 17.016663 93.852516 16.833328 C 94.321404 16.649994 95.481163 14.847305 96.429756 12.827347 C 97.378349 10.807388 98.689201 8.949509 99.342758 8.698715 C 99.996315 8.447922 99.174057 11.086639 97.515518 14.562546 C 95.856987 18.038437 94.162498 20.908829 93.75 20.941177 Z M 107.184563 15.889618 C 99.869133 17.908844 99.869133 17.908844 101.734634 14.714661 C 102.760666 12.95787 104.703987 10.900909 106.053139 10.143646 C 108.171692 8.954544 109.041153 8.990356 112.430122 10.406357 C 114.815689 11.403107 115.990646 12.403549 115.427048 12.958145 C 114.917175 13.459869 111.208054 14.779037 107.184563 15.889618 Z M 106.722725 14.533463 C 108.220222 14.157608 110.132721 13.464081 110.972725 12.992294 C 112.293678 12.250381 112.254974 12.040115 110.686234 11.435791 C 109.68866 11.051498 107.776154 11.236588 106.436234 11.847107 C 105.096306 12.457611 104 13.465561 104 14.086975 C 104 14.817444 104.962418 14.975266 106.722725 14.533463 Z"/>
</svg>
