<?xml version="1.0" encoding="utf-8"?>
<!-- Generator: Adobe Illustrator 22.1.0, SVG Export Plug-In . SVG Version: 6.00 Build 0)  -->
<svg version="1.1" id="Layer_4_1_" xmlns="http://www.w3.org/2000/svg" xmlns:xlink="http://www.w3.org/1999/xlink" x="0px" y="0px"
	 viewBox="0 0 37 37" style="enable-background:new 0 0 37 37;" xml:space="preserve">
<style type="text/css">
	.st0{fill:#241C1C;}
</style>
<g>
	<path class="st0" d="M23.3,20.3c0,0-0.9,0-1.2,0c-0.3,0-0.5,0.3-0.5,0.3c0,0.6,0.3,0.9,0.9,0.9s0.6-0.4,0.9-0.7
		C23.7,20.5,23.3,20.3,23.3,20.3z"/>
	<path class="st0" d="M30.1,9.1c0.6-0.6,0.5-1.7,0.5-1.7c0,0.3-2.2,1.5-2.2,1c0-0.5,0.3-0.7,0.3-1.4s-1.2-3.1-1.2-3.4
		s-0.5-0.3-0.5-0.3s0.3,0.3-0.1,0.8C26.5,4.4,26.5,4,26.5,4c0-2-2.6-3.7-2.6-3.7c0,0.7-2.2,2-2.7,2c-0.5,0-1.6-0.4-1.6-0.9
		c0-0.5,0.3-0.9,0.3-0.9c-1.2,0-2.4,1.6-2.9,2.2c-0.5,0.5-0.4,3.2-0.4,3.2s-0.6-1.8-0.6-2.6c0-0.8,1.7-2.9,1.7-2.9
		c-0.4,0-1.8,1.2-2.1,1.5S14.2,2.6,13.6,2s-1.4-0.1-1.7-0.1s-1.4,1.4-1.8,1.9S9.2,6.5,9.2,6.5s0.2-1.8,0.2-2.3s1.2-1.9,1.5-2.2
		s0.3-0.1,0.8-0.6s-0.9-0.5-0.9-0.5c0,0.8-0.9,1.8-1.3,1.8S8.7,2,8.7,2c-1.7,1.7-2,3.7-2,4.2S6.8,8.7,7.1,9c0.3,0.3,0,0.9-0.3,0.9
		S5.6,9.1,5.6,9.1c0.3,0,0.5,2.1,0.5,2.4s1.7,1.8,1.7,1.8c0,0.6,0,2.9,0,3.1c0,0.3,0.1,1.1,0.5,1.5s0.8,0.9,1,0.9s0.6,1,0.3,1.3
		s-1,1.2-0.7,1.4c0.3,0.3,1.6,5.1,1.6,5.5c0,0.4,1.5,1.3,1.8,1.6c0.3,0.3,1.4,0.5,1.4,0.5c0-0.5,1.1-2.2,1.1-2.2
		c0.2,0.2,1.4,0.3,1.7,0c0.3-0.3,1.9-0.2,1.9-0.2s1.6-0.2,1.9,0.2c0.3,0.3,1.6,0.2,1.7,0c0,0,1.1,1.6,1.1,2.2c0,0,1.1-0.2,1.4-0.5
		c0.3-0.3,1.8-1.2,1.8-1.6c0-0.4,1.4-5.2,1.6-5.5c0.3-0.3-0.3-1.1-0.7-1.4s0.1-1.3,0.3-1.3c0.2,0,0.6-0.5,1-0.9s0.5-1.2,0.5-1.5
		c0-0.3,0-3.3,0-3.3v-0.4c0,0,0.8-1,1.1-1.4s-0.1-1.1,0.2-1.1c0.3,0,1-1.6,1-1.6C31,9.2,30.1,9.1,30.1,9.1z M13.7,27.9v-1.4
		c0,0-0.1-1,1.8-1C15.4,25.4,13.7,27.2,13.7,27.9z M14.3,22.6c-0.1,0-0.1,0.1-0.1,0.1C14.1,22.7,14.2,22.7,14.3,22.6
		c0.3-0.2,0.8-0.9,0.8-0.9c-1.5,0-1.7-0.2-1.7-0.2c0.9,0,1.6-0.3,1.6-0.3c-0.6-0.6-2.1-0.3-2.6-0.3S12,20.5,12,20.5
		c1-1,4.6,0.5,4.6,0.5c0,0.6,0,0.8-0.5,0.8C15.8,21.8,14.6,22.4,14.3,22.6z M11.2,19.4c0,0,0.9-0.9,2.1-0.9s3.8,1.4,3.6,1.7
		c-0.2,0.2-0.5,0.5-0.7,0.2c-0.3-0.3-2-1-2.3-1S11.8,18.8,11.2,19.4z M20.3,26c-0.5,0-1,0-1.2,0.2c-0.2,0.2-0.2,0.3-0.7,0.3
		c-0.5,0-0.5-0.1-0.7-0.3C17.5,25.9,17,26,16.5,26c-0.5,0-0.3-0.9-0.3-0.9c0,0.2,0.4,0.5,0.5,0.5c0.1,0,0.5,0.1,0.8,0.1
		c0.3,0,0.5,0.4,0.6,0.4c0.2,0,0.3,0,0.3,0s0.1,0,0.3,0c0.2,0,0.3-0.4,0.6-0.4c0.3,0,0.7-0.1,0.8-0.1c0.1,0,0.5-0.3,0.5-0.5
		C20.7,25,20.8,26,20.3,26z M21.5,25.5c1.4,0,1.5,1.7,1.5,1.7C23,26.5,21.5,25.5,21.5,25.5z M22.8,21.8c-0.3,0-1.3-0.2-1.3-0.2
		s0,0.3,0.8,1.1c0,0-1.4-0.7-1.6-0.7c-0.4,0-0.7-1.1-0.4-1.3c0.2-0.2,1-0.8,1.4-0.8c0.5,0,1.8,0,1.8,0s1,0.5,1,0.8
		C24.6,21.2,23.1,21.8,22.8,21.8z M23.6,19.1c-1,0-2.5,0.2-2.9,0.6S20,19.7,20,19.5c0-0.3,0-0.7,0.4-0.7s2.5-0.2,3.3-0.2
		s1.2,0.2,2,1C25.7,19.6,24.6,19.1,23.6,19.1z M27.1,18c-0.4-0.4-6-0.6-6-0.6L19,15l-0.6-0.1L17.9,15l-2.1,2.4c0,0-5.6,0.2-6,0.6
		c-0.4,0.4-1.1-1-1.1-4.8c0,0,4.4-2.5,9.8-2.5s9.8,2.5,9.8,2.5C28.2,17,27.5,18.4,27.1,18z"/>
</g>
<path class="st0" d="M18.4,28.6h-3c0,0,0.4,1.2,3,1.2s3-1.2,3-1.2H18.4z"/>
<path class="st0" d="M20.5,31.2c-0.6,0.6-0.8-0.1-0.8-0.2c0-0.1,0.5-0.4,0.2-0.4c-0.3,0-1.4,0-1.4,0s-1.1,0-1.4,0
	c-0.3,0,0.2,0.3,0.2,0.4c0,0.1-0.3,0.7-0.8,0.2s-3-1-1.5,0.6s3.5,1.4,3.5,1.4s2,0.1,3.5-1.4C23.5,30.2,21,30.7,20.5,31.2z"/>
<path class="st0" d="M22.8,32.9c-0.3,0.3-1.7,2-2.6,2c-0.9,0-1.8,0-1.8,0s-0.9,0-1.8,0c-0.9,0-2.2-1.6-2.6-2
	c-0.3-0.3-0.5-0.6-0.5,0.2c0,0.7,2.2,1.6,2.2,2.3c0,0.7,1.2,1.3,1.2,1.3h1.5H20c0,0,1.2-0.6,1.2-1.3c0-0.7,2.2-1.6,2.2-2.3
	C23.3,32.3,23.1,32.6,22.8,32.9z"/>
</svg>
