<?xml version="1.0" standalone="no"?>
<!DOCTYPE svg PUBLIC "-//W3C//DTD SVG 20010904//EN"
 "http://www.w3.org/TR/2001/REC-SVG-20010904/DTD/svg10.dtd">
<svg version="1.0" xmlns="http://www.w3.org/2000/svg"
 width="2000.000000" height="2000.000000" viewBox="0 0 2000.000000 2000.000000">

<g transform="translate(0.000000,2000.000000) scale(0.100000,-0.100000)"
fill="#F5DEB3" stroke="none">
<path d="M9553 19989 c-2095 -91 -4184 -894 -5839 -2245 -1008 -822 -1834
-1809 -2479 -2959 -105 -187 -355 -700 -443 -910 -640 -1511 -892 -3075 -757
-4690 120 -1426 560 -2824 1289 -4088 1100 -1908 2806 -3427 4820 -4294 726
-312 1503 -543 2248 -668 321 -54 622 -89 1003 -117 220 -16 996 -16 1225 0
896 63 1659 214 2490 492 1630 545 3075 1486 4240 2760 1205 1318 2033 2898
2419 4616 103 457 172 949 213 1509 16 222 16 1008 0 1230 -72 988 -236 1781
-554 2670 -982 2754 -3175 4999 -5908 6050 -1278 491 -2591 704 -3967 644z
m1107 -1754 c102 -8 259 -24 350 -35 1511 -185 3013 -824 4200 -1789 500 -406
990 -912 1375 -1421 783 -1035 1345 -2325 1565 -3593 139 -801 156 -1652 49
-2462 -161 -1229 -637 -2479 -1347 -3540 -569 -850 -1309 -1602 -2157 -2191
-810 -564 -1750 -990 -2720 -1233 -1403 -352 -2918 -315 -4290 103 -804 245
-1513 579 -2202 1037 -1582 1053 -2730 2557 -3333 4369 -291 872 -426 1759
-407 2675 19 887 148 1627 432 2464 539 1592 1557 2988 2915 3997 1272 945
2832 1527 4355 1624 94 6 195 12 225 14 134 9 818 -4 990 -19z"/>
<path d="M8560 14215 c0 -5 688 -710 2413 -2472 l649 -663 -3336 0 -3336 0 0
-1090 0 -1090 3335 -2 3335 -3 -787 -805 c-432 -443 -1065 -1091 -1407 -1440
-341 -349 -676 -692 -745 -762 l-125 -128 1459 0 1460 0 154 163 c204 214 546
572 691 722 63 66 304 318 535 560 231 242 571 597 755 790 185 192 630 658
990 1035 359 377 700 732 756 790 121 124 147 155 142 174 -2 8 -138 155 -303
328 -164 172 -686 718 -1159 1213 -473 495 -905 947 -961 1005 -56 58 -207
215 -336 350 -361 378 -853 893 -1073 1122 l-199 208 -1453 0 c-800 0 -1454
-2 -1454 -5z"/>
</g>
</svg>
