<?xml version="1.0" encoding="UTF-8"?>
<svg width="578px" height="578px" viewBox="0 0 578 578" xmlns="http://www.w3.org/2000/svg" xmlns:xlink="http://www.w3.org/1999/xlink" version="1.1">
 <!-- Generated by Pixelmator Pro 2.0.8 -->
 <path id="Shape" d="M295.494 576.811 C293.442 577.05 291.899 576.546 290.73 575.254 289.778 574.203 289 572.559 289 571.601 289 570.644 290.278 567.979 291.839 565.68 293.401 563.381 296.298 558.71 298.279 555.3 300.259 551.89 303.468 545.486 305.41 541.069 307.352 536.652 310.096 529.092 311.508 524.269 312.92 519.446 314.353 512.641 314.692 509.146 315.309 502.792 315.309 502.792 299.404 503.497 287.289 504.033 280.046 503.807 269 502.544 261.025 501.633 249.325 499.754 243 498.368 236.675 496.983 226.919 494.331 221.32 492.476 215.721 490.62 206.271 486.926 200.32 484.266 194.369 481.606 185.111 476.842 179.747 473.68 174.383 470.518 165.459 464.515 159.916 460.339 154.372 456.163 145.749 448.866 140.752 444.123 135.755 439.381 128.286 431.45 124.154 426.5 120.022 421.55 113.51 412.775 109.683 407 105.856 401.225 99.668 390.271 95.933 382.658 92.198 375.045 87.306 363.196 85.061 356.327 82.816 349.458 79.878 338.362 78.534 331.669 77.189 324.976 75.619 314.84 75.044 309.144 74.47 303.448 74 293.996 74 288.138 74 282.28 74.668 271.778 75.484 264.799 76.301 257.82 77.907 247.777 79.055 242.482 80.202 237.186 82.714 228.103 84.636 222.296 86.559 216.489 90.167 207.091 92.655 201.411 95.143 195.73 101.004 184.202 105.68 175.791 110.356 167.381 117.853 154.88 122.341 148.011 126.828 141.142 133.828 131.017 137.897 125.511 141.965 120.005 149.583 110.325 154.826 104 160.069 97.675 172.041 84.835 181.43 75.466 190.818 66.097 203.225 54.526 209 49.751 214.775 44.977 223.775 37.855 229 33.926 234.225 29.996 243.45 23.508 249.5 19.509 255.55 15.509 265.191 9.424 270.924 5.987 279.8 0.664 281.728 -0.13 283.906 0.636 285.34 1.14 286.893 2.754 287.439 4.308 288.194 6.455 288.024 7.692 286.684 9.79 285.732 11.281 282.758 16.151 280.075 20.614 277.392 25.076 273.617 32.322 271.685 36.715 269.754 41.109 267.205 47.952 266.023 51.923 264.84 55.894 263.281 62.25 262.557 66.046 261.576 71.195 261.529 73.306 262.371 74.354 263.3 75.511 265.712 75.609 276 74.908 283.556 74.394 293.839 74.45 302 75.051 309.425 75.597 319.45 76.725 324.277 77.557 329.104 78.39 337.234 80.157 342.344 81.485 347.454 82.812 356.104 85.495 361.567 87.446 367.03 89.397 376.9 93.661 383.5 96.921 390.1 100.182 400.225 105.948 406 109.736 411.775 113.523 420.55 120.008 425.5 124.147 430.45 128.285 438.575 135.945 443.555 141.169 448.535 146.393 455.867 155.001 459.848 160.297 463.829 165.594 469.429 173.898 472.293 178.751 475.157 183.603 479.843 192.515 482.707 198.554 485.57 204.594 489.712 214.927 491.91 221.517 494.108 228.108 497.028 239.125 498.398 246 499.769 252.875 501.366 262.87 501.945 268.211 502.525 273.551 503 283.004 503 289.217 503 295.429 502.333 306.218 501.517 313.191 500.701 320.164 499.106 330.061 497.971 335.185 496.837 340.308 493.94 350.406 491.535 357.625 489.13 364.844 484.954 375.419 482.254 381.125 479.555 386.831 474.071 397.35 470.068 404.5 466.065 411.65 459.125 423.122 454.645 429.994 450.165 436.866 442.627 447.694 437.894 454.057 433.161 460.42 425.079 470.548 419.935 476.563 414.791 482.578 405.614 492.61 399.541 498.856 393.469 505.102 383.55 514.588 377.5 519.935 371.45 525.283 362.225 533.035 357 537.162 351.775 541.289 342.03 548.501 335.344 553.189 328.657 557.877 317.639 565.03 310.858 569.085 304.077 573.139 297.164 576.616 295.494 576.811 Z M291 372.555 C299.635 372.266 305.779 371.485 310.872 370.031 314.927 368.873 321.567 366.282 325.629 364.274 329.69 362.266 336.048 358.313 339.757 355.49 343.466 352.667 349.126 347.239 352.337 343.429 355.547 339.618 359.787 333.618 361.759 330.096 363.731 326.574 366.596 320.049 368.126 315.596 369.7 311.014 371.306 303.484 371.826 298.25 372.381 292.668 372.385 285.408 371.837 279.941 371.337 274.959 369.68 267.168 368.154 262.627 366.628 258.086 363.758 251.475 361.777 247.936 359.795 244.396 355.547 238.382 352.337 234.571 349.126 230.761 343.466 225.333 339.757 222.51 336.048 219.687 329.641 215.71 325.52 213.672 321.399 211.635 314.308 208.962 309.763 207.734 303.369 206.005 298.785 205.5 289.5 205.5 282.9 205.5 274.575 206.099 271 206.83 267.425 207.562 261.597 209.316 258.05 210.729 254.502 212.142 248.981 214.832 245.781 216.708 242.58 218.583 237.252 222.373 233.941 225.129 230.629 227.885 225.89 232.696 223.41 235.82 220.93 238.944 217.271 244.382 215.278 247.904 213.286 251.426 210.371 258.035 208.801 262.59 207.102 267.52 205.606 274.56 205.105 279.985 204.626 285.185 204.657 293.05 205.179 298.3 205.7 303.539 207.309 311.04 208.918 315.722 210.472 320.245 213.713 327.414 216.121 331.653 218.654 336.113 223.661 342.608 228 347.062 232.125 351.297 238.729 356.841 242.676 359.382 246.623 361.923 253.148 365.318 257.176 366.926 261.204 368.535 267.65 370.554 271.5 371.412 276.54 372.536 282 372.856 291 372.555 Z" fill="#ffffff" fill-opacity="1" stroke="none"/>
</svg>
