<?xml version="1.0" encoding="UTF-8"?>
<svg width="578px" height="578px" viewBox="0 0 578 578" xmlns="http://www.w3.org/2000/svg" xmlns:xlink="http://www.w3.org/1999/xlink" version="1.1">
 <!-- Generated by Pixelmator Pro 2.0.8 -->
 <path id="Shape" d="M210.5 497.471 C210.109 153.526 210.215 53.452 210.483 53.184 210.751 52.916 216.715 54.132 223.735 55.888 230.756 57.643 243.7 61.113 252.5 63.598 261.3 66.084 276.15 70.376 285.5 73.137 294.85 75.897 308.35 79.945 315.5 82.131 322.65 84.318 334.8 88.133 342.5 90.611 350.2 93.088 361.675 97.399 368 100.19 374.325 102.982 382.57 107.002 386.323 109.123 390.076 111.245 396.601 115.348 400.823 118.241 405.045 121.133 412.352 127.325 417.061 132 421.769 136.675 427.972 143.65 430.845 147.5 433.717 151.35 438.082 158.55 440.545 163.5 443.007 168.45 446.128 176.247 447.481 180.828 448.834 185.408 450.645 193.894 451.505 199.685 452.365 205.477 453.346 216.648 453.685 224.51 454.059 233.149 453.828 243.55 453.101 250.801 452.441 257.399 451.022 266.474 449.949 270.967 448.876 275.46 446.434 282.521 444.522 286.658 442.611 290.795 438.973 297.086 436.439 300.638 433.904 304.19 428.831 309.574 425.165 312.602 421.499 315.63 415.8 319.432 412.5 321.049 409.2 322.666 403.46 324.732 399.744 325.64 394.674 326.878 390.557 327.142 383.244 326.698 377.885 326.372 370.125 325.133 366 323.945 361.875 322.756 355.255 320.295 351.29 318.475 L344.079 315.167 343.769 235.333 C343.459 155.5 343.459 155.5 341.218 149.5 339.986 146.2 337.229 141.459 335.093 138.964 332.872 136.369 328.837 133.266 325.668 131.714 322.62 130.221 318.541 129 316.603 129 314.049 129 312.383 129.753 310.541 131.739 309.144 133.246 307.213 136.059 306.25 137.989 304.604 141.291 304.484 152.955 304.235 333.75 303.985 515.491 303.875 525.994 302.235 525.896 301.281 525.838 280.25 519.419 255.5 511.631 L210.5 497.471 Z M340.969 515.779 L341.5 459.595 371 448.277 C387.225 442.052 407.025 434.468 415 431.423 422.975 428.378 437.375 422.931 447 419.317 456.625 415.704 468.982 410.986 474.459 408.833 479.937 406.68 485.948 403.751 487.818 402.325 490.855 400.009 491.156 399.352 490.641 396.176 490.324 394.22 489.22 391.776 488.188 390.744 486.954 389.51 482.241 388.047 474.406 386.467 467.858 385.147 460.162 384.052 457.304 384.033 454.446 384.015 445.919 385.6 438.355 387.555 430.791 389.511 417.604 393.506 409.051 396.433 400.498 399.36 385.4 404.79 375.5 408.501 365.6 412.212 353.337 416.728 348.25 418.537 L339 421.826 339 393.941 C339 366.056 339 366.056 344.25 364.601 347.138 363.8 353.55 362.239 358.5 361.13 363.45 360.021 372.225 358.227 378 357.144 383.775 356.06 393.225 354.694 399 354.106 404.775 353.519 418.744 352.739 430.043 352.373 443.541 351.936 455.012 352.124 463.491 352.921 470.589 353.588 481.227 355.004 487.131 356.067 493.035 357.13 503.141 359.36 509.587 361.023 516.034 362.685 525.402 365.434 530.404 367.132 535.407 368.83 544.205 372.437 549.955 375.146 555.705 377.856 562.817 381.93 565.758 384.199 568.7 386.468 572.278 390.325 573.71 392.768 575.669 396.111 576.431 399.036 576.787 404.58 577.204 411.083 576.947 412.588 574.6 417.385 573.137 420.375 570.26 424.339 568.206 426.195 566.152 428.05 561.775 431.207 558.48 433.209 555.184 435.211 548.587 438.421 543.82 440.343 539.053 442.265 530.956 445.882 525.827 448.381 520.697 450.88 489.95 462.681 457.5 474.605 425.05 486.529 389.5 499.417 378.5 503.246 367.5 507.074 354.556 511.46 349.735 512.992 L340.969 515.779 Z M183.5 387.463 C133.125 405.482 112.747 413.083 105.715 415.98 98.683 418.877 91.483 422.218 89.715 423.405 87.463 424.918 86.41 426.483 86.198 428.633 85.956 431.082 86.595 432.315 89.366 434.748 91.274 436.424 95.365 438.741 98.456 439.897 101.624 441.083 106.436 442 109.487 442 112.463 442 119.61 441.091 125.368 439.98 131.127 438.868 141.837 436.198 149.169 434.047 156.501 431.895 167.628 428.52 173.896 426.547 180.164 424.574 185.564 423.231 185.896 423.563 186.228 423.895 186.5 434.442 186.5 447 186.5 459.558 186.21 470.123 185.856 470.477 185.502 470.831 177.402 473.078 167.856 475.469 158.31 477.861 144.875 480.779 138 481.954 130.389 483.255 119.438 484.247 110 484.491 101.475 484.712 91.422 484.464 87.66 483.941 83.898 483.418 76.373 481.862 70.938 480.484 65.503 479.107 56.431 476.346 50.778 474.348 45.125 472.351 37.104 469.022 32.954 466.95 28.803 464.878 22.891 461.133 19.815 458.627 16.74 456.122 12.55 451.792 10.504 449.006 8.459 446.22 5.228 440.016 3.323 435.22 0.507 428.127 -0.063 425.51 0.267 421.197 0.589 416.993 1.507 414.714 4.699 410.197 6.912 407.064 11.766 402.178 15.484 399.341 19.201 396.503 25.901 392.115 30.372 389.589 34.842 387.064 44.575 382.334 52 379.08 59.425 375.825 82.714 367.055 103.753 359.591 124.793 352.127 150.443 343.021 160.753 339.356 171.064 335.692 180.52 332.484 181.766 332.227 184.032 331.761 184.032 331.761 183.766 359.612 L183.5 387.463 Z" fill="#ffffff" fill-opacity="1" stroke="none"/>
</svg>
