<?xml version="1.0" standalone="no"?>
<!DOCTYPE svg PUBLIC "-//W3C//DTD SVG 20010904//EN"
 "http://www.w3.org/TR/2001/REC-SVG-20010904/DTD/svg10.dtd">
<svg version="1.0" xmlns="http://www.w3.org/2000/svg"
 width="2000.000000pt" height="2000.000000pt" viewBox="0 0 2000.000000 2000.000000"
 preserveAspectRatio="xMidYMid meet">

<g transform="translate(0.000000,2000.000000) scale(0.100000,-0.100000)"
fill="#F5DEB3" stroke="none">
<path d="M9543 19989 c-1734 -75 -3460 -636 -4942 -1606 -1761 -1152 -3131
-2821 -3901 -4748 -345 -863 -564 -1752 -649 -2635 -38 -388 -45 -542 -45
-990 0 -449 7 -603 45 -990 157 -1609 738 -3202 1667 -4570 1268 -1867 3064
-3235 5172 -3940 831 -278 1594 -429 2490 -492 229 -16 1005 -16 1225 0 646
48 1140 124 1700 263 2321 577 4369 1965 5796 3929 748 1029 1299 2209 1610
3443 286 1138 360 2335 219 3542 -105 892 -348 1798 -722 2680 -88 210 -338
723 -443 910 -1260 2247 -3249 3901 -5667 4709 -1155 386 -2324 549 -3555 495z
m1085 -1753 c358 -30 703 -79 1017 -146 2200 -468 4132 -1805 5326 -3687 551
-868 947 -1857 1143 -2858 169 -865 191 -1809 60 -2715 -198 -1385 -835 -2842
-1729 -3955 -1160 -1444 -2740 -2464 -4505 -2905 -1574 -393 -3240 -300 -4775
267 -973 359 -1841 877 -2620 1562 -162 142 -488 465 -645 636 -835 918 -1453
2013 -1825 3235 -363 1194 -440 2483 -225 3727 203 1169 698 2364 1388 3348
288 410 561 735 917 1090 542 542 1084 955 1755 1340 738 422 1616 752 2460
924 407 83 744 124 1265 155 140 8 823 -4 993 -18z"/>
<path d="M8334 14012 c-220 -229 -712 -744 -1073 -1122 -129 -135 -280 -292
-336 -350 -56 -58 -488 -510 -961 -1005 -473 -495 -995 -1041 -1159 -1213
-165 -173 -301 -320 -303 -328 -5 -19 21 -50 142 -174 56 -58 397 -413 756
-790 360 -377 805 -843 990 -1035 184 -193 524 -548 755 -790 231 -242 472
-494 535 -560 145 -150 487 -508 691 -722 l154 -163 1460 0 1459 0 -125 128
c-69 70 -404 413 -745 762 -342 349 -975 997 -1407 1440 l-787 805 3335 3
3335 2 0 1090 0 1090 -3336 0 -3336 0 649 663 c1725 1762 2413 2467 2413 2472
0 3 -654 5 -1454 5 l-1453 0 -199 -208z"/>
</g>
</svg>
