<?xml version="1.0" encoding="UTF-8"?>
<svg width="647px" height="647px" viewBox="0 0 647 647" xmlns="http://www.w3.org/2000/svg" xmlns:xlink="http://www.w3.org/1999/xlink" version="1.1">
 <!-- Generated by Pixelmator Pro 2.1.2 -->
 <path id="Shape" d="M279 647 C261.094 647 260.012 646.892 259 645 258.304 643.699 256.906 643 255 643 253.094 643 251.696 642.301 251 641 250.304 639.699 248.906 639 247 639 245.094 639 243.696 638.301 243 637 242.352 635.788 240.906 635 239.333 635 237.625 635 235.532 633.717 233.217 631.25 231.281 629.188 228.518 627.275 227.078 627 225.338 626.668 216.238 618.28 199.979 602.021 184.207 586.249 175.322 576.633 175 574.986 174.725 573.58 172.025 569.987 169 567 165.975 564.013 163.275 560.403 163 558.976 162.725 557.55 160.925 554.861 159 553 157.075 551.139 155.275 548.421 155 546.96 154.725 545.498 152.813 542.719 150.75 540.783 148.283 538.468 147 536.375 147 534.667 147 533.094 146.212 531.648 145 531 143.699 530.304 143 528.906 143 527 143 525.094 142.301 523.696 141 523 139.699 522.304 139 520.906 139 519 139 517.094 138.301 515.696 137 515 135.423 514.156 135 512.906 135 509.087 135 505.404 134.529 503.915 133.034 502.872 131.61 501.878 130.99 500.122 130.784 496.5 130.577 492.849 130.095 491.5 129 491.5 128.056 491.5 127.315 492.769 127 494.921 126.725 496.802 125.968 498.517 125.318 498.731 124.667 498.946 123.639 498.194 123.033 497.061 122.363 495.81 120.931 495 119.388 495 117.899 495 115.608 493.761 113.856 492.01 111.908 490.062 110.976 488.225 111.183 486.741 111.357 485.488 113.525 482.446 116 479.981 118.475 477.517 120.95 475.5 121.5 475.5 122.05 475.5 122.725 477.075 123 479 123.317 481.222 124.048 482.5 125 482.5 126.143 482.5 126.619 480.831 127 475.483 127.5 468.466 127.5 468.466 135 461.006 140.11 455.923 142.6 452.663 142.813 450.775 142.986 449.25 143.998 447.536 145.063 446.966 146.282 446.314 147 444.875 147 443.087 147 441.371 147.791 439.7 148.996 438.872 150.841 437.604 151.012 436.208 151.246 420.5 151.5 403.5 151.5 403.5 154.292 403.18 156.591 402.916 158.115 403.93 162.932 408.93 168.414 414.62 169.067 415 173.355 415 176.906 415 178.169 415.447 179 417 179.948 418.771 181.094 419 189 419 196.906 419 198.052 418.771 199 417 199.912 415.295 201.094 415 207 415 212.906 415 214.088 414.705 215 413 215.947 411.23 217.094 411 224.976 411 229.95 411 234.16 410.55 234.512 409.98 234.859 409.419 232.973 406.832 230.321 404.23 227.67 401.629 224.331 399.275 222.901 399 221.472 398.725 218.719 396.813 216.783 394.75 214.468 392.283 212.375 391 210.667 391 209.094 391 207.648 390.212 207 389 206.152 387.415 204.906 387 201 387 197.094 387 195.848 386.585 195 385 194.052 383.229 192.906 383 185 383 177.094 383 175.948 383.229 175 385 174.152 386.585 172.906 387 169 387 165.094 387 163.848 387.415 163 389 162.257 390.389 160.906 391 158.581 391 156.018 391 155.104 391.494 154.683 393.105 154.38 394.263 153.568 395.023 152.879 394.793 152.189 394.563 151.437 393.811 151.207 393.121 150.977 392.432 151.737 391.62 152.895 391.317 154.053 391.014 155 389.972 155 389 155 388.028 154.1 386.998 153 386.71 151.099 386.213 151 385.346 151 369.216 151 353.474 151.143 352.144 152.966 350.872 154.39 349.878 155.01 348.122 155.216 344.5 155.5 339.5 155.5 339.5 166.5 339.207 176.64 338.936 177.607 339.073 178.872 340.957 179.938 342.544 181.324 343 185.087 343 188.906 343 190.156 343.423 191 345 191.848 346.585 193.094 347 197 347 200.906 347 202.152 347.415 203 349 203.848 350.585 205.094 351 209 351 212.906 351 214.152 351.415 215 353 215.696 354.301 217.094 355 219 355 220.906 355 222.304 355.699 223 357 223.844 358.577 225.094 359 228.913 359 232.687 359 234.059 359.453 235.128 361.055 236.332 362.858 237.358 363.072 243.5 362.805 250.5 362.5 250.5 362.5 250.789 353.713 251.072 345.138 251.007 344.853 248.116 341.963 245.437 339.283 244.529 339 238.612 339 233.094 339 231.903 338.687 231 337 230.088 335.295 228.906 335 223 335 217.094 335 215.912 334.705 215 333 214.088 331.295 212.906 331 207 331 201.094 331 199.912 330.705 199 329 198.052 327.229 196.906 327 189 327 181.094 327 179.948 326.771 179 325 178.09 323.299 176.906 323 171.087 323 165.174 323 164.048 323.295 162.803 325.171 161.961 326.438 160.87 327.038 160.181 326.612 159.531 326.21 159.004 324.671 159.01 323.191 159.017 321.314 160.223 319.442 163 317 165.793 314.544 166.983 312.69 166.99 310.785 166.996 309.101 167.759 307.664 169 307 170.301 306.304 171 304.906 171 303 171 301.094 171.699 299.696 173 299 174.301 298.304 175 296.906 175 295 175 293.126 175.698 291.697 176.937 291.034 178.002 290.464 179.014 288.753 179.187 287.233 179.394 285.407 181.702 282.267 185.987 277.984 191.656 272.317 193.044 271.437 197.003 271 201.219 270.535 202.327 269.704 212.998 259 221.234 250.739 225.242 247.412 227.23 247.187 228.752 247.014 230.464 246.002 231.034 244.937 231.977 243.174 233.235 243 245 243 256.906 243 258.014 243.158 259 245 259.696 246.301 261.094 247 263 247 264.906 247 266.304 247.699 267 249 267.848 250.585 269.094 251 273 251 276.906 251 278.152 250.585 279 249 279.696 247.699 281.094 247 283 247 284.906 247 286.304 246.301 287 245 287.997 243.137 289.094 243 303 243 316.744 243 318.012 243.154 318.966 244.937 319.536 246.002 321.247 247.014 322.767 247.187 324.729 247.409 328.577 250.545 336.016 257.984 343.455 265.423 346.591 269.271 346.813 271.233 346.986 272.753 347.998 274.464 349.063 275.034 350.302 275.697 351 277.126 351 279 351 280.874 351.698 282.303 352.937 282.966 354.105 283.591 354.998 285.292 355.187 287.251 355.475 290.238 355.783 290.5 359 290.5 362.217 290.5 362.525 290.238 362.813 287.251 363.002 285.292 363.895 283.591 365.063 282.966 366.575 282.157 367 280.853 367 277.024 367 274.326 367.447 271.842 367.993 271.504 368.539 271.167 371.239 273.144 373.993 275.898 378.523 280.428 379 281.335 379 285.417 379 288.906 379.454 290.172 381 291 382.241 291.664 383.004 293.101 383.01 294.785 383.017 296.69 384.207 298.544 387 301 389.793 303.456 390.983 305.31 390.99 307.215 390.996 308.899 391.759 310.336 393 311 394.213 311.649 395 313.094 395 314.671 395 316.207 396.125 318.341 397.75 319.885 399.263 321.323 401.063 322.646 401.75 322.823 402.638 323.053 403 321.545 403 317.609 403 313.094 402.63 311.873 401 311 399.415 310.152 399 308.906 399 305 399 301.094 398.585 299.848 397 299 395.699 298.304 395 296.906 395 295 395 293.094 394.301 291.696 393 291 391.699 290.304 391 288.906 391 287 391 285.094 390.301 283.696 389 283 387.699 282.304 387 280.906 387 279 387 277.094 386.301 275.696 385 275 383.788 274.352 383 272.906 383 271.333 383 269.625 381.717 267.532 379.25 265.217 377.188 263.281 375.275 260.512 375 259.064 374.725 257.615 372.025 253.987 369 251 365.975 248.013 363.275 244.429 363 243.035 362.725 241.641 361.286 239.222 359.801 237.659 358.317 236.097 356.629 235.111 356.051 235.468 355.473 235.826 355 237.426 355 239.024 355 240.906 355.704 242.307 357 243 358.701 243.91 359 245.094 359 250.913 359 256.705 359.316 257.967 361.055 259.128 362.858 260.332 363.072 261.358 362.805 267.5 362.569 272.92 362.161 274.5 361 274.5 359.905 274.5 359.423 273.151 359.216 269.5 359.01 265.878 358.39 264.122 356.966 263.128 355.794 262.31 355 260.608 355 258.913 355 257.094 354.28 255.685 353 255 351.699 254.304 351 252.906 351 251 351 249.094 350.301 247.696 349 247 347.805 246.361 347 244.906 347 243.388 347 241.912 345.774 239.62 344.077 237.923 342.469 236.315 340.107 234.996 338.827 234.99 337.375 234.984 335.184 233.484 333 231 329.854 227.422 329.024 227.019 324.785 227.01 321.1 227.002 319.837 226.563 319 225 318.014 223.158 316.906 223 305 223 293.094 223 291.986 223.158 291 225 290.304 226.301 288.906 227 287 227 285.094 227 283.696 227.699 283 229 282.052 230.771 280.906 231 273 231 265.094 231 263.948 230.771 263 229 261.994 227.121 260.906 227 245 227 229.094 227 228.006 227.121 227 229 226.304 230.301 224.906 231 223 231 221.094 231 219.696 231.699 219 233 218.355 234.205 216.906 235 215.355 235 213.514 235 211.113 236.731 206.923 241.079 203.702 244.423 200.601 246.872 200.033 246.52 199.465 246.169 199 244.574 199 242.976 199 241.094 199.704 239.693 201 239 202.296 238.307 203 236.906 203 235.024 203 233.426 202.541 231.834 201.98 231.488 201.419 231.141 198.832 233.027 196.23 235.679 193.629 238.33 191.275 241.641 191 243.035 190.725 244.429 188.025 248.013 185 251 181.975 253.987 179.275 257.615 179 259.064 178.725 260.512 176.813 263.281 174.75 265.217 172.283 267.532 171 269.625 171 271.333 171 272.906 170.212 274.352 169 275 167.699 275.696 167 277.094 167 279 167 280.906 166.301 282.304 165 283 163.699 283.696 163 285.094 163 287 163 288.906 162.301 290.304 161 291 159.699 291.696 159 293.094 159 295 159 296.906 158.301 298.304 157 299 155.415 299.848 155 301.094 155 305 155 308.906 154.585 310.152 153 311 151.415 311.848 151 313.094 151 317 151 320.906 150.585 322.152 149 323 147.415 323.848 147 325.094 147 329 147 332.906 146.585 334.152 145 335 143.229 335.948 143 337.094 143 345 143 352.906 142.771 354.052 141 355 139.059 356.039 139 357.094 139 391 139 424.906 138.941 425.961 137 427 135.405 427.854 135 429.094 135 433.129 135 437.346 134.667 438.274 133 438.71 131.484 439.107 131 440.074 131 442.71 131 445.346 130.516 446.314 129 446.71 127.502 447.102 127 448.074 127 450.581 127 452.87 126.387 454.258 125.063 454.966 123.998 455.536 122.986 457.247 122.813 458.767 122.607 460.59 120.296 463.741 116.029 468.016 112.469 471.582 109.028 474.637 108.381 474.804 107.734 474.971 106.964 476.03 106.669 477.159 106.374 478.287 105.568 479.023 104.879 478.793 104.189 478.563 103.437 477.811 103.207 477.121 102.977 476.432 103.737 475.62 104.895 475.317 106.506 474.896 107 473.982 107 471.419 107 469.094 107.611 467.743 109 467 110.301 466.304 111 464.906 111 463 111 461.094 111.699 459.696 113 459 114.28 458.315 115 456.906 115 455.087 115 453.392 115.794 451.69 116.966 450.872 118.39 449.878 119.01 448.122 119.216 444.5 119.423 440.849 119.905 439.5 121 439.5 121.951 439.5 122.683 440.777 123 442.989 123.326 445.261 124.11 446.594 125.25 446.812 126.659 447.081 127 446.433 127 443.48 127 440.654 127.459 439.693 129 439.29 130.852 438.805 131 437.926 131 427.419 131 417.094 131.18 415.974 133 415 134.945 413.959 135 412.906 135 377 135 341.094 135.055 340.041 137 339 138.771 338.052 139 336.906 139 329 139 321.094 139.229 319.948 141 319 142.585 318.152 143 316.906 143 313 143 309.094 143.415 307.848 145 307 146.585 306.152 147 304.906 147 301 147 297.094 147.415 295.848 149 295 150.241 294.336 151.004 292.899 151.01 291.215 151.017 289.31 152.207 287.456 155 285 157.793 282.544 158.983 280.69 158.99 278.785 158.996 277.101 159.759 275.664 161 275 162.301 274.304 163 272.906 163 271 163 269.094 163.699 267.696 165 267 166.212 266.352 167 264.906 167 263.333 167 261.625 168.283 259.532 170.75 257.217 172.813 255.281 174.725 252.516 175 251.073 175.302 249.486 179.253 244.716 185 239 191.74 232.296 194.645 228.672 195 226.525 195.406 224.066 196.08 223.406 198.599 223 200.453 222.701 203.11 220.994 205.217 218.75 208.294 215.471 209.313 215 213.333 215 216.906 215 218.168 214.555 219 213 219.97 211.187 221.094 211 231 211 240.906 211 242.03 210.813 243 209 243.696 207.699 245.094 207 247 207 248.906 207 250.304 207.699 251 209 251.693 210.296 253.094 211 254.976 211 256.574 211 258.173 210.528 258.53 209.952 258.886 209.375 257.45 207.284 255.339 205.305 253.227 203.326 251.354 201.098 251.177 200.353 250.984 199.545 249.487 199 247.462 199 245.094 199 243.747 198.396 243 197 242.012 195.153 240.906 195 228.581 195 216.074 195 215.2 195.126 214.71 197 214.267 198.695 213.346 199 208.667 199 205.09 199 203.033 199.44 202.823 200.25 202.646 200.938 201.323 202.737 199.885 204.25 198.118 206.109 196.255 207 194.135 207 192.048 207 191 207.49 191 208.465 191 209.27 190.128 210.396 189.063 210.966 187.998 211.536 186.986 213.249 186.813 214.772 186.593 216.721 183.688 220.339 177 226.995 171.376 232.592 167.296 237.503 167 239.033 166.725 240.454 164.925 243.139 163 245 161.075 246.861 159.275 249.579 159 251.04 158.725 252.502 156.813 255.281 154.75 257.217 152.283 259.532 151 261.625 151 263.333 151 264.906 150.212 266.352 149 267 147.415 267.848 147 269.094 147 273 147 276.906 146.585 278.152 145 279 143.415 279.848 143 281.094 143 285 143 288.906 142.585 290.152 141 291 139.415 291.848 139 293.094 139 297 139 300.906 138.585 302.152 137 303 135.669 303.712 135 305.094 135 307.129 135 309.346 134.45 310.331 133 310.71 131.125 311.201 131 312.074 131 324.71 131 337.324 130.872 338.221 129.01 338.708 127.065 339.216 127.014 340.257 126.76 384.864 126.533 424.647 126.308 430.5 125 430.5 123.774 430.5 123.449 428.487 123.222 419.5 122.984 410.079 122.67 408.285 121.04 407 119.992 406.175 118.993 404.36 118.818 402.967 118.633 401.497 116.192 398.155 113 395.002 109.975 392.014 107.275 388.416 107 387.007 106.721 385.574 103.192 381.16 99 377 94.655 372.687 91.29 368.451 91 366.93 90.725 365.485 88.813 362.719 86.75 360.783 84.283 358.468 83 356.375 83 354.667 83 353.094 82.212 351.648 81 351 79.699 350.304 79 348.906 79 347 79 345.094 78.301 343.696 77 343 75.699 342.304 75 340.906 75 339 75 337.094 74.301 335.696 73 335 71.121 333.994 71 332.906 71 317 71 301.094 71.121 300.006 73 299 74.863 298.003 75 296.906 75 283 75 269.094 75.137 267.997 77 267 78.941 265.961 79 264.906 79 231 79 197.094 79.059 196.039 81 195 82.301 194.304 83 192.906 83 191 83 189.126 83.698 187.697 84.937 187.034 86.002 186.464 87.014 184.752 87.187 183.231 87.415 181.214 91.161 176.813 101 167 110.839 157.187 114.585 152.786 114.813 150.769 114.986 149.248 115.998 147.536 117.063 146.966 118.577 146.156 119 144.852 119 141 119 137.094 119.415 135.848 121 135 122.212 134.352 123 132.906 123 131.333 123 129.625 124.283 127.532 126.75 125.217 128.813 123.281 130.725 120.528 131 119.099 131.275 117.669 133.597 114.362 136.161 111.75 139.311 108.54 141.65 107 143.376 107 144.906 107 146.359 106.199 147 105 147.696 103.699 149.094 103 151 103 152.906 103 154.304 102.301 155 101 155.696 99.699 157.094 99 159 99 160.906 99 162.304 98.301 163 97 163.912 95.295 165.094 95 171 95 176.906 95 178.088 94.705 179 93 179.664 91.759 181.101 90.996 182.785 90.99 184.69 90.983 186.544 89.793 189 87 191.456 84.207 193.31 83.017 195.215 83.01 196.899 83.004 198.336 82.241 199 81 199.848 79.415 201.094 79 205 79 208.906 79 210.152 78.585 211 77 211.912 75.295 213.094 75 219 75 224.906 75 226.088 74.705 227 73 228.006 71.121 229.094 71 245 71 260.906 71 261.994 71.121 263 73 263.848 74.585 265.094 75 269 75 272.906 75 274.152 75.415 275 77 275.696 78.301 277.094 79 279 79 280.906 79 282.304 78.301 283 77 283.696 75.699 285.094 75 287 75 288.906 75 290.304 74.301 291 73 291.696 71.699 293.094 71 295 71 296.906 71 298.304 70.301 299 69 299.696 67.699 301.094 67 303 67 304.906 67 306.304 66.301 307 65 308.004 63.123 309.094 63 324.667 63 341.264 63 341.264 63 344.783 66.75 346.719 68.813 349.517 70.725 351 71 352.483 71.275 355.319 73.227 357.3 75.339 359.282 77.45 361.375 78.886 361.952 78.53 362.528 78.173 363 75.674 363 72.976 363 69.094 362.583 67.847 361 67 359.229 66.052 359 64.906 359 57 359 49.094 359.229 47.948 361 47 362.585 46.152 363 44.906 363 41 363 37.094 363.415 35.848 365 35 366.198 34.359 367 32.906 367 31.378 367 29.587 368.714 27.159 372.75 23.232 375.913 20.155 378.725 16.481 379 15.068 379.275 13.656 381.627 10.332 384.227 7.681 387.987 3.85 389.523 2.928 391.727 3.181 393.252 3.357 394.5 3.972 394.5 4.55 394.5 5.127 391.912 8.125 388.75 11.213 384.719 15.148 383 17.59 383 19.378 383 20.906 382.198 22.359 381 23 379.699 23.696 379 25.094 379 27 379 28.906 378.301 30.304 377 31 375.699 31.696 375 33.094 375 35 375 36.906 374.301 38.304 373 39 371.158 39.986 371 41.094 371 53 371 64.765 371.174 66.023 372.937 66.966 374.105 67.591 374.998 69.292 375.187 71.251 375.475 74.238 375.783 74.5 379 74.5 382.5 74.5 382.5 74.5 382.767 65.5 382.995 57.832 383.328 56.297 385.017 55.128 386.532 54.08 387 52.614 387 48.913 387 45.094 387.423 43.844 389 43 390.301 42.304 391 40.906 391 39 391 37.094 391.699 35.696 393 35 394.198 34.359 395 32.906 395 31.378 395 29.587 396.714 27.159 400.75 23.232 404.566 19.519 406.668 16.605 407 14.568 407.407 12.073 408.071 11.407 410.559 11 412.241 10.725 415.031 9.044 416.76 7.265 419.322 4.628 420.438 4.138 422.799 4.61 425.172 5.084 426.063 4.685 427.727 2.4 429.661 -0.255 429.872 -0.313 432.129 1.189 433.433 2.057 435.625 3.974 437 5.45 438.375 6.925 439.649 8.55 439.831 9.06 440.013 9.57 439.062 10.406 437.718 10.917 436.373 11.428 435.001 12.556 434.668 13.423 434.303 14.373 432.872 15 431.067 15 429.126 15 427.705 15.683 427.034 16.937 426.464 18.002 424.753 19.014 423.233 19.187 421.407 19.394 418.266 21.703 413.984 25.984 409.703 30.266 407.394 33.407 407.187 35.233 407.014 36.753 406.002 38.464 404.937 39.034 403.698 39.697 403 41.126 403 43 403 44.906 402.301 46.304 401 47 399.699 47.696 399 49.094 399 51 399 52.906 398.301 54.304 397 55 395.272 55.925 395 57.094 395 63.609 395 69.243 395.324 71.065 396.283 70.823 396.988 70.646 401.814 66.225 407.008 61 412.604 55.369 417.502 51.296 419.033 51 420.454 50.725 423.139 48.925 425 47 426.861 45.075 429.579 43.275 431.04 43 432.502 42.725 435.281 40.813 437.217 38.75 440.294 35.471 441.313 35 445.333 35 448.906 35 450.168 34.555 451 33 451.589 31.899 453.094 31 454.347 31 455.744 31 457.567 32.25 459.062 34.232 460.403 36.01 461.65 37.81 461.833 38.232 462.017 38.654 459.895 39 457.119 39 453.094 39 451.853 39.405 451 41 450.304 42.301 448.906 43 447 43 445.094 43 443.696 43.699 443 45 442.352 46.212 440.906 47 439.333 47 437.625 47 435.532 48.283 433.217 50.75 431.281 52.813 428.518 54.725 427.078 55 425.408 55.319 419.207 60.759 409.979 70 397.78 82.217 395.5 84.972 395.5 87.5 395.5 89.15 395.951 90.5 396.502 90.5 397.053 90.5 403.568 84.425 410.979 77 419.511 68.452 425.416 63.317 427.076 63 428.517 62.725 431.281 60.813 433.217 58.75 435.532 56.283 437.625 55 439.333 55 440.906 55 442.352 54.212 443 53 443.696 51.699 445.094 51 447 51 448.906 51 450.304 50.301 451 49 451.848 47.415 453.094 47 457 47 460.906 47 462.152 46.585 463 45 463.612 43.857 465.094 43 466.458 43 467.772 43 470.231 44.165 471.923 45.589 473.615 47.013 475 48.813 475 49.589 475 50.678 473.295 51 467.535 51 461.094 51 459.924 51.274 459 53 458.304 54.301 456.906 55 455 55 453.094 55 451.696 55.699 451 57 450.304 58.301 448.906 59 447 59 445.094 59 443.696 59.699 443 61 442.352 62.212 440.906 63 439.333 63 437.625 63 435.532 64.283 433.217 66.75 431.281 68.813 428.518 70.725 427.078 71 425.475 71.306 420.39 75.576 413.979 82 405.336 90.661 403.5 93.026 403.5 95.5 403.5 98.5 403.5 98.5 410.5 98.805 416.642 99.072 417.668 98.858 418.872 97.055 419.72 95.785 421.33 95 423.087 95 424.906 95 426.315 94.28 427 93 427.848 91.415 429.094 91 433 91 436.906 91 438.152 90.585 439 89 439.848 87.415 441.094 87 445 87 448.906 87 450.152 86.585 451 85 451.912 83.295 453.094 83 459 83 464.906 83 466.088 82.705 467 81 468.023 79.089 469.094 79 491 79 512.906 79 513.977 79.089 515 81 515.987 82.844 517.094 83 529.153 83 542.236 83 542.236 83 545.868 86.161 547.866 87.899 549.65 89.699 549.833 90.161 550.017 90.622 548.795 91 547.119 91 545.094 91 543.711 90.328 543 89 541.961 87.059 540.906 87 507 87 473.094 87 472.039 87.059 471 89 470.03 90.813 468.906 91 459 91 449.094 91 447.97 91.187 447 93 446.304 94.301 444.906 95 443 95 441.094 95 439.696 95.699 439 97 438.304 98.301 436.906 99 435 99 433.094 99 431.696 99.699 431 101 430.361 102.195 428.906 103 427.388 103 425.897 103 423.606 104.24 421.846 106 418.846 109 418.846 109 421.846 112 423.606 113.76 425.897 115 427.388 115 428.906 115 430.361 114.195 431 113 431.848 111.415 433.094 111 437 111 440.906 111 442.152 110.585 443 109 443.912 107.295 445.094 107 451 107 456.906 107 458.088 106.705 459 105 459.948 103.229 461.094 103 469 103 476.906 103 478.052 102.771 479 101 480.023 99.089 481.094 99 503 99 524.906 99 525.977 99.089 527 101 527.986 102.842 529.094 103 541 103 552.906 103 554.014 103.158 555 105 555.9 106.683 557.094 107 562.519 107 568.967 107 568.967 107 581.483 118.143 588.368 124.271 594 129.671 594 130.143 594 130.614 592.666 131 591.035 131 589.094 131 587.701 130.31 587 129 586.304 127.699 584.906 127 583 127 581.094 127 579.696 126.301 579 125 578.088 123.295 576.906 123 571 123 565.094 123 563.912 122.705 563 121 562.088 119.295 560.906 119 555 119 549.094 119 547.912 118.705 547 117 546.052 115.229 544.906 115 537 115 529.094 115 527.948 114.771 527 113 525.968 111.071 524.906 111 497 111 469.094 111 468.032 111.071 467 113 466.088 114.705 464.906 115 459 115 453.094 115 451.912 115.295 451 117 450.304 118.301 448.906 119 447 119 445.094 119 443.696 119.699 443 121 442.307 122.296 440.906 123 439.024 123 437.426 123 435.837 123.455 435.493 124.011 435.149 124.567 436.213 126.367 437.857 128.011 440.846 131 440.846 131 453.388 131 464.906 131 466.017 130.837 467 129 468.018 127.098 469.094 127 489 127 508.906 127 509.982 127.098 511 129 511.948 130.771 513.094 131 521 131 528.906 131 530.052 131.229 531 133 531.848 134.585 533.094 135 537 135 540.906 135 542.152 135.415 543 137 543.912 138.705 545.094 139 551 139 556.906 139 558.088 139.295 559 141 559.696 142.301 561.094 143 563 143 564.906 143 566.304 143.699 567 145 567.848 146.585 569.094 147 573 147 576.906 147 578.152 147.415 579 149 579.696 150.301 581.094 151 583 151 584.906 151 586.304 151.699 587 153 587.848 154.585 589.094 155 593 155 596.906 155 598.152 155.415 599 157 599.696 158.301 601.094 159 603 159 604.906 159 606.304 159.699 607 161 607.696 162.301 609.094 163 611 163 612.906 163 614.304 163.699 615 165 615.696 166.301 617.094 167 619 167 620.906 167 622.304 167.699 623 169 623.696 170.301 625.094 171 627 171 628.906 171 630.304 171.699 631 173 631.696 174.301 633.094 175 635 175 636.906 175 638.304 175.699 639 177 639.696 178.301 641.094 179 643 179 644.906 179 646.304 179.699 647 181 647.628 182.174 649.094 183 650.548 183 651.967 183 654.623 184.454 656.763 186.401 658.818 188.271 669.388 197.756 680.25 207.477 691.112 217.199 700 225.569 700 226.077 700 226.585 699.116 227 698.035 227 696.955 227 695.589 226.1 695 225 694.304 223.699 692.906 223 691 223 689.094 223 687.696 222.301 687 221 686.304 219.699 684.906 219 683 219 681.094 219 679.696 218.301 679 217 678.304 215.699 676.906 215 675 215 673.094 215 671.696 214.301 671 213 670.304 211.699 668.906 211 667 211 665.094 211 663.696 210.301 663 209 662.304 207.699 660.906 207 659 207 657.094 207 655.696 206.301 655 205 654.304 203.699 652.906 203 651 203 649.094 203 647.696 202.301 647 201 646.304 199.699 644.906 199 643 199 641.094 199 639.696 198.301 639 197 638.304 195.699 636.906 195 635 195 633.094 195 631.696 194.301 631 193 630.304 191.699 628.906 191 627 191 625.094 191 623.696 190.301 623 189 622.304 187.699 620.906 187 619 187 617.094 187 615.696 186.301 615 185 614.304 183.699 612.906 183 611 183 609.094 183 607.696 182.301 607 181 606.304 179.699 604.906 179 603 179 601.094 179 599.696 178.301 599 177 598.304 175.699 596.906 175 595 175 593.094 175 591.696 174.301 591 173 590.304 171.699 588.906 171 587 171 585.094 171 583.696 170.301 583 169 582.304 167.699 580.906 167 579 167 577.094 167 575.696 166.301 575 165 574.304 163.699 572.906 163 571 163 569.094 163 567.696 162.301 567 161 566.152 159.415 564.906 159 561 159 557.094 159 555.848 158.585 555 157 554.304 155.699 552.906 155 551 155 549.094 155 547.696 154.301 547 153 546.304 151.699 544.906 151 543 151 541.094 151 539.696 150.301 539 149 538.152 147.415 536.906 147 533 147 529.094 147 527.848 146.585 527 145 526.054 143.232 524.906 143 517.087 143 509.306 143 508.079 142.755 506.872 140.963 505.578 139.042 504.645 138.942 490.5 139.213 477.961 139.453 475.5 139.746 475.5 141 475.5 141.961 476.667 142.612 478.749 142.813 480.708 143.002 482.409 143.895 483.034 145.063 483.844 146.577 485.148 147 489 147 492.906 147 494.152 147.415 495 149 495.696 150.301 497.094 151 499 151 500.906 151 502.304 151.699 503 153 503.848 154.585 505.094 155 509 155 512.906 155 514.152 155.415 515 157 515.696 158.301 517.094 159 519 159 520.906 159 522.304 159.699 523 161 523.696 162.301 525.094 163 527 163 528.906 163 530.304 163.699 531 165 531.648 166.212 533.094 167 534.667 167 536.375 167 538.468 168.283 540.783 170.75 542.719 172.813 545.498 174.725 546.96 175 548.421 175.275 551.139 177.075 553 179 554.861 180.925 557.561 182.725 559 183 560.439 183.275 563.139 185.075 565 187 566.861 188.925 569.547 190.725 570.97 191 572.435 191.283 576.782 194.75 581 199 585.126 203.157 589.58 206.723 590.993 207 592.529 207.301 598.499 212.454 606.021 219.971 612.884 226.831 618.637 232.972 618.804 233.619 618.971 234.266 619.983 235.024 621.054 235.304 622.124 235.584 623 236.477 623 237.29 623 238.102 623.947 239.014 625.105 239.317 626.263 239.62 627.023 240.432 626.793 241.121 626.563 241.811 625.811 242.563 625.121 242.793 624.432 243.023 623.631 242.305 623.341 241.198 623.052 240.091 621.957 238.96 620.908 238.686 619.858 238.412 619 237.47 619 236.594 619 235.482 618.073 235 615.936 235 613.436 235 611.464 233.571 605.241 227.25 600.789 222.729 596.521 219.292 594.997 219 593.559 218.725 590.861 216.925 589 215 587.139 213.075 584.439 211.275 583 211 581.561 210.725 578.861 208.925 577 207 575.139 205.075 572.439 203.275 571 203 569.561 202.725 566.861 200.925 565 199 563.139 197.075 560.421 195.275 558.96 195 557.498 194.725 554.719 192.813 552.783 190.75 550.468 188.283 548.375 187 546.667 187 545.094 187 543.648 186.212 543 185 542.304 183.699 540.906 183 539 183 537.094 183 535.696 182.301 535 181 534.304 179.699 532.906 179 531 179 529.094 179 527.696 178.301 527 177 526.304 175.699 524.906 175 523 175 521.094 175 519.696 174.301 519 173 518.152 171.415 516.906 171 513 171 509.094 171 507.848 170.585 507 169 506.304 167.699 504.906 167 503 167 501.094 167 499.696 166.301 499 165 498.153 163.417 496.906 163 493.024 163 490.326 163 487.834 163.459 487.488 164.02 487.141 164.581 489.027 167.168 491.679 169.77 494.33 172.371 497.61 174.652 498.966 174.837 500.323 175.023 502.573 176.373 503.966 177.837 505.36 179.302 506.725 181.638 507 183.028 507.275 184.419 510.875 188.906 515 193 519.274 197.242 522.715 201.561 523 203.04 523.275 204.468 526.088 208.155 529.25 211.232 533.286 215.159 535 217.587 535 219.378 535 220.906 535.802 222.359 537 223 538.241 223.664 539.004 225.101 539.01 226.785 539.017 228.69 540.207 230.544 543 233 546.578 236.146 546.981 236.976 546.99 241.215 546.998 244.9 547.437 246.163 549 247 550.301 247.696 551 249.094 551 251 551 252.906 551.699 254.304 553 255 554.301 255.696 555 257.094 555 259 555 260.906 555.699 262.304 557 263 558.28 263.685 559 265.094 559 266.913 559 268.676 559.784 270.277 561.065 271.128 562.78 272.267 563.077 273.35 562.815 277.5 562.586 281.138 562.091 282.5 561 282.5 560.039 282.5 559.388 281.333 559.187 279.251 558.998 277.292 558.105 275.591 556.937 274.966 555.698 274.303 555 272.874 555 271 555 269.094 554.301 267.696 553 267 551.699 266.304 551 264.906 551 263 551 261.094 550.301 259.696 549 259 547.699 258.304 547 256.906 547 255 547 253.094 546.301 251.696 545 251 543.788 250.352 543 248.906 543 247.333 543 245.625 541.717 243.532 539.25 241.217 537.188 239.281 535.275 236.515 535 235.07 534.71 233.549 531.345 229.313 527 225 522.843 220.874 519.277 216.42 519 215.007 518.725 213.605 516.484 210.442 514.021 207.979 511.558 205.516 508.395 203.275 506.993 203 505.58 202.723 501.126 199.157 497 195 492.84 190.808 488.426 187.279 486.993 187 485.584 186.725 481.986 184.025 478.998 181 475.845 177.808 472.503 175.367 471.033 175.182 469.64 175.007 467.774 173.93 466.887 172.788 466 171.647 464.763 171.029 464.137 171.415 463.425 171.855 463 175.449 463 181.024 463 188.906 462.77 190.053 461 191 459.749 191.67 459.004 193.087 459.01 194.785 459.017 196.69 460.207 198.544 463 201 465.793 203.456 466.983 205.31 466.99 207.215 466.996 208.899 467.759 210.336 469 211 470.879 212.006 471 213.094 471 229 471 244.906 471.121 245.994 473 247 474.585 247.848 475 249.094 475 253 475 256.906 475.415 258.152 477 259 478.813 259.97 479 261.094 479 271 479 280.906 478.813 282.03 477 283 475.445 283.832 475 285.094 475 288.667 475 292.687 474.529 293.706 471.25 296.783 469.188 298.719 467.275 301.488 467 302.936 466.725 304.385 464.025 308.014 461 311.002 457.975 313.99 455.354 317.5 455.175 318.802 454.939 320.524 455.962 322.195 458.925 324.931 463 328.693 463 328.693 463 336.897 463 345.101 463 345.101 449 359 435 372.899 435 372.899 435 379.327 435 384.629 434.65 385.996 433.002 387.128 431.139 388.407 430.987 389.785 430.752 407.5 430.538 423.61 430.272 426.5 429 426.5 427.694 426.5 427.469 420.948 427.257 383.5 427.021 341.712 426.958 340.461 425.007 339.128 423.167 337.871 423 336.649 423 324.495 423 312.074 422.873 311.2 421 310.71 419.333 310.274 419 309.346 419 305.129 419 301.094 418.595 299.854 417 299 415.415 298.152 415 296.906 415 293 415 289.094 414.585 287.848 413 287 411.699 286.304 411 284.906 411 283 411 281.094 410.301 279.696 409 279 407.415 278.152 407 276.906 407 273 407 269.094 406.585 267.848 405 267 403.759 266.336 402.996 264.899 402.99 263.215 402.983 261.31 401.793 259.456 399 257 396.207 254.544 395.017 252.69 395.01 250.785 395.004 249.131 394.244 247.666 393.063 247.034 391.998 246.464 390.986 244.75 390.813 243.225 390.6 241.335 388.114 238.084 383 233.005 378.846 228.879 375.277 224.419 375 223.007 374.725 221.605 372.484 218.442 370.021 215.979 367.558 213.516 364.398 211.275 363 211 361.602 210.725 358.442 208.488 355.979 206.029 353.516 203.569 351.354 200.982 351.177 200.279 350.963 199.434 348.98 199 345.333 199 340.654 199 339.733 198.695 339.29 197 338.8 195.126 337.926 195 325.419 195 313.094 195 311.988 195.153 311 197 310.361 198.195 308.906 199 307.388 199 305.899 199 303.608 200.238 301.857 201.989 300.213 203.633 299.149 205.433 299.493 205.989 299.853 206.57 304.752 207 311.024 207 320.906 207 322.03 207.188 323 209 323.848 210.585 325.094 211 329 211 332.906 211 334.152 211.415 335 213 335.837 214.563 337.1 215.002 340.785 215.01 345.024 215.019 345.854 215.422 349 219 351.231 221.537 353.365 222.984 354.885 222.99 356.197 222.996 358.447 224.237 359.885 225.75 361.323 227.263 362.725 229.641 363 231.035 363.275 232.429 365.975 236.013 369 239 372.025 241.987 374.725 245.602 375 247.034 375.275 248.465 378.087 252.155 381.25 255.232 385.286 259.159 387 261.587 387 263.378 387 264.906 387.802 266.359 389 267 390.241 267.664 391.004 269.101 391.01 270.785 391.017 272.69 392.207 274.544 395 277 397.793 279.456 398.983 281.31 398.99 283.215 398.996 284.899 399.759 286.336 401 287 402.301 287.696 403 289.094 403 291 403 292.906 403.699 294.304 405 295 406.301 295.696 407 297.094 407 299 407 300.906 407.699 302.304 409 303 410.705 303.912 411 305.094 411 311 411 316.906 411.295 318.088 413 319 414.771 319.948 415 321.094 415 329 415 336.906 415.229 338.052 417 339 418.892 340.012 419 341.094 419 359 419 376.906 419.108 377.988 421 379 422.585 379.848 423 381.094 423 385 423 388.906 422.585 390.152 421 391 419.187 391.97 419 393.094 419 403 419 412.906 419.187 414.03 421 415 422.771 415.948 423 417.094 423 425 423 432.906 423.229 434.052 425 435 426.63 435.873 427 437.094 427 441.609 427 446.344 427.254 447.098 428.75 446.812 429.89 446.594 430.674 445.261 431 442.989 431.317 440.777 432.049 439.5 433 439.5 434.095 439.5 434.577 440.849 434.784 444.5 434.99 448.122 435.61 449.878 437.034 450.872 438.206 451.69 439 453.392 439 455.087 439 456.906 439.72 458.315 441 459 442.301 459.696 443 461.094 443 463 443 464.906 443.699 466.304 445 467 446.389 467.743 447 469.094 447 471.419 447 473.982 447.494 474.896 449.105 475.317 450.263 475.62 451.023 476.432 450.793 477.121 450.563 477.811 449.811 478.563 449.121 478.793 448.432 479.023 447.626 478.287 447.331 477.159 447.036 476.03 446.266 474.971 445.619 474.804 444.972 474.637 441.531 471.582 437.971 468.016 433.704 463.741 431.393 460.59 431.187 458.767 431.014 457.247 430.002 455.536 428.937 454.966 427.613 454.258 427 452.87 427 450.581 427 448.074 426.498 447.102 425 446.71 423.55 446.331 423 445.346 423 443.129 423 441.094 422.331 439.712 421 439 419.423 438.156 419 436.906 419 433.087 419 429.377 418.534 427.923 417.009 426.872 415.218 425.638 414.992 424.191 414.759 412.5 414.544 401.726 414.243 399.5 413 399.5 411.737 399.5 411.455 402.182 411.215 416.5 410.944 432.648 411.032 433.569 412.965 434.872 414.51 435.914 415 437.334 415 440.776 415 444.775 415.466 445.738 418.972 448.974 422.944 452.642 422.944 452.642 423.222 467.571 423.454 480.051 423.746 482.5 425 482.5 425.952 482.5 426.683 481.222 427 479 427.275 477.075 427.95 475.5 428.5 475.5 429.05 475.5 431.525 477.517 434 479.981 436.475 482.446 438.643 485.488 438.817 486.741 439.024 488.225 438.092 490.062 436.144 492.01 434.448 493.706 432.092 495 430.699 495 429.272 495 427.605 495.942 426.717 497.25 425.688 498.767 424.854 499.174 424.155 498.5 423.586 497.95 422.98 495.25 422.81 492.5 422.584 488.86 422.092 487.5 421 487.5 419.836 487.5 419.439 489.066 419.226 494.5 419.005 500.15 418.571 501.765 416.976 502.872 415.793 503.693 415 505.385 415 507.087 415 508.906 414.28 510.315 413 511 411.415 511.848 411 513.094 411 517 411 520.906 410.585 522.152 409 523 407.759 523.664 406.996 525.101 406.99 526.785 406.983 528.69 405.793 530.544 403 533 400.207 535.456 399.017 537.31 399.01 539.215 399.004 540.899 398.241 542.336 397 543 395.759 543.664 394.996 545.101 394.99 546.785 394.983 548.69 393.793 550.544 391 553 388.207 555.456 387.017 557.31 387.01 559.215 387.004 560.899 386.241 562.336 385 563 383.802 563.641 383 565.094 383 566.622 383 568.413 381.286 570.841 377.25 574.768 374.087 577.845 371.275 581.528 371 582.953 370.674 584.639 362.663 593.379 348.021 608.021 333.17 622.872 324.653 630.67 322.922 631 321.482 631.275 318.719 633.188 316.783 635.25 314.468 637.717 312.375 639 310.667 639 309.094 639 307.648 639.788 307 641 306.304 642.301 304.906 643 303 643 301.094 643 299.696 643.699 299 645 297.988 646.892 296.906 647 279 647 Z M279 587 C296.906 587 297.988 586.892 299 585 299.848 583.415 301.094 583 305 583 308.906 583 310.152 582.585 311 581 311.696 579.699 313.094 579 315 579 316.906 579 318.304 578.301 319 577 319.634 575.815 321.094 575 322.583 575 324.269 575 326.764 573.331 330.171 569.924 333.1 566.995 334.875 564.475 334.366 563.966 333.882 563.482 329.438 562.953 324.492 562.792 317.296 562.558 315.5 562.2 315.5 561 315.5 559.799 317.292 559.444 324.5 559.217 331.936 558.984 333.761 558.604 335 557.035 335.825 555.99 337.85 554.993 339.5 554.818 341.359 554.621 342.5 553.929 342.5 553 342.5 551.905 341.151 551.423 337.5 551.216 333.878 551.01 332.122 550.39 331.128 548.966 329.991 547.337 328.584 547 322.913 547 317.094 547 315.91 546.701 315 545 314.003 543.137 312.906 543 299 543 285.094 543 283.997 543.137 283 545 282.152 546.585 280.906 547 277 547 273.094 547 271.848 546.585 271 545 270.014 543.158 268.906 543 257 543 245.094 543 243.986 543.158 243 545 242.088 546.705 240.906 547 235 547 229.094 547 227.912 547.295 227 549 226.153 550.583 224.906 551 221.024 551 218.326 551 215.837 551.455 215.493 552.011 215.149 552.567 216.195 554.349 217.817 555.97 220.577 558.731 221.329 558.937 229.632 559.209 236.719 559.442 238.5 559.801 238.5 561 238.5 562.162 236.922 562.568 231.5 562.801 227.65 562.966 224.107 563.495 223.626 563.975 223.128 564.472 224.935 567.03 227.829 569.924 231.236 573.331 233.731 575 235.417 575 236.906 575 238.366 575.815 239 577 239.696 578.301 241.094 579 243 579 244.906 579 246.304 579.699 247 581 247.848 582.585 249.094 583 253 583 256.906 583 258.152 583.415 259 585 260.012 586.892 261.094 587 279 587 Z M277 562.6 C278.725 564.325 278.923 565.315 278.554 565.913 278.184 566.511 277.485 567 277 567 276.515 567 275.816 566.511 275.446 565.913 275.077 565.315 275.275 564.325 275.887 563.713 L277 562.6 Z M261.339 562.799 C258.254 562.978 255.896 562.641 255.477 561.962 255.09 561.337 255.212 560.388 255.748 559.852 256.283 559.317 258.921 559.019 261.611 559.19 265.152 559.414 266.5 559.914 266.5 561 266.5 562.101 265.127 562.58 261.339 562.799 Z M293.339 562.799 C290.254 562.978 287.896 562.641 287.477 561.962 287.09 561.337 287.212 560.388 287.748 559.852 288.283 559.317 290.921 559.019 293.611 559.19 297.152 559.414 298.5 559.914 298.5 561 298.5 562.101 297.127 562.58 293.339 562.799 Z M227.243 518.814 C230.239 518.525 230.5 518.219 230.5 515 230.5 511.667 230.333 511.5 227 511.5 224.099 511.5 223.444 511.898 223.171 513.823 222.99 515.1 223.099 516.816 223.414 517.637 223.798 518.637 225.059 519.024 227.243 518.814 Z M279.215 518.99 C280.884 518.996 282.329 518.254 282.966 517.063 283.536 515.998 285.247 514.986 286.767 514.813 288.596 514.606 291.727 512.3 296.016 508 299.582 504.425 302.5 501.05 302.5 500.5 302.5 499.95 301.224 499.354 299.665 499.175 297.417 498.918 296.053 499.693 293.069 502.925 290.511 505.696 288.469 507 286.689 507 285.094 507 283.652 507.782 283 509 282.304 510.301 280.906 511 279 511 277.094 511 275.696 510.301 275 509 274.304 507.699 272.906 507 271 507 269.094 507 267.696 506.301 267 505 266.257 503.611 264.906 503 262.581 503 260.074 503 259.102 502.498 258.71 501 258.314 499.484 257.346 499 254.71 499 252.036 499 251.108 498.523 250.692 496.931 250.258 495.271 249.494 494.925 246.826 495.181 243.998 495.452 243.451 495.93 243.172 498.372 242.991 499.951 243.359 501.751 243.989 502.372 244.842 503.212 245.508 502.989 246.599 501.5 247.404 500.4 248.666 499.366 249.402 499.202 250.139 499.037 250.982 499.825 251.277 500.952 251.689 502.527 252.626 503 255.333 503 257.31 503 258.995 503.548 259.177 504.25 259.354 504.938 260.677 506.737 262.115 508.25 263.553 509.763 265.803 511.004 267.115 511.01 268.635 511.016 270.769 512.463 273 515 275.456 517.793 277.31 518.983 279.215 518.99 Z M312.607 503 C316.654 503 317.582 502.513 322.048 498.048 326.908 493.187 327 492.981 327 486.958 327 480.958 326.894 480.718 322.25 476.161 319.638 473.597 316.433 471.352 315.128 471.172 313.824 470.991 312.278 471.322 311.694 471.906 310.945 472.655 311.878 474.118 314.864 476.875 319.096 480.782 319.096 480.782 318.798 487.641 318.504 494.401 318.457 494.507 315.5 495 313.85 495.275 311.222 496.714 309.659 498.199 308.097 499.683 307.111 501.371 307.468 501.949 307.826 502.527 310.138 503 312.607 503 Z M105.5 454.621 C104.95 454.773 103.262 453.599 101.75 452.012 99.626 449.784 98.998 448.146 98.99 444.814 98.982 441.043 98.479 440.059 95 437 91.422 433.854 91.019 433.024 91.01 428.785 91.002 425.1 90.563 423.837 89 423 87.11 421.989 87 420.906 87 403.388 87 384.846 87 384.846 90 381.846 93 378.846 93 378.846 96 381.846 97.65 383.496 99.004 385.893 99.01 387.173 99.016 388.625 100.516 390.816 103 393 105.793 395.456 106.983 397.31 106.99 399.215 106.996 400.899 107.759 402.336 109 403 110.771 403.948 111 405.094 111 413 111 420.906 111.229 422.052 113 423 114.585 423.848 115 425.094 115 429 115 432.906 114.585 434.152 113 435 111.415 435.848 111 437.094 111 441 111 444.853 110.577 446.156 109.063 446.966 107.914 447.581 106.999 449.293 106.813 451.174 106.641 452.919 106.05 454.47 105.5 454.621 Z M444.938 450.771 C444.628 450.92 444.066 450.732 443.688 450.354 443.309 449.976 443 448.408 443 446.869 443 445.094 442.268 443.679 441 443 439.415 442.152 439 440.906 439 437 439 433.094 438.585 431.848 437 431 435.699 430.304 435 428.906 435 427 435 425.094 435.699 423.696 437 423 438.842 422.014 439 420.906 439 409 439 397.094 439.158 395.986 441 395 442.77 394.053 443 392.906 443 385.024 443 379.449 443.425 375.855 444.137 375.415 444.763 375.029 446 375.647 446.887 376.788 447.774 377.93 449.625 379.007 451 379.182 452.375 379.357 455.638 381.597 458.25 384.161 462.959 388.782 463 388.878 463 395.376 463 400.906 463.312 402.097 465 403 466.301 403.696 467 405.094 467 407 467 408.906 466.301 410.304 465 411 463.311 411.904 463 413.094 463 418.645 463 425.219 463 425.219 457 431 451.517 436.283 451 437.146 451 441.026 451 444.356 450.408 445.834 448.25 447.885 446.737 449.323 445.247 450.622 444.938 450.771 Z M361 419 C361.511 419 362.411 418.1 363 417 363.948 415.229 365.094 415 373 415 380.809 415 382.06 414.757 382.966 413.063 383.591 411.895 385.292 411.002 387.251 410.813 389.988 410.549 390.579 410.027 391 407.5 391.275 405.85 392.677 403.263 394.115 401.75 395.647 400.138 397.796 399 399.306 399 400.723 399 402.163 398.545 402.507 397.989 402.851 397.433 401.787 395.633 400.143 393.989 398.392 392.238 396.101 391 394.612 391 393.094 391 391.639 390.195 391 389 390.088 387.295 388.906 387 383 387 377.094 387 375.912 386.705 375 385 374.088 383.295 372.906 383 367 383 361.094 383 359.912 383.295 359 385 358.152 386.585 356.906 387 353 387 349.094 387 347.848 387.415 347 389 346.304 390.301 344.906 391 343 391 341.126 391 339.697 391.698 339.034 392.937 338.464 394.002 336.76 395.014 335.249 395.187 333.44 395.393 330.17 397.807 325.688 402.245 321.941 405.955 319.155 409.442 319.497 409.995 319.839 410.548 324.126 411 329.024 411 336.906 411 338.053 411.23 339 413 339.948 414.771 341.094 415 349 415 356.906 415 358.052 415.229 359 417 359.589 418.1 360.489 419 361 419 Z M229.121 394.793 C229.811 394.563 230.563 393.811 230.793 393.121 231.023 392.432 230.263 391.62 229.105 391.317 227.947 391.014 227 390.102 227 389.29 227 388.477 226.124 387.584 225.054 387.304 223.983 387.024 222.971 386.278 222.804 385.647 222.637 385.016 221.323 383.263 219.885 381.75 218.341 380.125 216.207 379 214.671 379 213.094 379 211.649 378.213 211 377 210.304 375.699 208.906 375 207 375 205.094 375 203.696 374.301 203 373 202.003 371.137 200.906 371 187 371 173.094 371 171.997 371.137 171 373 170.351 374.213 168.906 375 167.329 375 165.793 375 163.659 376.125 162.115 377.75 160.677 379.263 159.363 381.016 159.196 381.647 159.029 382.278 158.017 383.024 156.946 383.304 155.876 383.584 155 384.53 155 385.406 155 386.283 155.717 387 156.594 387 157.47 387 158.423 386.1 158.71 385 159.102 383.502 160.074 383 162.581 383 164.906 383 166.257 382.389 167 381 167.696 379.699 169.094 379 171 379 172.906 379 174.304 378.301 175 377 175.97 375.187 177.094 375 187 375 196.906 375 198.03 375.187 199 377 199.696 378.301 201.094 379 203 379 204.906 379 206.304 379.699 207 381 207.696 382.301 209.094 383 211 383 212.906 383 214.304 383.699 215 385 215.743 386.389 217.094 387 219.419 387 221.926 387 222.898 387.502 223.29 389 223.577 390.1 224.477 391 225.29 391 226.102 391 227.014 391.947 227.317 393.105 227.62 394.263 228.432 395.023 229.121 394.793 Z M322.882 393 C323.84 394.55 324.584 395 325.153 395 325.722 395 326.412 394.142 326.686 393.092 326.96 392.043 328.043 390.96 329.092 390.686 330.142 390.412 331 389.47 331 388.594 331 387.431 331.972 387 334.594 387 337.346 387 338.31 386.532 338.71 385 339.102 383.502 340.074 383 342.581 383 344.906 383 346.257 382.389 347 381 347.696 379.699 349.094 379 351 379 352.906 379 354.304 378.301 355 377 355.999 375.133 357.094 375 371.419 375 386.096 375 386.79 375.09 387.308 377.069 387.742 378.729 388.506 379.075 391.174 378.819 393.322 378.613 394.5 377.969 394.5 377 394.5 375.996 393.293 375.399 390.852 375.196 388.233 374.977 387.061 374.343 386.696 372.946 386.217 371.114 385.188 371 369.129 371 353.094 371 352.006 371.12 351 373 350.351 374.213 348.906 375 347.329 375 345.793 375 343.659 376.125 342.115 377.75 340.677 379.263 339.354 381.063 339.177 381.75 338.995 382.452 337.31 383 335.333 383 332.654 383 331.688 383.478 331.29 385 331.002 386.1 330.102 387 329.29 387 328.477 387 327.577 387.9 327.29 389 327.002 390.1 326.171 391 325.442 391 324.714 391 323.84 391.45 323.5 392 L322.882 393 Z M121.5 386.649 C122.079 386.468 122.622 380.894 122.79 373.418 123.06 361.358 122.944 360.409 121.04 359.128 119.787 358.285 119 356.66 119 354.913 119 353.094 118.28 351.685 117 351 115.699 350.304 115 348.906 115 347 115 345.094 114.301 343.696 113 343 111.699 342.304 111 340.906 111 339 111 337.094 110.301 335.696 109 335 107.415 334.152 107 332.906 107 329 107 325.094 106.585 323.848 105 323 103.415 322.152 103 320.906 103 317 103 313.094 102.585 311.848 101 311 99.699 310.304 99 308.906 99 307 99 305.094 98.301 303.696 97 303 95.423 302.156 95 300.906 95 297.087 95 293.404 94.529 291.915 93.034 290.872 91.61 289.878 90.99 288.122 90.784 284.5 90.577 280.849 90.095 279.5 89 279.5 87.905 279.5 87.423 280.849 87.216 284.5 87.01 288.122 86.39 289.878 84.966 290.872 83.161 292.131 83 293.462 83 307.087 83 320.906 83.138 322.003 85 323 86.585 323.848 87 325.094 87 329 87 332.906 87.415 334.152 89 335 90.301 335.696 91 337.094 91 339 91 340.906 91.699 342.304 93 343 94.241 343.664 95.004 345.101 95.01 346.785 95.017 348.69 96.207 350.544 99 353 101.793 355.456 102.983 357.31 102.99 359.215 102.996 360.899 103.759 362.336 105 363 106.212 363.648 107 365.094 107 366.667 107 368.375 108.283 370.468 110.75 372.783 112.813 374.719 114.725 377.472 115 378.901 115.275 380.331 116.625 382.729 118 384.231 119.375 385.732 120.95 386.821 121.5 386.649 Z M401 378.6 C399.275 380.325 399.077 381.315 399.446 381.913 399.816 382.511 400.515 383 401 383 401.485 383 402.184 382.511 402.554 381.913 402.923 381.315 402.725 380.325 402.113 379.713 L401 378.6 Z M315.131 363 C320.906 363 322.091 362.699 323 361 323.696 359.699 325.094 359 327 359 328.906 359 330.304 358.301 331 357 331.848 355.415 333.094 355 337 355 340.906 355 342.152 354.585 343 353 343.844 351.423 345.094 351 348.913 351 352.596 351 354.085 350.529 355.128 349.034 356.122 347.61 357.878 346.99 361.5 346.784 366.5 346.5 366.5 346.5 366.813 341.552 367.065 337.56 366.74 336.303 365.131 335.052 364.033 334.198 362.993 332.15 362.818 330.5 362.517 327.659 362.235 327.483 357.5 327.185 353.35 326.923 352.267 327.22 351.128 328.935 349.964 330.687 348.719 331 342.913 331 337.094 331 335.91 331.299 335 333 334.152 334.585 332.906 335 329 335 325.094 335 323.848 335.415 323 337 322.152 338.585 320.906 339 317 339 313.147 339 311.844 339.423 311.034 340.937 310.409 342.105 308.708 342.998 306.749 343.187 303.908 343.461 303.461 343.9 303.192 346.684 302.96 349.07 303.399 350.143 304.942 350.969 306.58 351.846 307 353.048 307 356.869 307 359.508 307.3 361.967 307.667 362.333 308.033 362.7 311.392 363 315.131 363 Z M432.938 362.771 C433.247 362.622 434.737 361.323 436.25 359.885 437.763 358.447 439.004 356.197 439.01 354.885 439.016 353.365 440.463 351.231 443 349 445.793 346.544 446.983 344.69 446.99 342.785 446.996 341.101 447.759 339.664 449 339 450.301 338.304 451 336.906 451 335 451 333.094 450.301 331.696 449 331 447.704 330.307 447 328.906 447 327.024 447 325.426 446.469 323.79 445.819 323.388 445.13 322.962 444.039 323.562 443.197 324.829 442.37 326.076 440.711 327 439.301 327 437.921 327 435.566 328.28 433.923 329.923 431 332.846 431 332.846 431 347.256 431 355.182 431.309 361.976 431.688 362.354 432.066 362.732 432.628 362.92 432.938 362.771 Z M276.827 358.952 C280.312 358.991 281.722 358.432 284.077 356.077 286.369 353.784 287 352.258 287 349 287 345.742 286.369 344.216 284.077 341.923 281.784 339.631 280.258 339 277 339 273.742 339 272.216 339.631 269.923 341.923 267.634 344.213 267 345.744 267 348.987 267 352.137 267.658 353.818 269.75 356.016 271.932 358.307 273.394 358.914 276.827 358.952 Z M382.744 343 C384.074 343 386.463 341.691 388.077 340.077 390.369 337.784 391 336.258 391 333 391 329.725 390.37 328.216 388.021 325.867 385.418 323.264 384.441 322.927 380.271 323.194 375.5 323.5 375.5 323.5 375.185 328.5 374.923 332.65 375.22 333.733 376.935 334.872 378.177 335.697 379 337.325 379 338.955 379 340.447 379.3 341.967 379.667 342.333 380.033 342.7 381.418 343 382.744 343 Z M121.5 338.621 C122.05 338.47 122.641 336.919 122.813 335.174 122.999 333.293 123.914 331.581 125.063 330.966 126.76 330.058 127 328.808 127 320.871 127 312.654 127.186 311.764 129 311.29 130.874 310.8 131 309.926 131 297.419 131 285.094 130.847 283.988 129 283 127.699 282.304 127 280.906 127 279 127 277.094 126.301 275.696 125 275 123.295 274.088 123 272.906 123 267 123 261.094 122.705 259.912 121 259 119.415 258.152 119 256.906 119 253 119 249.094 118.585 247.848 117 247 115.187 246.03 115 244.906 115 235 115 225.094 114.813 223.97 113 223 111.089 221.977 111 220.906 111 199.024 111 184.94 110.618 175.882 110.007 175.504 109.461 175.167 106.761 177.144 104.007 179.898 100.655 183.25 99 185.735 99 187.417 99 188.906 98.185 190.366 97 191 95.699 191.696 95 193.094 95 195 95 196.906 94.301 198.304 93 199 91.059 200.039 91 201.094 91 235 91 268.906 91.059 269.961 93 271 94.585 271.848 95 273.094 95 277 95 280.906 95.415 282.152 97 283 98.301 283.696 99 285.094 99 287 99 288.906 99.699 290.304 101 291 102.705 291.912 103 293.094 103 299 103 304.906 103.295 306.088 105 307 106.301 307.696 107 309.094 107 311 107 312.906 107.699 314.304 109 315 110.301 315.696 111 317.094 111 319 111 320.906 111.699 322.304 113 323 114.548 323.828 115 325.094 115 328.599 115 332.173 115.579 333.735 117.75 336.012 119.262 337.599 120.95 338.773 121.5 338.621 Z M405.108 339 C407.734 339 410.198 338.488 410.585 337.863 410.971 337.237 410.345 336 409.193 335.113 407.66 333.933 407.018 332.161 406.799 328.509 406.571 324.695 406.087 323.44 404.75 323.186 403.698 322.986 403 323.467 403 324.391 403 325.237 402.1 326.411 401 327 399.427 327.842 399 329.094 399 332.869 399 335.508 399.3 337.967 399.667 338.333 400.033 338.7 402.482 339 405.108 339 Z M428.979 326.771 C429.311 326.622 436.09 319.982 444.042 312.016 454.609 301.43 458.584 296.788 458.813 294.767 458.986 293.247 459.998 291.536 461.063 290.966 462.577 290.156 463 288.853 463 285 463 281.094 463.415 279.848 465 279 466.806 278.034 467 276.906 467 267.388 467 256.961 466.967 256.813 463.938 253.785 462.179 252.025 460.511 251.101 460.015 251.612 459.542 252.1 459.007 253.633 458.827 255.019 458.617 256.636 454.752 261.287 448.021 268.019 441.754 274.287 436.505 278.701 434.962 279 433.544 279.275 430.861 281.075 429 283 427.102 284.964 424.275 286.719 422.559 287 419.981 287.421 419.452 288 419.192 290.684 418.96 293.07 419.399 294.143 420.942 294.969 422.733 295.927 423 297.024 423 303.419 423 309.926 423.229 310.827 425 311.29 426.757 311.749 427 312.654 427 318.74 427 322.55 427.309 325.976 427.688 326.354 428.066 326.732 428.647 326.92 428.979 326.771 Z M565.251 294.75 C564.563 294.979 563.74 294.487 563.421 293.656 563.103 292.825 562.99 291.1 563.171 289.823 563.352 288.545 564.175 287.5 565 287.5 566.041 287.5 566.5 288.546 566.5 290.917 566.5 292.796 565.938 294.521 565.251 294.75 Z M366.904 204.99 C387.35 225.287 390.633 229.227 391 231.457 391.494 234.466 391.577 234.503 398.337 234.798 405.108 235.092 405.208 235.059 408.738 231.298 410.699 229.209 413.517 227.275 415 227 416.483 226.725 419.281 224.813 421.217 222.75 423.865 219.929 425.53 219 427.941 219 430.046 219 431.036 219.439 430.823 220.279 430.646 220.982 428.484 223.569 426.021 226.029 423.558 228.488 420.408 230.725 419.021 231 417.634 231.275 413.463 234.508 409.75 238.184 403.393 244.478 403 245.132 403 249.399 403 252.906 403.452 254.171 405 255 406.301 255.696 407 257.094 407 259 407 260.906 407.699 262.304 409 263 410.301 263.696 411 265.094 411 267 411 268.906 411.699 270.304 413 271 414.573 271.842 415 273.094 415 276.869 415 279.508 415.309 281.976 415.688 282.354 416.066 282.732 416.724 282.92 417.15 282.771 417.577 282.622 418.505 281.741 419.213 280.812 419.921 279.884 421.637 278.984 423.026 278.812 424.592 278.619 428.382 275.65 432.998 271 438.096 265.865 441.398 263.342 443.472 263 445.925 262.595 446.595 261.917 447 259.432 447.332 257.395 449.434 254.481 453.25 250.768 459 245.173 459 245.173 459 230.622 459 217.094 458.859 215.995 457 215 455.787 214.351 455 212.906 455 211.329 455 209.793 453.875 207.659 452.25 206.115 450.737 204.677 448.938 203.354 448.25 203.177 447.445 202.968 447 200.936 447 197.462 447 193.094 447.38 191.867 449 191 450.577 190.156 451 188.906 451 185.087 451 181.203 451.437 179.954 453.205 178.78 455.402 177.321 455.39 177.295 450.253 172.158 445.567 167.471 444.683 167 440.583 167 437.094 167 435.828 166.546 435 165 434.253 163.604 432.906 163 430.538 163 428.613 163 427.007 162.445 426.823 161.717 426.646 161.012 422.225 156.186 417 150.992 411.553 145.579 407.287 140.473 407 139.025 406.725 137.636 405.211 135.15 403.636 133.5 400.772 130.5 400.772 130.5 399.264 132.75 398.197 134.342 396.768 135 394.378 135 392.078 135 391 134.533 391 133.535 391 132.73 391.9 131.589 393 131 394.195 130.361 395 128.906 395 127.388 395 125.912 393.774 123.62 392.077 121.923 390.38 120.226 388.088 119 386.612 119 385.094 119 383.639 118.195 383 117 382.152 115.415 380.906 115 377 115 373.094 115 371.848 114.585 371 113 370.014 111.158 368.906 111 357 111 345.094 111 343.986 110.842 343 109 342.034 107.194 340.906 107 331.388 107 321.07 107 320.784 107.062 317.923 109.923 316.226 111.62 315 113.912 315 115.388 315 116.906 314.195 118.361 313 119 311.699 119.696 311 121.094 311 123 311 124.906 310.301 126.304 309 127 307.699 127.696 307 129.094 307 131 307 132.906 306.301 134.304 305 135 303.415 135.848 303 137.094 303 141 303 144.906 302.585 146.152 301 147 299.699 147.696 299 149.094 299 151 299 152.906 298.301 154.304 297 155 295.415 155.848 295 157.094 295 161 295 164.906 294.585 166.152 293 167 291.699 167.696 291 169.094 291 171 291 172.906 290.301 174.304 289 175 287.415 175.848 287 177.094 287 181 287 184.906 286.585 186.152 285 187 283.417 187.847 283 189.094 283 192.976 283 195.674 283.473 198.174 284.051 198.532 284.629 198.889 286.317 197.903 287.801 196.341 289.286 194.778 290.725 192.366 291 190.979 291.312 189.404 299.181 180.777 311.979 167.979 325.421 154.537 333.358 147.328 335.078 147 336.518 146.725 339.281 144.813 341.217 142.75 343.865 139.929 345.53 139 347.941 139 350.046 139 351.036 139.439 350.823 140.279 350.646 140.982 347.584 144.469 344.021 148.029 340.458 151.588 336.398 154.725 335 155 333.602 155.275 329.542 158.416 325.979 161.979 322.416 165.542 319.275 169.623 319 171.047 318.725 172.472 315.913 176.155 312.75 179.232 308.297 183.565 307 185.496 307 187.797 307 189.975 306.439 190.913 304.895 191.317 303.737 191.62 302.977 192.432 303.207 193.121 303.437 193.811 304.189 194.563 304.879 194.793 305.568 195.023 306.38 194.263 306.683 193.105 307.176 191.219 307.958 191 314.206 191 321.178 191 321.178 191 325.839 186.25 328.403 183.638 330.725 180.366 331 178.979 331.278 177.577 335.264 172.694 339.979 167.979 344.794 163.164 349.562 159.284 351.014 159 352.42 158.725 356.013 156.025 359 153 361.987 149.975 365.615 147.275 367.064 147 368.512 146.725 371.281 144.813 373.217 142.75 375.532 140.283 377.625 139 379.333 139 380.906 139 382.352 138.212 383 137 383.761 135.579 385.094 135 387.609 135 389.945 135 391.037 135.425 390.823 136.25 390.646 136.938 389.323 138.737 387.885 140.25 386.447 141.763 384.25 143 383.003 143 381.676 143 379.278 144.554 377.217 146.75 375.281 148.813 372.518 150.725 371.078 151 369.438 151.313 363.789 156.17 355.979 163.984 346.967 173 343.413 177.236 343.187 179.233 343.014 180.753 342.002 182.464 340.937 183.034 339.384 183.865 339 185.153 339 189.535 339 195 339 195 344.594 195 349.346 195 350.266 195.301 350.71 197 351.098 198.484 352.074 199 354.495 199 356.749 199 358.209 199.682 359.222 201.208 360.665 203.381 360.849 203.255 370.547 193.458 376.647 187.297 381.414 183.309 383.051 183 384.506 182.725 387.281 180.813 389.217 178.75 391.865 175.929 393.53 175 395.941 175 398.046 175 399.036 175.439 398.823 176.279 398.646 176.982 396.484 179.569 394.021 182.029 391.558 184.488 388.408 186.725 387.021 187 385.618 187.278 380.598 191.379 375.702 196.245 L366.904 204.99 Z M136.938 274.771 C137.247 274.622 138.737 273.323 140.25 271.885 141.875 270.341 143 268.207 143 266.671 143 265.094 143.787 263.649 145 263 146.585 262.152 147 260.906 147 257 147 253.094 147.415 251.848 149 251 150.585 250.152 151 248.906 151 245 151 241.094 150.585 239.848 149 239 147.415 238.152 147 236.906 147 233 147 229.094 146.585 227.848 145 227 143.295 226.088 143 224.906 143 219 143 213.094 142.705 211.912 141 211 139.071 209.967 139 208.906 139 181 139 153.094 139.071 152.032 141 151 142.301 150.304 143 148.906 143 147 143 145.094 143.699 143.696 145 143 146.301 142.304 147 140.906 147 139 147 137.094 147.699 135.696 149 135 150.241 134.336 151.004 132.899 151.01 131.215 151.017 129.31 152.207 127.456 155 125 157.793 122.544 158.983 120.69 158.99 118.785 158.996 117.101 159.759 115.664 161 115 162.1 114.411 163 113.323 163 112.581 163 111.84 163.947 110.986 165.105 110.683 166.263 110.38 167.023 109.568 166.793 108.879 166.563 108.189 165.811 107.437 165.121 107.207 164.432 106.977 163.626 107.712 163.331 108.84 162.959 110.266 161.831 110.984 159.634 111.196 157.099 111.44 153.998 113.974 143.986 123.984 134.966 133.003 131.413 137.236 131.187 139.233 131.014 140.753 130.002 142.464 128.937 143.034 127.307 143.906 127 145.169 127 151 127 156.906 126.705 158.088 125 159 123.187 159.97 123 161.094 123 171 123 180.906 122.813 182.03 121 183 119.699 183.696 119 185.094 119 187 119 188.906 119.699 190.304 121 191 122.863 191.997 123 193.094 123 207 123 220.906 123.137 222.003 125 223 126.813 223.97 127 225.094 127 235 127 244.906 127.187 246.03 129 247 130.705 247.912 131 249.094 131 255 131 260.906 131.295 262.088 133 263 134.573 263.842 135 265.094 135 268.869 135 271.508 135.309 273.976 135.688 274.354 136.066 274.732 136.628 274.92 136.938 274.771 Z M156.938 238.771 C157.247 238.622 158.737 237.323 160.25 235.885 161.763 234.447 163.004 232.197 163.01 230.885 163.016 229.365 164.463 227.231 167 225 170.98 221.5 170.98 221.5 170.99 212.785 170.999 205.099 171.236 203.944 173 203 174.842 202.014 175 200.906 175 189 175 177.094 175.158 175.986 177 175 178.705 174.088 179 172.906 179 167 179 161.094 179.295 159.912 181 159 182.585 158.152 183 156.906 183 153 183 149.094 183.415 147.848 185 147 186.301 146.304 187 144.906 187 143 187 141.126 187.698 139.697 188.937 139.034 190.002 138.464 191.014 136.753 191.187 135.233 191.413 133.236 194.966 129.002 203.984 119.984 213.002 110.966 217.236 107.413 219.233 107.187 220.753 107.014 222.464 106.002 223.034 104.937 223.697 103.698 225.126 103 227 103 228.906 103 230.304 102.301 231 101 231.685 99.72 233.094 99 234.913 99 236.676 99 238.277 98.216 239.128 96.935 240.267 95.22 241.35 94.923 245.5 95.185 249.138 95.414 250.5 95.909 250.5 97 250.5 97.961 249.333 98.612 247.251 98.813 245.292 99.002 243.591 99.895 242.966 101.063 242.303 102.302 240.874 103 239 103 237.094 103 235.696 103.699 235 105 234.304 106.301 232.906 107 231 107 229.126 107 227.697 107.698 227.034 108.937 226.464 110.002 224.753 111.014 223.233 111.187 221.324 111.403 217.842 114.125 211.984 119.979 206.988 124.973 203.294 129.535 203 131.078 202.725 132.518 200.813 135.281 198.75 137.217 196.283 139.532 195 141.625 195 143.333 195 144.906 194.212 146.352 193 147 191.415 147.848 191 149.094 191 153 191 156.906 190.585 158.152 189 159 187.159 159.985 187 161.094 187 172.913 187 184.743 186.839 185.864 184.952 187.128 183.099 188.369 182.932 189.36 183.202 197.5 183.5 206.5 183.5 206.5 187.166 206.805 189.554 207.004 190.948 206.656 191.166 205.805 191.35 205.087 192.677 203.263 194.115 201.75 195.841 199.935 197.755 199 199.748 199 201.926 199 202.912 198.443 203.29 197 203.734 195.301 204.654 195 209.406 195 213.652 195 215 194.647 215 193.535 215 192.73 215.9 191.589 217 191 218.705 190.088 219 188.906 219 183 219 177.094 219.295 175.912 221 175 222.301 174.304 223 172.906 223 171 223 169.094 223.699 167.696 225 167 226.585 166.152 227 164.906 227 161 227 157.094 227.415 155.848 229 155 230.301 154.304 231 152.906 231 151 231 149.094 231.699 147.696 233 147 234.301 146.304 235 144.906 235 143 235 141.094 235.699 139.696 237 139 238.301 138.304 239 136.906 239 135 239 133.094 239.699 131.696 241 131 242.301 130.304 243 128.906 243 127 243 125.094 243.699 123.696 245 123 246.198 122.359 247 120.906 247 119.378 247 117.588 248.715 115.158 252.75 111.23 256.214 107.859 258.626 104.613 258.818 103.067 258.993 101.655 260.118 99.737 261.318 98.804 262.762 97.681 263.162 96.778 262.5 96.131 261.95 95.594 260.15 95.007 258.5 94.827 256.645 94.625 255.5 93.927 255.5 93 255.5 91.844 257.222 91.385 263 91 268.778 90.615 270.5 90.156 270.5 89 270.5 88.039 269.333 87.388 267.251 87.187 265.292 86.998 263.591 86.105 262.966 84.937 261.997 83.126 260.7 83 243 83 225.094 83 224.012 83.108 223 85 222.152 86.585 220.906 87 217 87 213.094 87 211.848 87.415 211 89 210.304 90.301 208.906 91 207 91 205.094 91 203.696 91.699 203 93 202.304 94.301 200.906 95 199 95 197.094 95 195.696 95.699 195 97 194.352 98.212 192.906 99 191.333 99 189.625 99 187.532 100.283 185.217 102.75 183.281 104.813 180.518 106.725 179.078 107 177.629 107.276 173.561 110.397 169.979 113.979 166.397 117.561 163.276 121.629 163 123.078 162.725 124.518 160.813 127.281 158.75 129.217 156.283 131.532 155 133.625 155 135.333 155 136.906 154.212 138.352 153 139 151.295 139.912 151 141.094 151 147 151 152.906 150.705 154.088 149 155 147.082 156.026 147 157.094 147 181 147 204.906 147.082 205.974 149 207 150.771 207.948 151 209.094 151 217 151 224.906 151.229 226.052 153 227 154.573 227.842 155 229.094 155 232.869 155 235.508 155.309 237.976 155.688 238.354 156.066 238.732 156.628 238.92 156.938 238.771 Z M432.594 219 C431.717 219 431 218.283 431 217.406 431 216.53 431.858 215.588 432.908 215.314 433.957 215.04 435.04 213.957 435.314 212.908 435.588 211.858 436.477 211 437.29 211 438.102 211 439.002 210.1 439.29 209 439.577 207.9 440.477 207 441.29 207 442.102 207 443.002 206.1 443.29 205 443.577 203.9 444.53 203 445.406 203 446.283 203 447 203.717 447 204.594 447 205.47 446.142 206.412 445.092 206.686 444.043 206.96 442.96 208.043 442.686 209.092 442.412 210.142 441.47 211 440.594 211 439.717 211 439 211.717 439 212.594 439 213.47 438.142 214.412 437.092 214.686 436.043 214.96 434.96 216.043 434.686 217.092 434.412 218.142 433.47 219 432.594 219 Z M269.5 214.621 C270.05 214.47 270.641 212.919 270.813 211.174 270.999 209.293 271.914 207.581 273.063 206.966 274.577 206.156 275 204.853 275 201 275 197.094 275.415 195.848 277 195 278.585 194.152 279 192.906 279 189 279 185.094 279.415 183.848 281 183 282.585 182.152 283 180.906 283 177 283 173.094 283.415 171.848 285 171 286.585 170.152 287 168.906 287 165 287 161.094 287.415 159.848 289 159 290.301 158.304 291 156.906 291 155 291 153.094 291.699 151.696 293 151 294.585 150.152 295 148.906 295 145 295 141.094 295.415 139.848 297 139 298.301 138.304 299 136.906 299 135 299 133.094 299.699 131.696 301 131 302.301 130.304 303 128.906 303 127 303 125.094 303.699 123.696 305 123 306.301 122.304 307 120.906 307 119 307 117.126 307.698 115.697 308.937 115.034 310.002 114.464 311.014 112.753 311.187 111.233 311.393 109.41 313.704 106.259 317.971 101.984 321.531 98.418 324.989 95.36 325.657 95.189 326.415 94.995 326.99 96.311 327.186 98.689 327.5 102.5 327.5 102.5 336.834 102.789 345.578 103.059 346.201 102.946 346.713 100.99 347.013 99.842 347.809 99.037 348.483 99.202 349.156 99.366 351.313 101.214 353.276 103.308 356.582 106.835 357.202 107.093 361.673 106.808 366.098 106.526 366.526 106.273 366.815 103.767 367.064 101.607 366.078 99.983 362.112 96.017 358.752 92.657 356.266 91 354.583 91 353.094 91 351.634 90.185 351 89 350.127 87.37 348.906 87 344.391 87 339.656 87 338.902 86.746 339.188 85.25 339.406 84.11 340.739 83.326 343.011 83 345.223 82.683 346.5 81.951 346.5 81 346.5 80.039 345.333 79.388 343.251 79.187 341.292 78.998 339.591 78.105 338.966 76.937 338.023 75.174 336.765 75 325 75 313.094 75 311.986 75.158 311 77 310.304 78.301 308.906 79 307 79 305.094 79 303.696 79.699 303 81 302.168 82.555 300.906 83 297.333 83 293.313 83 292.294 83.471 289.217 86.75 287.281 88.813 284.518 90.725 283.078 91 281.536 91.294 276.969 94.989 271.979 99.979 266.989 104.969 263.294 109.536 263 111.078 262.725 112.518 260.813 115.281 258.75 117.217 256.283 119.532 255 121.625 255 123.333 255 124.906 254.212 126.352 253 127 251.699 127.696 251 129.094 251 131 251 132.906 250.301 134.304 249 135 247.699 135.696 247 137.094 247 139 247 140.906 246.301 142.304 245 143 243.699 143.696 243 145.094 243 147 243 148.906 242.301 150.304 241 151 239.415 151.848 239 153.094 239 157 239 160.906 238.585 162.152 237 163 235.699 163.696 235 165.094 235 167 235 168.906 234.301 170.304 233 171 231.415 171.848 231 173.094 231 177 231 180.953 230.592 182.148 228.942 183.031 227.399 183.857 226.96 184.93 227.192 187.316 227.5 190.5 227.5 190.5 236.424 190.791 244.639 191.06 245.552 191.298 247.924 193.791 249.341 195.281 250.646 197.063 250.823 197.75 251.001 198.438 252.498 199 254.15 199 256.137 199 258.144 199.99 260.077 201.923 261.685 203.531 263 205.809 263 206.987 263 208.164 264.237 210.426 265.75 212.012 267.263 213.599 268.95 214.773 269.5 214.621 Z M402.52 175 C399.568 175 398.918 174.659 399.185 173.25 399.415 172.038 400.636 171.406 403.156 171.196 405.767 170.977 406.939 170.342 407.304 168.946 407.73 167.317 408.705 167 413.29 167 417.926 167 418.847 166.693 419.29 165 419.693 163.459 420.654 163 423.48 163 426.432 163 427.082 163.341 426.815 164.75 426.585 165.962 425.364 166.594 422.844 166.804 420.233 167.023 419.061 167.658 418.696 169.054 418.27 170.683 417.295 171 412.71 171 408.074 171 407.153 171.307 406.71 173 406.307 174.541 405.346 175 402.52 175 Z M352.594 139 C351.717 139 351 138.283 351 137.406 351 136.53 351.858 135.588 352.908 135.314 353.957 135.04 355.04 133.957 355.314 132.908 355.684 131.492 356.71 131 359.29 131 361.926 131 362.893 130.516 363.29 129 363.577 127.9 364.477 127 365.29 127 366.102 127 367.014 126.053 367.317 124.895 367.62 123.737 368.432 122.977 369.121 123.207 369.811 123.437 370.563 124.189 370.793 124.879 371.023 125.568 370.263 126.38 369.105 126.683 367.947 126.986 367 127.898 367 128.71 367 129.523 366.142 130.412 365.092 130.686 364.043 130.96 362.96 132.043 362.686 133.092 362.316 134.508 361.29 135 358.71 135 356.074 135 355.107 135.484 354.71 137 354.423 138.1 353.47 139 352.594 139 Z M377 123 C376.515 123 375.816 122.511 375.446 121.913 375.077 121.315 375.275 120.325 375.887 119.713 376.704 118.896 377.296 118.896 378.113 119.713 378.725 120.325 378.923 121.315 378.554 121.913 378.184 122.511 377.485 123 377 123 Z M345.406 99 C344.53 99 343.577 98.1 343.29 97 343.002 95.9 342.102 95 341.29 95 340.477 95 339.577 94.1 339.29 93 339.002 91.9 338.16 91 337.419 91 336.677 91 335.589 91.9 335 93 334.239 94.421 332.906 95 330.391 95 328.055 95 326.963 94.575 327.177 93.75 327.354 93.063 328.677 91.263 330.115 89.75 331.882 87.891 333.745 87 335.865 87 338.269 87 339 87.439 339 88.883 339 89.926 339.893 91 341 91.29 342.1 91.577 343 92.477 343 93.29 343 94.102 343.9 95.002 345 95.29 346.1 95.577 347 96.53 347 97.406 347 98.283 346.283 99 345.406 99 Z M393.342 74.72 C393.979 74.508 394.646 73.584 394.823 72.667 395.01 71.703 394.508 71 393.632 71 392.799 71 391.84 71.45 391.5 72 391.16 72.55 391.175 73.474 391.533 74.053 391.891 74.632 392.705 74.932 393.342 74.72 Z" fill="#000000" fill-opacity="1" stroke="none"/>
</svg>
