<?xml version="1.0" encoding="UTF-8"?>
<svg width="580px" height="786px" viewBox="0 0 580 786" xmlns="http://www.w3.org/2000/svg" xmlns:xlink="http://www.w3.org/1999/xlink" version="1.1">
 <!-- Generated by Pixelmator Pro 2.1.2 -->
 <path id="Shape" d="M291 653.936 C276.975 653.881 264.6 653.437 263.5 652.948 262.4 652.46 260.375 651.933 259 651.777 257.625 651.621 254.399 650.45 251.831 649.175 249.264 647.9 244.731 644.526 241.76 641.678 238.788 638.83 234.522 635.15 232.279 633.5 230.036 631.85 226.031 628.7 223.379 626.5 220.728 624.3 216.205 620.25 213.329 617.5 210.453 614.75 205.94 610.445 203.3 607.933 200.66 605.421 197.344 602.029 195.931 600.395 194.519 598.761 191.543 594.741 189.318 591.462 187.094 588.183 183.908 582.792 182.239 579.481 180.57 576.171 177.98 569.871 176.482 565.481 174.984 561.092 173.363 556.037 172.88 554.25 172.396 552.463 171.513 549.313 170.918 547.25 170.322 545.188 169.591 542.226 169.292 540.669 168.994 539.111 169.225 536.861 169.806 535.669 170.388 534.476 171.17 531.925 171.545 530 171.919 528.075 172.274 524.25 172.334 521.5 172.393 518.75 172.069 515.713 171.614 514.75 171.014 513.482 171.211 513 172.328 513 173.176 513 176.412 515.542 179.519 518.649 182.626 521.756 186.349 526.706 187.792 529.649 189.236 532.592 190.773 535 191.208 535 191.644 535 192 534.113 192 533.029 192 531.944 190.931 528.64 189.624 525.685 188.318 522.73 186.405 519.253 185.374 517.957 184.343 516.661 180.833 512.757 177.574 509.282 171.647 502.963 171.647 502.963 173.324 499.447 174.246 497.514 175 493.691 175 490.952 175 488.214 174.455 485.101 173.79 484.035 172.956 482.7 172.878 481.383 173.54 479.799 174.068 478.534 175.4 476.036 176.5 474.247 177.6 472.458 179.271 470.746 180.212 470.442 181.154 470.138 182.764 470.338 183.789 470.887 185.106 471.592 186.934 471.444 190.009 470.385 192.404 469.56 194.965 468.123 195.699 467.192 196.433 466.261 197.701 463.983 198.517 462.128 199.332 460.273 200 456.798 200 454.405 200 451.962 200.964 448.069 202.198 445.529 204.12 441.573 204.265 440.409 203.354 436.253 202.781 433.639 202.13 430.825 201.906 430 201.572 428.767 202.566 428.55 207.5 428.784 210.8 428.94 216.65 428.582 220.5 427.989 224.35 427.396 230.2 426.453 233.5 425.895 236.8 425.336 242.425 424.66 246 424.393 249.575 424.126 253.09 423.707 253.811 423.462 254.846 423.11 254.768 422.416 253.445 420.176 252.522 418.614 250.95 416.825 249.95 416.201 248.951 415.577 245.333 412.368 241.911 409.071 238.488 405.773 235.308 403.31 234.844 403.597 234.38 403.883 234 406.745 234 409.955 234 415.386 233.753 416.009 230.465 418.896 227.794 421.242 225.97 422 222.999 422 220.837 422 217.496 421.25 215.574 420.334 213.448 419.32 211.596 417.46 210.845 415.584 210.166 413.888 209.432 411.645 209.216 410.601 208.999 409.556 209.364 407.688 210.027 406.449 210.69 405.211 211.062 403.685 210.853 403.059 210.644 402.433 209.405 401.376 208.099 400.71 206.793 400.045 205.761 399.088 205.806 398.584 205.851 398.08 207.775 397.029 210.083 396.249 212.786 395.335 216.184 395.039 219.639 395.415 222.587 395.737 227.587 396.265 230.75 396.588 234.248 396.946 236.108 396.818 235.5 396.262 234.95 395.759 232.7 394.833 230.5 394.204 228.3 393.576 224.475 392.779 222 392.435 219.525 392.09 214.575 391.731 211 391.637 204.5 391.466 204.5 391.466 204.831 386.483 205.036 383.389 205.848 380.793 206.974 379.635 208.403 378.164 209.654 377.9 212.893 378.385 215.152 378.723 218.913 379.251 221.25 379.557 223.587 379.863 226.4 380.504 227.5 380.981 228.6 381.459 230.85 382.128 232.5 382.469 234.15 382.81 237.075 383.456 239 383.904 240.925 384.351 245.2 385.504 248.5 386.464 251.8 387.425 256.4 389.033 258.723 390.038 261.246 391.129 263.761 393.2 264.97 395.182 266.082 397.007 266.994 399.737 266.996 401.25 266.998 402.763 267.493 404 268.097 404 268.812 404 269.009 402.351 268.662 399.25 268.37 396.638 267.71 392.25 267.194 389.5 266.678 386.75 265.317 381.685 264.168 378.244 263.019 374.804 261.049 370.958 259.789 369.698 258.529 368.438 256.149 366.691 254.499 365.816 252.85 364.941 248.773 363.724 245.44 363.112 242.107 362.501 235.582 362.02 230.94 362.044 226.298 362.068 220.475 362.486 218 362.973 214.682 363.626 213.153 363.521 212.179 362.572 211.085 361.508 211.137 361.006 212.478 359.665 213.369 358.774 214.952 357.447 215.995 356.716 217.039 355.985 218.59 353.332 219.443 350.819 220.913 346.488 220.881 345.981 218.821 341.023 217.07 336.811 216.876 335.428 217.824 333.91 218.471 332.875 219 329.09 219 325.5 219 321.91 219.545 318.099 220.212 317.032 220.879 315.964 221.086 314.752 220.672 314.339 220.258 313.925 218.813 314.874 217.46 316.449 215.777 318.407 215 320.516 215 323.126 215 325.81 214.046 328.295 211.782 331.507 209.035 335.404 208.742 336.358 209.782 338.023 210.452 339.095 211 341.891 210.999 344.236 210.998 347.873 210.429 349.052 207.126 352.256 204.478 354.825 203.063 357.203 202.652 359.775 202.321 361.844 202.31 365.137 202.628 367.094 203.004 369.409 202.733 371.16 201.853 372.107 201.109 372.907 199.641 374.563 198.591 375.786 197.541 377.009 196.267 380.145 195.76 382.755 195.253 385.365 194.87 388.625 194.909 390 194.948 391.375 195.254 395.123 195.587 398.329 196.09 403.155 195.818 404.875 194.008 408.329 192.055 412.053 191.869 413.624 192.271 423 192.518 428.775 193.068 434.775 193.493 436.333 193.951 438.013 193.762 440.863 193.028 443.333 192.348 445.625 191.436 448.429 191.002 449.564 190.568 450.699 190.611 452.34 191.098 453.211 191.664 454.223 191.441 456.094 190.479 458.397 189.651 460.379 188.304 462 187.487 462 186.287 462 186 460.347 186 453.434 186 448.723 185.524 443.98 184.943 442.894 184.117 441.349 184.355 440.162 186.038 437.438 187.783 434.615 188.078 433.015 187.595 428.978 187.268 426.24 186.728 421.696 186.395 418.88 186.044 415.902 186.253 412.764 186.895 411.38 187.503 410.071 188.506 407.912 189.125 406.581 189.76 405.217 189.958 402.711 189.578 400.831 189.208 398.999 188.665 396.148 188.372 394.496 187.985 392.317 188.43 390.81 189.994 389.007 191.837 386.882 192.079 385.65 191.663 380.511 191.395 377.205 190.87 373.104 190.496 371.398 189.964 368.968 190.487 367.107 192.908 362.817 195.51 358.207 196 356.278 196 350.648 196 344.564 196.217 343.858 198.39 342.868 199.704 342.269 201.261 340.722 201.85 339.43 202.439 338.138 203.225 334.7 203.596 331.79 203.968 328.881 204.893 325.27 205.652 323.768 206.412 322.265 208.418 320.015 210.11 318.768 211.803 317.52 213.632 315.674 214.175 314.664 214.718 313.655 214.954 312.621 214.7 312.367 214.446 312.113 213.61 312.489 212.842 313.202 212.074 313.916 209.883 315.595 207.973 316.933 206.063 318.272 203.488 320.522 202.251 321.933 200.996 323.366 199.999 325.825 199.996 327.5 199.992 329.15 199.544 332.101 199.001 334.057 198.441 336.073 196.709 338.578 195.006 339.837 192.142 341.955 192 342.405 192 349.358 192 355.847 191.656 357.176 188.9 361.337 186.264 365.317 185.885 366.652 186.368 370.259 186.681 372.591 187.228 376.467 187.585 378.87 188.094 382.304 187.779 384.048 186.117 387.007 184.952 389.078 184 392.029 184 393.565 184 395.101 184.532 397.83 185.183 399.629 186.2 402.443 186.072 403.502 184.264 407.2 183.109 409.565 181.9 413.709 181.579 416.409 181.222 419.409 180.046 422.52 178.554 424.409 177.211 426.109 175.016 428.852 173.677 430.504 172.186 432.342 170.991 435.446 170.598 438.504 170.244 441.252 169.612 446.65 169.193 450.5 168.629 455.685 167.63 458.796 165.34 462.5 163.64 465.25 161.624 468.85 160.861 470.5 159.863 472.657 158.774 473.5 156.987 473.5 154.911 473.5 154.556 473.087 154.838 471 155.024 469.625 155.402 465.367 155.678 461.537 156.07 456.108 156.712 453.943 158.59 451.71 160.449 449.501 161.004 447.665 161.017 443.673 161.03 439.749 161.75 437.293 164 433.5 165.631 430.75 166.974 427.059 166.983 425.297 166.992 423.535 166.497 420.99 165.882 419.64 165.003 417.712 165.12 416.252 166.427 412.832 167.445 410.164 169.391 407.585 171.45 406.175 173.298 404.908 175.295 402.663 175.887 401.186 176.479 399.709 177.084 394.9 177.232 390.5 177.453 383.907 177.104 381.666 175.25 377.761 173.687 374.468 173 371.175 173 366.97 173 362.645 173.541 360.146 174.899 358.21 175.943 356.719 177.044 353.475 177.345 351 177.647 348.525 178.616 344.77 179.499 342.657 180.664 339.869 180.848 338.084 180.169 336.157 179.526 334.331 179.087 333.969 178.768 335 178.512 335.825 177.752 338.075 177.077 340 176.403 341.925 175.156 345.525 174.305 348 173.454 350.475 171.915 354.3 170.884 356.5 169.707 359.013 168.835 363.659 168.538 369 168.279 373.675 167.815 380.425 167.507 384 167.199 387.575 166.281 391.985 165.466 393.8 164.651 395.615 163.068 398.084 161.947 399.287 160.827 400.489 159.256 402.786 158.455 404.39 157.655 405.995 157 408.321 157 409.559 157 410.797 155.425 413.696 153.5 416 150.214 419.934 150 420.628 150 427.372 150 432.516 149.515 435.257 148.291 437.027 147.351 438.387 146.001 440.095 145.291 440.821 144.389 441.745 144 445.587 144 453.588 144 465.032 144 465.032 140.548 466.678 137.712 468.031 136.82 468.095 135.548 467.04 134.697 466.333 134 464.686 134 463.38 134 462.071 132.43 459.268 130.5 457.132 128.575 455.001 127 452.606 127 451.809 127 451.012 128.125 449.383 129.5 448.187 131.443 446.497 132 445.054 132 441.707 132 439.338 132.512 436.888 133.138 436.262 133.855 435.545 134.032 433.6 133.616 431.003 133.128 427.946 133.415 426.106 134.729 423.88 135.948 421.813 136.5 418.794 136.5 414.189 136.5 407.5 136.5 407.5 139.311 407.797 141.833 408.064 142.012 407.892 141.061 406.113 140.477 405.023 140 402.947 140 401.5 140 400.053 139.538 398.004 138.972 396.948 138.194 395.493 138.441 394.055 139.996 391.008 141.124 388.797 143.62 385.978 145.544 384.744 147.467 383.51 149.313 381.455 149.647 380.177 149.981 378.899 149.747 377.347 149.127 376.727 148.507 376.107 148 374.318 148 372.75 148 371.183 148.771 368.461 149.713 366.7 150.656 364.94 151.999 361.925 152.698 360 153.398 358.075 153.977 354.564 153.985 352.198 153.998 348.369 154.315 347.786 156.862 346.898 158.436 346.349 160.216 344.822 160.817 343.503 161.417 342.185 163.054 340.355 164.454 339.438 166.544 338.069 167 336.981 167 333.365 167 329.187 167.388 328.589 174.547 321.73 180.153 316.359 183.358 314.105 187.013 312.963 189.719 312.118 193.087 310.498 194.497 309.363 195.908 308.228 198.735 306.75 200.781 306.079 202.826 305.407 206.75 305.003 209.5 305.179 214.357 305.491 214.517 305.6 215.079 309 215.442 311.195 215.886 311.941 216.27 311 216.607 310.175 217.026 308.6 217.202 307.5 217.477 305.772 218.401 305.464 224.01 305.235 227.58 305.089 231.4 304.547 232.5 304.03 233.6 303.513 237.2 302.839 240.5 302.532 243.8 302.225 250.325 301.483 255 300.883 259.675 300.283 275.425 299.796 290 299.802 304.575 299.807 320.775 300.295 326 300.885 331.225 301.476 338.2 302.214 341.5 302.524 344.8 302.835 348.4 303.494 349.5 303.988 350.6 304.482 353.3 305.12 355.5 305.405 357.7 305.69 361.3 306.193 363.5 306.524 365.7 306.854 368.4 307.51 369.5 307.982 370.6 308.454 373.075 309.061 375 309.331 376.925 309.601 380.525 310.488 383 311.302 385.475 312.116 390.2 313.59 393.5 314.576 396.8 315.563 400.476 317.075 401.668 317.935 402.86 318.796 404.548 320.978 405.418 322.784 406.288 324.59 407 327.37 407 328.962 407 330.555 407.665 332.522 408.478 333.335 409.29 334.147 410.886 337.217 412.023 340.156 413.161 343.095 415.259 347.975 416.685 351 418.112 354.025 420.366 357.675 421.693 359.111 423.435 360.994 423.938 362.399 423.498 364.15 423.163 365.485 423.392 367.901 424.007 369.519 424.622 371.136 425.659 372.789 426.312 373.193 426.964 373.596 427.794 377.205 428.157 381.213 428.519 385.221 429.349 390.525 430 393 430.651 395.475 431.61 400.875 432.129 405 432.649 409.125 433.292 415.425 433.558 419 433.824 422.575 434.482 426.281 435.021 427.236 435.559 428.191 436 431.535 436 434.665 436 437.796 435.55 441.852 435 443.679 434.45 445.506 433.489 448.688 432.865 450.75 432.241 452.813 430.941 456.3 429.976 458.5 429.011 460.7 427.459 464.525 426.528 467 425.597 469.475 424.25 472.85 423.535 474.5 422.819 476.15 420.719 481.307 418.867 485.959 417.015 490.612 413.778 497.093 411.674 500.361 409.569 503.629 406.178 507.922 404.138 509.902 402.098 511.881 399.272 515.075 397.858 517 396.444 518.925 394.483 522.075 393.501 524 392.518 525.925 391.329 528.281 390.857 529.236 390.386 530.191 390 531.879 390 532.986 390 534.094 390.34 535 390.756 535 391.172 535 392.138 533.537 392.904 531.75 393.67 529.963 395.896 526.475 397.85 524 399.804 521.525 402.5 518.6 403.842 517.5 405.183 516.4 408.386 513.471 410.959 510.991 413.533 508.511 417.033 504.557 418.737 502.204 420.442 499.851 422.073 498.31 422.364 498.779 422.654 499.248 422.222 502.978 421.405 507.066 420.587 511.155 419.23 516.975 418.39 520 417.549 523.025 416.442 527.188 415.93 529.25 415.419 531.313 414.498 534.912 413.884 537.25 413.27 539.588 412.422 542.625 412 544 411.578 545.375 410.666 548.525 409.974 551 409.282 553.475 407.398 559.55 405.787 564.5 404.176 569.45 401.691 575.975 400.265 579 398.84 582.025 395.923 586.975 393.784 590 391.645 593.025 388.906 596.823 387.698 598.44 386.489 600.057 382.317 604.557 378.427 608.44 374.536 612.323 368.911 617.61 365.927 620.188 362.942 622.766 358.925 626.268 357 627.97 355.075 629.672 351.25 632.737 348.5 634.781 345.75 636.826 341.567 640.42 339.204 642.769 336.841 645.118 332.594 648.156 329.767 649.52 326.939 650.884 323.579 652 322.299 652 321.02 652 319.191 652.458 318.236 653.018 317.168 653.645 306.689 653.998 291 653.936 Z M155.852 596.807 C154.054 597.015 152.369 596.278 150.602 594.511 148.131 592.04 148 591.383 148 581.441 148 575.684 147.605 570.191 147.122 569.236 146.639 568.281 145.526 565.807 144.648 563.738 143.77 561.669 142.314 558.406 141.412 556.489 140.308 554.14 140 551.94 140.47 549.751 140.853 547.963 141.393 543.925 141.671 540.777 142.087 536.056 141.809 534.541 140.087 532.123 138.82 530.342 138 527.643 138 525.249 138 522.761 137.273 520.468 136.029 519.033 134.557 517.336 134.303 516.301 135.029 514.946 135.563 513.948 136 511.553 136 509.625 136 507.696 136.45 505.84 137 505.5 137.55 505.16 138 503.585 138 502 138 500.415 138.45 498.84 139 498.5 139.55 498.16 140 496.334 140 494.441 140 492.548 139.601 491 139.113 491 138.626 491 138.011 492.237 137.748 493.75 137.484 495.262 136.05 499.65 134.561 503.5 133.073 507.35 131.49 510.875 131.045 511.333 130.599 511.791 129.042 510.891 127.584 509.333 126.127 507.775 123.738 504.071 122.277 501.102 120.816 498.134 119.44 493.634 119.218 491.102 118.996 488.571 118.891 483.012 118.984 478.75 119.092 473.778 118.767 471 118.077 471 117.484 471 117 472.725 117 474.833 117 476.942 116.704 478.963 116.342 479.325 115.98 479.687 115.08 479.481 114.342 478.869 113.544 478.206 113 475.71 113 472.708 113 468.949 113.765 466.306 116 462.346 118.558 457.813 119 455.977 119 449.876 119 443.676 119.401 442.07 122 437.846 124.247 434.194 125 431.757 125 428.138 125 424.694 125.594 422.616 127.069 420.903 128.206 419.581 129.847 418.342 130.715 418.149 131.713 417.926 132.095 418.293 131.756 419.149 131.462 419.892 130.659 421.716 129.972 423.202 129.253 424.756 128.975 427.456 129.316 429.557 129.709 431.983 129.407 433.976 128.415 435.489 127.594 436.743 127.032 439.401 127.166 441.396 127.353 444.174 126.894 445.386 125.205 446.569 123.599 447.694 123 449.131 123 451.861 123 454.83 123.726 456.312 126.5 459 128.818 461.246 130 463.315 130 465.124 130 466.883 130.937 468.592 132.635 469.927 134.084 471.067 136.356 472 137.685 472 139.013 472 141.414 471.32 143.02 470.49 144.626 469.659 146.404 468.114 146.97 467.055 147.537 465.997 148 460.409 148 454.637 148 447.327 148.397 443.742 149.31 442.821 150.03 442.095 151.38 439.968 152.31 438.096 153.339 436.023 154 432.31 154.001 428.596 154.002 423.629 154.441 421.991 156.368 419.75 157.668 418.237 159.171 417 159.706 417 160.241 417 161.201 418.146 161.839 419.547 162.478 420.948 163 423.191 163 424.532 163 425.873 161.65 429.164 160 431.846 157.752 435.498 157 437.934 157 441.557 157 445.201 156.324 447.368 154.257 450.351 152.073 453.502 151.48 455.554 151.351 460.405 151.261 463.757 150.87 467.729 150.481 469.232 150.092 470.734 150.039 473.019 150.363 474.31 150.687 475.601 152.085 477.173 153.471 477.805 154.856 478.436 157.324 478.685 158.956 478.359 160.589 478.032 162.616 476.709 163.462 475.418 164.308 474.127 165 472.223 165 471.188 165 470.153 165.876 468.296 166.947 467.061 168.019 465.826 169.054 464.339 169.247 463.758 169.441 463.176 170.121 462.88 170.757 463.1 171.562 463.379 171.313 464.838 169.937 467.905 168.849 470.327 167.249 472.829 166.381 473.463 165.134 474.375 164.915 475.863 165.337 480.559 165.63 483.826 166.165 488.115 166.526 490.088 166.983 492.594 166.748 494.109 165.744 495.113 164.954 495.903 163.519 498.211 162.555 500.243 161.228 503.039 160.961 505.218 161.454 509.218 161.812 512.123 162.322 518.325 162.587 523 163.038 530.926 162.903 531.703 160.602 534.5 158.556 536.988 157.824 537.312 156.317 536.396 154.848 535.504 154.362 533.395 153.78 525.396 153.383 519.953 153.044 514.6 153.025 513.5 153.007 512.4 153.265 509.094 153.599 506.153 153.98 502.793 153.796 500.396 153.103 499.703 152.299 498.899 152 499.722 152 502.741 152 505.019 151.55 507.16 151 507.5 150.412 507.864 150 513.786 150 521.885 150 535.276 150.068 535.715 152.5 538 154.315 539.705 155 541.389 155 544.144 155 546.231 155.9 549.542 157 551.5 158.536 554.234 159 556.914 159 563.044 159 567.435 158.498 571.832 157.884 572.815 157.188 573.928 157.022 576.47 157.443 579.551 157.814 582.273 158.204 587.2 158.309 590.5 158.494 596.302 158.412 596.51 155.852 596.807 Z M290.783 586.956 C312.482 586.999 313.193 586.936 317.894 584.554 321.308 582.824 323.234 581.026 324.475 578.412 325.692 575.846 326.071 573.32 325.713 570.148 325.366 567.071 324.476 564.994 322.988 563.789 320.974 562.158 318.099 562 290.461 562 264.232 562 259.931 562.212 258.571 563.571 257.476 564.667 257 567.048 257 571.437 257 576.307 257.473 578.331 259.09 580.388 260.24 581.849 262.827 583.915 264.84 584.978 268.133 586.718 270.736 586.916 290.783 586.956 Z M248.645 572.967 C249.275 572.985 249.964 571.177 250.176 568.948 250.389 566.719 250.361 564.694 250.115 564.448 249.868 564.202 247.267 564 244.333 564 240.668 564 239 564.4 239 565.279 239 565.983 239.956 567.22 241.125 568.029 242.294 568.838 244.206 570.273 245.375 571.217 246.544 572.161 248.015 572.948 248.645 572.967 Z M333.038 573 C333.672 573 335.611 572.002 337.346 570.783 339.081 569.563 341.063 568.021 341.75 567.354 342.438 566.688 343 565.637 343 565.019 343 564.292 341.148 564.002 337.75 564.198 332.5 564.5 332.5 564.5 332.193 568.75 331.996 571.471 332.3 573 333.038 573 Z M290.922 558 C332.116 558 345.896 557.704 346.8 556.8 347.46 556.14 348 554.812 348 553.85 348 552.887 345.93 550.39 343.401 548.3 340.872 546.21 337.024 542.895 334.852 540.933 332.679 538.971 329.236 536.804 327.201 536.117 325.165 535.43 322.6 534.469 321.5 533.981 320.4 533.493 317.7 532.626 315.5 532.053 313.3 531.48 309.373 531.009 306.774 531.006 303.803 531.002 300.833 531.741 298.774 532.996 296.872 534.156 293.731 534.994 291.28 534.996 288.908 534.998 285.502 534.124 283.5 533 281.054 531.626 278.086 531 274.017 531 270.759 531 266.835 531.506 265.297 532.125 263.759 532.743 261.6 533.577 260.5 533.978 259.4 534.379 256.403 535.648 253.84 536.797 251.277 537.946 247.62 540.446 245.714 542.353 243.807 544.26 240.607 546.873 238.603 548.16 236.599 549.447 234.694 551.518 234.368 552.763 234.043 554.008 234.332 555.695 235.011 556.513 236.075 557.796 243.752 558 290.922 558 Z M430.965 521 C430.174 521 429.973 519.631 430.341 516.75 430.639 514.412 431.342 510.25 431.903 507.5 432.465 504.75 433.195 500.925 433.525 499 433.856 497.075 434.818 493.864 435.663 491.865 436.509 489.866 438.168 487.78 439.35 487.231 440.533 486.681 443.3 484.811 445.5 483.074 447.7 481.337 450.252 479.295 451.171 478.535 452.09 477.776 453.777 476.654 454.921 476.042 456.309 475.3 457 473.944 457 471.965 457 470.334 457.493 469 458.096 469 458.796 469 459.043 470.72 458.779 473.75 458.552 476.362 456.224 484.8 453.607 492.5 448.912 506.311 448.761 506.584 442.425 512.714 438.893 516.132 435.132 519.394 434.067 519.964 433.003 520.534 431.607 521 430.965 521 Z M290.703 518.932 C291.365 518.97 292.984 518.509 294.301 517.909 295.618 517.309 297.459 515.088 298.391 512.974 299.324 510.86 301.658 507.751 303.578 506.065 306.906 503.144 307.481 503 315.826 503 324.46 503 324.636 502.951 328.292 499.502 331.664 496.322 332 495.523 332 490.702 332 487.785 331.438 484.188 330.75 482.707 330.063 481.227 329.162 480.012 328.75 480.008 328.338 480.004 328 482.519 328 485.599 328 490.573 327.653 491.521 324.894 494.099 322.08 496.728 321.132 497 314.795 497 308.633 497 307.016 497.432 301.185 500.636 297.004 502.934 293.231 504.273 290.94 504.273 288.627 504.273 284.956 502.955 280.81 500.636 275.033 497.405 273.515 497 267.199 497 260.917 497 259.795 496.704 257.545 494.455 255.38 492.289 255 491.007 255 485.871 255 481.49 254.657 479.945 253.75 480.242 253.063 480.466 251.963 482.191 251.306 484.075 250.65 485.959 250.087 489.24 250.056 491.368 250.01 494.565 250.673 495.908 253.882 499.118 257.765 503 257.765 503 266.247 503 273.51 503 275.145 503.322 277.615 505.241 279.202 506.474 281.251 508.387 282.17 509.491 283.088 510.596 284.073 512.656 284.359 514.07 284.644 515.483 285.918 517.141 287.189 517.752 288.46 518.364 290.041 518.895 290.703 518.932 Z M440.765 477.833 C440.345 478.016 439.792 477.566 439.538 476.833 439.283 476.1 439.486 472.8 439.99 469.5 440.494 466.2 441.336 461.475 441.86 459 442.385 456.525 443.275 452.025 443.837 449 444.399 445.975 445.608 440.575 446.522 437 447.437 433.425 448.616 428.25 449.143 425.5 449.669 422.75 450.415 418.25 450.8 415.5 451.339 411.651 451.892 410.53 453.202 410.631 454.139 410.703 455.714 411.569 456.702 412.555 458.207 414.056 458.581 416.641 459 428.424 459.275 436.166 459.193 444.75 458.819 447.5 458.444 450.25 457.86 453.85 457.521 455.5 457.182 457.15 456.499 460.075 456.002 462 455.505 463.925 454.864 466.625 454.577 468 454.278 469.436 452.661 471.309 450.778 472.401 448.975 473.446 446.156 475.021 444.514 475.901 442.872 476.78 441.185 477.65 440.765 477.833 Z M92.442 474 C90.99 474 89.401 473.015 88.409 471.502 87.179 469.624 86.943 467.869 87.457 464.435 87.997 460.836 89.107 458.888 92.693 455.251 95.197 452.712 97.583 449.453 97.997 448.009 98.412 446.565 99.441 444.059 100.286 442.442 101.13 440.824 103.257 438.15 105.011 436.5 108.007 433.682 108.171 433.167 107.721 428 107.458 424.975 107.542 421.391 107.908 420.036 108.274 418.682 109.457 417.332 110.536 417.036 112.295 416.556 112.531 415.454 112.796 406.5 112.958 401 113.533 395.438 114.074 394.141 114.775 392.458 115.622 391.929 117.028 392.297 118.755 392.749 119.002 392.297 119.015 388.656 119.024 386.37 119.432 383.866 119.922 383.092 120.459 382.244 120.397 380.771 119.767 379.387 119.004 377.714 119.073 376.238 120.021 373.951 120.736 372.224 122.34 370.346 123.586 369.779 125.051 369.111 126.627 366.671 128.05 362.865 129.366 359.348 131.781 355.48 134.059 353.242 136.154 351.184 139.474 347.998 141.437 346.163 143.4 344.327 145.264 341.627 145.581 340.163 145.897 338.698 146.515 336.6 146.953 335.5 147.392 334.4 148.239 332.375 148.835 331 149.432 329.625 150.5 327.791 151.21 326.925 151.919 326.059 153.625 324.628 155 323.746 156.375 322.865 159.975 322.037 163 321.908 167.021 321.737 168.423 322.015 168.214 322.944 168.057 323.643 167.27 324.873 166.464 325.679 165.659 326.484 165 328.701 165 330.605 165 333.517 164.431 334.403 161.42 336.18 159.451 337.342 157.458 339.295 156.993 340.519 156.527 341.744 155.101 343.012 153.823 343.336 152.545 343.66 150.932 344.844 150.239 345.967 149.442 347.256 149.212 349.473 149.613 351.982 150.047 354.695 149.733 357.074 148.624 359.478 147.731 361.415 146.265 364.593 145.367 366.54 144.201 369.068 143.899 371.57 144.312 375.29 144.87 380.319 144.779 380.57 141.695 382.506 139.938 383.61 137.381 386.628 136.014 389.213 133.858 393.289 133.681 394.317 134.68 396.964 135.693 399.646 135.481 400.711 132.932 405.758 131.337 408.916 127.999 413.691 125.516 416.368 121.399 420.806 120.997 421.69 120.965 426.368 120.945 429.191 120.383 432.446 119.715 433.602 119.047 434.759 117.263 437.156 115.75 438.929 113.756 441.267 113 443.242 113 446.112 113 448.289 112.304 451.133 111.453 452.431 110.603 453.729 109.059 455.013 108.022 455.284 106.823 455.597 105.724 457.313 105.001 459.996 104.376 462.317 103.185 465.642 102.354 467.385 101.522 469.128 99.491 471.329 97.84 472.277 96.189 473.225 93.76 474 92.442 474 Z M528.25 471.557 C525.682 471.984 524 471.879 524 471.292 524 470.758 525.207 469.771 526.682 469.099 528.157 468.427 530.744 467.641 532.432 467.352 534.119 467.063 536.85 466.239 538.5 465.521 540.15 464.803 543.525 463.741 546 463.162 548.475 462.582 555.899 460.305 562.498 458.101 569.978 455.603 574.849 454.449 575.434 455.034 576.02 455.62 575.518 456.884 574.102 458.391 572.853 459.721 570.406 461.083 568.665 461.419 566.924 461.754 563.7 462.621 561.5 463.347 559.3 464.072 555.7 465.153 553.5 465.748 551.3 466.344 547.7 467.365 545.5 468.017 543.3 468.669 539.475 469.573 537 470.026 534.525 470.479 530.588 471.168 528.25 471.557 Z M19.059 463 C17.991 463 16.84 462.55 16.5 462 16.16 461.45 14.164 461 12.063 461 9.889 461 7.709 460.354 7 459.5 6.315 458.675 4.56 458 3.1 458 1.64 458 -0.443 457.39 -1.527 456.646 -2.612 455.901 -4.625 455.046 -6 454.747 -7.375 454.448 -10.075 453.637 -12 452.946 -13.925 452.254 -16.956 451.072 -18.735 450.317 -20.515 449.563 -23.44 448.315 -25.235 447.545 -27.031 446.774 -30.75 445.152 -33.5 443.941 -36.25 442.729 -39.85 441.281 -41.5 440.724 -43.15 440.166 -45.021 439.305 -45.658 438.809 -46.294 438.314 -50.119 436.202 -54.158 434.117 -58.399 431.927 -61.645 429.579 -61.844 428.557 -62.033 427.584 -61.706 426.306 -61.117 425.717 -60.357 424.957 -59.534 425.075 -58.274 426.123 -57.298 426.934 -55.325 428.026 -53.89 428.549 -52.454 429.072 -44.129 433.1 -35.39 437.5 -26.65 441.9 -18.6 445.748 -17.5 446.051 -16.4 446.354 -13.7 447.423 -11.5 448.426 -9.3 449.43 -5.709 450.886 -3.521 451.662 -1.332 452.438 1.85 453.894 3.549 454.897 5.249 455.9 7.959 456.915 9.57 457.154 11.182 457.392 14.401 458.468 16.724 459.544 19.048 460.62 20.96 461.837 20.974 462.25 20.988 462.663 20.127 463 19.059 463 Z M585.275 455.537 C582.63 456.383 580.826 456.527 580.45 455.92 580.121 455.386 581.177 453.787 582.797 452.366 584.417 450.944 588.575 448.643 592.038 447.251 596.595 445.42 598.772 444.997 599.917 445.72 600.788 446.269 601.5 447.327 601.5 448.071 601.5 448.815 600.375 449.952 599 450.597 597.625 451.243 594.925 452.314 593 452.978 591.075 453.641 587.599 454.793 585.275 455.537 Z M615.5 438.115 C618.6 435.247 621.525 433.341 624 432.031 626.475 430.721 630.3 428.543 632.5 427.193 634.7 425.843 638.413 423.191 640.75 421.302 643.458 419.113 645.647 418.071 646.782 418.431 648.081 418.843 648.852 418.23 649.631 416.166 650.219 414.609 652.548 411.851 654.806 410.035 657.065 408.22 660.881 404.207 663.286 401.118 665.691 398.028 668.356 394.15 669.208 392.5 670.059 390.85 671.374 388.195 672.128 386.6 672.963 384.835 673.495 380.336 673.488 375.1 673.481 370.37 673.089 365.047 672.617 363.271 671.84 360.349 672.008 359.948 674.379 359.046 675.821 358.498 677 357.363 677 356.525 677 355.686 677.633 355 678.407 355 679.232 355 680.513 357.223 681.505 360.375 682.751 364.339 683.104 368.343 682.848 375.625 682.57 383.506 682.016 386.51 680.102 390.5 678.782 393.25 676.645 396.65 675.352 398.055 674.058 399.46 673 401.306 673 402.158 673 403.009 668.694 407.872 663.43 412.964 654.947 421.171 653.541 422.158 651.046 421.659 648.582 421.167 648.161 421.443 647.676 423.868 647.269 425.904 645.579 427.586 641.311 430.201 638.115 432.159 632.823 435.179 629.552 436.912 626.28 438.644 622.68 440.293 621.552 440.575 620.423 440.858 618.6 440.42 617.5 439.602 L615.5 438.115 Z M373.07 428.488 C377.766 428.244 380.71 427.483 383.386 425.823 385.446 424.545 388.714 421.986 390.647 420.135 392.581 418.284 395.027 416.544 396.082 416.268 397.137 415.992 398 415.159 398 414.417 398 413.674 396.41 411.477 394.467 409.533 392.523 407.59 388.667 404.851 385.897 403.448 382.166 401.557 379.648 400.974 376.181 401.198 372.154 401.458 371.539 401.779 371.78 403.5 371.934 404.6 372.289 407.075 372.569 409 372.854 410.955 372.503 413.59 371.775 414.97 371.058 416.328 368.948 418.466 367.088 419.72 364.863 421.219 362.225 422 359.387 422 355.984 422 354.321 421.343 351.535 418.896 348.23 415.995 348 415.405 348 409.823 348 405.14 347.689 403.923 346.558 404.177 345.764 404.354 343.402 406.162 341.308 408.193 339.213 410.225 335.535 413.727 333.133 415.977 330.732 418.227 328.707 420.84 328.633 421.784 328.524 423.195 329.745 423.624 335.5 424.199 339.35 424.584 345.425 425.387 349 425.984 352.575 426.581 357.975 427.466 361 427.949 364.025 428.433 369.457 428.675 373.07 428.488 Z M221.45 418 C222.357 418 224.446 417.303 226.093 416.452 227.74 415.6 229.578 413.825 230.179 412.506 230.78 411.187 230.983 408.664 230.63 406.899 230.277 405.135 229.486 403.085 228.872 402.345 228.17 401.5 225.591 401 221.934 401 217.053 401 215.862 401.359 214.557 403.223 213.701 404.445 213 406.74 213 408.323 213 410.262 214.109 412.309 216.4 414.6 218.27 416.47 220.542 418 221.45 418 Z M359.488 418 C360.268 418 362.086 417.462 363.528 416.805 364.97 416.148 366.791 414.371 367.575 412.855 368.359 411.339 369 408.875 369 407.378 369 405.882 368.255 403.835 367.345 402.829 366.109 401.462 364.241 401 359.96 401 354.973 401 354.021 401.32 352.615 403.465 351.727 404.82 351 407.249 351 408.861 351 410.965 351.998 412.669 354.535 414.896 356.479 416.603 358.708 418 359.488 418 Z M-85.054 410.749 C-85.93 410.93 -88.111 409.206 -90.054 406.794 -91.949 404.441 -94.413 401.163 -95.529 399.508 -96.644 397.854 -98.782 393.658 -100.279 390.184 -102.649 384.682 -103 382.555 -102.999 373.684 -102.999 366.378 -102.504 362.223 -101.249 358.979 -100.287 356.493 -97.971 351.769 -96.102 348.482 -94.233 345.195 -88.832 338.674 -84.099 333.99 -79.366 329.307 -73.245 323.945 -70.497 322.074 -67.749 320.203 -64.297 317.97 -62.827 317.112 -60.373 315.68 -59.994 315.695 -58.22 317.301 -56.544 318.818 -56.127 318.857 -55.083 317.599 -54.42 316.801 -54.018 315.482 -54.189 314.668 -54.36 313.854 -53.409 312.021 -52.076 310.594 -50.742 309.167 -48.615 308 -47.349 308 -46.062 308 -44.4 308.992 -43.581 310.25 -42.775 311.487 -41.842 313.219 -41.509 314.098 -41.05 315.306 -43.289 317.108 -50.701 321.494 -56.091 324.683 -63.425 329.448 -67 332.082 -70.575 334.717 -76.425 339.811 -80 343.402 -83.575 346.994 -86.95 350.746 -87.5 351.741 -88.05 352.736 -89.451 355.147 -90.613 357.099 -91.774 359.051 -93.307 362.919 -94.018 365.695 -94.834 368.877 -95.092 373.363 -94.717 377.839 -94.389 381.743 -93.204 387.012 -92.082 389.548 -90.96 392.084 -88.657 395.908 -86.964 398.046 -84.758 400.83 -83.831 403.137 -83.693 406.179 -83.55 409.321 -83.904 410.51 -85.054 410.749 Z M163.814 406.833 C163.366 407.017 163 406.562 163 405.823 163 405.084 164.112 403.281 165.47 401.816 166.829 400.351 168.735 397.318 169.706 395.076 170.677 392.834 171.816 391 172.236 391 172.656 391 173 392.82 173 395.045 173 398.04 172.375 399.664 170.595 401.295 169.273 402.508 167.389 404.175 166.41 405 165.43 405.825 164.262 406.65 163.814 406.833 Z M313.903 404 C314.507 404 315 402.711 315 401.135 315 399.559 316.002 396.972 317.227 395.385 318.451 393.798 320.139 391.961 320.977 391.303 321.814 390.645 324.525 389.46 327 388.67 329.475 387.88 334.2 386.481 337.5 385.562 340.8 384.643 344.85 383.526 346.5 383.08 348.15 382.635 351.3 381.801 353.5 381.227 355.7 380.654 360.227 379.693 363.56 379.092 366.893 378.491 375.529 378 382.751 378 390.426 378 396.139 378.415 396.5 379 396.84 379.55 398.19 380 399.5 380 400.81 380 402.121 379.614 402.412 379.142 402.704 378.67 401.043 376.232 398.721 373.724 396.4 371.216 392.925 368.489 391 367.664 389.075 366.84 384.35 365.7 380.5 365.132 376.65 364.565 369.9 363.625 365.5 363.043 361.1 362.462 354.152 361.99 350.06 361.993 345.968 361.997 339.893 362.501 336.56 363.112 333.227 363.724 329.15 364.93 327.5 365.791 325.85 366.653 323.661 368.29 322.636 369.429 321.61 370.568 320.324 372.625 319.778 374 319.232 375.375 318.383 377.281 317.892 378.236 317.402 379.191 317 380.66 317 381.5 317 382.34 316.57 383.809 316.045 384.764 315.519 385.719 314.82 388.3 314.491 390.5 314.162 392.7 313.649 396.638 313.35 399.25 312.995 402.359 313.186 404 313.903 404 Z M341.75 400.106 C342.713 399.605 345.3 398.722 347.5 398.145 349.7 397.567 352.85 396.778 354.5 396.391 356.15 396.004 360.875 395.698 365 395.712 369.125 395.725 374.075 396.065 376 396.468 377.925 396.871 381.3 397.794 383.5 398.519 385.7 399.245 388.287 400.148 389.25 400.526 390.433 400.991 391 400.74 391 399.749 391 398.943 388.708 397.095 385.908 395.642 383.107 394.189 379.726 393 378.394 393 377.062 393 375.164 392.495 374.175 391.877 373.086 391.197 370.626 391.009 367.938 391.402 365.497 391.758 360.8 392.378 357.5 392.78 354.2 393.182 348.912 394.779 345.75 396.329 342.588 397.879 340 399.568 340 400.082 340 400.653 340.682 400.662 341.75 400.106 Z M663.458 346.995 C662.885 346.998 660.41 344.942 657.958 342.426 655.506 339.91 651.321 336.197 648.657 334.176 645.993 332.154 642.79 329.825 641.537 329 640.285 328.175 636.614 325.898 633.38 323.941 630.146 321.983 622.55 317.938 616.5 314.951 610.45 311.965 604.428 309.202 603.117 308.811 601.807 308.421 599.332 307.468 597.617 306.693 595.903 305.918 592.7 304.605 590.5 303.774 588.3 302.943 584.7 301.665 582.5 300.933 580.3 300.201 577.899 299.075 577.165 298.43 576.078 297.476 576.358 296.887 578.665 295.27 580.224 294.176 583.182 292.494 585.237 291.533 588.965 289.789 588.996 289.793 597.237 293.15 601.782 295.001 611.575 299.526 619 303.206 626.425 306.885 637 312.891 642.5 316.552 648 320.214 655.78 326.143 659.789 329.729 663.798 333.315 667.792 337.63 668.665 339.318 670.216 342.319 670.187 342.439 667.376 344.689 665.794 345.954 664.031 346.992 663.458 346.995 Z M-23.671 308.395 C-25.392 308.942 -26.402 308.339 -28.605 305.451 -30.752 302.636 -31.141 301.445 -30.334 300.159 -29.76 299.247 -27.088 297.639 -24.396 296.586 -21.703 295.534 -17.599 293.812 -15.275 292.759 -12.952 291.707 -8.677 289.959 -5.775 288.875 -2.874 287.79 1.3 286.215 3.5 285.375 5.7 284.534 8.625 283.54 10 283.166 11.375 282.792 16.55 281.211 21.5 279.652 26.45 278.094 32.859 276.175 35.743 275.389 38.627 274.603 43.577 273.252 46.743 272.387 49.909 271.521 54.525 270.178 57 269.402 59.475 268.625 62.458 267.992 63.628 267.995 64.798 267.998 67.371 267.325 69.346 266.5 71.32 265.675 74.458 265 76.319 265 78.179 265 81.094 264.514 82.796 263.921 84.499 263.328 88.278 262.465 91.196 262.005 94.113 261.544 100.438 260.454 105.25 259.583 110.062 258.712 118.162 257.3 123.25 256.446 128.337 255.591 137.675 254.217 144 253.391 150.325 252.566 161.125 251.249 168 250.465 174.875 249.681 186.356 248.615 193.513 248.097 200.67 247.579 213.045 246.557 221.013 245.827 230.941 244.918 252.652 244.5 290 244.5 327.202 244.5 348.785 244.913 358 245.803 365.425 246.519 377.575 247.51 385 248.004 392.425 248.498 403.45 249.392 409.5 249.99 415.55 250.588 422.75 251.529 425.5 252.082 428.25 252.634 434.325 253.516 439 254.042 443.675 254.568 450.65 255.434 454.5 255.966 458.35 256.498 465.325 257.631 470 258.482 474.675 259.334 480.975 260.503 484 261.08 487.025 261.656 492.081 262.774 495.235 263.564 498.389 264.354 502.341 265 504.017 265 505.693 265 508.68 265.675 510.654 266.5 512.629 267.325 515.034 268 516 268 516.965 268 518.344 268.709 519.064 269.577 520.155 270.892 520.063 271.728 518.508 274.614 517.483 276.517 515.215 278.753 513.468 279.582 510.659 280.915 509.611 280.92 504.396 279.625 501.153 278.82 496.16 277.639 493.301 277.001 490.442 276.363 485.602 275.441 482.547 274.951 479.492 274.462 472.831 273.377 467.746 272.541 462.661 271.706 453.325 270.315 447 269.451 440.675 268.586 430.1 267.226 423.5 266.428 416.9 265.63 404.075 264.331 395 263.541 385.925 262.752 370.175 261.641 360 261.073 349.825 260.505 329.606 259.57 315.07 258.995 300.533 258.42 282.197 258.207 274.322 258.52 266.447 258.834 249.091 259.511 235.752 260.026 222.413 260.54 206.55 261.428 200.5 261.998 194.45 262.569 184.775 263.492 179 264.05 173.225 264.609 164 265.474 158.5 265.974 153 266.473 145.35 267.345 141.5 267.91 137.65 268.476 130.9 269.455 126.5 270.085 122.1 270.716 114.675 271.866 110 272.643 105.325 273.419 98.804 274.455 95.509 274.946 92.214 275.437 87.939 276.292 86.009 276.847 84.079 277.401 79.8 278.352 76.5 278.96 73.2 279.568 68.475 280.47 66 280.966 63.525 281.461 55.875 283.279 49 285.006 42.125 286.732 31.1 289.738 24.5 291.684 17.9 293.631 7.1 296.993 0.5 299.156 -6.1 301.319 -13.075 303.81 -15 304.691 -16.925 305.573 -19.176 306.612 -20.003 307.001 -20.83 307.39 -22.48 308.018 -23.671 308.395 Z M567.257 294.442 C564.712 294.76 559.953 293.807 552.5 291.49 546.45 289.608 539.654 287.367 537.398 286.508 534.38 285.36 532.291 283.487 529.489 279.419 526.031 274.399 525.825 273.746 527.248 272.323 528.671 270.9 529.33 270.907 534.401 272.398 537.474 273.301 542.578 274.753 545.744 275.624 548.91 276.495 552.85 277.656 554.5 278.204 556.15 278.752 559.055 279.579 560.956 280.042 562.856 280.504 565.331 281.298 566.456 281.807 567.58 282.315 571.2 283.628 574.5 284.725 577.961 285.874 580.5 287.301 580.5 288.094 580.5 288.851 578.365 290.484 575.757 291.722 573.148 292.961 569.323 294.185 567.257 294.442 Z M155.772 237.805 C154.9 237.973 153.949 237.727 153.659 237.258 153.369 236.788 153.545 235.751 154.051 234.952 154.556 234.154 154.976 232.256 154.985 230.736 154.993 229.216 155.462 227.191 156.027 226.236 156.591 225.281 157.454 222.475 157.944 220 158.435 217.525 159.361 213.7 160.003 211.5 160.645 209.3 161.785 205.25 162.537 202.5 163.289 199.75 164.615 194.8 165.485 191.5 166.354 188.2 167.49 184.148 168.008 182.496 168.527 180.844 169.224 177.919 169.557 175.996 169.89 174.073 170.549 171.6 171.023 170.5 171.496 169.4 172.331 166.475 172.879 164 173.427 161.525 174.37 157.475 174.976 155 175.581 152.525 176.74 148.59 177.551 146.255 178.362 143.92 179.25 141.445 179.524 140.755 179.798 140.065 180.805 138.323 181.761 136.885 182.717 135.447 184.763 132.214 186.307 129.7 187.851 127.186 190.785 123.62 192.827 121.776 195.466 119.391 198.557 117.916 203.52 116.673 207.359 115.711 211.85 114.507 213.5 113.997 215.15 113.488 222.575 112.19 230 111.114 237.425 110.039 250.677 108.672 259.448 108.078 269.022 107.429 275.761 107.361 276.306 107.906 276.852 108.452 276.758 110.203 276.07 112.287 275.44 114.196 274.118 116.488 273.133 117.38 271.786 118.598 267.849 119.236 257.294 119.946 249.568 120.465 239.254 121.385 234.374 121.989 229.493 122.593 222.125 123.776 218 124.619 213.875 125.461 208.025 126.836 205 127.675 201.975 128.513 198.746 129.588 197.824 130.062 196.902 130.537 195.022 131.207 193.647 131.552 192.272 131.898 190.538 132.927 189.794 133.84 189.049 134.753 187.852 137.075 187.132 139 186.413 140.925 185.432 143.85 184.953 145.5 184.474 147.15 183.4 150.75 182.566 153.5 181.732 156.25 180.528 160.525 179.892 163 179.255 165.475 178.317 168.42 177.808 169.544 177.299 170.669 176.493 173.144 176.017 175.044 175.541 176.945 174.655 180.3 174.048 182.5 173.44 184.7 172.561 187.192 172.095 188.038 171.629 188.885 170.924 191.487 170.53 193.823 170.135 196.158 169.249 199.29 168.559 200.784 167.87 202.278 166.734 205.525 166.036 208 165.337 210.475 164.157 214.525 163.413 217 162.669 219.475 161.002 225.1 159.709 229.5 158.178 234.712 156.806 237.606 155.772 237.805 Z M426.888 236.541 C425.685 237.744 425.111 237.784 423.812 236.76 422.933 236.067 421.074 231.675 419.68 227 418.286 222.325 415.994 215.125 414.587 211 413.179 206.875 410.259 197.975 408.097 191.223 405.935 184.47 402.531 173.79 400.533 167.489 398.535 161.188 395.286 151.028 393.312 144.911 391.338 138.794 388.773 132.76 387.611 131.503 386.45 130.246 383.475 128.69 381 128.046 378.525 127.401 373.35 126.228 369.5 125.439 365.65 124.65 359.125 123.551 355 122.996 350.875 122.441 343.45 121.537 338.5 120.988 333.55 120.439 318.25 119.71 304.5 119.368 290.75 119.026 279.126 118.407 278.669 117.992 278.212 117.577 278.742 115.467 279.846 113.302 280.95 111.137 282.559 108.781 283.421 108.066 284.635 107.058 288.654 106.901 301.244 107.37 310.185 107.703 323.35 108.387 330.5 108.889 337.65 109.392 348 110.521 353.5 111.399 359 112.277 365.075 113.399 367 113.892 368.925 114.386 374.527 116.019 379.449 117.522 384.371 119.024 390.221 121.275 392.449 122.523 395.331 124.137 396.649 125.616 397.017 127.646 397.302 129.216 398.283 132.169 399.198 134.208 400.114 136.247 401.619 140.747 402.544 144.208 403.469 147.669 404.6 152.075 405.058 154 405.516 155.925 406.599 160.085 407.465 163.245 408.331 166.405 409.739 171.581 410.594 174.745 411.45 177.91 412.509 182.075 412.948 184 413.386 185.925 414.744 190.875 415.965 195 417.186 199.125 418.59 204.525 419.086 207 419.581 209.475 420.407 212.4 420.922 213.5 421.435 214.6 422.148 217.3 422.506 219.5 422.863 221.7 423.571 223.927 424.078 224.45 424.585 224.972 425 226.737 425 228.371 425 230.005 425.757 232.179 426.683 233.202 428.169 234.844 428.193 235.236 426.888 236.541 Z" fill="#000000" fill-opacity="1" stroke="none"/>
</svg>
