<?xml version="1.0" standalone="no"?>
<!DOCTYPE svg PUBLIC "-//W3C//DTD SVG 20010904//EN"
 "http://www.w3.org/TR/2001/REC-SVG-20010904/DTD/svg10.dtd">
<svg version="1.0" xmlns="http://www.w3.org/2000/svg"
 width="512.000000pt" height="512.000000pt" viewBox="0 0 512.000000 512.000000"
 preserveAspectRatio="xMidYMid meet">

<g transform="translate(0.000000,512.000000) scale(0.100000,-0.100000)"
fill="#000000" stroke="none">
<path d="M2489 4969 c-6 -12 -19 -44 -29 -72 -10 -29 -40 -106 -66 -172 -26
-66 -64 -165 -84 -220 -86 -228 -119 -312 -138 -355 -40 -93 -39 -102 19 -167
28 -32 59 -64 67 -70 12 -10 89 -13 306 -13 160 0 296 4 302 8 6 4 35 34 63
67 65 74 65 68 -20 302 -62 169 -109 302 -192 535 -63 179 -62 178 -147 178
-60 0 -71 -3 -81 -21z m131 -754 c40 -21 70 -63 70 -99 0 -64 -63 -126 -127
-126 -42 0 -92 36 -109 77 -14 33 -14 40 1 80 28 73 99 102 165 68z"/>
<path d="M3422 4022 l-733 -346 3 -85 c3 -84 3 -85 32 -92 17 -5 32 -6 35 -3
3 2 7 33 9 67 l4 62 685 322 685 322 37 -34 c20 -18 43 -45 50 -59 15 -27 44
40 -323 -750 l-176 -379 22 -24 c42 -45 14 -95 325 577 86 184 180 388 209
454 l54 119 -29 36 c-16 20 -58 64 -93 97 l-63 61 -733 -345z"/>
<path d="M872 4267 l-92 -92 272 -588 c175 -375 278 -587 287 -587 8 0 25 9
37 21 l22 20 -68 147 c-37 81 -154 331 -259 556 -105 224 -191 411 -191 415 0
4 24 30 53 58 l52 50 275 -129 c656 -309 940 -443 1012 -479 l76 -38 9 -63 c8
-62 9 -63 38 -60 38 4 45 16 45 73 0 92 -6 102 -78 139 -192 95 -1381 650
-1393 650 -3 0 -46 -42 -97 -93z"/>
<path d="M4075 4124 c-16 -8 -293 -138 -615 -288 l-585 -275 -3 -40 c-2 -27 1
-43 10 -46 7 -2 83 -29 168 -60 85 -31 163 -59 174 -62 17 -6 18 -2 12 40 -18
116 88 208 203 177 81 -21 131 -105 110 -182 -11 -44 -62 -106 -96 -119 -13
-5 -23 -12 -23 -17 0 -15 200 -143 212 -136 6 4 33 55 60 113 91 194 405 876
411 894 8 20 2 20 -38 1z"/>
<path d="M1010 4125 c0 -11 460 -999 469 -1008 7 -7 41 10 105 53 122 80 124
82 81 103 -19 9 -48 36 -66 59 -27 38 -30 49 -27 95 13 157 214 205 299 71 16
-27 19 -44 16 -90 -3 -32 -3 -58 0 -58 3 0 44 15 92 34 47 19 128 47 179 63
l93 28 -3 44 -3 45 -315 148 c-505 238 -896 418 -908 418 -7 0 -12 -2 -12 -5z"/>
<path d="M1659 3491 c-48 -49 -38 -125 21 -156 48 -25 88 -19 121 16 63 67 20
169 -71 169 -33 0 -48 -6 -71 -29z"/>
<path d="M3333 3502 c-51 -40 -52 -114 -1 -157 75 -63 188 9 158 101 -22 67
-106 97 -157 56z"/>
<path d="M2401 3369 c-98 -12 -248 -52 -317 -86 -196 -96 -387 -415 -394 -658
-3 -101 1 -170 10 -185 8 -12 15 -11 54 7 l44 22 7 88 c18 252 107 440 273
578 141 117 283 167 477 169 145 0 209 -15 351 -83 l100 -48 47 24 c52 26 55
33 30 55 -104 92 -426 147 -682 117z"/>
<path d="M1705 3084 c-173 -121 -189 -142 -221 -285 -24 -107 -25 -348 -1
-457 24 -111 54 -190 78 -202 16 -9 27 -4 64 32 l45 43 -20 73 c-43 160 -45
374 -7 517 20 70 73 194 106 247 41 65 53 88 44 88 -4 -1 -44 -26 -88 -56z"/>
<path d="M3496 2959 c-31 -33 -36 -46 -31 -67 45 -173 55 -322 34 -497 -15
-125 -63 -246 -147 -372 -19 -29 -32 -56 -29 -59 7 -7 187 114 229 154 113
105 141 613 45 811 -12 24 -31 51 -43 58 -19 12 -24 10 -58 -28z"/>
<path d="M985 2949 c-44 -17 -125 -45 -180 -64 -55 -19 -156 -55 -225 -80 -69
-25 -163 -59 -210 -75 -47 -16 -116 -42 -155 -58 -67 -27 -70 -30 -77 -68 -13
-71 -9 -113 10 -123 24 -13 319 -126 418 -161 45 -15 92 -33 105 -40 13 -7 68
-30 124 -50 55 -21 139 -52 187 -70 104 -39 127 -34 176 35 l31 44 -93 93
c-51 51 -112 106 -135 122 -47 32 -75 82 -65 120 3 14 47 64 97 113 121 117
187 186 187 193 0 13 -90 100 -102 100 -7 -1 -49 -15 -93 -31z"/>
<path d="M3989 2928 l-48 -52 98 -96 c53 -52 116 -112 139 -132 75 -68 67
-140 -24 -214 -26 -21 -85 -77 -130 -123 l-83 -83 26 -34 c14 -19 38 -43 53
-54 29 -21 15 -25 340 95 69 26 220 79 335 120 309 107 295 97 295 206 0 55
-1 56 -37 72 -69 29 -362 144 -573 224 -52 19 -138 52 -190 73 -151 59 -145
59 -201 -2z"/>
<path d="M3353 2680 l-43 -19 0 -58 c0 -95 -19 -223 -45 -296 -36 -104 -81
-173 -180 -272 -98 -99 -166 -141 -310 -191 -73 -26 -92 -28 -220 -28 -124 1
-149 4 -220 27 -44 15 -115 46 -157 71 l-78 44 -45 -29 c-25 -16 -45 -32 -45
-37 0 -4 25 -24 56 -45 101 -66 268 -106 479 -114 118 -4 156 -2 243 16 170
35 240 71 355 180 79 75 148 171 196 272 58 121 72 183 78 352 6 165 9 160
-64 127z"/>
<path d="M1326 2109 c-25 -40 -501 -1061 -527 -1132 l-13 -37 89 -90 c49 -50
94 -90 99 -90 11 0 1436 669 1454 683 8 6 12 38 12 93 l0 84 -40 0 -39 0 -3
-61 -3 -61 -678 -319 c-373 -175 -684 -319 -690 -319 -20 0 -97 83 -97 106 0
18 102 242 470 1031 l38 81 -28 27 -28 27 -16 -23z"/>
<path d="M3753 2088 l-21 -23 258 -550 258 -550 -54 -54 -53 -54 -68 30 c-100
45 -1147 540 -1225 579 -70 35 -70 35 -83 117 -5 29 -10 37 -21 33 -9 -3 -24
-6 -35 -6 -17 0 -19 -8 -19 -80 l0 -80 88 -44 c101 -51 848 -403 1161 -547
l214 -99 26 22 c70 60 161 154 161 165 0 12 -212 473 -427 928 -64 135 -115
231 -124 233 -8 1 -24 -8 -36 -20z"/>
<path d="M1469 1988 c-34 -63 -467 -1003 -464 -1006 4 -4 299 132 945 436 284
134 294 139 303 172 11 44 2 51 -108 85 -49 15 -127 42 -172 60 l-83 33 0 -51
c0 -127 -113 -208 -223 -159 -63 28 -92 73 -92 144 0 48 5 62 31 95 16 21 44
45 62 53 17 8 31 17 31 20 0 5 -193 132 -209 138 -5 2 -14 -7 -21 -20z"/>
<path d="M3545 1940 c-49 -33 -94 -62 -100 -63 -5 -2 14 -25 42 -51 88 -79 93
-168 14 -239 -69 -63 -162 -57 -226 15 -35 38 -40 58 -36 127 3 29 0 33 -16
28 -10 -3 -92 -33 -183 -65 l-165 -60 -3 -35 -3 -34 621 -292 c342 -161 624
-290 627 -288 9 9 -456 1009 -472 1014 -6 1 -50 -24 -100 -57z"/>
<path d="M1659 1771 c-60 -61 -19 -171 65 -171 57 0 97 35 111 98 6 28 2 37
-28 67 -47 47 -104 49 -148 6z"/>
<path d="M3345 1788 c-98 -56 -43 -206 67 -184 52 10 78 42 78 96 0 38 -5 53
-26 74 -29 28 -82 35 -119 14z"/>
<path d="M2203 1155 c-35 -36 -63 -69 -63 -73 0 -17 41 -146 85 -267 52 -143
98 -273 168 -470 61 -173 73 -201 92 -209 30 -11 132 -7 143 7 11 13 13 18
126 312 43 110 88 227 101 260 72 185 124 324 130 347 6 23 -2 35 -58 92 l-65
66 -298 0 -299 0 -62 -65z m435 -59 c32 -30 37 -41 37 -78 0 -91 -83 -149
-160 -112 -41 19 -75 66 -75 102 0 37 27 86 58 104 46 29 97 23 140 -16z"/>
</g>
</svg>
