<?xml version="1.0" standalone="no"?>
<!DOCTYPE svg PUBLIC "-//W3C//DTD SVG 20010904//EN"
 "http://www.w3.org/TR/2001/REC-SVG-20010904/DTD/svg10.dtd">
<svg version="1.0" xmlns="http://www.w3.org/2000/svg"
 width="331.000000pt" height="331.000000pt" viewBox="0 0 331.000000 331.000000"
 preserveAspectRatio="xMidYMid meet">

<g transform="translate(0.000000,331.000000) scale(0.100000,-0.100000)"
fill="#000000" stroke="none">
<path d="M1520 3164 c-93 -12 -254 -46 -320 -69 l-74 -25 -37 36 -37 36 -94
-44 c-350 -168 -644 -475 -792 -830 -64 -153 -63 -150 -15 -192 l41 -35 -16
-71 c-62 -273 -34 -627 72 -890 l30 -75 -60 -38 c-33 -21 -58 -40 -56 -42 1
-1 82 -30 179 -63 l177 -61 6 82 c3 45 8 131 12 191 l7 109 -59 -41 -59 -42
-22 49 c-30 67 -69 218 -84 320 -15 104 -6 358 15 455 40 180 103 330 201 477
147 221 357 397 596 501 270 116 595 142 879 70 l115 -30 52 57 c29 31 52 59
53 62 0 10 -161 58 -265 79 -97 20 -364 34 -445 24z"/>
<path d="M2790 2482 c0 -27 -3 -111 -7 -187 l-6 -137 60 41 c33 22 63 41 66
41 11 0 70 -156 92 -244 99 -392 28 -795 -199 -1126 -80 -116 -244 -277 -363
-354 -243 -159 -472 -227 -758 -227 -165 0 -267 14 -408 58 l-90 27 -59 -64
c-32 -35 -55 -67 -51 -71 13 -13 214 -77 293 -93 253 -51 558 -34 786 44 l57
20 38 -35 c22 -19 42 -35 45 -35 4 0 59 27 123 60 358 185 646 514 777 887
l29 82 -33 34 -33 34 23 114 c31 161 32 416 0 574 -23 116 -62 240 -106 339
-14 32 -26 61 -26 65 0 4 25 22 55 40 30 18 55 36 55 40 0 7 -328 121 -347
121 -9 0 -13 -16 -13 -48z"/>
<path d="M1250 2441 c-87 -27 -140 -92 -140 -174 0 -111 75 -187 185 -187 88
0 155 54 174 141 23 102 -31 190 -134 218 -45 12 -50 12 -85 2z m95 -126 c42
-41 30 -102 -24 -125 -38 -15 -80 3 -99 43 -36 76 64 142 123 82z"/>
<path d="M1266 2295 c-24 -24 -20 -54 10 -67 23 -11 29 -10 45 11 17 21 18 26
6 45 -18 27 -40 31 -61 11z"/>
<path d="M1975 2441 c-45 -11 -69 -26 -103 -65 -75 -85 -45 -224 59 -279 53
-28 146 -20 194 17 130 99 77 304 -85 329 -19 3 -48 2 -65 -2z m92 -123 c52
-49 8 -147 -60 -134 -67 13 -92 95 -41 135 34 27 72 27 101 -1z"/>
<path d="M1990 2292 c-38 -31 -4 -84 43 -66 25 9 31 43 11 65 -21 23 -26 24
-54 1z"/>
<path d="M1220 1829 c-32 -13 -78 -56 -96 -91 -8 -15 -14 -51 -14 -81 0 -105
78 -181 185 -181 63 0 109 25 148 80 23 33 28 51 28 97 0 75 -24 123 -80 158
-48 31 -120 38 -171 18z m133 -120 c25 -30 22 -75 -8 -104 -33 -34 -70 -32
-107 5 -36 36 -33 71 9 108 31 28 78 24 106 -9z"/>
<path d="M1262 1688 c-27 -27 -6 -68 35 -68 28 0 46 36 31 63 -10 20 -48 23
-66 5z"/>
<path d="M1935 1824 c-96 -50 -131 -155 -84 -251 35 -72 129 -114 208 -93 77
20 140 100 141 178 0 37 -23 97 -48 125 -48 53 -155 73 -217 41z m138 -116
c26 -31 22 -82 -9 -107 -15 -12 -37 -21 -49 -21 -12 0 -34 9 -49 21 -28 22
-35 64 -15 100 22 42 89 46 122 7z"/>
<path d="M1982 1688 c-27 -27 -6 -68 35 -68 29 0 48 33 33 60 -12 22 -49 27
-68 8z"/>
<path d="M1215 1216 c-66 -30 -105 -94 -105 -173 0 -182 234 -247 337 -94 27
40 32 135 9 179 -19 36 -65 78 -99 91 -38 15 -106 13 -142 -3z m108 -98 c52
-27 62 -83 22 -123 -41 -42 -102 -30 -125 24 -15 37 2 79 40 98 31 16 36 16
63 1z"/>
<path d="M1262 1078 c-29 -29 -3 -72 40 -66 19 2 23 9 23 38 0 30 -4 35 -25
38 -14 2 -31 -3 -38 -10z"/>
<path d="M1940 1214 c-45 -20 -68 -41 -91 -86 -56 -110 14 -244 138 -264 114
-18 226 92 210 207 -16 118 -146 191 -257 143z m109 -99 c32 -16 41 -33 41
-75 0 -34 -40 -70 -78 -70 -76 0 -99 121 -29 150 31 12 34 12 66 -5z"/>
<path d="M1982 1078 c-27 -27 -6 -68 35 -68 29 0 48 33 33 60 -12 22 -49 27
-68 8z"/>
</g>
</svg>
