<?xml version="1.0" encoding="UTF-8"?>
<svg width="418px" height="418px" viewBox="0 0 418 418" xmlns="http://www.w3.org/2000/svg" xmlns:xlink="http://www.w3.org/1999/xlink" version="1.1">
 <!-- Generated by Pixelmator Pro 2.1.2 -->
 <path id="Shape" d="M213.5 417.647 C209.65 417.869 205.825 417.596 205 417.041 204.175 416.485 202.023 416.024 200.217 416.015 198.411 416.007 194.586 414.812 191.717 413.359 188.848 411.907 185.773 409.883 184.884 408.86 183.995 407.838 180.587 406.146 177.312 405.1 174.036 404.053 166.703 400.862 161.017 398.008 155.33 395.154 150.113 392.256 149.423 391.566 148.734 390.877 146.762 389.73 145.04 389.017 142.625 388.016 141.332 387.983 139.38 388.873 137.989 389.507 136.342 389.712 135.722 389.328 135.102 388.945 131.804 385.841 128.394 382.431 124.984 379.021 121.633 375.167 120.947 373.866 120.262 372.564 119.375 371.275 118.978 371 118.58 370.725 116.551 367.125 114.468 363 112.386 358.875 109.806 353.25 108.736 350.5 107.666 347.75 106.103 343.7 105.263 341.5 104.422 339.3 103.316 335.7 102.805 333.5 102.293 331.3 101.421 327.25 100.865 324.5 100.31 321.75 99.622 317.138 99.336 314.25 98.926 310.118 99.12 309 100.247 309 101.035 309 102.254 310.237 102.958 311.75 103.661 313.263 104.675 315.85 105.211 317.5 105.747 319.15 106.622 322.3 107.155 324.5 107.687 326.7 108.379 329.85 108.691 331.5 109.003 333.15 109.934 335.828 110.759 337.451 111.584 339.074 112.773 340.916 113.4 341.543 114.028 342.171 115.657 343.273 117.021 343.992 118.384 344.711 119.725 345.615 120 346 120.275 346.385 121.616 347.289 122.979 348.008 124.343 348.727 125.959 349.817 126.571 350.429 127.183 351.041 128.273 352.657 128.992 354.021 129.711 355.384 130.626 356.725 131.025 357 131.424 357.275 134.08 362.151 136.927 367.835 139.774 373.52 143.589 379.656 145.404 381.471 147.22 383.287 149.784 385.341 151.103 386.036 152.421 386.731 153.735 387.656 154.023 388.091 154.31 388.526 159.557 390.543 165.682 392.572 172.685 394.893 177.721 396.036 179.248 395.653 180.843 395.252 182.317 393.624 183.54 390.912 184.564 388.639 186.6 385.499 188.063 383.933 189.525 382.367 192.697 380.398 195.111 379.557 198.213 378.477 203.526 378.025 213.228 378.015 226.049 378.001 227.311 378.174 232.33 380.636 237.077 382.964 238.072 384.016 240.843 389.636 243.271 394.56 244.477 396 246.17 396 247.373 396 249.74 395.581 251.429 395.068 253.118 394.555 256.525 393.574 259 392.887 261.475 392.201 265.718 390.547 268.429 389.212 271.14 387.877 273.955 386.188 274.685 385.458 275.415 384.728 276.886 383.854 277.955 383.514 279.023 383.175 280.175 382.023 280.514 380.955 280.854 379.886 281.736 378.407 282.475 377.668 283.215 376.928 286.128 371.723 288.95 366.1 292.529 358.968 295.706 354.251 299.454 350.502 302.41 347.547 306.602 344.223 308.771 343.117 311.288 341.833 313.127 340.001 313.857 338.053 314.486 336.374 315.415 333.763 315.921 332.25 316.428 330.737 317.123 328.15 317.466 326.5 317.809 324.85 318.445 321.925 318.879 320 319.314 318.075 320.668 314.558 321.888 312.185 323.109 309.811 324.646 308.046 325.304 308.263 325.962 308.479 326.643 309.63 326.818 310.819 326.993 312.008 326.686 314.447 326.136 316.24 325.586 318.033 324.655 321.413 324.068 323.75 323.48 326.087 322.55 329.8 321.999 332 321.449 334.2 319.896 339.564 318.548 343.92 317.201 348.277 313.766 356.489 310.915 362.17 308.064 367.85 304.963 373.173 304.023 373.999 303.083 374.825 301.736 376.591 301.029 377.923 300.322 379.256 298.755 381.336 297.545 382.545 296.336 383.755 294.266 385.323 292.944 386.03 291.623 386.737 289.911 387.946 289.142 388.715 288.343 389.515 287.047 389.814 286.121 389.413 285.229 389.027 283.825 388.696 283 388.678 282.175 388.66 274.525 392.176 266 396.492 257.475 400.808 248.705 404.972 246.511 405.747 244.317 406.521 242.292 407.512 242.011 407.948 241.73 408.385 238.575 410.223 235 412.033 231.425 413.843 226.7 415.756 224.5 416.284 222.3 416.812 217.35 417.425 213.5 417.647 Z M175.179 389.9 C173.705 389.845 170.025 388.922 167 387.849 163.975 386.775 159.319 384.923 156.654 383.733 153.989 382.542 151.015 380.878 150.045 380.034 149.075 379.19 147.014 376.025 145.466 373 143.917 369.975 142.019 365.705 141.248 363.511 140.476 361.317 139.491 359.292 139.057 359.011 138.623 358.73 137.256 356.503 136.018 354.063 134.781 351.622 133.175 349.032 132.45 348.307 131.724 347.582 130.873 346.176 130.558 345.184 130.243 344.191 126.893 341.883 123.114 340.055 117.831 337.499 115.867 335.945 114.621 333.331 113.729 331.462 112.993 328.71 112.985 327.216 112.977 325.722 112.29 322.546 111.458 320.157 110.626 317.768 108.983 313.943 107.807 311.657 106.631 309.371 105.349 305.925 104.959 304 104.568 302.075 101.887 293.525 99 285 96.113 276.475 93.311 267.7 92.773 265.5 92.235 263.3 91.576 259.17 91.309 256.321 90.844 251.363 90.952 251.076 93.862 249.571 95.762 248.589 99.449 248.005 103.7 248.015 107.44 248.023 112.52 248.732 114.989 249.592 117.458 250.451 119.813 251.682 120.223 252.327 120.634 252.972 120.976 254.717 120.985 256.205 120.993 257.753 122.088 259.997 123.545 261.455 125.032 262.941 127.216 263.994 128.795 263.985 130.283 263.976 132 263.639 132.61 263.235 133.221 262.831 134.459 261.06 135.36 259.3 136.262 257.539 136.993 255.064 136.985 253.8 136.976 252.535 136.639 250.994 136.235 250.376 135.831 249.758 131.675 247.323 127 244.966 122.325 242.608 116.7 240.265 114.5 239.758 112.3 239.252 108.754 238.596 106.621 238.301 104.487 238.006 101.04 238.327 98.96 239.013 96.88 239.7 94.086 239.987 92.75 239.652 91.167 239.255 89.779 237.732 88.756 235.271 87.894 233.197 86.626 229.999 85.938 228.165 85.25 226.33 84.078 224.221 83.334 223.477 82.59 222.733 81.648 221.232 81.241 220.142 80.833 219.052 79.419 217.224 78.097 216.08 76.775 214.936 74.482 214 73 214 71.518 214 69.341 214.837 68.161 215.86 66.981 216.884 65.297 219.947 64.418 222.667 63.321 226.066 62.968 229.787 63.293 234.557 63.552 238.376 64.282 243.525 64.915 246 65.547 248.475 66.163 251.158 66.282 251.962 66.402 252.766 65.752 253.579 64.837 253.768 63.923 253.958 59.909 252.469 55.918 250.459 51.927 248.449 48.134 246.277 47.489 245.632 46.844 244.987 45.724 243.352 45 242 44.276 240.648 43.193 239.045 42.592 238.439 41.991 237.833 40.92 235.124 40.21 232.419 39.501 229.713 38.488 226.118 37.96 224.429 37.432 222.74 37 218.459 37 214.915 37 211.097 37.756 206.44 38.855 203.486 39.876 200.744 41.719 196.459 42.95 193.965 44.886 190.044 45.1 188.487 44.528 182.465 44.164 178.634 43.851 170.775 43.833 165 43.815 159.225 44.255 151.35 44.812 147.5 45.37 143.65 46.264 138.7 46.801 136.5 47.338 134.3 48.682 129.771 49.787 126.436 50.893 123.102 54.602 114.778 58.03 107.94 61.458 101.102 65.033 94.83 65.974 94.003 66.916 93.177 68.207 91.517 68.843 90.316 69.479 89.114 70 87.643 70 87.047 70 86.389 69.016 86.209 67.5 86.589 65.119 87.187 65 87.009 65 82.844 65 80.439 65.828 76.228 66.841 73.486 67.854 70.744 70.348 65.209 72.385 61.187 74.766 56.485 78.351 51.612 82.429 47.534 85.916 44.047 89.833 40.63 91.134 39.94 92.436 39.25 94.196 37.893 95.048 36.923 95.899 35.954 98.374 34.4 100.548 33.47 102.721 32.54 106.909 30.686 109.854 29.349 112.799 28.013 117.318 24.753 119.897 22.106 122.476 19.458 125.682 16.705 127.022 15.988 128.362 15.271 129.992 14.151 130.644 13.499 131.296 12.847 133.218 11.793 134.915 11.157 136.612 10.52 139.238 9.58 140.75 9.066 142.262 8.552 145.3 7.844 147.5 7.491 149.7 7.139 153.075 6.87 155 6.895 156.925 6.92 161.155 7.224 164.399 7.571 169.136 8.078 171.204 7.799 174.899 6.155 177.43 5.029 182.23 3.184 185.567 2.054 190.388 0.422 194.16 0 203.948 0 215.093 0 217.114 0.292 225.232 3.08 232.447 5.557 234.719 5.961 236.851 5.146 238.308 4.588 241.3 3.837 243.5 3.477 245.7 3.117 251.55 2.601 256.5 2.33 264.028 1.918 266.645 2.208 272.5 4.104 276.35 5.351 281.677 7.44 284.337 8.747 286.998 10.053 291.113 13.06 293.482 15.429 295.85 17.797 298.343 20.773 299.022 22.041 299.701 23.309 301.263 25.354 302.494 26.585 303.724 27.815 306.704 29.827 309.116 31.055 311.527 32.282 314.175 34.052 315 34.986 315.825 35.921 317.625 37.277 319 38 320.375 38.723 322.175 40.073 323 41 323.825 41.927 325.558 43.247 326.851 43.932 328.144 44.617 333.864 49.841 339.564 55.54 347.51 63.487 350.787 67.604 353.622 73.201 355.655 77.216 358.146 82.744 359.159 85.486 360.172 88.228 361 92.021 361 93.915 361 95.809 361.419 98.74 361.932 100.429 362.445 102.118 363.38 105.525 364.011 108 364.642 110.475 366.106 115.65 367.265 119.5 368.424 123.35 370.555 128.975 372 132 373.445 135.025 375.576 140.65 376.735 144.5 377.894 148.35 379.356 153.3 379.983 155.5 380.722 158.091 380.972 165.486 380.693 176.5 380.456 185.85 379.781 195.75 379.194 198.5 378.606 201.25 377.72 205.3 377.225 207.5 376.73 209.7 374.867 214.367 373.087 217.871 371.306 221.375 368.804 225.287 367.527 226.564 366.25 227.841 364.968 229.474 364.678 230.193 364.264 231.223 363.923 231.182 363.067 230 362.471 229.175 361.698 227.375 361.351 226 361.004 224.625 360.062 222.196 359.258 220.603 358.454 219.009 356.727 216.636 355.421 215.33 354.115 214.024 352.386 212.702 351.579 212.392 350.773 212.083 349.256 212.101 348.208 212.434 347.161 212.766 345.776 214.196 345.131 215.611 344.487 217.026 343.406 218.738 342.73 219.416 342.053 220.094 340.492 222.865 339.259 225.574 338.019 228.3 336.903 232.957 336.759 236 336.56 240.225 336.152 241.45 335 241.282 334.175 241.163 331.475 240.573 329 239.971 326.525 239.369 323.219 238.622 321.652 238.311 320.086 237.999 317.161 238.217 315.152 238.794 313.144 239.372 309.194 240.519 306.375 241.345 303.556 242.17 298.493 244.237 295.125 245.937 289 249.029 289 249.029 289 253.861 289 257.203 289.596 259.382 290.933 260.923 291.997 262.149 293.744 263.382 294.817 263.662 295.889 263.943 298.169 263.447 299.883 262.56 302.52 261.197 303.002 260.375 303.015 257.224 303.024 255.176 303.366 252.972 303.777 252.327 304.187 251.682 306.542 250.451 309.011 249.592 311.48 248.732 316.425 248.029 320 248.03 323.575 248.03 328.3 248.667 330.5 249.444 332.725 250.231 334.403 251.445 334.282 252.179 334.163 252.906 333.655 255.3 333.154 257.5 332.654 259.7 330.327 267.125 327.983 274 325.64 280.875 323.316 288.75 322.82 291.5 322.323 294.25 321.681 298.075 321.392 300 321.104 301.925 320.377 304.776 319.777 306.335 319.178 307.895 318.051 309.806 317.274 310.583 316.497 311.36 315.401 313.459 314.838 315.248 314.275 317.036 313.378 320.3 312.845 322.5 312.313 324.7 311.621 327.85 311.309 329.5 310.997 331.15 310.113 333.737 309.345 335.25 308.559 336.797 307.116 338 306.046 338 304.999 338 303.539 338.604 302.801 339.342 302.063 340.08 300.352 341.276 299 342 297.648 342.724 296.041 343.817 295.429 344.429 294.817 345.041 293.727 346.657 293.008 348.021 292.289 349.384 291.385 350.725 291 351 290.615 351.275 289.711 352.616 288.992 353.979 288.273 355.343 287.151 356.992 286.499 357.644 285.847 358.296 284.759 360.33 284.083 362.165 283.406 363.999 281.755 367.882 280.415 370.794 279.075 373.706 276.463 377.603 274.611 379.455 272.76 381.307 269.952 383.457 268.372 384.233 266.792 385.01 263.475 386.205 261 386.89 258.525 387.575 255.118 388.555 253.429 389.068 251.74 389.581 249.387 390 248.199 390 246.676 390 245.42 388.783 243.931 385.866 242.771 383.592 240.804 380.713 239.558 379.468 238.313 378.222 235.991 376.563 234.397 375.78 232.804 374.996 229.587 373.825 227.25 373.178 224.913 372.53 221.272 371.502 219.16 370.893 217.048 370.284 213.11 370.015 210.41 370.296 207.709 370.577 203.7 371.233 201.5 371.754 199.3 372.274 194.494 374.198 190.821 376.03 185.333 378.766 183.823 380.067 182.353 383.326 181.369 385.508 179.955 387.902 179.211 388.647 178.466 389.391 176.652 389.955 175.179 389.9 Z M211.5 357.941 C214.25 357.958 218.44 357.295 220.812 356.469 223.183 355.643 226.221 353.869 227.563 352.528 228.905 351.186 230.525 348.941 231.164 347.54 231.802 346.138 232.092 344.758 231.807 344.473 231.521 344.188 222.786 344.077 212.394 344.227 198.434 344.429 193.5 344.816 193.5 345.709 193.5 346.375 194.175 347.88 195 349.056 195.825 350.231 196.95 351.779 197.5 352.496 198.05 353.213 200.3 354.725 202.5 355.856 204.924 357.102 208.47 357.923 211.5 357.941 Z M182.5 332.383 C184.7 332.105 187.625 331.485 189 331.005 190.375 330.525 193.3 329.817 195.5 329.432 197.7 329.047 205.575 328.712 213 328.688 221.231 328.662 228.256 329.152 231 329.944 233.475 330.659 238.762 331.449 242.75 331.701 246.738 331.952 250 331.766 250 331.287 250 330.808 247.467 329.174 244.371 327.656 241.276 326.138 237.084 323.169 235.056 321.058 233.028 318.947 228.969 316.005 226.036 314.518 222.048 312.497 219.922 311.984 217.602 312.481 215.896 312.847 213.375 313.146 212 313.146 210.625 313.146 208.097 312.846 206.382 312.479 204.272 312.027 202.176 312.375 199.895 313.554 198.041 314.513 195.394 316.505 194.012 317.982 192.631 319.459 190.384 321.263 189.021 321.992 187.657 322.72 186.035 323.822 185.417 324.44 184.799 325.058 182.427 326.406 180.147 327.434 177.866 328.462 176 329.873 176 330.569 176 331.264 176.563 332.07 177.25 332.36 177.938 332.65 180.3 332.66 182.5 332.383 Z M93.39 315 C92.583 315 91.68 313.651 91.337 311.933 90.999 310.246 90.156 308.299 89.463 307.606 88.771 306.914 86.75 303.456 84.973 299.923 83.196 296.391 81.342 293.243 80.853 292.93 80.364 292.616 79.582 291.028 79.115 289.401 78.648 287.774 77.224 284.431 75.95 281.972 74.676 279.512 73.251 275.25 72.782 272.5 72.313 269.75 71.94 266.825 71.952 266 71.963 265.175 72.395 261.8 72.91 258.5 73.426 255.2 74.383 250.475 75.037 248 75.691 245.525 76.436 240.755 76.692 237.4 77.061 232.565 76.806 230.949 75.463 229.605 74.53 228.673 73.258 228.08 72.634 228.286 71.945 228.514 71.386 231.869 71.21 236.83 71.05 241.324 70.597 245 70.203 245 69.809 245 68.927 243.207 68.243 241.016 67.56 238.824 67 234.527 67 231.466 67 228.405 67.687 224.573 68.526 222.95 69.368 221.322 70.867 220 71.873 220 72.874 220 74.598 220.788 75.704 221.75 76.809 222.712 78.665 225.371 79.829 227.657 80.993 229.943 82.626 233.768 83.458 236.157 84.38 238.805 84.977 244.111 84.985 249.75 84.994 255.26 84.596 259 84 259 83.45 259 83 258.1 83 257 83 255.9 82.334 255 81.519 255 80.704 255 79.789 256.237 79.484 257.75 79.18 259.263 78.496 261.882 77.965 263.571 77.434 265.26 77.007 268.635 77.015 271.071 77.023 273.507 77.724 277.495 78.573 279.933 79.422 282.371 81.059 285.184 82.211 286.183 83.363 287.182 85.147 288 86.174 288 87.202 288 88.555 286.875 89.182 285.5 89.808 284.125 90.847 283 91.49 283 92.132 283 93.685 285.192 94.94 287.872 96.774 291.787 97.093 293.702 96.567 297.622 96.208 300.305 95.669 305.313 95.371 308.75 94.979 313.272 94.431 315 93.39 315 Z M331.642 313.882 C330.822 314.563 330.436 313.658 330.274 310.665 330.149 308.374 329.77 303.387 329.431 299.583 328.905 293.675 329.145 291.961 331.078 287.833 332.323 285.175 333.685 283 334.104 283 334.522 283 335.144 283.877 335.484 284.949 335.824 286.021 336.979 287.176 338.051 287.516 339.123 287.856 340.819 287.875 341.82 287.557 342.82 287.24 344.395 285.394 345.32 283.456 346.433 281.122 347 277.39 347 272.404 347 268.179 346.291 262.709 345.385 259.938 344.481 257.175 343.16 255 342.385 255 341.513 255 341 256.111 341 258 341 259.65 340.519 261 339.931 261 339.219 261 339.007 257.916 339.296 251.75 339.535 246.663 340.173 240.7 340.715 238.5 341.257 236.3 343.214 231.462 345.065 227.749 346.916 224.036 349.233 220.743 350.215 220.432 351.197 220.12 352.836 220.131 353.858 220.455 354.88 220.779 356.508 222.801 357.476 224.948 358.593 227.424 359.031 230.066 358.676 232.175 358.368 234.004 357.744 237.3 357.291 239.5 356.776 241.998 355.909 243.5 354.983 243.5 353.85 243.5 353.382 241.746 353 236.079 352.7 231.623 352.024 228.5 351.309 228.265 350.653 228.049 349.416 229.229 348.559 230.887 347.701 232.544 347 235.291 347 236.99 347 238.689 347.846 241.749 348.881 243.79 349.915 245.83 351.063 249.525 351.431 252 351.799 254.475 352.347 259.172 352.649 262.437 352.954 265.744 352.683 270.175 352.037 272.437 351.399 274.672 350.407 277.85 349.832 279.5 349.257 281.15 348.125 284.295 347.316 286.489 346.507 288.683 345.488 290.708 345.052 290.989 344.615 291.27 342.804 294.391 341.027 297.923 339.25 301.456 337.238 304.905 336.555 305.588 335.872 306.271 334.744 308.203 334.049 309.882 333.354 311.56 332.271 313.36 331.642 313.882 Z M214.179 295.985 C217.92 295.995 220.371 295.486 221.363 294.494 222.191 293.666 223.153 292.092 223.501 290.996 223.849 289.901 225.186 288.74 226.474 288.417 227.761 288.094 229.726 288.318 230.841 288.915 231.956 289.512 234.023 290 235.434 290 236.888 290 238 289.43 238 288.685 238 287.962 236.41 286.612 234.466 285.685 232.522 284.758 229.441 284 227.619 284 225.797 284 223.408 284.788 222.31 285.75 221.212 286.712 219.726 288.625 219.007 290 218.289 291.375 217.205 292.831 216.6 293.235 215.995 293.639 214.781 293.976 213.903 293.985 213.025 293.993 211.408 293.212 210.31 292.25 209.212 291.288 207.726 289.375 207.007 288 206.289 286.625 205.205 285.169 204.6 284.765 203.995 284.361 202.053 284.024 200.284 284.015 198.515 284.007 195.478 284.758 193.534 285.685 191.59 286.612 190 287.962 190 288.685 190 289.43 191.112 290 192.566 290 193.977 290 195.998 289.536 197.057 288.97 198.466 288.215 199.756 288.339 201.87 289.433 203.458 290.254 205.062 291.719 205.434 292.688 205.806 293.657 206.648 294.792 207.305 295.21 207.962 295.628 211.055 295.976 214.179 295.985 Z M193.404 267.675 C194.353 267.311 195.717 266.425 196.435 265.708 197.153 264.99 198.474 262.984 199.37 261.251 200.267 259.517 201 256.052 201 253.55 201 251.047 200.605 249 200.121 249 199.638 249 198.703 250.462 198.044 252.25 197.384 254.038 195.919 257.525 194.787 260 193.655 262.475 192.493 265.363 192.204 266.419 191.794 267.916 192.057 268.192 193.404 267.675 Z M231.012 268 C231.491 268 232.151 267.565 232.479 267.034 232.807 266.503 232.225 264.366 231.186 262.284 230.147 260.203 228.682 256.362 227.93 253.75 227.178 251.137 226.017 249 225.349 249 224.681 249 223.839 249.933 223.477 251.074 223.115 252.214 223.309 254.464 223.909 256.074 224.509 257.683 225.52 260.388 226.157 262.085 226.793 263.782 227.95 265.807 228.728 266.585 229.506 267.363 230.534 268 231.012 268 Z M57.43 239.694 C58.018 239.501 58.61 236.678 58.743 233.421 58.877 230.164 59.52 225.7 60.171 223.5 60.822 221.3 62.017 218.15 62.826 216.5 63.634 214.85 65.198 212.712 66.301 211.75 67.404 210.788 69.347 210 70.619 210 71.891 210 74.518 210.756 76.456 211.68 78.394 212.605 80.265 214.292 80.614 215.43 80.963 216.569 82.074 218.288 83.082 219.25 84.091 220.212 85.313 221 85.798 221 86.282 221 87.201 219.854 87.839 218.453 88.478 217.052 89 213.67 89 210.936 89 206.897 87.95 203.874 83.394 194.788 80.31 188.639 77.562 183.022 77.287 182.304 77.011 181.587 77.309 181 77.948 181 78.588 181 81.815 183.755 85.12 187.122 88.424 190.489 91.887 193.301 92.814 193.372 94.251 193.481 94.545 192.247 94.804 185 95.029 178.704 94.685 175.605 93.474 173.048 92.575 171.149 91.046 168.899 90.077 168.048 89.107 167.196 87.726 165.375 87.007 164 86.289 162.625 85.385 161.275 85 161 84.615 160.725 83.711 159.384 82.992 158.021 82.273 156.657 81.151 155.008 80.499 154.356 79.847 153.704 78.793 151.782 78.157 150.085 77.52 148.388 76.58 145.763 76.066 144.25 75.552 142.737 74.826 139.7 74.453 137.5 74.079 135.3 73.8 130.125 73.832 126 73.865 121.875 74.179 115.462 74.531 111.75 74.883 108.038 75.558 105 76.031 105 76.505 105 77.073 110.962 77.293 118.25 77.514 125.538 78.149 133.3 78.703 135.5 79.257 137.7 80.451 141.188 81.355 143.25 82.26 145.313 83.672 148.584 84.493 150.519 85.314 152.455 87.971 156.024 90.398 158.45 92.824 160.877 96.765 163.868 99.155 165.097 101.545 166.326 105.075 167.686 107 168.121 108.925 168.555 111.666 169.195 113.092 169.542 114.875 169.976 116.23 169.627 117.433 168.424 118.754 167.103 119.021 165.799 118.526 163.088 118.165 161.115 117.667 156.8 117.419 153.5 117.17 150.2 116.445 145.7 115.806 143.5 115.167 141.3 113.974 138.15 113.154 136.5 112.333 134.85 111.26 131.7 110.769 129.5 110.277 127.3 109.394 123.25 108.806 120.5 108.219 117.75 107.735 111.675 107.732 107 107.729 102.325 108.031 96.925 108.404 95 108.777 93.075 109.592 89.7 110.215 87.5 110.838 85.3 111.761 83.05 112.266 82.5 112.827 81.889 112.92 83.642 112.506 87 112.133 90.025 111.811 96.775 111.791 102 111.771 107.225 112.077 113.3 112.471 115.5 112.866 117.7 113.823 121.435 114.599 123.8 115.375 126.164 116.968 129.989 118.139 132.3 119.31 134.61 120.591 136.725 120.985 137 121.378 137.275 122.276 138.591 122.978 139.923 123.681 141.256 125.263 143.354 126.494 144.585 127.724 145.815 130.704 147.837 133.116 149.077 135.527 150.317 139.3 151.746 141.5 152.253 143.7 152.76 148.65 153.598 152.5 154.115 156.35 154.632 161.667 155.313 164.316 155.628 166.964 155.944 169.4 155.933 169.728 155.605 170.056 155.277 169.773 153.797 169.098 152.316 168.423 150.834 167.062 148.92 166.074 148.061 165.086 147.203 162.825 143.621 161.05 140.103 159.275 136.585 156.905 130.96 155.783 127.603 154.661 124.246 153.294 119.25 152.746 116.5 152.197 113.75 151.754 108.125 151.761 104 151.767 99.875 152.09 94.885 152.477 92.912 153.007 90.21 152.771 88.914 151.519 87.662 150.214 86.357 147.888 85.997 140.679 85.985 135.079 85.977 129.796 85.378 127.13 84.449 124.726 83.612 121.46 82.255 119.871 81.433 117.708 80.315 116.481 80.207 114.991 81.005 113.204 81.961 113 81.756 113 79.007 113 77.322 111.732 73.368 110.181 70.221 108.631 67.075 106.828 62.7 106.175 60.5 105.521 58.3 104.877 53.8 104.743 50.5 104.538 45.425 104.224 44.522 102.708 44.646 101.722 44.726 100.147 45.668 99.208 46.739 98.268 47.81 96.428 49.254 95.118 49.949 93.807 50.644 90.818 53.13 88.474 55.474 86.13 57.818 83.644 60.807 82.949 62.118 82.254 63.428 80.923 65.175 79.991 66 79.059 66.825 77.477 69.075 76.476 71 75.475 72.925 74.468 75.449 74.238 76.609 73.976 77.932 74.44 78.955 75.483 79.355 76.397 79.706 78.051 79.508 79.158 78.915 80.265 78.323 81.438 78.105 81.764 78.431 82.09 78.757 81.039 81.793 79.428 85.179 77.818 88.565 75.976 91.864 75.336 92.51 74.696 93.156 71.127 99.718 67.406 107.092 63.685 114.467 59.529 123.65 58.171 127.5 56.814 131.35 55.249 136.75 54.694 139.5 54.139 142.25 53.69 154.175 53.697 166 53.704 177.825 54.025 189.3 54.409 191.5 54.794 193.7 55.474 196.402 55.921 197.504 56.367 198.606 57.069 201.037 57.479 202.904 58.136 205.894 58.013 206.219 56.454 205.621 55.481 205.247 53.915 204.055 52.975 202.971 52.035 201.887 50.828 201 50.293 201 49.759 201 48.799 202.146 48.161 203.547 47.522 204.948 47 210.588 47 216.08 47 224.89 47.311 226.681 49.641 231.283 51.093 234.152 53.199 237.298 54.321 238.273 55.442 239.249 56.841 239.888 57.43 239.694 Z M179.318 235.732 C179.978 235.515 180.637 232.956 180.81 229.935 181.041 225.917 180.536 223.28 178.845 219.668 177.593 216.995 175.878 214.016 175.034 213.048 174.19 212.079 171.475 210.248 169 208.978 166.525 207.708 162.7 206.245 160.5 205.726 158.3 205.208 153.828 204.563 150.563 204.294 147.103 204.008 142.93 204.337 140.563 205.082 138.328 205.785 134.282 207.453 131.571 208.788 128.86 210.123 126.045 211.812 125.315 212.542 124.585 213.272 123.132 214.141 122.086 214.473 121.041 214.805 119.917 215.775 119.589 216.628 119.262 217.482 119.247 218.59 119.556 219.09 119.865 219.591 121.239 220 122.609 220 123.979 220 126.539 220.742 128.3 221.648 130.06 222.554 132.205 224.103 133.067 225.09 133.929 226.076 136.629 227.578 139.067 228.427 142.281 229.546 147.625 229.979 158.5 230.001 166.75 230.017 173.995 230.361 174.6 230.765 175.205 231.169 176.248 232.54 176.918 233.811 177.588 235.082 178.667 235.946 179.318 235.732 Z M246.464 235 C247.132 235 248.172 233.918 248.774 232.596 249.687 230.593 250.838 230.086 255.685 229.552 258.883 229.2 263.525 228.892 266 228.867 268.475 228.842 272.119 229.128 274.097 229.503 276.451 229.948 279.382 229.61 282.58 228.525 285.266 227.612 287.698 226.513 287.982 226.083 288.267 225.652 289.625 224.715 291 224 292.375 223.285 293.806 222.23 294.18 221.654 294.555 221.078 297.03 220.356 299.68 220.048 303.401 219.615 304.47 219.101 304.369 217.792 304.297 216.859 303.613 215.47 302.848 214.706 302.084 213.941 300.343 212.727 298.979 212.008 297.616 211.289 296.275 210.385 296 210 295.725 209.615 294.384 208.711 293.021 207.992 291.657 207.273 289.937 206.08 289.199 205.342 288.233 204.376 284.659 204 276.445 204 265.288 204 264.865 204.083 257.514 207.721 253.378 209.767 249.741 212.239 249.432 213.215 249.122 214.19 248.157 215.7 247.286 216.571 246.416 217.442 245.305 220.032 244.819 222.327 244.333 224.622 243.872 226.95 243.794 227.5 243.717 228.05 244.013 229.962 244.452 231.75 244.891 233.538 245.797 235 246.464 235 Z M361.579 216.962 C362.173 216.983 363.61 214.863 364.774 212.25 365.938 209.637 367.335 205.925 367.878 204 368.42 202.075 369.338 198.7 369.916 196.5 370.494 194.3 371.221 189.575 371.53 186 371.84 182.425 372.094 177.025 372.094 174 372.094 170.975 371.84 165.575 371.53 162 371.221 158.425 370.56 153.925 370.061 152 369.563 150.075 368.481 146.194 367.655 143.375 366.83 140.556 364.73 135.427 362.989 131.978 361.248 128.529 358.905 122.96 357.783 119.603 356.661 116.246 355.379 111.475 354.934 109 354.489 106.525 353.707 102.7 353.195 100.5 352.684 98.3 351.608 94.7 350.805 92.5 350.002 90.3 347.635 85.125 345.545 81 343.455 76.875 341.42 73.275 341.022 73 340.625 72.725 339.741 71.44 339.058 70.144 338.375 68.848 334.08 64.052 329.514 59.486 324.948 54.92 320.162 50.622 318.877 49.934 317.592 49.247 315.917 48.06 315.155 47.297 314.392 46.535 313.258 46.087 312.634 46.303 312.01 46.519 311.628 48.001 311.784 49.598 311.94 51.194 312.502 55.538 313.034 59.25 313.565 62.962 314.47 69.263 315.044 73.25 315.618 77.237 316.332 83.313 316.629 86.75 317.076 91.909 316.906 93 315.653 93 314.818 93 313.85 92.103 313.502 91.006 313.154 89.909 312.295 88.437 311.592 87.735 310.89 87.033 309.724 85.343 309.001 83.979 308.278 82.616 306.927 80.825 306 80 305.073 79.175 303.746 77.428 303.051 76.118 302.356 74.807 299.823 71.77 297.42 69.368 295.018 66.965 292.543 65 291.919 65 291.296 65 291.018 65.604 291.301 66.343 291.585 67.082 293.459 70.947 295.466 74.933 297.473 78.919 298.96 83.152 298.77 84.34 298.522 85.888 296.912 83.525 293.087 76 290.152 70.225 287.424 65.275 287.025 65 286.626 64.725 285.711 63.375 284.993 62 284.274 60.625 282.927 58.825 282 58 281.073 57.175 279.728 55.394 279.011 54.043 278.294 52.691 275.589 49.522 273 47 270.411 44.478 267.705 41.318 266.988 39.978 266.271 38.638 265.183 37.041 264.571 36.429 263.959 35.817 262.343 34.724 260.979 34.001 259.616 33.278 257.825 31.927 257 31 256.175 30.073 254.375 28.726 253 28.007 251.625 27.289 250.275 26.385 250 26 249.725 25.615 248.375 24.715 247 24 245.625 23.285 244.275 22.376 244 21.979 243.725 21.583 240.707 19.853 237.293 18.136 233.88 16.42 227.725 13.887 223.617 12.507 217.152 10.337 214.381 10 203.012 10 193.692 10 188.459 10.463 184.999 11.595 182.317 12.472 179.386 13.728 178.487 14.386 177.101 15.399 177.04 15.994 178.089 18.295 178.769 19.787 179.061 21.273 178.737 21.596 178.414 21.919 175.529 21.276 172.325 20.167 169.121 19.057 164.25 17.878 161.5 17.547 158.75 17.215 155.375 16.926 154 16.905 152.625 16.883 149.25 17.265 146.5 17.753 143.75 18.241 138.641 20.101 135.147 21.887 131.653 23.672 127.7 26.115 126.363 27.316 125.026 28.517 123.213 30.228 122.333 31.117 121.453 32.006 119.223 34.349 117.377 36.323 115.531 38.298 113.347 41.845 112.525 44.207 111.676 46.642 111.023 52.039 111.015 56.679 111.004 62.58 111.412 65.269 112.48 66.337 113.293 67.151 114.487 68.974 115.131 70.389 115.776 71.804 117.133 73.225 118.146 73.546 119.159 73.868 120.582 74.724 121.307 75.45 122.032 76.175 124.622 77.803 127.063 79.067 129.503 80.332 133.75 81.763 136.5 82.249 139.25 82.734 143.033 83.214 144.907 83.316 146.78 83.417 148.488 82.99 148.701 82.366 148.915 81.742 148.465 80.608 147.703 79.845 146.94 79.083 145.727 77.343 145.008 75.979 144.289 74.616 143.353 73.27 142.928 72.989 142.503 72.708 141.451 70.458 140.592 67.989 139.732 65.52 139.023 62.038 139.015 60.25 139.007 58.462 139.482 57 140.071 57 140.661 57 141.715 57.572 142.413 58.271 143.112 58.969 144.249 60.596 144.939 61.886 145.629 63.176 149.023 67.06 152.481 70.519 155.94 73.977 159.833 77.37 161.134 78.06 162.436 78.75 164.175 80.073 165 81 165.825 81.927 167.625 83.274 169 83.993 170.375 84.711 171.725 85.615 172 86 172.275 86.385 173.616 87.289 174.979 88.008 176.343 88.727 177.992 89.849 178.644 90.501 179.296 91.153 181.33 92.247 183.165 92.932 184.999 93.616 188.531 95.064 191.014 96.149 194.144 97.516 197.187 98.026 200.935 97.81 203.91 97.64 206.511 96.99 206.716 96.366 206.921 95.742 206.446 94.589 205.661 93.803 204.875 93.018 203.219 90.378 201.982 87.937 200.744 85.497 199.402 83.275 199 83 198.598 82.725 197.248 80.475 196 78 194.752 75.525 193.401 73.275 192.997 73 192.593 72.725 191.052 70.1 189.572 67.167 188.093 64.234 187.036 60.859 187.223 59.667 187.505 57.873 187.968 58.274 189.916 62 191.21 64.475 192.6 66.725 193.005 67 193.411 67.275 195.208 70.425 197 74 198.792 77.575 200.583 80.725 200.979 81 201.376 81.275 202.285 82.625 203 84 203.715 85.375 204.615 86.725 205 87 205.385 87.275 206.293 88.625 207.017 90 207.74 91.375 209.541 93.631 211.018 95.012 212.495 96.394 214.478 99.023 215.425 100.855 217.147 104.185 217.147 104.185 211.324 103.657 208.121 103.367 203.745 102.819 201.6 102.438 198.109 101.819 197.753 101.943 198.202 103.623 198.478 104.655 200.812 109.686 203.388 114.803 207.002 121.978 209.763 125.795 215.462 131.494 219.526 135.558 224.735 139.844 227.037 141.019 229.34 142.194 233.986 144.077 237.362 145.205 240.738 146.332 244.771 147.478 246.325 147.752 247.879 148.025 249.601 147.799 250.152 147.248 250.82 146.58 250.13 144.22 248.077 140.152 246.374 136.779 245 132.481 245 130.529 245 128.588 245.382 127 245.848 127 246.315 127 247.503 128.79 248.49 130.978 249.476 133.165 251.117 135.22 252.136 135.543 253.155 135.866 254.624 136.767 255.402 137.545 256.18 138.323 257.985 139.491 259.412 140.142 260.84 140.793 262.212 141.121 262.462 140.872 262.711 140.622 261.59 136.612 259.971 131.959 257.771 125.638 257.023 121.667 257.013 116.25 257.006 112.263 257.373 109 257.829 109 258.285 109 259.748 111.329 261.079 114.176 262.411 117.023 263.991 119.845 264.592 120.447 265.193 121.049 266.273 122.657 266.992 124.021 267.711 125.384 268.615 126.725 269 127 269.385 127.275 270.293 128.625 271.017 130 271.74 131.375 273.533 133.625 275 135 276.467 136.375 278.25 138.591 278.962 139.923 279.674 141.256 281.245 143.336 282.455 144.545 283.664 145.755 285.744 147.326 287.077 148.038 288.409 148.75 290.631 150.541 292.012 152.018 293.394 153.495 296.024 155.478 297.855 156.425 299.687 157.372 301.344 157.99 301.537 157.796 301.73 157.603 301.434 154.758 300.88 151.473 300.326 148.188 299.471 142.575 298.981 139 298.49 135.425 297.794 130.813 297.435 128.75 296.932 125.865 297.11 125 298.207 125 298.991 125 300.953 127.775 302.566 131.168 304.18 134.56 305.991 137.832 306.592 138.438 307.193 139.045 308.276 140.648 309 142 309.724 143.352 310.888 145.031 311.587 145.729 312.285 146.428 313.339 147 313.929 147 314.646 147 315 141.728 315 131.059 315 122.291 315.418 114.86 315.929 114.544 316.459 114.216 317.085 117.727 317.389 122.735 317.682 127.556 318.366 135.55 318.908 140.5 319.451 145.45 320.354 152.2 320.914 155.5 321.475 158.8 322.216 163.3 322.561 165.5 322.906 167.7 323.784 171.321 324.513 173.546 325.242 175.771 326.633 179.259 327.604 181.296 328.576 183.333 329.92 185 330.592 185 331.264 185 332.811 181.962 334.029 178.25 335.247 174.538 336.639 169.362 337.122 166.75 337.605 164.138 338.513 159.638 339.141 156.75 339.769 153.862 340.46 141.487 340.677 129.25 340.895 117.013 341.468 107 341.951 107 342.434 107 343.128 110.038 343.493 113.75 343.858 117.462 344.157 127.475 344.158 136 344.158 144.525 343.709 156 343.16 161.5 342.611 167 341.704 173.75 341.144 176.5 340.584 179.25 339.689 183.3 339.156 185.5 338.622 187.7 337.757 190.854 337.232 192.509 336.707 194.164 335.055 197.931 333.56 200.881 331.925 204.107 331.206 206.606 331.754 207.154 332.256 207.656 333.416 207.778 334.333 207.426 335.25 207.074 336 206.384 336 205.893 336 205.402 336.675 205 337.5 205 338.583 205 339 206.111 339 209 339 211.2 339.48 213 340.066 213 340.652 213 342.114 212.479 343.316 211.843 344.517 211.207 346.273 209.804 347.218 208.727 348.398 207.382 349.652 206.958 351.218 207.375 352.473 207.709 353.995 208.324 354.6 208.741 355.205 209.159 356.279 210.597 356.986 211.937 357.692 213.277 358.772 214.948 359.385 215.649 359.998 216.35 360.986 216.941 361.579 216.962 Z M309.857 192.956 C310.668 192.982 310.979 192.388 310.63 191.477 310.308 190.64 308.988 188.897 307.696 187.605 306.404 186.313 304.256 184.681 302.923 183.978 301.591 183.276 300.275 182.376 300 181.979 299.725 181.583 296.575 179.777 293 177.967 289.425 176.157 284.7 174.239 282.5 173.706 280.3 173.172 274.45 172.535 269.5 172.29 264.55 172.045 258.813 172.33 256.75 172.923 254.688 173.516 249.329 175.139 244.842 176.53 240.255 177.952 235.877 179.988 234.842 181.182 233.829 182.35 233 184.105 233 185.082 233 186.058 233.746 187.603 234.658 188.515 235.583 189.44 237.241 189.965 238.408 189.704 239.559 189.446 242.975 188.478 246 187.554 249.025 186.63 252.882 185.452 254.571 184.937 256.26 184.422 263.685 184.006 271.071 184.013 283.455 184.026 285.142 184.259 292.75 187.015 297.287 188.658 302.687 190.657 304.75 191.458 306.812 192.258 309.111 192.932 309.857 192.956 Z M118.25 191.752 C119.488 191.488 122.3 190.583 124.5 189.741 126.7 188.899 130.969 187.262 133.986 186.105 138.643 184.318 141.638 184 153.81 184 166.687 184 168.929 184.268 175.824 186.634 180.046 188.082 184.441 189.471 185.592 189.72 186.744 189.969 188.43 189.427 189.342 188.515 190.254 187.603 191 185.547 191 183.945 191 181.466 190.294 180.686 186.25 178.697 183.637 177.412 179.475 175.799 177 175.113 174.525 174.426 171.118 173.445 169.429 172.932 167.74 172.419 162.194 172 157.105 172 149.819 172 146.224 172.547 140.191 174.572 135.977 175.987 132.298 177.494 132.015 177.922 131.732 178.35 130.375 179.285 129 180 127.625 180.715 126.275 181.615 126 182 125.725 182.385 124.409 183.276 123.077 183.978 121.744 184.681 119.606 186.303 118.327 187.583 117.047 188.862 116 190.432 116 191.071 116 191.752 116.932 192.034 118.25 191.752 Z M224.422 155.756 C225.479 155.615 226.511 154.99 226.716 154.366 226.921 153.742 226.465 152.608 225.703 151.845 224.94 151.083 223.733 149.37 223.021 148.04 222.309 146.71 219.15 143.092 216 140 212.85 136.908 209.691 133.29 208.979 131.96 208.267 130.63 207.193 129.039 206.592 128.425 205.991 127.81 203.621 123.301 201.325 118.404 199.029 113.507 196.617 108.049 195.964 106.275 195.312 104.501 194.011 102.165 193.072 101.083 192.134 100.001 189.596 98.493 187.433 97.731 185.27 96.969 180.125 94.631 176 92.535 171.875 90.44 167.825 87.958 167 87.02 166.175 86.082 164.408 84.735 163.074 84.028 161.74 83.32 157.682 79.762 154.056 76.121 150.43 72.479 146.67 68.871 145.7 68.101 144.068 66.807 144.014 66.905 144.969 69.418 145.537 70.912 146.503 73.071 147.115 74.215 147.727 75.359 149.75 77.817 151.611 79.678 153.471 81.538 155.67 83.32 156.497 83.637 157.324 83.954 158 84.648 158 85.178 158 85.709 157.284 86.859 156.41 87.733 155.249 88.894 154.996 90.295 155.474 92.912 155.835 94.885 156.334 99.2 156.584 102.5 156.834 105.8 157.67 110.581 158.442 113.125 159.214 115.669 161.253 120.539 162.974 123.948 164.695 127.357 168.522 132.565 171.478 135.522 174.435 138.478 179.643 142.305 183.052 144.026 186.461 145.747 191.556 147.83 194.375 148.655 197.194 149.481 201.3 150.601 203.5 151.146 205.7 151.69 208.882 152.555 210.571 153.068 212.26 153.581 214.96 154.007 216.571 154.015 218.182 154.024 220.175 154.476 221 155.021 221.825 155.566 223.365 155.896 224.422 155.756 Z M171.5 42.5 C174.6 45.01 176.024 45.91 176.664 46.12 177.304 46.329 178.654 47.197 179.664 48.049 180.674 48.901 183.947 50.701 186.938 52.049 189.928 53.397 193.078 55.189 193.938 56.031 194.797 56.872 196.625 58.043 198 58.631 199.375 59.22 201.85 60.151 203.5 60.701 205.15 61.252 209.425 63.074 213 64.751 216.575 66.428 221.75 68.727 224.5 69.86 227.25 70.992 232.538 72.837 236.251 73.958 239.964 75.079 245.814 76.939 249.251 78.092 252.688 79.245 258.564 81.278 262.309 82.609 266.053 83.941 271.903 86.432 275.309 88.144 278.714 89.857 281.725 91.583 282 91.979 282.275 92.376 283.625 93.285 285 94 286.375 94.715 287.725 95.615 288 96 288.275 96.385 289.625 97.284 291 97.996 292.375 98.709 293.832 99.851 294.237 100.534 294.643 101.218 295.993 102.033 297.237 102.346 298.482 102.658 300.162 103.834 300.971 104.957 301.78 106.081 303.017 107 303.721 107 304.424 107 305 106.1 305 105 305 103.9 305.401 103 305.891 103 306.38 103 307.055 104.575 307.391 106.5 307.726 108.425 308.274 111.575 308.609 113.5 308.971 115.578 308.811 117 308.216 117 307.665 117 306.958 116.332 306.644 115.516 306.331 114.699 303.483 111.437 300.316 108.266 297.149 105.095 292.839 101.726 290.738 100.781 288.637 99.835 286.331 98.485 285.613 97.781 284.895 97.076 280.301 94.634 275.404 92.354 270.507 90.074 264.25 87.276 261.5 86.137 258.75 84.998 249.525 81.79 241 79.008 232.475 76.226 222.575 72.661 219 71.084 215.425 69.508 210.053 67.156 207.062 65.859 204.072 64.562 200.922 62.791 200.062 61.924 199.203 61.057 196.322 59.348 193.66 58.127 190.02 56.456 188.487 56.181 187.479 57.017 186.45 57.871 185.872 57.63 184.989 55.979 184.356 54.797 182.862 52.695 181.669 51.308 180.476 49.921 178.6 48.436 177.5 48.008 176.4 47.58 174.6 46.165 173.5 44.865 Z M304.117 99 C303.631 99 302.884 97.987 302.456 96.75 302.029 95.513 301.483 93.6 301.244 92.5 301.004 91.4 300.359 89.953 299.81 89.284 299.26 88.615 298.998 87.507 299.226 86.821 299.455 86.136 300.397 87.09 301.321 88.941 302.244 90.793 303 93.112 303 94.095 303 95.078 303.45 96.16 304 96.5 304.55 96.84 305 97.541 305 98.059 305 98.577 304.602 99 304.117 99 Z M312.216 81 C312.791 81 312.989 79.612 312.682 77.75 312.386 75.962 311.712 72.7 311.184 70.5 310.655 68.3 309.307 63.738 308.189 60.362 307.07 56.986 305.16 52.273 303.944 49.89 302.728 47.507 301.352 44.226 300.885 42.599 300.418 40.972 299.639 39.384 299.153 39.07 298.666 38.757 297.267 36.524 296.042 34.109 294.818 31.694 293.295 29.074 292.658 28.287 292.021 27.5 290.774 26.153 289.886 25.292 288.999 24.431 287.147 22.704 285.771 21.452 284.395 20.201 281.45 18.25 279.227 17.116 277.005 15.982 273.232 14.374 270.843 13.542 268.031 12.562 262.738 12.024 255.832 12.015 249.964 12.007 244.452 12.273 243.582 12.607 242.712 12.941 242 14.036 242 15.04 242 16.044 242.897 17.15 243.994 17.498 245.091 17.846 246.563 18.705 247.265 19.408 247.967 20.11 249.657 21.273 251.021 21.992 252.384 22.711 253.725 23.615 254 24 254.275 24.385 255.625 25.293 257 26.017 258.375 26.74 260.625 28.533 262 30 263.375 31.467 265.625 33.267 267 34 268.375 34.733 270.625 36.533 272 38 273.375 39.467 275.559 41.233 276.853 41.924 278.148 42.615 283.394 47.369 288.513 52.487 293.631 57.606 298.38 62.852 299.067 64.147 299.753 65.441 301.073 67.175 302 68 302.927 68.825 304.277 70.625 305 72 305.723 73.375 307.13 75.216 308.128 76.092 309.125 76.967 310.228 78.43 310.578 79.342 310.928 80.254 311.665 81 312.216 81 Z" fill="#000000" fill-opacity="1" stroke="none"/>
</svg>
