<?xml version="1.0" encoding="UTF-8"?>
<svg width="578px" height="578px" viewBox="0 0 578 578" xmlns="http://www.w3.org/2000/svg" xmlns:xlink="http://www.w3.org/1999/xlink" version="1.1">
 <!-- Generated by Pixelmator Pro 2.0.8 -->
 <path id="Shape" d="M292.5 576.508 C277.65 576.703 261.651 576.461 256.947 575.969 252.242 575.477 242.466 573.918 235.222 572.506 227.977 571.093 217.426 568.587 211.775 566.936 206.124 565.284 197 562.305 191.5 560.315 186 558.324 177 554.665 171.5 552.183 166 549.701 157 545.233 151.5 542.253 146 539.273 135.055 532.559 127.178 527.332 119.301 522.106 109.668 514.83 105.771 511.165 100.679 506.376 97.85 502.722 95.717 498.183 92.872 492.129 92.768 491.421 93.218 481.183 93.605 472.355 94.31 468.653 97.277 459.866 99.251 454.018 103.405 444.172 106.506 437.987 109.608 431.802 115.096 421.963 118.702 416.121 122.308 410.279 128.789 400.55 133.103 394.5 137.417 388.45 144.623 378.775 149.116 373 153.608 367.225 162.483 356.457 168.838 349.071 175.192 341.685 185.87 329.76 192.567 322.571 199.264 315.382 212.789 301.611 222.622 291.97 232.455 282.328 245.45 269.989 251.5 264.549 257.55 259.109 265.65 252.028 269.5 248.813 273.35 245.599 279.541 240.869 283.258 238.303 289.98 233.661 290.032 233.645 293.258 235.213 295.041 236.08 300.775 240.356 306 244.717 311.225 249.078 322.25 258.97 330.5 266.7 338.75 274.43 356.553 291.947 370.062 305.627 383.571 319.307 399.665 336.152 405.826 343.06 411.987 349.968 421.322 360.993 426.571 367.56 431.819 374.127 439.998 384.969 444.745 391.652 449.493 398.336 456.163 408.236 459.568 413.652 462.974 419.069 468.101 427.882 470.963 433.239 473.825 438.595 477.754 446.872 479.695 451.632 481.635 456.393 484.085 463.26 485.138 466.894 486.192 470.527 487.326 476.893 487.659 481.04 488.099 486.526 487.825 490.09 486.653 494.123 485.766 497.172 483.569 501.526 481.771 503.798 479.972 506.07 475.8 510.233 472.5 513.049 469.2 515.865 460.875 521.918 454 526.501 447.125 531.084 436.487 537.593 430.36 540.965 424.233 544.337 413.658 549.614 406.86 552.691 400.062 555.768 389.775 559.963 384 562.014 378.225 564.064 367.65 567.134 360.5 568.836 353.35 570.539 341.2 572.881 333.5 574.042 322.635 575.679 313.454 576.232 292.5 576.508 Z M369.844 158.5 C381.977 147.156 390.45 139.458 396.5 134.075 402.55 128.693 411.55 121.045 416.5 117.08 421.45 113.115 430.072 106.756 435.659 102.947 441.246 99.139 449.872 93.979 454.826 91.48 459.78 88.982 467.134 85.803 471.167 84.416 475.2 83.03 480.525 81.667 483 81.388 486.492 80.995 488.284 81.369 491 83.058 492.925 84.255 497.948 88.763 502.163 93.075 506.378 97.388 512.736 104.648 516.293 109.208 519.849 113.769 526.342 122.983 530.72 129.685 535.099 136.386 541.857 148.086 545.737 155.685 549.617 163.283 555.295 175.8 558.355 183.5 561.415 191.2 565.508 203.034 567.45 209.799 569.393 216.563 571.889 226.549 572.998 231.99 574.107 237.431 575.734 251.247 576.614 262.691 577.689 276.665 578.017 288.755 577.615 299.5 577.285 308.3 576.546 320.45 575.973 326.5 575.401 332.55 573.862 342.271 572.554 348.103 571.246 353.934 568.509 364.284 566.472 371.103 564.434 377.921 560.771 388.675 558.332 395 555.892 401.325 551.421 411.391 548.395 417.368 545.369 423.345 539.332 434.166 534.979 441.415 530.625 448.663 525.544 456.352 523.687 458.5 520.31 462.406 520.31 462.406 521.282 454.953 521.816 450.854 521.983 442.775 521.653 437 521.323 431.225 520.139 422.225 519.023 417 517.906 411.775 515.441 402.55 513.546 396.5 511.65 390.45 507.79 379.884 504.969 373.021 502.147 366.157 496.538 353.782 492.503 345.521 488.469 337.259 481.387 323.75 476.764 315.5 472.142 307.25 463.927 293.3 458.509 284.5 453.091 275.7 444.174 261.75 438.694 253.5 433.213 245.25 424.668 232.65 419.705 225.5 414.742 218.35 405.69 205.762 399.59 197.527 393.491 189.291 384.302 177.141 379.172 170.527 L369.844 158.5 Z M58.417 461 C58.15 461 53.869 454.813 48.904 447.25 43.938 439.688 36.525 426.75 32.43 418.5 28.335 410.25 23.172 398.649 20.956 392.719 18.741 386.79 15.354 376.215 13.43 369.219 11.506 362.224 8.853 351.1 7.536 344.5 6.219 337.9 4.321 325.975 3.32 318 2.237 309.368 1.502 297.025 1.505 287.5 1.508 276.15 2.176 266.85 3.804 255.5 5.066 246.7 7.216 233.93 8.581 227.122 9.946 220.314 13.472 207.489 16.416 198.622 19.36 189.755 24.279 176.915 27.348 170.088 30.416 163.262 35.459 153.137 38.553 147.588 41.648 142.04 47.481 132.55 51.516 126.5 55.552 120.45 61.378 112.35 64.464 108.5 67.549 104.65 73.892 97.609 78.558 92.854 83.224 88.099 88.713 83.415 90.754 82.446 93.882 80.962 95.255 80.853 99.483 81.753 102.242 82.341 108.385 84.235 113.133 85.963 117.881 87.691 125.756 91.381 130.633 94.164 135.51 96.947 143.775 102.273 149 105.999 154.225 109.726 164.125 117.5 171 123.276 177.875 129.052 189.317 139.115 196.426 145.639 203.536 152.162 209.491 157.95 209.66 158.5 209.829 159.05 205.025 165.741 198.985 173.369 192.944 180.996 183.116 193.821 177.143 201.869 171.171 209.916 161.3 223.7 155.207 232.5 149.114 241.3 138.952 256.636 132.624 266.579 126.296 276.523 116.107 293.398 109.982 304.079 103.856 314.761 94.623 332.05 89.465 342.5 84.306 352.95 77.582 367.685 74.521 375.245 71.461 382.805 67.366 394.505 65.422 401.245 63.478 407.985 60.958 418.9 59.822 425.5 58.186 435.011 57.876 439.937 58.329 449.25 58.644 455.712 58.683 461 58.417 461 Z M289.703 81.568 C287.255 81.894 283.908 80.667 275.5 76.361 269.45 73.262 258.65 68.138 251.5 64.973 244.35 61.808 232.875 57.183 226 54.695 219.125 52.208 209 48.996 203.5 47.558 198 46.121 189.45 44.216 184.5 43.325 179.55 42.434 169.425 41.573 162 41.411 154.575 41.249 147.712 41.09 146.75 41.058 145.788 41.026 145 40.589 145 40.086 145 39.583 149.837 36.702 155.75 33.685 161.663 30.667 171.225 26.188 177 23.731 182.775 21.274 193.8 17.217 201.5 14.716 209.2 12.215 220.675 9.022 227 7.621 233.325 6.22 244.125 4.269 251 3.286 260.336 1.952 269.827 1.5 288.5 1.5 302.328 1.5 318.587 2.075 324.884 2.788 331.145 3.496 341.552 5.149 348.011 6.462 354.471 7.775 364.629 10.258 370.586 11.979 376.542 13.7 386.1 16.873 391.825 19.031 397.55 21.188 407.667 25.551 414.307 28.727 420.947 31.902 428.656 35.951 431.44 37.724 436.5 40.949 436.5 40.949 425.211 40.974 419.001 40.988 409.551 41.474 404.211 42.054 398.87 42.633 389.68 44.18 383.789 45.49 377.897 46.801 366.941 49.924 359.441 52.43 351.941 54.936 339.661 59.657 332.152 62.92 324.643 66.184 312.741 71.619 305.703 74.998 298.665 78.376 291.465 81.333 289.703 81.568 Z" fill="#ffffff" fill-opacity="1" stroke="none"/>
</svg>
